0
SECTION
2
HEADER
9
$ACADVER
1
AC1009
9
$INSUNITS
70
4
9
$MEASUREMENT
70
1
0
ENDSEC
0
SECTION
2
TABLES
0
TABLE
2
LAYER
70
2
0
LAYER
2
CUT
70
0
62
1
6
CONTINUOUS
0
LAYER
2
ENGRAVE
70
0
62
7
6
CONTINUOUS
0
ENDTAB
0
ENDSEC
0
SECTION
2
ENTITIES
0
POLYLINE
8
CUT
66
1
70
1
0
VERTEX
8
CUT
10
14.2000
20
225.7710
0
VERTEX
8
CUT
10
13.0000
20
225.7710
0
VERTEX
8
CUT
10
13.0000
20
315.4710
0
VERTEX
8
CUT
10
15.4000
20
315.4710
0
VERTEX
8
CUT
10
15.4000
20
225.7710
0
SEQEND
0
POLYLINE
8
CUT
66
1
70
1
0
VERTEX
8
CUT
10
136.1000
20
225.7710
0
VERTEX
8
CUT
10
134.9000
20
225.7710
0
VERTEX
8
CUT
10
134.9000
20
315.4710
0
VERTEX
8
CUT
10
137.3000
20
315.4710
0
VERTEX
8
CUT
10
137.3000
20
225.7710
0
SEQEND
0
POLYLINE
8
CUT
66
1
70
1
0
VERTEX
8
CUT
10
75.1500
20
210.7710
0
VERTEX
8
CUT
10
68.3000
20
210.7710
0
VERTEX
8
CUT
10
68.3000
20
213.1710
0
VERTEX
8
CUT
10
82.0000
20
213.1710
0
VERTEX
8
CUT
10
82.0000
20
210.7710
0
SEQEND
0
POLYLINE
8
CUT
66
1
70
1
0
VERTEX
8
CUT
10
75.1500
20
217.4710
0
VERTEX
8
CUT
10
73.9500
20
217.4710
0
VERTEX
8
CUT
10
73.9500
20
233.1710
0
VERTEX
8
CUT
10
76.3500
20
233.1710
0
VERTEX
8
CUT
10
76.3500
20
217.4710
0
SEQEND
0
POLYLINE
8
CUT
66
1
70
1
0
VERTEX
8
CUT
10
36.1500
20
219.3710
0
VERTEX
8
CUT
10
27.3000
20
219.3710
0
VERTEX
8
CUT
10
27.3000
20
249.0710
0
VERTEX
8
CUT
10
45.0000
20
249.0710
0
VERTEX
8
CUT
10
45.0000
20
219.3710
0
SEQEND
0
POLYLINE
8
CUT
66
1
70
1
0
VERTEX
8
CUT
10
58.1500
20
219.3710
0
VERTEX
8
CUT
10
51.3000
20
219.3710
0
VERTEX
8
CUT
10
51.3000
20
233.0710
0
VERTEX
8
CUT
10
65.0000
20
233.0710
0
VERTEX
8
CUT
10
65.0000
20
219.3710
0
SEQEND
0
POLYLINE
8
CUT
66
1
70
1
0
VERTEX
8
CUT
10
58.1500
20
235.3710
0
VERTEX
8
CUT
10
51.3000
20
235.3710
0
VERTEX
8
CUT
10
51.3000
20
249.0710
0
VERTEX
8
CUT
10
65.0000
20
249.0710
0
VERTEX
8
CUT
10
65.0000
20
235.3710
0
SEQEND
0
POLYLINE
8
CUT
66
1
70
1
0
VERTEX
8
CUT
10
36.1500
20
268.7710
0
VERTEX
8
CUT
10
27.3000
20
268.7710
0
VERTEX
8
CUT
10
27.3000
20
298.4710
0
VERTEX
8
CUT
10
45.0000
20
298.4710
0
VERTEX
8
CUT
10
45.0000
20
268.7710
0
SEQEND
0
POLYLINE
8
CUT
66
1
70
1
0
VERTEX
8
CUT
10
58.1500
20
268.7710
0
VERTEX
8
CUT
10
51.3000
20
268.7710
0
VERTEX
8
CUT
10
51.3000
20
282.4710
0
VERTEX
8
CUT
10
65.0000
20
282.4710
0
VERTEX
8
CUT
10
65.0000
20
268.7710
0
SEQEND
0
POLYLINE
8
CUT
66
1
70
1
0
VERTEX
8
CUT
10
58.1500
20
284.7710
0
VERTEX
8
CUT
10
51.3000
20
284.7710
0
VERTEX
8
CUT
10
51.3000
20
298.4710
0
VERTEX
8
CUT
10
65.0000
20
298.4710
0
VERTEX
8
CUT
10
65.0000
20
284.7710
0
SEQEND
0
POLYLINE
8
CUT
66
1
70
1
0
VERTEX
8
CUT
10
88.1500
20
219.3710
0
VERTEX
8
CUT
10
79.3000
20
219.3710
0
VERTEX
8
CUT
10
79.3000
20
249.0710
0
VERTEX
8
CUT
10
97.0000
20
249.0710
0
VERTEX
8
CUT
10
97.0000
20
219.3710
0
SEQEND
0
POLYLINE
8
CUT
66
1
70
1
0
VERTEX
8
CUT
10
110.1500
20
219.3710
0
VERTEX
8
CUT
10
103.3000
20
219.3710
0
VERTEX
8
CUT
10
103.3000
20
233.0710
0
VERTEX
8
CUT
10
117.0000
20
233.0710
0
VERTEX
8
CUT
10
117.0000
20
219.3710
0
SEQEND
0
POLYLINE
8
CUT
66
1
70
1
0
VERTEX
8
CUT
10
110.1500
20
235.3710
0
VERTEX
8
CUT
10
103.3000
20
235.3710
0
VERTEX
8
CUT
10
103.3000
20
249.0710
0
VERTEX
8
CUT
10
117.0000
20
249.0710
0
VERTEX
8
CUT
10
117.0000
20
235.3710
0
SEQEND
0
POLYLINE
8
CUT
66
1
70
1
0
VERTEX
8
CUT
10
88.1500
20
268.7710
0
VERTEX
8
CUT
10
79.3000
20
268.7710
0
VERTEX
8
CUT
10
79.3000
20
298.4710
0
VERTEX
8
CUT
10
97.0000
20
298.4710
0
VERTEX
8
CUT
10
97.0000
20
268.7710
0
SEQEND
0
POLYLINE
8
CUT
66
1
70
1
0
VERTEX
8
CUT
10
110.1500
20
268.7710
0
VERTEX
8
CUT
10
103.3000
20
268.7710
0
VERTEX
8
CUT
10
103.3000
20
282.4710
0
VERTEX
8
CUT
10
117.0000
20
282.4710
0
VERTEX
8
CUT
10
117.0000
20
268.7710
0
SEQEND
0
POLYLINE
8
CUT
66
1
70
1
0
VERTEX
8
CUT
10
110.1500
20
284.7710
0
VERTEX
8
CUT
10
103.3000
20
284.7710
0
VERTEX
8
CUT
10
103.3000
20
298.4710
0
VERTEX
8
CUT
10
117.0000
20
298.4710
0
VERTEX
8
CUT
10
117.0000
20
284.7710
0
SEQEND
0
POLYLINE
8
CUT
66
1
70
1
0
VERTEX
8
CUT
10
10.0000
20
205.4710
0
VERTEX
8
CUT
10
10.0000
20
335.6950
0
VERTEX
8
CUT
10
75.1500
20
385.8100
0
VERTEX
8
CUT
10
140.3000
20
335.6950
0
VERTEX
8
CUT
10
140.3000
20
205.4710
0
SEQEND
0
POLYLINE
8
CUT
66
1
70
1
0
VERTEX
8
CUT
10
14.2000
20
42.9320
0
VERTEX
8
CUT
10
13.0000
20
42.9320
0
VERTEX
8
CUT
10
13.0000
20
132.6320
0
VERTEX
8
CUT
10
15.4000
20
132.6320
0
VERTEX
8
CUT
10
15.4000
20
42.9320
0
SEQEND
0
POLYLINE
8
CUT
66
1
70
1
0
VERTEX
8
CUT
10
136.1000
20
42.9320
0
VERTEX
8
CUT
10
134.9000
20
42.9320
0
VERTEX
8
CUT
10
134.9000
20
132.6320
0
VERTEX
8
CUT
10
137.3000
20
132.6320
0
VERTEX
8
CUT
10
137.3000
20
42.9320
0
SEQEND
0
POLYLINE
8
CUT
66
1
70
1
0
VERTEX
8
CUT
10
75.1500
20
27.9320
0
VERTEX
8
CUT
10
68.3000
20
27.9320
0
VERTEX
8
CUT
10
68.3000
20
30.3320
0
VERTEX
8
CUT
10
82.0000
20
30.3320
0
VERTEX
8
CUT
10
82.0000
20
27.9320
0
SEQEND
0
POLYLINE
8
CUT
66
1
70
1
0
VERTEX
8
CUT
10
75.1500
20
34.6320
0
VERTEX
8
CUT
10
73.9500
20
34.6320
0
VERTEX
8
CUT
10
73.9500
20
50.3320
0
VERTEX
8
CUT
10
76.3500
20
50.3320
0
VERTEX
8
CUT
10
76.3500
20
34.6320
0
SEQEND
0
POLYLINE
8
CUT
66
1
70
1
0
VERTEX
8
CUT
10
10.0000
20
22.6320
0
VERTEX
8
CUT
10
10.0000
20
152.8560
0
VERTEX
8
CUT
10
75.1500
20
202.9710
0
VERTEX
8
CUT
10
140.3000
20
152.8560
0
VERTEX
8
CUT
10
140.3000
20
22.6320
0
SEQEND
0
POLYLINE
8
CUT
66
1
70
1
0
VERTEX
8
CUT
10
187.9500
20
260.8100
0
VERTEX
8
CUT
10
177.1000
20
260.8100
0
VERTEX
8
CUT
10
177.1000
20
263.2100
0
VERTEX
8
CUT
10
198.8000
20
263.2100
0
VERTEX
8
CUT
10
198.8000
20
260.8100
0
SEQEND
0
POLYLINE
8
CUT
66
1
70
1
0
VERTEX
8
CUT
10
145.5000
20
255.5100
0
VERTEX
8
CUT
10
145.5000
20
275.5100
0
VERTEX
8
CUT
10
142.8000
20
275.5100
0
VERTEX
8
CUT
10
142.8000
20
365.8100
0
VERTEX
8
CUT
10
145.5000
20
365.8100
0
VERTEX
8
CUT
10
145.5000
20
385.8100
0
VERTEX
8
CUT
10
230.4000
20
385.8100
0
VERTEX
8
CUT
10
230.4000
20
365.8100
0
VERTEX
8
CUT
10
233.1000
20
365.8100
0
VERTEX
8
CUT
10
233.1000
20
275.5100
0
VERTEX
8
CUT
10
230.4000
20
275.5100
0
VERTEX
8
CUT
10
230.4000
20
255.5100
0
SEQEND
0
POLYLINE
8
CUT
66
1
70
1
0
VERTEX
8
CUT
10
280.7500
20
260.8100
0
VERTEX
8
CUT
10
269.9000
20
260.8100
0
VERTEX
8
CUT
10
269.9000
20
263.2100
0
VERTEX
8
CUT
10
291.6000
20
263.2100
0
VERTEX
8
CUT
10
291.6000
20
260.8100
0
SEQEND
0
POLYLINE
8
CUT
66
1
70
1
0
VERTEX
8
CUT
10
238.3000
20
255.5100
0
VERTEX
8
CUT
10
238.3000
20
275.5100
0
VERTEX
8
CUT
10
235.6000
20
275.5100
0
VERTEX
8
CUT
10
235.6000
20
365.8100
0
VERTEX
8
CUT
10
238.3000
20
365.8100
0
VERTEX
8
CUT
10
238.3000
20
385.8100
0
VERTEX
8
CUT
10
323.2000
20
385.8100
0
VERTEX
8
CUT
10
323.2000
20
365.8100
0
VERTEX
8
CUT
10
325.9000
20
365.8100
0
VERTEX
8
CUT
10
325.9000
20
275.5100
0
VERTEX
8
CUT
10
323.2000
20
275.5100
0
VERTEX
8
CUT
10
323.2000
20
255.5100
0
SEQEND
0
POLYLINE
8
CUT
66
1
70
1
0
VERTEX
8
CUT
10
295.6000
20
210.0550
0
VERTEX
8
CUT
10
295.5891
20
209.4865
0
VERTEX
8
CUT
10
295.5566
20
208.9202
0
VERTEX
8
CUT
10
295.5026
20
208.3568
0
VERTEX
8
CUT
10
295.4273
20
207.7967
0
VERTEX
8
CUT
10
295.3309
20
207.2406
0
VERTEX
8
CUT
10
295.2136
20
206.6890
0
VERTEX
8
CUT
10
295.0754
20
206.1426
0
VERTEX
8
CUT
10
294.9167
20
205.6019
0
VERTEX
8
CUT
10
294.7375
20
205.0676
0
VERTEX
8
CUT
10
294.5381
20
204.5401
0
VERTEX
8
CUT
10
294.3185
20
204.0202
0
VERTEX
8
CUT
10
294.0791
20
203.5083
0
VERTEX
8
CUT
10
293.8199
20
203.0051
0
VERTEX
8
CUT
10
293.5412
20
202.5111
0
VERTEX
8
CUT
10
293.2430
20
202.0270
0
VERTEX
8
CUT
10
292.9265
20
201.5546
0
VERTEX
8
CUT
10
292.5930
20
201.0958
0
VERTEX
8
CUT
10
292.2430
20
200.6510
0
VERTEX
8
CUT
10
291.8768
20
200.2205
0
VERTEX
8
CUT
10
291.4950
20
199.8047
0
VERTEX
8
CUT
10
291.0980
20
199.4041
0
VERTEX
8
CUT
10
290.6863
20
199.0191
0
VERTEX
8
CUT
10
290.2604
20
198.6500
0
VERTEX
8
CUT
10
289.8207
20
198.2973
0
VERTEX
8
CUT
10
289.3677
20
197.9613
0
VERTEX
8
CUT
10
288.9018
20
197.6425
0
VERTEX
8
CUT
10
288.4235
20
197.3413
0
VERTEX
8
CUT
10
287.9333
20
197.0580
0
VERTEX
8
CUT
10
287.4317
20
196.7931
0
VERTEX
8
CUT
10
286.9190
20
196.5470
0
VERTEX
8
CUT
10
286.3975
20
196.3209
0
VERTEX
8
CUT
10
285.8690
20
196.1153
0
VERTEX
8
CUT
10
285.3340
20
195.9304
0
VERTEX
8
CUT
10
284.7933
20
195.7662
0
VERTEX
8
CUT
10
284.2474
20
195.6229
0
VERTEX
8
CUT
10
283.6969
20
195.5005
0
VERTEX
8
CUT
10
283.1424
20
195.3991
0
VERTEX
8
CUT
10
282.5846
20
195.3189
0
VERTEX
8
CUT
10
282.0240
20
195.2599
0
VERTEX
8
CUT
10
281.4613
20
195.2221
0
VERTEX
8
CUT
10
280.8971
20
195.2058
0
VERTEX
8
CUT
10
280.3319
20
195.2109
0
VERTEX
8
CUT
10
279.7664
20
195.2376
0
VERTEX
8
CUT
10
279.2013
20
195.2859
0
VERTEX
8
CUT
10
278.6370
20
195.3560
0
VERTEX
8
CUT
10
278.0758
20
195.4477
0
VERTEX
8
CUT
10
277.5199
20
195.5604
0
VERTEX
8
CUT
10
276.9698
20
195.6941
0
VERTEX
8
CUT
10
276.4261
20
195.8483
0
VERTEX
8
CUT
10
275.8893
20
196.0230
0
VERTEX
8
CUT
10
275.3600
20
196.2177
0
VERTEX
8
CUT
10
274.8388
20
196.4322
0
VERTEX
8
CUT
10
274.3262
20
196.6664
0
VERTEX
8
CUT
10
273.8227
20
196.9198
0
VERTEX
8
CUT
10
273.3290
20
197.1924
0
VERTEX
8
CUT
10
272.8456
20
197.4837
0
VERTEX
8
CUT
10
272.3730
20
197.7936
0
VERTEX
8
CUT
10
271.9118
20
198.1218
0
VERTEX
8
CUT
10
271.4627
20
198.4680
0
VERTEX
8
CUT
10
271.0260
20
198.8320
0
VERTEX
8
CUT
10
270.6034
20
199.2126
0
VERTEX
8
CUT
10
270.1967
20
199.6081
0
VERTEX
8
CUT
10
269.8061
20
200.0180
0
VERTEX
8
CUT
10
269.4321
20
200.4418
0
VERTEX
8
CUT
10
269.0749
20
200.8789
0
VERTEX
8
CUT
10
268.7349
20
201.3289
0
VERTEX
8
CUT
10
268.4123
20
201.7912
0
VERTEX
8
CUT
10
268.1077
20
202.2652
0
VERTEX
8
CUT
10
267.8211
20
202.7506
0
VERTEX
8
CUT
10
267.5531
20
203.2467
0
VERTEX
8
CUT
10
267.3039
20
203.7531
0
VERTEX
8
CUT
10
267.0739
20
204.2693
0
VERTEX
8
CUT
10
266.8633
20
204.7946
0
VERTEX
8
CUT
10
266.6726
20
205.3287
0
VERTEX
8
CUT
10
266.5020
20
205.8710
0
VERTEX
8
CUT
10
266.3523
20
206.4196
0
VERTEX
8
CUT
10
266.2240
20
206.9722
0
VERTEX
8
CUT
10
266.1170
20
207.5281
0
VERTEX
8
CUT
10
266.0315
20
208.0868
0
VERTEX
8
CUT
10
265.9673
20
208.6476
0
VERTEX
8
CUT
10
265.9246
20
209.2099
0
VERTEX
8
CUT
10
265.9032
20
209.7732
0
VERTEX
8
CUT
10
265.9032
20
210.3368
0
VERTEX
8
CUT
10
265.9246
20
210.9001
0
VERTEX
8
CUT
10
265.9673
20
211.4624
0
VERTEX
8
CUT
10
266.0315
20
212.0232
0
VERTEX
8
CUT
10
266.1170
20
212.5819
0
VERTEX
8
CUT
10
266.2240
20
213.1378
0
VERTEX
8
CUT
10
266.3523
20
213.6904
0
VERTEX
8
CUT
10
266.5020
20
214.2390
0
VERTEX
8
CUT
10
266.6726
20
214.7813
0
VERTEX
8
CUT
10
266.8633
20
215.3154
0
VERTEX
8
CUT
10
267.0739
20
215.8408
0
VERTEX
8
CUT
10
267.3039
20
216.3570
0
VERTEX
8
CUT
10
267.5531
20
216.8635
0
VERTEX
8
CUT
10
267.8211
20
217.3597
0
VERTEX
8
CUT
10
268.1077
20
217.8451
0
VERTEX
8
CUT
10
268.4123
20
218.3192
0
VERTEX
8
CUT
10
268.7349
20
218.7816
0
VERTEX
8
CUT
10
269.0749
20
219.2315
0
VERTEX
8
CUT
10
269.4321
20
219.6686
0
VERTEX
8
CUT
10
269.8061
20
220.0923
0
VERTEX
8
CUT
10
270.1967
20
220.5022
0
VERTEX
8
CUT
10
270.6034
20
220.8976
0
VERTEX
8
CUT
10
271.0260
20
221.2780
0
VERTEX
8
CUT
10
271.4627
20
221.6420
0
VERTEX
8
CUT
10
271.9118
20
221.9882
0
VERTEX
8
CUT
10
272.3730
20
222.3164
0
VERTEX
8
CUT
10
272.8456
20
222.6263
0
VERTEX
8
CUT
10
273.3290
20
222.9176
0
VERTEX
8
CUT
10
273.8227
20
223.1902
0
VERTEX
8
CUT
10
274.3262
20
223.4436
0
VERTEX
8
CUT
10
274.8388
20
223.6778
0
VERTEX
8
CUT
10
275.3600
20
223.8923
0
VERTEX
8
CUT
10
275.8893
20
224.0870
0
VERTEX
8
CUT
10
276.4261
20
224.2617
0
VERTEX
8
CUT
10
276.9698
20
224.4159
0
VERTEX
8
CUT
10
277.5199
20
224.5496
0
VERTEX
8
CUT
10
278.0758
20
224.6623
0
VERTEX
8
CUT
10
278.6370
20
224.7540
0
VERTEX
8
CUT
10
279.2013
20
224.8241
0
VERTEX
8
CUT
10
279.7664
20
224.8725
0
VERTEX
8
CUT
10
280.3319
20
224.8992
0
VERTEX
8
CUT
10
280.8971
20
224.9044
0
VERTEX
8
CUT
10
281.4613
20
224.8881
0
VERTEX
8
CUT
10
282.0240
20
224.8504
0
VERTEX
8
CUT
10
282.5846
20
224.7915
0
VERTEX
8
CUT
10
283.1424
20
224.7113
0
VERTEX
8
CUT
10
283.6969
20
224.6099
0
VERTEX
8
CUT
10
284.2474
20
224.4876
0
VERTEX
8
CUT
10
284.7933
20
224.3442
0
VERTEX
8
CUT
10
285.3340
20
224.1800
0
VERTEX
8
CUT
10
285.8690
20
223.9950
0
VERTEX
8
CUT
10
286.3975
20
223.7893
0
VERTEX
8
CUT
10
286.9190
20
223.5630
0
VERTEX
8
CUT
10
287.4317
20
223.3171
0
VERTEX
8
CUT
10
287.9333
20
223.0523
0
VERTEX
8
CUT
10
288.4235
20
222.7692
0
VERTEX
8
CUT
10
288.9018
20
222.4681
0
VERTEX
8
CUT
10
289.3677
20
222.1494
0
VERTEX
8
CUT
10
289.8207
20
221.8135
0
VERTEX
8
CUT
10
290.2604
20
221.4609
0
VERTEX
8
CUT
10
290.6863
20
221.0918
0
VERTEX
8
CUT
10
291.0980
20
220.7068
0
VERTEX
8
CUT
10
291.4950
20
220.3063
0
VERTEX
8
CUT
10
291.8768
20
219.8905
0
VERTEX
8
CUT
10
292.2430
20
219.4600
0
VERTEX
8
CUT
10
292.5930
20
219.0152
0
VERTEX
8
CUT
10
292.9265
20
218.5564
0
VERTEX
8
CUT
10
293.2430
20
218.0840
0
VERTEX
8
CUT
10
293.5412
20
217.5999
0
VERTEX
8
CUT
10
293.8199
20
217.1059
0
VERTEX
8
CUT
10
294.0791
20
216.6026
0
VERTEX
8
CUT
10
294.3185
20
216.0907
0
VERTEX
8
CUT
10
294.5381
20
215.5706
0
VERTEX
8
CUT
10
294.7375
20
215.0431
0
VERTEX
8
CUT
10
294.9167
20
214.5086
0
VERTEX
8
CUT
10
295.0754
20
213.9679
0
VERTEX
8
CUT
10
295.2136
20
213.4214
0
VERTEX
8
CUT
10
295.3309
20
212.8697
0
VERTEX
8
CUT
10
295.4273
20
212.3135
0
VERTEX
8
CUT
10
295.5026
20
211.7533
0
VERTEX
8
CUT
10
295.5566
20
211.1898
0
VERTEX
8
CUT
10
295.5891
20
210.6235
0
SEQEND
0
POLYLINE
8
CUT
66
1
70
1
0
VERTEX
8
CUT
10
238.3000
20
130.4100
0
VERTEX
8
CUT
10
238.3000
20
134.4100
0
VERTEX
8
CUT
10
235.6000
20
134.4100
0
VERTEX
8
CUT
10
235.6000
20
150.7100
0
VERTEX
8
CUT
10
238.3000
20
150.7100
0
VERTEX
8
CUT
10
238.3000
20
253.0100
0
VERTEX
8
CUT
10
323.2000
20
253.0100
0
VERTEX
8
CUT
10
323.2000
20
150.7100
0
VERTEX
8
CUT
10
325.9000
20
150.7100
0
VERTEX
8
CUT
10
325.9000
20
134.4100
0
VERTEX
8
CUT
10
323.2000
20
134.4100
0
VERTEX
8
CUT
10
323.2000
20
130.4100
0
VERTEX
8
CUT
10
291.9000
20
130.4100
0
VERTEX
8
CUT
10
291.9000
20
127.7100
0
VERTEX
8
CUT
10
269.6000
20
127.7100
0
VERTEX
8
CUT
10
269.6000
20
130.4100
0
SEQEND
0
POLYLINE
8
CUT
66
1
70
1
0
VERTEX
8
CUT
10
205.2500
20
69.2100
0
VERTEX
8
CUT
10
204.0500
20
69.2100
0
VERTEX
8
CUT
10
204.0500
20
90.9100
0
VERTEX
8
CUT
10
206.4500
20
90.9100
0
VERTEX
8
CUT
10
206.4500
20
69.2100
0
SEQEND
0
POLYLINE
8
CUT
66
1
70
1
0
VERTEX
8
CUT
10
145.5000
20
37.6100
0
VERTEX
8
CUT
10
145.5000
20
68.9100
0
VERTEX
8
CUT
10
142.8000
20
68.9100
0
VERTEX
8
CUT
10
142.8000
20
91.2100
0
VERTEX
8
CUT
10
145.5000
20
91.2100
0
VERTEX
8
CUT
10
145.5000
20
122.5100
0
VERTEX
8
CUT
10
198.1000
20
122.5100
0
VERTEX
8
CUT
10
198.1000
20
125.2100
0
VERTEX
8
CUT
10
212.4000
20
125.2100
0
VERTEX
8
CUT
10
212.4000
20
122.5100
0
VERTEX
8
CUT
10
265.0000
20
122.5100
0
VERTEX
8
CUT
10
265.0000
20
91.2100
0
VERTEX
8
CUT
10
267.7000
20
91.2100
0
VERTEX
8
CUT
10
267.7000
20
68.9100
0
VERTEX
8
CUT
10
265.0000
20
68.9100
0
VERTEX
8
CUT
10
265.0000
20
37.6100
0
VERTEX
8
CUT
10
212.4000
20
37.6100
0
VERTEX
8
CUT
10
212.4000
20
34.9100
0
VERTEX
8
CUT
10
198.1000
20
34.9100
0
VERTEX
8
CUT
10
198.1000
20
37.6100
0
SEQEND
0
POLYLINE
8
CUT
66
1
70
1
0
VERTEX
8
CUT
10
154.5840
20
32.4100
0
VERTEX
8
CUT
10
157.8620
20
24.5300
0
VERTEX
8
CUT
10
166.3680
20
23.8480
0
VERTEX
8
CUT
10
159.8870
20
18.2960
0
VERTEX
8
CUT
10
161.8670
20
9.9950
0
VERTEX
8
CUT
10
154.5840
20
14.4440
0
VERTEX
8
CUT
10
147.3010
20
9.9950
0
VERTEX
8
CUT
10
149.2810
20
18.2960
0
VERTEX
8
CUT
10
142.8000
20
23.8480
0
VERTEX
8
CUT
10
151.3070
20
24.5300
0
SEQEND
0
ENDSEC
0
EOF
