<?xml version='1.0' encoding='utf-8'?>
<svg xmlns="http://www.w3.org/2000/svg" xmlns:dc="http://purl.org/dc/elements/1.1/" xmlns:ns2="http://creativecommons.org/ns#" xmlns:rdf="http://www.w3.org/1999/02/22-rdf-syntax-ns#" height="100%" viewBox="2.00 2.00 298.90 272.90" width="100%" data-layout="compact" data-gap="3.0" data-margin="10.0">

<title>STEMTrafficLight</title>
<metadata>
<rdf:RDF><ns2:Work>
<dc:title>Misc - STEMTrafficLight</dc:title>
<dc:date>2026-09-09 20:46:21</dc:date>
<dc:source>boxes STEMTrafficLight --thickness=3.0 --burn=0.15 --labels=0 --reference=0 --tabs=0 --qr_code=0 --debug=0 --inner_corners=corner --sheet_width=1500 --sheet_height=3000 --format=svg</dc:source>
<dc:description>Payas STEM Dene Yap: hollow tower, exactly two mounting tabs.

External dimensions. Leave bottom unglued for maintenance.
Mechanically checked prototype only: battery/switch envelopes are unresolved
in components.json. Burn is a per-side offset; calibrate on actual plywood.

Created with Boxes.py (https://boxes.hackerspace-bamberg.de/)
Command line: boxes STEMTrafficLight --thickness=3.0 --burn=0.15 --labels=0 --reference=0 --tabs=0 --qr_code=0 --debug=0 --inner_corners=corner --sheet_width=1500 --sheet_height=3000 --format=svg
Command line short: boxes STEMTrafficLight --burn=0.15
</dc:description>
</ns2:Work></rdf:RDF></metadata>
<g id="p-0" style="fill:none;stroke-linecap:round;stroke-linejoin:round;" data-panel="Base Front">
  <path d="M 136.4500000000001,138.60000000000002 L 142.4500000000001,138.60000000000002 C 142.5330000000001,138.60000000000002 142.6000000000001,138.53300000000002 142.6000000000001,138.45000000000005 L 142.6000000000001,135.60000000000002 L 148.3000000000001,135.60000000000002 L 148.3000000000001,138.45000000000005 C 148.3000000000001,138.53300000000002 148.3670000000001,138.60000000000002 148.4500000000001,138.60000000000002 L 154.4500000000001,138.60000000000002 C 154.5330000000001,138.60000000000002 154.6000000000001,138.53300000000002 154.6000000000001,138.45000000000005 L 154.6000000000001,135.60000000000002 L 160.3000000000001,135.60000000000002 L 160.3000000000001,138.45000000000005 C 160.3000000000001,138.53300000000002 160.3670000000001,138.60000000000002 160.4500000000001,138.60000000000002 L 166.4500000000001,138.60000000000002 C 166.5330000000001,138.60000000000002 166.60000000000008,138.53300000000002 166.60000000000008,138.45000000000005 L 166.60000000000008,135.60000000000002 L 172.3000000000001,135.60000000000002 L 172.3000000000001,138.45000000000005 C 172.3000000000001,138.53300000000002 172.3670000000001,138.60000000000002 172.4500000000001,138.60000000000002 L 178.4500000000001,138.60000000000002 C 178.5330000000001,138.60000000000002 178.60000000000008,138.53300000000002 178.60000000000008,138.45000000000005 L 178.60000000000008,135.60000000000002 L 184.3000000000001,135.60000000000002 L 184.3000000000001,138.45000000000005 C 184.3000000000001,138.53300000000002 184.3670000000001,138.60000000000002 184.4500000000001,138.60000000000002 L 190.4500000000001,138.60000000000002 C 190.5330000000001,138.60000000000002 190.60000000000008,138.53300000000002 190.60000000000008,138.45000000000005 L 190.60000000000008,135.60000000000002 L 196.3000000000001,135.60000000000002 L 196.3000000000001,138.45000000000005 C 196.3000000000001,138.53300000000002 196.36700000000008,138.60000000000002 196.4500000000001,138.60000000000002 L 202.4500000000001,138.60000000000002 C 202.5330000000001,138.60000000000002 202.60000000000008,138.53300000000002 202.60000000000008,138.45000000000005 L 202.60000000000008,135.60000000000002 L 208.3000000000001,135.60000000000002 L 208.3000000000001,138.45000000000005 C 208.3000000000001,138.53300000000002 208.36700000000008,138.60000000000002 208.4500000000001,138.60000000000002 L 214.4500000000001,138.60000000000002 C 214.5330000000001,138.60000000000002 214.60000000000008,138.53300000000002 214.60000000000008,138.45000000000005 L 214.60000000000008,135.60000000000002 L 220.3000000000001,135.60000000000002 L 220.3000000000001,138.45000000000005 C 220.3000000000001,138.53300000000002 220.36700000000008,138.60000000000002 220.4500000000001,138.60000000000002 L 226.4500000000001,138.60000000000002 C 226.5330000000001,138.60000000000002 226.60000000000008,138.53300000000002 226.60000000000008,138.45000000000005 L 226.60000000000008,135.60000000000002 L 232.3000000000001,135.60000000000002 L 232.3000000000001,138.45000000000005 C 232.3000000000001,138.53300000000002 232.36700000000008,138.60000000000002 232.4500000000001,138.60000000000002 L 238.4500000000001,138.60000000000002 C 238.5330000000001,138.60000000000002 238.60000000000008,138.53300000000002 238.60000000000008,138.45000000000005 L 238.60000000000008,135.60000000000002 L 244.3000000000001,135.60000000000002 L 244.3000000000001,138.45000000000005 C 244.3000000000001,138.53300000000002 244.36700000000008,138.60000000000002 244.4500000000001,138.60000000000002 L 250.4500000000001,138.60000000000002 L 253.4500000000001,138.60000000000002 C 253.5330000000001,138.60000000000002 253.6000000000001,138.53300000000002 253.6000000000001,138.45000000000005 L 253.6000000000001,135.45000000000005 L 253.6000000000001,124.95000000000005 C 253.6000000000001,124.86700000000008 253.5330000000001,124.80000000000007 253.4500000000001,124.80000000000007 L 250.60000000000008,124.80000000000007 L 250.60000000000008,119.10000000000002 L 253.4500000000001,119.10000000000002 C 253.5330000000001,119.10000000000002 253.6000000000001,119.03300000000002 253.6000000000001,118.95000000000005 L 253.6000000000001,112.95000000000005 C 253.6000000000001,112.86700000000008 253.5330000000001,112.80000000000007 253.4500000000001,112.80000000000007 L 250.60000000000008,112.80000000000007 L 250.60000000000008,107.10000000000002 L 253.4500000000001,107.10000000000002 C 253.5330000000001,107.10000000000002 253.6000000000001,107.03300000000002 253.6000000000001,106.95000000000005 L 253.6000000000001,96.45000000000005 L 253.6000000000001,93.45000000000005 C 253.6000000000001,93.36700000000008 253.5330000000001,93.30000000000007 253.4500000000001,93.30000000000007 L 250.4500000000001,93.30000000000007 L 244.4500000000001,93.30000000000007 C 244.36700000000008,93.30000000000007 244.3000000000001,93.36700000000008 244.3000000000001,93.45000000000005 L 244.3000000000001,96.30000000000007 L 238.60000000000008,96.30000000000007 L 238.60000000000008,93.45000000000005 C 238.60000000000008,93.36700000000008 238.5330000000001,93.30000000000007 238.4500000000001,93.30000000000007 L 232.4500000000001,93.30000000000007 C 232.36700000000008,93.30000000000007 232.3000000000001,93.36700000000008 232.3000000000001,93.45000000000005 L 232.3000000000001,96.30000000000007 L 226.60000000000008,96.30000000000007 L 226.60000000000008,93.45000000000005 C 226.60000000000008,93.36700000000008 226.5330000000001,93.30000000000007 226.4500000000001,93.30000000000007 L 220.4500000000001,93.30000000000007 C 220.36700000000008,93.30000000000007 220.3000000000001,93.36700000000008 220.3000000000001,93.45000000000005 L 220.3000000000001,96.30000000000007 L 214.60000000000008,96.30000000000007 L 214.60000000000008,93.45000000000005 C 214.60000000000008,93.36700000000008 214.5330000000001,93.30000000000007 214.4500000000001,93.30000000000007 L 208.4500000000001,93.30000000000007 C 208.36700000000008,93.30000000000007 208.3000000000001,93.36700000000008 208.3000000000001,93.45000000000005 L 208.3000000000001,96.30000000000007 L 202.60000000000008,96.30000000000007 L 202.60000000000008,93.45000000000005 C 202.60000000000008,93.36700000000008 202.5330000000001,93.30000000000007 202.4500000000001,93.30000000000007 L 196.4500000000001,93.30000000000007 C 196.36700000000008,93.30000000000007 196.3000000000001,93.36700000000008 196.3000000000001,93.45000000000005 L 196.3000000000001,96.30000000000007 L 190.60000000000008,96.30000000000007 L 190.60000000000008,93.45000000000005 C 190.60000000000008,93.36700000000008 190.5330000000001,93.30000000000007 190.4500000000001,93.30000000000007 L 184.4500000000001,93.30000000000007 C 184.3670000000001,93.30000000000007 184.3000000000001,93.36700000000008 184.3000000000001,93.45000000000005 L 184.3000000000001,96.30000000000007 L 178.60000000000008,96.30000000000007 L 178.60000000000008,93.45000000000005 C 178.60000000000008,93.36700000000008 178.5330000000001,93.30000000000007 178.4500000000001,93.30000000000007 L 172.4500000000001,93.30000000000007 C 172.3670000000001,93.30000000000007 172.3000000000001,93.36700000000008 172.3000000000001,93.45000000000005 L 172.3000000000001,96.30000000000007 L 166.60000000000008,96.30000000000007 L 166.60000000000008,93.45000000000005 C 166.60000000000008,93.36700000000008 166.5330000000001,93.30000000000007 166.4500000000001,93.30000000000007 L 160.4500000000001,93.30000000000007 C 160.3670000000001,93.30000000000007 160.3000000000001,93.36700000000008 160.3000000000001,93.45000000000005 L 160.3000000000001,96.30000000000007 L 154.6000000000001,96.30000000000007 L 154.6000000000001,93.45000000000005 C 154.6000000000001,93.36700000000008 154.5330000000001,93.30000000000007 154.4500000000001,93.30000000000007 L 148.4500000000001,93.30000000000007 C 148.3670000000001,93.30000000000007 148.3000000000001,93.36700000000008 148.3000000000001,93.45000000000005 L 148.3000000000001,96.30000000000007 L 142.6000000000001,96.30000000000007 L 142.6000000000001,93.45000000000005 C 142.6000000000001,93.36700000000008 142.5330000000001,93.30000000000007 142.4500000000001,93.30000000000007 L 136.4500000000001,93.30000000000007 L 133.4500000000001,93.30000000000007 C 133.3670000000001,93.30000000000007 133.3000000000001,93.36700000000008 133.3000000000001,93.45000000000005 L 133.3000000000001,96.45000000000005 L 133.3000000000001,106.95000000000005 C 133.3000000000001,107.03300000000002 133.3670000000001,107.10000000000002 133.4500000000001,107.10000000000002 L 136.3000000000001,107.10000000000002 L 136.3000000000001,112.80000000000007 L 133.4500000000001,112.80000000000007 C 133.3670000000001,112.80000000000007 133.3000000000001,112.86700000000008 133.3000000000001,112.95000000000005 L 133.3000000000001,118.95000000000005 C 133.3000000000001,119.03300000000002 133.3670000000001,119.10000000000002 133.4500000000001,119.10000000000002 L 136.3000000000001,119.10000000000002 L 136.3000000000001,124.80000000000007 L 133.4500000000001,124.80000000000007 C 133.3670000000001,124.80000000000007 133.3000000000001,124.86700000000008 133.3000000000001,124.95000000000005 L 133.3000000000001,135.45000000000005 L 133.3000000000001,138.45000000000005 C 133.3000000000001,138.53300000000002 133.3670000000001,138.60000000000002 133.4500000000001,138.60000000000002 L 136.4500000000001,138.60000000000002" stroke="#E10600" stroke-width="0.30" fill="none" />
</g>
<g id="p-1" style="fill:none;stroke-linecap:round;stroke-linejoin:round;" data-panel="Base Back">
  <path d="M 13.150000000000006,138.60000000000025 L 19.150000000000006,138.60000000000025 C 19.233000000000004,138.60000000000025 19.300000000000004,138.53300000000024 19.300000000000004,138.45000000000027 L 19.300000000000004,135.60000000000025 L 25.000000000000007,135.60000000000025 L 25.000000000000007,138.45000000000027 C 25.000000000000007,138.53300000000024 25.067000000000007,138.60000000000025 25.150000000000006,138.60000000000025 L 31.150000000000006,138.60000000000025 C 31.233000000000004,138.60000000000025 31.300000000000004,138.53300000000024 31.300000000000004,138.45000000000027 L 31.300000000000004,135.60000000000025 L 37.00000000000001,135.60000000000025 L 37.00000000000001,138.45000000000027 C 37.00000000000001,138.53300000000024 37.06700000000001,138.60000000000025 37.150000000000006,138.60000000000025 L 43.150000000000006,138.60000000000025 C 43.233000000000004,138.60000000000025 43.300000000000004,138.53300000000024 43.300000000000004,138.45000000000027 L 43.300000000000004,135.60000000000025 L 49.00000000000001,135.60000000000025 L 49.00000000000001,138.45000000000027 C 49.00000000000001,138.53300000000024 49.06700000000001,138.60000000000025 49.150000000000006,138.60000000000025 L 55.150000000000006,138.60000000000025 C 55.233000000000004,138.60000000000025 55.300000000000004,138.53300000000024 55.300000000000004,138.45000000000027 L 55.300000000000004,135.60000000000025 L 61.00000000000001,135.60000000000025 L 61.00000000000001,138.45000000000027 C 61.00000000000001,138.53300000000024 61.06700000000001,138.60000000000025 61.150000000000006,138.60000000000025 L 67.15,138.60000000000025 C 67.233,138.60000000000025 67.3,138.53300000000024 67.3,138.45000000000027 L 67.3,135.60000000000025 L 73.0,135.60000000000025 L 73.0,138.45000000000027 C 73.0,138.53300000000024 73.067,138.60000000000025 73.15,138.60000000000025 L 79.15,138.60000000000025 C 79.233,138.60000000000025 79.3,138.53300000000024 79.3,138.45000000000027 L 79.3,135.60000000000025 L 85.0,135.60000000000025 L 85.0,138.45000000000027 C 85.0,138.53300000000024 85.067,138.60000000000025 85.15,138.60000000000025 L 91.15,138.60000000000025 C 91.233,138.60000000000025 91.3,138.53300000000024 91.3,138.45000000000027 L 91.3,135.60000000000025 L 97.0,135.60000000000025 L 97.0,138.45000000000027 C 97.0,138.53300000000024 97.067,138.60000000000025 97.15,138.60000000000025 L 103.15,138.60000000000025 C 103.233,138.60000000000025 103.3,138.53300000000024 103.3,138.45000000000027 L 103.3,135.60000000000025 L 109.0,135.60000000000025 L 109.0,138.45000000000027 C 109.0,138.53300000000024 109.067,138.60000000000025 109.15,138.60000000000025 L 115.15,138.60000000000025 C 115.233,138.60000000000025 115.3,138.53300000000024 115.3,138.45000000000027 L 115.3,135.60000000000025 L 121.0,135.60000000000025 L 121.0,138.45000000000027 C 121.0,138.53300000000024 121.067,138.60000000000025 121.15,138.60000000000025 L 127.15,138.60000000000025 L 130.15,138.60000000000025 C 130.233,138.60000000000025 130.3,138.53300000000024 130.3,138.45000000000027 L 130.3,135.45000000000027 L 130.3,124.95000000000027 C 130.3,124.8670000000003 130.233,124.8000000000003 130.15,124.8000000000003 L 127.3,124.8000000000003 L 127.3,119.10000000000025 L 130.15,119.10000000000025 C 130.233,119.10000000000025 130.3,119.03300000000024 130.3,118.95000000000027 L 130.3,112.95000000000027 C 130.3,112.8670000000003 130.233,112.8000000000003 130.15,112.8000000000003 L 127.3,112.8000000000003 L 127.3,107.10000000000025 L 130.15,107.10000000000025 C 130.233,107.10000000000025 130.3,107.03300000000024 130.3,106.95000000000027 L 130.3,96.45000000000027 L 130.3,93.45000000000027 C 130.3,93.3670000000003 130.233,93.3000000000003 130.15,93.3000000000003 L 127.15,93.3000000000003 L 121.15,93.3000000000003 C 121.067,93.3000000000003 121.0,93.3670000000003 121.0,93.45000000000027 L 121.0,96.3000000000003 L 115.3,96.3000000000003 L 115.3,93.45000000000027 C 115.3,93.3670000000003 115.233,93.3000000000003 115.15,93.3000000000003 L 109.15,93.3000000000003 C 109.067,93.3000000000003 109.0,93.3670000000003 109.0,93.45000000000027 L 109.0,96.3000000000003 L 103.3,96.3000000000003 L 103.3,93.45000000000027 C 103.3,93.3670000000003 103.233,93.3000000000003 103.15,93.3000000000003 L 97.15,93.3000000000003 C 97.067,93.3000000000003 97.0,93.3670000000003 97.0,93.45000000000027 L 97.0,96.3000000000003 L 91.3,96.3000000000003 L 91.3,93.45000000000027 C 91.3,93.3670000000003 91.233,93.3000000000003 91.15,93.3000000000003 L 85.15,93.3000000000003 C 85.067,93.3000000000003 85.0,93.3670000000003 85.0,93.45000000000027 L 85.0,96.3000000000003 L 79.3,96.3000000000003 L 79.3,93.45000000000027 C 79.3,93.3670000000003 79.233,93.3000000000003 79.15,93.3000000000003 L 73.15,93.3000000000003 C 73.067,93.3000000000003 73.0,93.3670000000003 73.0,93.45000000000027 L 73.0,96.3000000000003 L 67.3,96.3000000000003 L 67.3,93.45000000000027 C 67.3,93.3670000000003 67.233,93.3000000000003 67.15,93.3000000000003 L 61.150000000000006,93.3000000000003 C 61.06700000000001,93.3000000000003 61.00000000000001,93.3670000000003 61.00000000000001,93.45000000000027 L 61.00000000000001,96.3000000000003 L 55.300000000000004,96.3000000000003 L 55.300000000000004,93.45000000000027 C 55.300000000000004,93.3670000000003 55.233000000000004,93.3000000000003 55.150000000000006,93.3000000000003 L 49.150000000000006,93.3000000000003 C 49.06700000000001,93.3000000000003 49.00000000000001,93.3670000000003 49.00000000000001,93.45000000000027 L 49.00000000000001,96.3000000000003 L 43.300000000000004,96.3000000000003 L 43.300000000000004,93.45000000000027 C 43.300000000000004,93.3670000000003 43.233000000000004,93.3000000000003 43.150000000000006,93.3000000000003 L 37.150000000000006,93.3000000000003 C 37.06700000000001,93.3000000000003 37.00000000000001,93.3670000000003 37.00000000000001,93.45000000000027 L 37.00000000000001,96.3000000000003 L 31.300000000000004,96.3000000000003 L 31.300000000000004,93.45000000000027 C 31.300000000000004,93.3670000000003 31.233000000000004,93.3000000000003 31.150000000000006,93.3000000000003 L 25.150000000000006,93.3000000000003 C 25.067000000000007,93.3000000000003 25.000000000000007,93.3670000000003 25.000000000000007,93.45000000000027 L 25.000000000000007,96.3000000000003 L 19.300000000000004,96.3000000000003 L 19.300000000000004,93.45000000000027 C 19.300000000000004,93.3670000000003 19.233000000000004,93.3000000000003 19.150000000000006,93.3000000000003 L 13.150000000000006,93.3000000000003 L 10.150000000000006,93.3000000000003 C 10.067000000000005,93.3000000000003 10.000000000000005,93.3670000000003 10.000000000000005,93.45000000000027 L 10.000000000000005,96.45000000000027 L 10.000000000000005,106.95000000000027 C 10.000000000000005,107.03300000000024 10.067000000000005,107.10000000000025 10.150000000000006,107.10000000000025 L 13.000000000000005,107.10000000000025 L 13.000000000000005,112.8000000000003 L 10.150000000000006,112.8000000000003 C 10.067000000000005,112.8000000000003 10.000000000000005,112.8670000000003 10.000000000000005,112.95000000000027 L 10.000000000000005,118.95000000000027 C 10.000000000000005,119.03300000000024 10.067000000000005,119.10000000000025 10.150000000000006,119.10000000000025 L 13.000000000000005,119.10000000000025 L 13.000000000000005,124.8000000000003 L 10.150000000000006,124.8000000000003 C 10.067000000000005,124.8000000000003 10.000000000000005,124.8670000000003 10.000000000000005,124.95000000000027 L 10.000000000000005,135.45000000000027 L 10.000000000000005,138.45000000000027 C 10.000000000000005,138.53300000000024 10.067000000000005,138.60000000000025 10.150000000000006,138.60000000000025 L 13.150000000000006,138.60000000000025" stroke="#E10600" stroke-width="0.30" fill="none" />
</g>
<g id="p-2" style="fill:none;stroke-linecap:round;stroke-linejoin:round;" data-panel="Base Left">
  <path d="M 13.150000000000006,186.90000000000043 L 23.150000000000006,186.90000000000043 C 23.233000000000004,186.90000000000043 23.300000000000004,186.83300000000042 23.300000000000004,186.75000000000034 L 23.300000000000004,183.90000000000043 L 29.000000000000007,183.90000000000043 L 29.000000000000007,186.75000000000034 C 29.000000000000007,186.83300000000042 29.067000000000007,186.90000000000043 29.150000000000006,186.90000000000043 L 35.150000000000006,186.90000000000043 C 35.233000000000004,186.90000000000043 35.300000000000004,186.83300000000042 35.300000000000004,186.75000000000034 L 35.300000000000004,183.90000000000043 L 41.00000000000001,183.90000000000043 L 41.00000000000001,186.75000000000034 C 41.00000000000001,186.83300000000042 41.06700000000001,186.90000000000043 41.150000000000006,186.90000000000043 L 47.150000000000006,186.90000000000043 C 47.233000000000004,186.90000000000043 47.300000000000004,186.83300000000042 47.300000000000004,186.75000000000034 L 47.300000000000004,183.90000000000043 L 53.00000000000001,183.90000000000043 L 53.00000000000001,186.75000000000034 C 53.00000000000001,186.83300000000042 53.06700000000001,186.90000000000043 53.150000000000006,186.90000000000043 L 59.150000000000006,186.90000000000043 C 59.233000000000004,186.90000000000043 59.300000000000004,186.83300000000042 59.300000000000004,186.75000000000034 L 59.300000000000004,183.90000000000043 L 65.0,183.90000000000043 L 65.0,186.75000000000034 C 65.0,186.83300000000042 65.067,186.90000000000043 65.15,186.90000000000043 L 71.15,186.90000000000043 C 71.233,186.90000000000043 71.3,186.83300000000042 71.3,186.75000000000034 L 71.3,183.90000000000043 L 77.0,183.90000000000043 L 77.0,186.75000000000034 C 77.0,186.83300000000042 77.067,186.90000000000043 77.15,186.90000000000043 L 87.15,186.90000000000043 C 87.233,186.90000000000043 87.3,186.83300000000042 87.3,186.75000000000034 L 87.3,183.75000000000034 L 87.3,173.40000000000043 L 90.15,173.40000000000043 C 90.233,173.40000000000043 90.3,173.33300000000042 90.3,173.25000000000034 L 90.3,167.25000000000034 C 90.3,167.16700000000037 90.233,167.10000000000036 90.15,167.10000000000036 L 87.3,167.10000000000036 L 87.3,161.40000000000043 L 90.15,161.40000000000043 C 90.233,161.40000000000043 90.3,161.33300000000042 90.3,161.25000000000034 L 90.3,155.25000000000034 C 90.3,155.16700000000037 90.233,155.10000000000036 90.15,155.10000000000036 L 87.3,155.10000000000036 L 87.3,144.75000000000034 L 87.3,141.75000000000034 C 87.3,141.66700000000037 87.233,141.60000000000036 87.15,141.60000000000036 L 77.15,141.60000000000036 C 77.067,141.60000000000036 77.0,141.66700000000037 77.0,141.75000000000034 L 77.0,144.60000000000036 L 71.3,144.60000000000036 L 71.3,141.75000000000034 C 71.3,141.66700000000037 71.233,141.60000000000036 71.15,141.60000000000036 L 65.15,141.60000000000036 C 65.067,141.60000000000036 65.0,141.66700000000037 65.0,141.75000000000034 L 65.0,144.60000000000036 L 59.300000000000004,144.60000000000036 L 59.300000000000004,141.75000000000034 C 59.300000000000004,141.66700000000037 59.233000000000004,141.60000000000036 59.150000000000006,141.60000000000036 L 53.150000000000006,141.60000000000036 C 53.06700000000001,141.60000000000036 53.00000000000001,141.66700000000037 53.00000000000001,141.75000000000034 L 53.00000000000001,144.60000000000036 L 47.300000000000004,144.60000000000036 L 47.300000000000004,141.75000000000034 C 47.300000000000004,141.66700000000037 47.233000000000004,141.60000000000036 47.150000000000006,141.60000000000036 L 41.150000000000006,141.60000000000036 C 41.06700000000001,141.60000000000036 41.00000000000001,141.66700000000037 41.00000000000001,141.75000000000034 L 41.00000000000001,144.60000000000036 L 35.300000000000004,144.60000000000036 L 35.300000000000004,141.75000000000034 C 35.300000000000004,141.66700000000037 35.233000000000004,141.60000000000036 35.150000000000006,141.60000000000036 L 29.150000000000006,141.60000000000036 C 29.067000000000007,141.60000000000036 29.000000000000007,141.66700000000037 29.000000000000007,141.75000000000034 L 29.000000000000007,144.60000000000036 L 23.300000000000004,144.60000000000036 L 23.300000000000004,141.75000000000034 C 23.300000000000004,141.66700000000037 23.233000000000004,141.60000000000036 23.150000000000006,141.60000000000036 L 13.150000000000006,141.60000000000036 C 13.067000000000005,141.60000000000036 13.000000000000005,141.66700000000037 13.000000000000005,141.75000000000034 L 13.000000000000005,144.75000000000034 L 13.000000000000005,155.10000000000036 L 10.150000000000006,155.10000000000036 C 10.067000000000005,155.10000000000036 10.000000000000005,155.16700000000037 10.000000000000005,155.25000000000034 L 10.000000000000005,161.25000000000034 C 10.000000000000005,161.33300000000042 10.067000000000005,161.40000000000043 10.150000000000006,161.40000000000043 L 13.000000000000005,161.40000000000043 L 13.000000000000005,167.10000000000036 L 10.150000000000006,167.10000000000036 C 10.067000000000005,167.10000000000036 10.000000000000005,167.16700000000037 10.000000000000005,167.25000000000034 L 10.000000000000005,173.25000000000034 C 10.000000000000005,173.33300000000042 10.067000000000005,173.40000000000043 10.150000000000006,173.40000000000043 L 13.000000000000005,173.40000000000043 L 13.000000000000005,183.75000000000034 L 13.000000000000005,186.75000000000034 C 13.000000000000005,186.83300000000042 13.067000000000005,186.90000000000043 13.150000000000006,186.90000000000043" stroke="#E10600" stroke-width="0.30" fill="none" />
</g>
<g id="p-3" style="fill:none;stroke-linecap:round;stroke-linejoin:round;" data-panel="Base Right">
  <path d="M 136.4500000000001,186.90000000000066 L 146.4500000000001,186.90000000000066 C 146.5330000000001,186.90000000000066 146.6000000000001,186.83300000000065 146.6000000000001,186.75000000000068 L 146.6000000000001,183.90000000000066 L 152.3000000000001,183.90000000000066 L 152.3000000000001,186.75000000000068 C 152.3000000000001,186.83300000000065 152.3670000000001,186.90000000000066 152.4500000000001,186.90000000000066 L 158.4500000000001,186.90000000000066 C 158.5330000000001,186.90000000000066 158.60000000000008,186.83300000000065 158.60000000000008,186.75000000000068 L 158.60000000000008,183.90000000000066 L 164.3000000000001,183.90000000000066 L 164.3000000000001,186.75000000000068 C 164.3000000000001,186.83300000000065 164.3670000000001,186.90000000000066 164.4500000000001,186.90000000000066 L 170.4500000000001,186.90000000000066 C 170.5330000000001,186.90000000000066 170.60000000000008,186.83300000000065 170.60000000000008,186.75000000000068 L 170.60000000000008,183.90000000000066 L 176.3000000000001,183.90000000000066 L 176.3000000000001,186.75000000000068 C 176.3000000000001,186.83300000000065 176.3670000000001,186.90000000000066 176.4500000000001,186.90000000000066 L 182.4500000000001,186.90000000000066 C 182.5330000000001,186.90000000000066 182.60000000000008,186.83300000000065 182.60000000000008,186.75000000000068 L 182.60000000000008,183.90000000000066 L 188.3000000000001,183.90000000000066 L 188.3000000000001,186.75000000000068 C 188.3000000000001,186.83300000000065 188.36700000000008,186.90000000000066 188.4500000000001,186.90000000000066 L 194.4500000000001,186.90000000000066 C 194.5330000000001,186.90000000000066 194.60000000000008,186.83300000000065 194.60000000000008,186.75000000000068 L 194.60000000000008,183.90000000000066 L 200.3000000000001,183.90000000000066 L 200.3000000000001,186.75000000000068 C 200.3000000000001,186.83300000000065 200.36700000000008,186.90000000000066 200.4500000000001,186.90000000000066 L 210.4500000000001,186.90000000000066 C 210.5330000000001,186.90000000000066 210.60000000000008,186.83300000000065 210.60000000000008,186.75000000000068 L 210.60000000000008,183.75000000000068 L 210.60000000000008,173.40000000000066 L 213.4500000000001,173.40000000000066 C 213.5330000000001,173.40000000000066 213.60000000000008,173.33300000000065 213.60000000000008,173.25000000000068 L 213.60000000000008,167.25000000000068 C 213.60000000000008,167.1670000000007 213.5330000000001,167.1000000000007 213.4500000000001,167.1000000000007 L 210.60000000000008,167.1000000000007 L 210.60000000000008,161.40000000000066 L 213.4500000000001,161.40000000000066 C 213.5330000000001,161.40000000000066 213.60000000000008,161.33300000000065 213.60000000000008,161.25000000000068 L 213.60000000000008,155.25000000000068 C 213.60000000000008,155.1670000000007 213.5330000000001,155.1000000000007 213.4500000000001,155.1000000000007 L 210.60000000000008,155.1000000000007 L 210.60000000000008,144.75000000000068 L 210.60000000000008,141.75000000000068 C 210.60000000000008,141.6670000000007 210.5330000000001,141.6000000000007 210.4500000000001,141.6000000000007 L 200.4500000000001,141.6000000000007 C 200.36700000000008,141.6000000000007 200.3000000000001,141.6670000000007 200.3000000000001,141.75000000000068 L 200.3000000000001,144.6000000000007 L 194.60000000000008,144.6000000000007 L 194.60000000000008,141.75000000000068 C 194.60000000000008,141.6670000000007 194.5330000000001,141.6000000000007 194.4500000000001,141.6000000000007 L 188.4500000000001,141.6000000000007 C 188.36700000000008,141.6000000000007 188.3000000000001,141.6670000000007 188.3000000000001,141.75000000000068 L 188.3000000000001,144.6000000000007 L 182.60000000000008,144.6000000000007 L 182.60000000000008,141.75000000000068 C 182.60000000000008,141.6670000000007 182.5330000000001,141.6000000000007 182.4500000000001,141.6000000000007 L 176.4500000000001,141.6000000000007 C 176.3670000000001,141.6000000000007 176.3000000000001,141.6670000000007 176.3000000000001,141.75000000000068 L 176.3000000000001,144.6000000000007 L 170.60000000000008,144.6000000000007 L 170.60000000000008,141.75000000000068 C 170.60000000000008,141.6670000000007 170.5330000000001,141.6000000000007 170.4500000000001,141.6000000000007 L 164.4500000000001,141.6000000000007 C 164.3670000000001,141.6000000000007 164.3000000000001,141.6670000000007 164.3000000000001,141.75000000000068 L 164.3000000000001,144.6000000000007 L 158.60000000000008,144.6000000000007 L 158.60000000000008,141.75000000000068 C 158.60000000000008,141.6670000000007 158.5330000000001,141.6000000000007 158.4500000000001,141.6000000000007 L 152.4500000000001,141.6000000000007 C 152.3670000000001,141.6000000000007 152.3000000000001,141.6670000000007 152.3000000000001,141.75000000000068 L 152.3000000000001,144.6000000000007 L 146.6000000000001,144.6000000000007 L 146.6000000000001,141.75000000000068 C 146.6000000000001,141.6670000000007 146.5330000000001,141.6000000000007 146.4500000000001,141.6000000000007 L 136.4500000000001,141.6000000000007 C 136.3670000000001,141.6000000000007 136.3000000000001,141.6670000000007 136.3000000000001,141.75000000000068 L 136.3000000000001,144.75000000000068 L 136.3000000000001,155.1000000000007 L 133.4500000000001,155.1000000000007 C 133.3670000000001,155.1000000000007 133.3000000000001,155.1670000000007 133.3000000000001,155.25000000000068 L 133.3000000000001,161.25000000000068 C 133.3000000000001,161.33300000000065 133.3670000000001,161.40000000000066 133.4500000000001,161.40000000000066 L 136.3000000000001,161.40000000000066 L 136.3000000000001,167.1000000000007 L 133.4500000000001,167.1000000000007 C 133.3670000000001,167.1000000000007 133.3000000000001,167.1670000000007 133.3000000000001,167.25000000000068 L 133.3000000000001,173.25000000000068 C 133.3000000000001,173.33300000000065 133.3670000000001,173.40000000000066 133.4500000000001,173.40000000000066 L 136.3000000000001,173.40000000000066 L 136.3000000000001,183.75000000000068 L 136.3000000000001,186.75000000000068 C 136.3000000000001,186.83300000000065 136.3670000000001,186.90000000000066 136.4500000000001,186.90000000000066" stroke="#E10600" stroke-width="0.30" fill="none" />
</g>
<g id="p-4" style="fill:none;stroke-linecap:round;stroke-linejoin:round;" data-panel="Base Top">
  <path d="M 41.650000000000006,81.0 L 35.300000000000004,81.0 L 35.300000000000004,62.30000000000007 L 48.00000000000001,62.30000000000007 L 48.00000000000001,81.0 L 41.650000000000006,81.0" stroke="#E10600" stroke-width="0.30" fill="none" />
  <path d="M 65.0,31.15000000000009 C 65.0,31.504999999999995 64.898,31.85200000000009 64.706,32.15000000000009 C 64.515,32.44900000000007 64.241,32.68500000000006 63.919000000000004,32.833000000000084 C 63.596000000000004,32.98000000000002 63.23800000000001,33.03200000000004 62.88700000000001,32.980999999999995 C 62.53600000000001,32.93100000000004 62.20700000000001,32.780000000000086 61.93900000000001,32.548 C 61.67000000000001,32.31600000000003 61.47500000000001,32.01100000000008 61.37500000000001,31.67100000000005 C 61.275000000000006,31.331000000000017 61.275000000000006,30.96900000000005 61.37500000000001,30.62900000000002 C 61.47500000000001,30.2890000000001 61.67000000000001,29.984000000000037 61.93900000000001,29.752000000000066 C 62.20700000000001,29.520000000000095 62.53600000000001,29.369000000000028 62.88700000000001,29.319000000000074 C 63.23800000000001,29.26800000000003 63.596000000000004,29.32000000000005 63.919000000000004,29.4670000000001 C 64.241,29.61500000000001 64.515,29.851 64.706,30.15000000000009 C 64.898,30.448000000000093 65.0,30.795000000000073 65.0,31.15000000000009" stroke="#E10600" stroke-width="0.30" fill="none" />
  <path d="M 70.15,81.0 L 63.800000000000004,81.0 L 63.800000000000004,62.30000000000007 L 76.5,62.30000000000007 L 76.5,81.0 L 70.15,81.0" stroke="#E10600" stroke-width="0.30" fill="none" />
  <path d="M 72.0,31.15000000000009 C 72.0,31.504999999999995 71.898,31.85200000000009 71.706,32.15000000000009 C 71.515,32.44900000000007 71.241,32.68500000000006 70.919,32.833000000000084 C 70.596,32.98000000000002 70.238,33.03200000000004 69.887,32.980999999999995 C 69.536,32.93100000000004 69.207,32.780000000000086 68.939,32.548 C 68.67,32.31600000000003 68.475,32.01100000000008 68.375,31.67100000000005 C 68.275,31.331000000000017 68.275,30.96900000000005 68.375,30.62900000000002 C 68.475,30.2890000000001 68.67,29.984000000000037 68.939,29.752000000000066 C 69.207,29.520000000000095 69.536,29.369000000000028 69.887,29.319000000000074 C 70.238,29.26800000000003 70.596,29.32000000000005 70.919,29.4670000000001 C 71.241,29.61500000000001 71.515,29.851 71.706,30.15000000000009 C 71.898,30.448000000000093 72.0,30.795000000000073 72.0,31.15000000000009" stroke="#E10600" stroke-width="0.30" fill="none" />
  <path d="M 98.65,81.0 L 92.3,81.0 L 92.3,62.30000000000007 L 105.0,62.30000000000007 L 105.0,81.0 L 98.65,81.0" stroke="#E10600" stroke-width="0.30" fill="none" />
  <path d="M 79.0,31.15000000000009 C 79.0,31.504999999999995 78.898,31.85200000000009 78.706,32.15000000000009 C 78.515,32.44900000000007 78.241,32.68500000000006 77.919,32.833000000000084 C 77.596,32.98000000000002 77.238,33.03200000000004 76.887,32.980999999999995 C 76.536,32.93100000000004 76.207,32.780000000000086 75.939,32.548 C 75.67,32.31600000000003 75.475,32.01100000000008 75.375,31.67100000000005 C 75.275,31.331000000000017 75.275,30.96900000000005 75.375,30.62900000000002 C 75.475,30.2890000000001 75.67,29.984000000000037 75.939,29.752000000000066 C 76.207,29.520000000000095 76.536,29.369000000000028 76.887,29.319000000000074 C 77.238,29.26800000000003 77.596,29.32000000000005 77.919,29.4670000000001 C 78.241,29.61500000000001 78.515,29.851 78.706,30.15000000000009 C 78.898,30.448000000000093 79.0,30.795000000000073 79.0,31.15000000000009" stroke="#E10600" stroke-width="0.30" fill="none" />
  <path d="M 53.650000000000006,36.0 L 52.300000000000004,36.0 L 52.300000000000004,26.300000000000068 L 55.00000000000001,26.300000000000068 L 55.00000000000001,36.0 L 53.650000000000006,36.0" stroke="#E10600" stroke-width="0.30" fill="none" />
  <path d="M 86.65,36.0 L 85.3,36.0 L 85.3,26.300000000000068 L 88.0,26.300000000000068 L 88.0,36.0 L 86.65,36.0" stroke="#E10600" stroke-width="0.30" fill="none" />
  <path d="M 13.150000000000006,87.30000000000007 L 19.000000000000007,87.30000000000007 L 19.000000000000007,90.15000000000009 C 19.000000000000007,90.23300000000006 19.067000000000007,90.30000000000007 19.150000000000006,90.30000000000007 L 25.150000000000006,90.30000000000007 C 25.233000000000004,90.30000000000007 25.300000000000004,90.23300000000006 25.300000000000004,90.15000000000009 L 25.300000000000004,87.30000000000007 L 31.000000000000007,87.30000000000007 L 31.000000000000007,90.15000000000009 C 31.000000000000007,90.23300000000006 31.067000000000007,90.30000000000007 31.150000000000006,90.30000000000007 L 37.150000000000006,90.30000000000007 C 37.233000000000004,90.30000000000007 37.300000000000004,90.23300000000006 37.300000000000004,90.15000000000009 L 37.300000000000004,87.30000000000007 L 43.00000000000001,87.30000000000007 L 43.00000000000001,90.15000000000009 C 43.00000000000001,90.23300000000006 43.06700000000001,90.30000000000007 43.150000000000006,90.30000000000007 L 49.150000000000006,90.30000000000007 C 49.233000000000004,90.30000000000007 49.300000000000004,90.23300000000006 49.300000000000004,90.15000000000009 L 49.300000000000004,87.30000000000007 L 55.00000000000001,87.30000000000007 L 55.00000000000001,90.15000000000009 C 55.00000000000001,90.23300000000006 55.06700000000001,90.30000000000007 55.150000000000006,90.30000000000007 L 61.150000000000006,90.30000000000007 C 61.233000000000004,90.30000000000007 61.300000000000004,90.23300000000006 61.300000000000004,90.15000000000009 L 61.300000000000004,87.30000000000007 L 67.0,87.30000000000007 L 67.0,90.15000000000009 C 67.0,90.23300000000006 67.067,90.30000000000007 67.15,90.30000000000007 L 73.15,90.30000000000007 C 73.233,90.30000000000007 73.3,90.23300000000006 73.3,90.15000000000009 L 73.3,87.30000000000007 L 79.0,87.30000000000007 L 79.0,90.15000000000009 C 79.0,90.23300000000006 79.067,90.30000000000007 79.15,90.30000000000007 L 85.15,90.30000000000007 C 85.233,90.30000000000007 85.3,90.23300000000006 85.3,90.15000000000009 L 85.3,87.30000000000007 L 91.0,87.30000000000007 L 91.0,90.15000000000009 C 91.0,90.23300000000006 91.067,90.30000000000007 91.15,90.30000000000007 L 97.15,90.30000000000007 C 97.233,90.30000000000007 97.3,90.23300000000006 97.3,90.15000000000009 L 97.3,87.30000000000007 L 103.0,87.30000000000007 L 103.0,90.15000000000009 C 103.0,90.23300000000006 103.067,90.30000000000007 103.15,90.30000000000007 L 109.15,90.30000000000007 C 109.233,90.30000000000007 109.3,90.23300000000006 109.3,90.15000000000009 L 109.3,87.30000000000007 L 115.0,87.30000000000007 L 115.0,90.15000000000009 C 115.0,90.23300000000006 115.067,90.30000000000007 115.15,90.30000000000007 L 121.15,90.30000000000007 C 121.233,90.30000000000007 121.3,90.23300000000006 121.3,90.15000000000009 L 121.3,87.30000000000007 L 127.15,87.30000000000007 C 127.233,87.30000000000007 127.3,87.23300000000006 127.3,87.15000000000009 L 127.3,77.30000000000007 L 130.15,77.30000000000007 C 130.233,77.30000000000007 130.3,77.23300000000006 130.3,77.15000000000009 L 130.3,71.15000000000009 C 130.3,71.06700000000001 130.233,71.0 130.15,71.0 L 127.3,71.0 L 127.3,65.30000000000007 L 130.15,65.30000000000007 C 130.233,65.30000000000007 130.3,65.23300000000006 130.3,65.15000000000009 L 130.3,59.15000000000009 C 130.3,59.06700000000001 130.233,59.0 130.15,59.0 L 127.3,59.0 L 127.3,53.30000000000007 L 130.15,53.30000000000007 C 130.233,53.30000000000007 130.3,53.23300000000006 130.3,53.15000000000009 L 130.3,47.15000000000009 C 130.3,47.06700000000001 130.233,47.0 130.15,47.0 L 127.3,47.0 L 127.3,41.30000000000007 L 130.15,41.30000000000007 C 130.233,41.30000000000007 130.3,41.23300000000006 130.3,41.15000000000009 L 130.3,35.15000000000009 C 130.3,35.06700000000001 130.233,35.0 130.15,35.0 L 127.3,35.0 L 127.3,29.300000000000068 L 130.15,29.300000000000068 C 130.233,29.300000000000068 130.3,29.23300000000006 130.3,29.15000000000009 L 130.3,23.15000000000009 C 130.3,23.067000000000007 130.233,23.0 130.15,23.0 L 127.3,23.0 L 127.3,13.150000000000091 C 127.3,13.067000000000007 127.233,13.0 127.15,13.0 L 121.3,13.0 L 121.3,10.150000000000091 C 121.3,10.067000000000007 121.233,10.0 121.15,10.0 L 115.15,10.0 C 115.067,10.0 115.0,10.067000000000007 115.0,10.150000000000091 L 115.0,13.0 L 109.3,13.0 L 109.3,10.150000000000091 C 109.3,10.067000000000007 109.233,10.0 109.15,10.0 L 103.15,10.0 C 103.067,10.0 103.0,10.067000000000007 103.0,10.150000000000091 L 103.0,13.0 L 97.3,13.0 L 97.3,10.150000000000091 C 97.3,10.067000000000007 97.233,10.0 97.15,10.0 L 91.15,10.0 C 91.067,10.0 91.0,10.067000000000007 91.0,10.150000000000091 L 91.0,13.0 L 85.3,13.0 L 85.3,10.150000000000091 C 85.3,10.067000000000007 85.233,10.0 85.15,10.0 L 79.15,10.0 C 79.067,10.0 79.0,10.067000000000007 79.0,10.150000000000091 L 79.0,13.0 L 73.3,13.0 L 73.3,10.150000000000091 C 73.3,10.067000000000007 73.233,10.0 73.15,10.0 L 67.15,10.0 C 67.067,10.0 67.0,10.067000000000007 67.0,10.150000000000091 L 67.0,13.0 L 61.300000000000004,13.0 L 61.300000000000004,10.150000000000091 C 61.300000000000004,10.067000000000007 61.233000000000004,10.0 61.150000000000006,10.0 L 55.150000000000006,10.0 C 55.06700000000001,10.0 55.00000000000001,10.067000000000007 55.00000000000001,10.150000000000091 L 55.00000000000001,13.0 L 49.300000000000004,13.0 L 49.300000000000004,10.150000000000091 C 49.300000000000004,10.067000000000007 49.233000000000004,10.0 49.150000000000006,10.0 L 43.150000000000006,10.0 C 43.06700000000001,10.0 43.00000000000001,10.067000000000007 43.00000000000001,10.150000000000091 L 43.00000000000001,13.0 L 37.300000000000004,13.0 L 37.300000000000004,10.150000000000091 C 37.300000000000004,10.067000000000007 37.233000000000004,10.0 37.150000000000006,10.0 L 31.150000000000006,10.0 C 31.067000000000007,10.0 31.000000000000007,10.067000000000007 31.000000000000007,10.150000000000091 L 31.000000000000007,13.0 L 25.300000000000004,13.0 L 25.300000000000004,10.150000000000091 C 25.300000000000004,10.067000000000007 25.233000000000004,10.0 25.150000000000006,10.0 L 19.150000000000006,10.0 C 19.067000000000007,10.0 19.000000000000007,10.067000000000007 19.000000000000007,10.150000000000091 L 19.000000000000007,13.0 L 13.150000000000006,13.0 C 13.067000000000005,13.0 13.000000000000005,13.067000000000007 13.000000000000005,13.150000000000091 L 13.000000000000005,23.0 L 10.150000000000006,23.0 C 10.067000000000005,23.0 10.000000000000005,23.067000000000007 10.000000000000005,23.15000000000009 L 10.000000000000005,29.15000000000009 C 10.000000000000005,29.23300000000006 10.067000000000005,29.300000000000068 10.150000000000006,29.300000000000068 L 13.000000000000005,29.300000000000068 L 13.000000000000005,35.0 L 10.150000000000006,35.0 C 10.067000000000005,35.0 10.000000000000005,35.06700000000001 10.000000000000005,35.15000000000009 L 10.000000000000005,41.15000000000009 C 10.000000000000005,41.23300000000006 10.067000000000005,41.30000000000007 10.150000000000006,41.30000000000007 L 13.000000000000005,41.30000000000007 L 13.000000000000005,47.0 L 10.150000000000006,47.0 C 10.067000000000005,47.0 10.000000000000005,47.06700000000001 10.000000000000005,47.15000000000009 L 10.000000000000005,53.15000000000009 C 10.000000000000005,53.23300000000006 10.067000000000005,53.30000000000007 10.150000000000006,53.30000000000007 L 13.000000000000005,53.30000000000007 L 13.000000000000005,59.0 L 10.150000000000006,59.0 C 10.067000000000005,59.0 10.000000000000005,59.06700000000001 10.000000000000005,59.15000000000009 L 10.000000000000005,65.15000000000009 C 10.000000000000005,65.23300000000006 10.067000000000005,65.30000000000007 10.150000000000006,65.30000000000007 L 13.000000000000005,65.30000000000007 L 13.000000000000005,71.0 L 10.150000000000006,71.0 C 10.067000000000005,71.0 10.000000000000005,71.06700000000001 10.000000000000005,71.15000000000009 L 10.000000000000005,77.15000000000009 C 10.000000000000005,77.23300000000006 10.067000000000005,77.30000000000007 10.150000000000006,77.30000000000007 L 13.000000000000005,77.30000000000007 L 13.000000000000005,87.15000000000009 C 13.000000000000005,87.23300000000006 13.067000000000005,87.30000000000007 13.150000000000006,87.30000000000007" stroke="#E10600" stroke-width="0.30" fill="none" />
</g>
<g id="p-5" style="fill:none;stroke-linecap:round;stroke-linejoin:round;" data-panel="Base Bottom">
  <path d="M 136.4500000000001,87.30000000000007 L 142.3000000000001,87.30000000000007 L 142.3000000000001,90.15000000000009 C 142.3000000000001,90.23300000000006 142.3670000000001,90.30000000000007 142.4500000000001,90.30000000000007 L 148.4500000000001,90.30000000000007 C 148.5330000000001,90.30000000000007 148.6000000000001,90.23300000000006 148.6000000000001,90.15000000000009 L 148.6000000000001,87.30000000000007 L 154.3000000000001,87.30000000000007 L 154.3000000000001,90.15000000000009 C 154.3000000000001,90.23300000000006 154.3670000000001,90.30000000000007 154.4500000000001,90.30000000000007 L 160.4500000000001,90.30000000000007 C 160.5330000000001,90.30000000000007 160.60000000000008,90.23300000000006 160.60000000000008,90.15000000000009 L 160.60000000000008,87.30000000000007 L 166.3000000000001,87.30000000000007 L 166.3000000000001,90.15000000000009 C 166.3000000000001,90.23300000000006 166.3670000000001,90.30000000000007 166.4500000000001,90.30000000000007 L 172.4500000000001,90.30000000000007 C 172.5330000000001,90.30000000000007 172.60000000000008,90.23300000000006 172.60000000000008,90.15000000000009 L 172.60000000000008,87.30000000000007 L 178.3000000000001,87.30000000000007 L 178.3000000000001,90.15000000000009 C 178.3000000000001,90.23300000000006 178.3670000000001,90.30000000000007 178.4500000000001,90.30000000000007 L 184.4500000000001,90.30000000000007 C 184.5330000000001,90.30000000000007 184.60000000000008,90.23300000000006 184.60000000000008,90.15000000000009 L 184.60000000000008,87.30000000000007 L 190.3000000000001,87.30000000000007 L 190.3000000000001,90.15000000000009 C 190.3000000000001,90.23300000000006 190.36700000000008,90.30000000000007 190.4500000000001,90.30000000000007 L 196.4500000000001,90.30000000000007 C 196.5330000000001,90.30000000000007 196.60000000000008,90.23300000000006 196.60000000000008,90.15000000000009 L 196.60000000000008,87.30000000000007 L 202.3000000000001,87.30000000000007 L 202.3000000000001,90.15000000000009 C 202.3000000000001,90.23300000000006 202.36700000000008,90.30000000000007 202.4500000000001,90.30000000000007 L 208.4500000000001,90.30000000000007 C 208.5330000000001,90.30000000000007 208.60000000000008,90.23300000000006 208.60000000000008,90.15000000000009 L 208.60000000000008,87.30000000000007 L 214.3000000000001,87.30000000000007 L 214.3000000000001,90.15000000000009 C 214.3000000000001,90.23300000000006 214.36700000000008,90.30000000000007 214.4500000000001,90.30000000000007 L 220.4500000000001,90.30000000000007 C 220.5330000000001,90.30000000000007 220.60000000000008,90.23300000000006 220.60000000000008,90.15000000000009 L 220.60000000000008,87.30000000000007 L 226.3000000000001,87.30000000000007 L 226.3000000000001,90.15000000000009 C 226.3000000000001,90.23300000000006 226.36700000000008,90.30000000000007 226.4500000000001,90.30000000000007 L 232.4500000000001,90.30000000000007 C 232.5330000000001,90.30000000000007 232.60000000000008,90.23300000000006 232.60000000000008,90.15000000000009 L 232.60000000000008,87.30000000000007 L 238.3000000000001,87.30000000000007 L 238.3000000000001,90.15000000000009 C 238.3000000000001,90.23300000000006 238.36700000000008,90.30000000000007 238.4500000000001,90.30000000000007 L 244.4500000000001,90.30000000000007 C 244.5330000000001,90.30000000000007 244.60000000000008,90.23300000000006 244.60000000000008,90.15000000000009 L 244.60000000000008,87.30000000000007 L 250.4500000000001,87.30000000000007 C 250.5330000000001,87.30000000000007 250.60000000000008,87.23300000000006 250.60000000000008,87.15000000000009 L 250.60000000000008,77.30000000000007 L 253.4500000000001,77.30000000000007 C 253.5330000000001,77.30000000000007 253.6000000000001,77.23300000000006 253.6000000000001,77.15000000000009 L 253.6000000000001,71.15000000000009 C 253.6000000000001,71.06700000000012 253.5330000000001,71.00000000000011 253.4500000000001,71.00000000000011 L 250.60000000000008,71.00000000000011 L 250.60000000000008,65.30000000000007 L 253.4500000000001,65.30000000000007 C 253.5330000000001,65.30000000000007 253.6000000000001,65.23300000000006 253.6000000000001,65.15000000000009 L 253.6000000000001,59.15000000000009 C 253.6000000000001,59.06700000000012 253.5330000000001,59.000000000000114 253.4500000000001,59.000000000000114 L 250.60000000000008,59.000000000000114 L 250.60000000000008,53.30000000000007 L 253.4500000000001,53.30000000000007 C 253.5330000000001,53.30000000000007 253.6000000000001,53.23300000000006 253.6000000000001,53.15000000000009 L 253.6000000000001,47.15000000000009 C 253.6000000000001,47.06700000000012 253.5330000000001,47.000000000000114 253.4500000000001,47.000000000000114 L 250.60000000000008,47.000000000000114 L 250.60000000000008,41.30000000000007 L 253.4500000000001,41.30000000000007 C 253.5330000000001,41.30000000000007 253.6000000000001,41.23300000000006 253.6000000000001,41.15000000000009 L 253.6000000000001,35.15000000000009 C 253.6000000000001,35.06700000000012 253.5330000000001,35.000000000000114 253.4500000000001,35.000000000000114 L 250.60000000000008,35.000000000000114 L 250.60000000000008,29.300000000000068 L 253.4500000000001,29.300000000000068 C 253.5330000000001,29.300000000000068 253.6000000000001,29.23300000000006 253.6000000000001,29.15000000000009 L 253.6000000000001,23.15000000000009 C 253.6000000000001,23.06700000000012 253.5330000000001,23.000000000000114 253.4500000000001,23.000000000000114 L 250.60000000000008,23.000000000000114 L 250.60000000000008,13.150000000000091 C 250.60000000000008,13.067000000000121 250.5330000000001,13.000000000000114 250.4500000000001,13.000000000000114 L 244.60000000000008,13.000000000000114 L 244.60000000000008,10.150000000000091 C 244.60000000000008,10.067000000000121 244.5330000000001,10.000000000000114 244.4500000000001,10.000000000000114 L 238.4500000000001,10.000000000000114 C 238.36700000000008,10.000000000000114 238.3000000000001,10.067000000000121 238.3000000000001,10.150000000000091 L 238.3000000000001,13.000000000000114 L 232.60000000000008,13.000000000000114 L 232.60000000000008,10.150000000000091 C 232.60000000000008,10.067000000000121 232.5330000000001,10.000000000000114 232.4500000000001,10.000000000000114 L 226.4500000000001,10.000000000000114 C 226.36700000000008,10.000000000000114 226.3000000000001,10.067000000000121 226.3000000000001,10.150000000000091 L 226.3000000000001,13.000000000000114 L 220.60000000000008,13.000000000000114 L 220.60000000000008,10.150000000000091 C 220.60000000000008,10.067000000000121 220.5330000000001,10.000000000000114 220.4500000000001,10.000000000000114 L 214.4500000000001,10.000000000000114 C 214.36700000000008,10.000000000000114 214.3000000000001,10.067000000000121 214.3000000000001,10.150000000000091 L 214.3000000000001,13.000000000000114 L 208.60000000000008,13.000000000000114 L 208.60000000000008,10.150000000000091 C 208.60000000000008,10.067000000000121 208.5330000000001,10.000000000000114 208.4500000000001,10.000000000000114 L 202.4500000000001,10.000000000000114 C 202.36700000000008,10.000000000000114 202.3000000000001,10.067000000000121 202.3000000000001,10.150000000000091 L 202.3000000000001,13.000000000000114 L 196.60000000000008,13.000000000000114 L 196.60000000000008,10.150000000000091 C 196.60000000000008,10.067000000000121 196.5330000000001,10.000000000000114 196.4500000000001,10.000000000000114 L 190.4500000000001,10.000000000000114 C 190.36700000000008,10.000000000000114 190.3000000000001,10.067000000000121 190.3000000000001,10.150000000000091 L 190.3000000000001,13.000000000000114 L 184.60000000000008,13.000000000000114 L 184.60000000000008,10.150000000000091 C 184.60000000000008,10.067000000000121 184.5330000000001,10.000000000000114 184.4500000000001,10.000000000000114 L 178.4500000000001,10.000000000000114 C 178.3670000000001,10.000000000000114 178.3000000000001,10.067000000000121 178.3000000000001,10.150000000000091 L 178.3000000000001,13.000000000000114 L 172.60000000000008,13.000000000000114 L 172.60000000000008,10.150000000000091 C 172.60000000000008,10.067000000000121 172.5330000000001,10.000000000000114 172.4500000000001,10.000000000000114 L 166.4500000000001,10.000000000000114 C 166.3670000000001,10.000000000000114 166.3000000000001,10.067000000000121 166.3000000000001,10.150000000000091 L 166.3000000000001,13.000000000000114 L 160.60000000000008,13.000000000000114 L 160.60000000000008,10.150000000000091 C 160.60000000000008,10.067000000000121 160.5330000000001,10.000000000000114 160.4500000000001,10.000000000000114 L 154.4500000000001,10.000000000000114 C 154.3670000000001,10.000000000000114 154.3000000000001,10.067000000000121 154.3000000000001,10.150000000000091 L 154.3000000000001,13.000000000000114 L 148.6000000000001,13.000000000000114 L 148.6000000000001,10.150000000000091 C 148.6000000000001,10.067000000000121 148.5330000000001,10.000000000000114 148.4500000000001,10.000000000000114 L 142.4500000000001,10.000000000000114 C 142.3670000000001,10.000000000000114 142.3000000000001,10.067000000000121 142.3000000000001,10.150000000000091 L 142.3000000000001,13.000000000000114 L 136.4500000000001,13.000000000000114 C 136.3670000000001,13.000000000000114 136.3000000000001,13.067000000000121 136.3000000000001,13.150000000000091 L 136.3000000000001,23.000000000000114 L 133.4500000000001,23.000000000000114 C 133.3670000000001,23.000000000000114 133.3000000000001,23.06700000000012 133.3000000000001,23.15000000000009 L 133.3000000000001,29.15000000000009 C 133.3000000000001,29.23300000000006 133.3670000000001,29.300000000000068 133.4500000000001,29.300000000000068 L 136.3000000000001,29.300000000000068 L 136.3000000000001,35.000000000000114 L 133.4500000000001,35.000000000000114 C 133.3670000000001,35.000000000000114 133.3000000000001,35.06700000000012 133.3000000000001,35.15000000000009 L 133.3000000000001,41.15000000000009 C 133.3000000000001,41.23300000000006 133.3670000000001,41.30000000000007 133.4500000000001,41.30000000000007 L 136.3000000000001,41.30000000000007 L 136.3000000000001,47.000000000000114 L 133.4500000000001,47.000000000000114 C 133.3670000000001,47.000000000000114 133.3000000000001,47.06700000000012 133.3000000000001,47.15000000000009 L 133.3000000000001,53.15000000000009 C 133.3000000000001,53.23300000000006 133.3670000000001,53.30000000000007 133.4500000000001,53.30000000000007 L 136.3000000000001,53.30000000000007 L 136.3000000000001,59.000000000000114 L 133.4500000000001,59.000000000000114 C 133.3670000000001,59.000000000000114 133.3000000000001,59.06700000000012 133.3000000000001,59.15000000000009 L 133.3000000000001,65.15000000000009 C 133.3000000000001,65.23300000000006 133.3670000000001,65.30000000000007 133.4500000000001,65.30000000000007 L 136.3000000000001,65.30000000000007 L 136.3000000000001,71.00000000000011 L 133.4500000000001,71.00000000000011 C 133.3670000000001,71.00000000000011 133.3000000000001,71.06700000000012 133.3000000000001,71.15000000000009 L 133.3000000000001,77.15000000000009 C 133.3000000000001,77.23300000000006 133.3670000000001,77.30000000000007 133.4500000000001,77.30000000000007 L 136.3000000000001,77.30000000000007 L 136.3000000000001,87.15000000000009 C 136.3000000000001,87.23300000000006 136.3670000000001,87.30000000000007 136.4500000000001,87.30000000000007" stroke="#E10600" stroke-width="0.30" fill="none" />
</g>
<g id="p-6" style="fill:none;stroke-linecap:round;stroke-linejoin:round;" data-panel="Tower Front">
  <path d="M 277.1000000000002,93.40000000000032 C 277.1000000000002,93.85100000000028 276.9710000000002,94.29200000000031 276.7270000000002,94.67100000000028 C 276.4830000000002,95.04900000000032 276.1360000000002,95.3500000000003 275.72600000000017,95.5380000000003 C 275.3160000000002,95.7250000000003 274.8610000000002,95.7900000000003 274.41600000000017,95.72600000000028 C 273.9700000000002,95.66200000000032 273.5520000000002,95.47100000000029 273.2110000000002,95.17600000000027 C 272.8710000000002,94.88100000000031 272.6220000000002,94.49400000000031 272.4950000000002,94.0620000000003 C 272.36800000000017,93.63000000000028 272.36800000000017,93.1700000000003 272.4950000000002,92.73800000000028 C 272.6220000000002,92.30600000000027 272.8710000000002,91.91900000000032 273.2110000000002,91.62400000000031 C 273.5520000000002,91.32900000000029 273.9700000000002,91.13800000000032 274.41600000000017,91.0740000000003 C 274.8610000000002,91.01000000000028 275.3160000000002,91.07500000000027 275.72600000000017,91.26200000000028 C 276.1360000000002,91.45000000000027 276.4830000000002,91.75100000000032 276.7270000000002,92.1290000000003 C 276.9710000000002,92.50800000000032 277.1000000000002,92.9490000000003 277.1000000000002,93.40000000000032" stroke="#E10600" stroke-width="0.30" fill="none" />
  <path d="M 277.1000000000002,66.65000000000032 C 277.1000000000002,67.10100000000028 276.9710000000002,67.54200000000031 276.7270000000002,67.92100000000028 C 276.4830000000002,68.29900000000032 276.1360000000002,68.6000000000003 275.72600000000017,68.7880000000003 C 275.3160000000002,68.9750000000003 274.8610000000002,69.0400000000003 274.41600000000017,68.97600000000028 C 273.9700000000002,68.91200000000032 273.5520000000002,68.72100000000029 273.2110000000002,68.42600000000027 C 272.8710000000002,68.13100000000031 272.6220000000002,67.74400000000031 272.4950000000002,67.3120000000003 C 272.36800000000017,66.88000000000028 272.36800000000017,66.4200000000003 272.4950000000002,65.98800000000028 C 272.6220000000002,65.55600000000027 272.8710000000002,65.16900000000032 273.2110000000002,64.87400000000031 C 273.5520000000002,64.57900000000029 273.9700000000002,64.38800000000032 274.41600000000017,64.3240000000003 C 274.8610000000002,64.26000000000028 275.3160000000002,64.32500000000027 275.72600000000017,64.51200000000028 C 276.1360000000002,64.70000000000027 276.4830000000002,65.00100000000032 276.7270000000002,65.3790000000003 C 276.9710000000002,65.75800000000032 277.1000000000002,66.1990000000003 277.1000000000002,66.65000000000032" stroke="#E10600" stroke-width="0.30" fill="none" />
  <path d="M 277.1000000000002,39.90000000000032 C 277.1000000000002,40.35100000000028 276.9710000000002,40.792000000000314 276.7270000000002,41.17100000000028 C 276.4830000000002,41.54900000000032 276.1360000000002,41.85000000000031 275.72600000000017,42.038000000000295 C 275.3160000000002,42.22500000000031 274.8610000000002,42.290000000000305 274.41600000000017,42.22600000000028 C 273.9700000000002,42.16200000000032 273.5520000000002,41.97100000000029 273.2110000000002,41.67600000000027 C 272.8710000000002,41.38100000000031 272.6220000000002,40.99400000000031 272.4950000000002,40.562000000000296 C 272.36800000000017,40.13000000000028 272.36800000000017,39.6700000000003 272.4950000000002,39.238000000000284 C 272.6220000000002,38.80600000000027 272.8710000000002,38.419000000000324 273.2110000000002,38.12400000000031 C 273.5520000000002,37.82900000000029 273.9700000000002,37.63800000000032 274.41600000000017,37.5740000000003 C 274.8610000000002,37.510000000000275 275.3160000000002,37.57500000000027 275.72600000000017,37.762000000000285 C 276.1360000000002,37.95000000000027 276.4830000000002,38.25100000000032 276.7270000000002,38.6290000000003 C 276.9710000000002,39.00800000000032 277.1000000000002,39.4490000000003 277.1000000000002,39.90000000000032" stroke="#E10600" stroke-width="0.30" fill="none" />
  <path d="M 259.75000000000017,120.3000000000003 L 289.75000000000017,120.3000000000003 L 292.75000000000017,120.3000000000003 C 292.8330000000002,120.3000000000003 292.9000000000002,120.23300000000029 292.9000000000002,120.15000000000032 L 292.9000000000002,111.65000000000032 C 292.9000000000002,111.56700000000029 292.8330000000002,111.50000000000028 292.75000000000017,111.50000000000028 L 289.9000000000002,111.50000000000028 L 289.9000000000002,105.8000000000003 L 292.75000000000017,105.8000000000003 C 292.8330000000002,105.8000000000003 292.9000000000002,105.73300000000029 292.9000000000002,105.65000000000032 L 292.9000000000002,99.65000000000032 C 292.9000000000002,99.56700000000029 292.8330000000002,99.50000000000028 292.75000000000017,99.50000000000028 L 289.9000000000002,99.50000000000028 L 289.9000000000002,93.8000000000003 L 292.75000000000017,93.8000000000003 C 292.8330000000002,93.8000000000003 292.9000000000002,93.73300000000029 292.9000000000002,93.65000000000032 L 292.9000000000002,87.65000000000032 C 292.9000000000002,87.56700000000029 292.8330000000002,87.50000000000028 292.75000000000017,87.50000000000028 L 289.9000000000002,87.50000000000028 L 289.9000000000002,81.8000000000003 L 292.75000000000017,81.8000000000003 C 292.8330000000002,81.8000000000003 292.9000000000002,81.73300000000029 292.9000000000002,81.65000000000032 L 292.9000000000002,75.65000000000032 C 292.9000000000002,75.56700000000029 292.8330000000002,75.50000000000028 292.75000000000017,75.50000000000028 L 289.9000000000002,75.50000000000028 L 289.9000000000002,69.8000000000003 L 292.75000000000017,69.8000000000003 C 292.8330000000002,69.8000000000003 292.9000000000002,69.73300000000029 292.9000000000002,69.65000000000032 L 292.9000000000002,63.65000000000032 C 292.9000000000002,63.56700000000029 292.8330000000002,63.500000000000284 292.75000000000017,63.500000000000284 L 289.9000000000002,63.500000000000284 L 289.9000000000002,57.800000000000296 L 292.75000000000017,57.800000000000296 C 292.8330000000002,57.800000000000296 292.9000000000002,57.73300000000029 292.9000000000002,57.65000000000032 L 292.9000000000002,51.65000000000032 C 292.9000000000002,51.56700000000029 292.8330000000002,51.500000000000284 292.75000000000017,51.500000000000284 L 289.9000000000002,51.500000000000284 L 289.9000000000002,45.800000000000296 L 292.75000000000017,45.800000000000296 C 292.8330000000002,45.800000000000296 292.9000000000002,45.73300000000029 292.9000000000002,45.65000000000032 L 292.9000000000002,39.65000000000032 C 292.9000000000002,39.56700000000029 292.8330000000002,39.500000000000284 292.75000000000017,39.500000000000284 L 289.9000000000002,39.500000000000284 L 289.9000000000002,33.800000000000296 L 292.75000000000017,33.800000000000296 C 292.8330000000002,33.800000000000296 292.9000000000002,33.73300000000029 292.9000000000002,33.65000000000032 L 292.9000000000002,27.65000000000032 C 292.9000000000002,27.56700000000029 292.8330000000002,27.500000000000284 292.75000000000017,27.500000000000284 L 289.9000000000002,27.500000000000284 L 289.9000000000002,21.800000000000296 L 292.75000000000017,21.800000000000296 C 292.8330000000002,21.800000000000296 292.9000000000002,21.73300000000029 292.9000000000002,21.65000000000032 L 292.9000000000002,13.150000000000318 L 292.9000000000002,10.150000000000318 C 292.9000000000002,10.067000000000291 292.8330000000002,10.000000000000284 292.75000000000017,10.000000000000284 L 289.75000000000017,10.000000000000284 L 283.75000000000017,10.000000000000284 C 283.6670000000002,10.000000000000284 283.6000000000002,10.067000000000291 283.6000000000002,10.150000000000318 L 283.6000000000002,13.000000000000284 L 277.9000000000002,13.000000000000284 L 277.9000000000002,10.150000000000318 C 277.9000000000002,10.067000000000291 277.8330000000002,10.000000000000284 277.75000000000017,10.000000000000284 L 271.75000000000017,10.000000000000284 C 271.6670000000002,10.000000000000284 271.6000000000002,10.067000000000291 271.6000000000002,10.150000000000318 L 271.6000000000002,13.000000000000284 L 265.9000000000002,13.000000000000284 L 265.9000000000002,10.150000000000318 C 265.9000000000002,10.067000000000291 265.8330000000002,10.000000000000284 265.75000000000017,10.000000000000284 L 259.75000000000017,10.000000000000284 L 256.75000000000017,10.000000000000284 C 256.6670000000002,10.000000000000284 256.6000000000002,10.067000000000291 256.6000000000002,10.150000000000318 L 256.6000000000002,13.150000000000318 L 256.6000000000002,21.65000000000032 C 256.6000000000002,21.73300000000029 256.6670000000002,21.800000000000296 256.75000000000017,21.800000000000296 L 259.6000000000002,21.800000000000296 L 259.6000000000002,27.500000000000284 L 256.75000000000017,27.500000000000284 C 256.6670000000002,27.500000000000284 256.6000000000002,27.56700000000029 256.6000000000002,27.65000000000032 L 256.6000000000002,33.65000000000032 C 256.6000000000002,33.73300000000029 256.6670000000002,33.800000000000296 256.75000000000017,33.800000000000296 L 259.6000000000002,33.800000000000296 L 259.6000000000002,39.500000000000284 L 256.75000000000017,39.500000000000284 C 256.6670000000002,39.500000000000284 256.6000000000002,39.56700000000029 256.6000000000002,39.65000000000032 L 256.6000000000002,45.65000000000032 C 256.6000000000002,45.73300000000029 256.6670000000002,45.800000000000296 256.75000000000017,45.800000000000296 L 259.6000000000002,45.800000000000296 L 259.6000000000002,51.500000000000284 L 256.75000000000017,51.500000000000284 C 256.6670000000002,51.500000000000284 256.6000000000002,51.56700000000029 256.6000000000002,51.65000000000032 L 256.6000000000002,57.65000000000032 C 256.6000000000002,57.73300000000029 256.6670000000002,57.800000000000296 256.75000000000017,57.800000000000296 L 259.6000000000002,57.800000000000296 L 259.6000000000002,63.500000000000284 L 256.75000000000017,63.500000000000284 C 256.6670000000002,63.500000000000284 256.6000000000002,63.56700000000029 256.6000000000002,63.65000000000032 L 256.6000000000002,69.65000000000032 C 256.6000000000002,69.73300000000029 256.6670000000002,69.8000000000003 256.75000000000017,69.8000000000003 L 259.6000000000002,69.8000000000003 L 259.6000000000002,75.50000000000028 L 256.75000000000017,75.50000000000028 C 256.6670000000002,75.50000000000028 256.6000000000002,75.56700000000029 256.6000000000002,75.65000000000032 L 256.6000000000002,81.65000000000032 C 256.6000000000002,81.73300000000029 256.6670000000002,81.8000000000003 256.75000000000017,81.8000000000003 L 259.6000000000002,81.8000000000003 L 259.6000000000002,87.50000000000028 L 256.75000000000017,87.50000000000028 C 256.6670000000002,87.50000000000028 256.6000000000002,87.56700000000029 256.6000000000002,87.65000000000032 L 256.6000000000002,93.65000000000032 C 256.6000000000002,93.73300000000029 256.6670000000002,93.8000000000003 256.75000000000017,93.8000000000003 L 259.6000000000002,93.8000000000003 L 259.6000000000002,99.50000000000028 L 256.75000000000017,99.50000000000028 C 256.6670000000002,99.50000000000028 256.6000000000002,99.56700000000029 256.6000000000002,99.65000000000032 L 256.6000000000002,105.65000000000032 C 256.6000000000002,105.73300000000029 256.6670000000002,105.8000000000003 256.75000000000017,105.8000000000003 L 259.6000000000002,105.8000000000003 L 259.6000000000002,111.50000000000028 L 256.75000000000017,111.50000000000028 C 256.6670000000002,111.50000000000028 256.6000000000002,111.56700000000029 256.6000000000002,111.65000000000032 L 256.6000000000002,120.15000000000032 C 256.6000000000002,120.23300000000029 256.6670000000002,120.3000000000003 256.75000000000017,120.3000000000003 L 259.75000000000017,120.3000000000003" stroke="#E10600" stroke-width="0.30" fill="none" />
</g>
<g id="p-7" style="fill:none;stroke-linecap:round;stroke-linejoin:round;" data-panel="Tower Back">
  <path d="M 259.75000000000017,233.60000000000042 L 289.75000000000017,233.60000000000042 L 292.75000000000017,233.60000000000042 C 292.8330000000002,233.60000000000042 292.9000000000002,233.5330000000004 292.9000000000002,233.45000000000044 L 292.9000000000002,224.95000000000044 C 292.9000000000002,224.86700000000042 292.8330000000002,224.8000000000004 292.75000000000017,224.8000000000004 L 289.9000000000002,224.8000000000004 L 289.9000000000002,219.10000000000042 L 292.75000000000017,219.10000000000042 C 292.8330000000002,219.10000000000042 292.9000000000002,219.0330000000004 292.9000000000002,218.95000000000044 L 292.9000000000002,212.95000000000044 C 292.9000000000002,212.86700000000042 292.8330000000002,212.8000000000004 292.75000000000017,212.8000000000004 L 289.9000000000002,212.8000000000004 L 289.9000000000002,207.10000000000042 L 292.75000000000017,207.10000000000042 C 292.8330000000002,207.10000000000042 292.9000000000002,207.0330000000004 292.9000000000002,206.95000000000044 L 292.9000000000002,200.95000000000044 C 292.9000000000002,200.86700000000042 292.8330000000002,200.8000000000004 292.75000000000017,200.8000000000004 L 289.9000000000002,200.8000000000004 L 289.9000000000002,195.10000000000042 L 292.75000000000017,195.10000000000042 C 292.8330000000002,195.10000000000042 292.9000000000002,195.0330000000004 292.9000000000002,194.95000000000044 L 292.9000000000002,188.95000000000044 C 292.9000000000002,188.86700000000042 292.8330000000002,188.8000000000004 292.75000000000017,188.8000000000004 L 289.9000000000002,188.8000000000004 L 289.9000000000002,183.10000000000042 L 292.75000000000017,183.10000000000042 C 292.8330000000002,183.10000000000042 292.9000000000002,183.0330000000004 292.9000000000002,182.95000000000044 L 292.9000000000002,176.95000000000044 C 292.9000000000002,176.86700000000042 292.8330000000002,176.8000000000004 292.75000000000017,176.8000000000004 L 289.9000000000002,176.8000000000004 L 289.9000000000002,171.10000000000042 L 292.75000000000017,171.10000000000042 C 292.8330000000002,171.10000000000042 292.9000000000002,171.0330000000004 292.9000000000002,170.95000000000044 L 292.9000000000002,164.95000000000044 C 292.9000000000002,164.86700000000042 292.8330000000002,164.8000000000004 292.75000000000017,164.8000000000004 L 289.9000000000002,164.8000000000004 L 289.9000000000002,159.10000000000042 L 292.75000000000017,159.10000000000042 C 292.8330000000002,159.10000000000042 292.9000000000002,159.0330000000004 292.9000000000002,158.95000000000044 L 292.9000000000002,152.95000000000044 C 292.9000000000002,152.86700000000042 292.8330000000002,152.8000000000004 292.75000000000017,152.8000000000004 L 289.9000000000002,152.8000000000004 L 289.9000000000002,147.10000000000042 L 292.75000000000017,147.10000000000042 C 292.8330000000002,147.10000000000042 292.9000000000002,147.0330000000004 292.9000000000002,146.95000000000044 L 292.9000000000002,140.95000000000044 C 292.9000000000002,140.86700000000042 292.8330000000002,140.8000000000004 292.75000000000017,140.8000000000004 L 289.9000000000002,140.8000000000004 L 289.9000000000002,135.10000000000042 L 292.75000000000017,135.10000000000042 C 292.8330000000002,135.10000000000042 292.9000000000002,135.0330000000004 292.9000000000002,134.95000000000044 L 292.9000000000002,126.45000000000044 L 292.9000000000002,123.45000000000044 C 292.9000000000002,123.36700000000042 292.8330000000002,123.30000000000041 292.75000000000017,123.30000000000041 L 289.75000000000017,123.30000000000041 L 283.75000000000017,123.30000000000041 C 283.6670000000002,123.30000000000041 283.6000000000002,123.36700000000042 283.6000000000002,123.45000000000044 L 283.6000000000002,126.30000000000041 L 277.9000000000002,126.30000000000041 L 277.9000000000002,123.45000000000044 C 277.9000000000002,123.36700000000042 277.8330000000002,123.30000000000041 277.75000000000017,123.30000000000041 L 271.75000000000017,123.30000000000041 C 271.6670000000002,123.30000000000041 271.6000000000002,123.36700000000042 271.6000000000002,123.45000000000044 L 271.6000000000002,126.30000000000041 L 265.9000000000002,126.30000000000041 L 265.9000000000002,123.45000000000044 C 265.9000000000002,123.36700000000042 265.8330000000002,123.30000000000041 265.75000000000017,123.30000000000041 L 259.75000000000017,123.30000000000041 L 256.75000000000017,123.30000000000041 C 256.6670000000002,123.30000000000041 256.6000000000002,123.36700000000042 256.6000000000002,123.45000000000044 L 256.6000000000002,126.45000000000044 L 256.6000000000002,134.95000000000044 C 256.6000000000002,135.0330000000004 256.6670000000002,135.10000000000042 256.75000000000017,135.10000000000042 L 259.6000000000002,135.10000000000042 L 259.6000000000002,140.8000000000004 L 256.75000000000017,140.8000000000004 C 256.6670000000002,140.8000000000004 256.6000000000002,140.86700000000042 256.6000000000002,140.95000000000044 L 256.6000000000002,146.95000000000044 C 256.6000000000002,147.0330000000004 256.6670000000002,147.10000000000042 256.75000000000017,147.10000000000042 L 259.6000000000002,147.10000000000042 L 259.6000000000002,152.8000000000004 L 256.75000000000017,152.8000000000004 C 256.6670000000002,152.8000000000004 256.6000000000002,152.86700000000042 256.6000000000002,152.95000000000044 L 256.6000000000002,158.95000000000044 C 256.6000000000002,159.0330000000004 256.6670000000002,159.10000000000042 256.75000000000017,159.10000000000042 L 259.6000000000002,159.10000000000042 L 259.6000000000002,164.8000000000004 L 256.75000000000017,164.8000000000004 C 256.6670000000002,164.8000000000004 256.6000000000002,164.86700000000042 256.6000000000002,164.95000000000044 L 256.6000000000002,170.95000000000044 C 256.6000000000002,171.0330000000004 256.6670000000002,171.10000000000042 256.75000000000017,171.10000000000042 L 259.6000000000002,171.10000000000042 L 259.6000000000002,176.8000000000004 L 256.75000000000017,176.8000000000004 C 256.6670000000002,176.8000000000004 256.6000000000002,176.86700000000042 256.6000000000002,176.95000000000044 L 256.6000000000002,182.95000000000044 C 256.6000000000002,183.0330000000004 256.6670000000002,183.10000000000042 256.75000000000017,183.10000000000042 L 259.6000000000002,183.10000000000042 L 259.6000000000002,188.8000000000004 L 256.75000000000017,188.8000000000004 C 256.6670000000002,188.8000000000004 256.6000000000002,188.86700000000042 256.6000000000002,188.95000000000044 L 256.6000000000002,194.95000000000044 C 256.6000000000002,195.0330000000004 256.6670000000002,195.10000000000042 256.75000000000017,195.10000000000042 L 259.6000000000002,195.10000000000042 L 259.6000000000002,200.8000000000004 L 256.75000000000017,200.8000000000004 C 256.6670000000002,200.8000000000004 256.6000000000002,200.86700000000042 256.6000000000002,200.95000000000044 L 256.6000000000002,206.95000000000044 C 256.6000000000002,207.0330000000004 256.6670000000002,207.10000000000042 256.75000000000017,207.10000000000042 L 259.6000000000002,207.10000000000042 L 259.6000000000002,212.8000000000004 L 256.75000000000017,212.8000000000004 C 256.6670000000002,212.8000000000004 256.6000000000002,212.86700000000042 256.6000000000002,212.95000000000044 L 256.6000000000002,218.95000000000044 C 256.6000000000002,219.0330000000004 256.6670000000002,219.10000000000042 256.75000000000017,219.10000000000042 L 259.6000000000002,219.10000000000042 L 259.6000000000002,224.8000000000004 L 256.75000000000017,224.8000000000004 C 256.6670000000002,224.8000000000004 256.6000000000002,224.86700000000042 256.6000000000002,224.95000000000044 L 256.6000000000002,233.45000000000044 C 256.6000000000002,233.5330000000004 256.6670000000002,233.60000000000042 256.75000000000017,233.60000000000042 L 259.75000000000017,233.60000000000042" stroke="#E10600" stroke-width="0.30" fill="none" />
</g>
<g id="p-8" style="fill:none;stroke-linecap:round;stroke-linejoin:round;" data-panel="Tower Left">
  <path d="M 219.75000000000009,251.90000000000012 L 226.60000000000008,251.90000000000012 L 226.60000000000008,254.75000000000014 C 226.60000000000008,254.83300000000017 226.6670000000001,254.90000000000012 226.75000000000009,254.90000000000012 L 236.75000000000009,254.90000000000012 C 236.83300000000008,254.90000000000012 236.9000000000001,254.83300000000017 236.9000000000001,254.75000000000014 L 236.9000000000001,251.90000000000012 L 243.75000000000009,251.90000000000012 C 243.83300000000008,251.90000000000012 243.9000000000001,251.83300000000017 243.9000000000001,251.75000000000014 L 243.9000000000001,243.40000000000012 L 246.75000000000009,243.40000000000012 C 246.83300000000008,243.40000000000012 246.9000000000001,243.33300000000017 246.9000000000001,243.25000000000014 L 246.9000000000001,237.25000000000014 C 246.9000000000001,237.16700000000014 246.83300000000008,237.10000000000014 246.75000000000009,237.10000000000014 L 243.9000000000001,237.10000000000014 L 243.9000000000001,231.40000000000015 L 246.75000000000009,231.40000000000015 C 246.83300000000008,231.40000000000015 246.9000000000001,231.33300000000014 246.9000000000001,231.25000000000014 L 246.9000000000001,225.25000000000014 C 246.9000000000001,225.16700000000014 246.83300000000008,225.10000000000014 246.75000000000009,225.10000000000014 L 243.9000000000001,225.10000000000014 L 243.9000000000001,219.40000000000015 L 246.75000000000009,219.40000000000015 C 246.83300000000008,219.40000000000015 246.9000000000001,219.33300000000014 246.9000000000001,219.25000000000014 L 246.9000000000001,213.25000000000014 C 246.9000000000001,213.16700000000014 246.83300000000008,213.10000000000014 246.75000000000009,213.10000000000014 L 243.9000000000001,213.10000000000014 L 243.9000000000001,207.40000000000015 L 246.75000000000009,207.40000000000015 C 246.83300000000008,207.40000000000015 246.9000000000001,207.33300000000014 246.9000000000001,207.25000000000014 L 246.9000000000001,201.25000000000014 C 246.9000000000001,201.16700000000014 246.83300000000008,201.10000000000014 246.75000000000009,201.10000000000014 L 243.9000000000001,201.10000000000014 L 243.9000000000001,195.40000000000015 L 246.75000000000009,195.40000000000015 C 246.83300000000008,195.40000000000015 246.9000000000001,195.33300000000014 246.9000000000001,195.25000000000014 L 246.9000000000001,189.25000000000014 C 246.9000000000001,189.16700000000014 246.83300000000008,189.10000000000014 246.75000000000009,189.10000000000014 L 243.9000000000001,189.10000000000014 L 243.9000000000001,183.40000000000015 L 246.75000000000009,183.40000000000015 C 246.83300000000008,183.40000000000015 246.9000000000001,183.33300000000014 246.9000000000001,183.25000000000014 L 246.9000000000001,177.25000000000014 C 246.9000000000001,177.16700000000014 246.83300000000008,177.10000000000014 246.75000000000009,177.10000000000014 L 243.9000000000001,177.10000000000014 L 243.9000000000001,171.40000000000015 L 246.75000000000009,171.40000000000015 C 246.83300000000008,171.40000000000015 246.9000000000001,171.33300000000014 246.9000000000001,171.25000000000014 L 246.9000000000001,165.25000000000014 C 246.9000000000001,165.16700000000014 246.83300000000008,165.10000000000014 246.75000000000009,165.10000000000014 L 243.9000000000001,165.10000000000014 L 243.9000000000001,159.40000000000015 L 246.75000000000009,159.40000000000015 C 246.83300000000008,159.40000000000015 246.9000000000001,159.33300000000014 246.9000000000001,159.25000000000014 L 246.9000000000001,153.25000000000014 C 246.9000000000001,153.16700000000014 246.83300000000008,153.10000000000014 246.75000000000009,153.10000000000014 L 243.9000000000001,153.10000000000014 L 243.9000000000001,144.75000000000014 L 243.9000000000001,141.75000000000014 C 243.9000000000001,141.66700000000014 243.83300000000008,141.60000000000014 243.75000000000009,141.60000000000014 L 234.75000000000009,141.60000000000014 C 234.6670000000001,141.60000000000014 234.60000000000008,141.66700000000014 234.60000000000008,141.75000000000014 L 234.60000000000008,144.60000000000014 L 228.9000000000001,144.60000000000014 L 228.9000000000001,141.75000000000014 C 228.9000000000001,141.66700000000014 228.83300000000008,141.60000000000014 228.75000000000009,141.60000000000014 L 219.75000000000009,141.60000000000014 C 219.6670000000001,141.60000000000014 219.60000000000008,141.66700000000014 219.60000000000008,141.75000000000014 L 219.60000000000008,144.75000000000014 L 219.60000000000008,153.10000000000014 L 216.75000000000009,153.10000000000014 C 216.6670000000001,153.10000000000014 216.60000000000008,153.16700000000014 216.60000000000008,153.25000000000014 L 216.60000000000008,159.25000000000014 C 216.60000000000008,159.33300000000014 216.6670000000001,159.40000000000015 216.75000000000009,159.40000000000015 L 219.60000000000008,159.40000000000015 L 219.60000000000008,165.10000000000014 L 216.75000000000009,165.10000000000014 C 216.6670000000001,165.10000000000014 216.60000000000008,165.16700000000014 216.60000000000008,165.25000000000014 L 216.60000000000008,171.25000000000014 C 216.60000000000008,171.33300000000014 216.6670000000001,171.40000000000015 216.75000000000009,171.40000000000015 L 219.60000000000008,171.40000000000015 L 219.60000000000008,177.10000000000014 L 216.75000000000009,177.10000000000014 C 216.6670000000001,177.10000000000014 216.60000000000008,177.16700000000014 216.60000000000008,177.25000000000014 L 216.60000000000008,183.25000000000014 C 216.60000000000008,183.33300000000014 216.6670000000001,183.40000000000015 216.75000000000009,183.40000000000015 L 219.60000000000008,183.40000000000015 L 219.60000000000008,189.10000000000014 L 216.75000000000009,189.10000000000014 C 216.6670000000001,189.10000000000014 216.60000000000008,189.16700000000014 216.60000000000008,189.25000000000014 L 216.60000000000008,195.25000000000014 C 216.60000000000008,195.33300000000014 216.6670000000001,195.40000000000015 216.75000000000009,195.40000000000015 L 219.60000000000008,195.40000000000015 L 219.60000000000008,201.10000000000014 L 216.75000000000009,201.10000000000014 C 216.6670000000001,201.10000000000014 216.60000000000008,201.16700000000014 216.60000000000008,201.25000000000014 L 216.60000000000008,207.25000000000014 C 216.60000000000008,207.33300000000014 216.6670000000001,207.40000000000015 216.75000000000009,207.40000000000015 L 219.60000000000008,207.40000000000015 L 219.60000000000008,213.10000000000014 L 216.75000000000009,213.10000000000014 C 216.6670000000001,213.10000000000014 216.60000000000008,213.16700000000014 216.60000000000008,213.25000000000014 L 216.60000000000008,219.25000000000014 C 216.60000000000008,219.33300000000014 216.6670000000001,219.40000000000015 216.75000000000009,219.40000000000015 L 219.60000000000008,219.40000000000015 L 219.60000000000008,225.10000000000014 L 216.75000000000009,225.10000000000014 C 216.6670000000001,225.10000000000014 216.60000000000008,225.16700000000014 216.60000000000008,225.25000000000014 L 216.60000000000008,231.25000000000014 C 216.60000000000008,231.33300000000014 216.6670000000001,231.40000000000015 216.75000000000009,231.40000000000015 L 219.60000000000008,231.40000000000015 L 219.60000000000008,237.10000000000014 L 216.75000000000009,237.10000000000014 C 216.6670000000001,237.10000000000014 216.60000000000008,237.16700000000014 216.60000000000008,237.25000000000014 L 216.60000000000008,243.25000000000014 C 216.60000000000008,243.33300000000017 216.6670000000001,243.40000000000012 216.75000000000009,243.40000000000012 L 219.60000000000008,243.40000000000012 L 219.60000000000008,251.75000000000014 C 219.60000000000008,251.83300000000017 219.6670000000001,251.90000000000012 219.75000000000009,251.90000000000012" stroke="#E10600" stroke-width="0.30" fill="none" />
</g>
<g id="p-9" style="fill:none;stroke-linecap:round;stroke-linejoin:round;" data-panel="Tower Right">
  <path d="M 96.45,251.90000000000026 L 103.3,251.90000000000026 L 103.3,254.75000000000026 C 103.3,254.83300000000025 103.36699999999999,254.90000000000026 103.44999999999999,254.90000000000026 L 113.44999999999999,254.90000000000026 C 113.533,254.90000000000026 113.6,254.83300000000025 113.6,254.75000000000026 L 113.6,251.90000000000026 L 120.44999999999999,251.90000000000026 C 120.53299999999999,251.90000000000026 120.6,251.83300000000025 120.6,251.75000000000026 L 120.6,243.40000000000026 L 123.44999999999999,243.40000000000026 C 123.53299999999999,243.40000000000026 123.6,243.33300000000025 123.6,243.25000000000026 L 123.6,237.25000000000026 C 123.6,237.16700000000026 123.53299999999999,237.10000000000028 123.44999999999999,237.10000000000028 L 120.6,237.10000000000028 L 120.6,231.40000000000026 L 123.44999999999999,231.40000000000026 C 123.53299999999999,231.40000000000026 123.6,231.33300000000025 123.6,231.25000000000026 L 123.6,225.25000000000028 C 123.6,225.16700000000026 123.53299999999999,225.10000000000025 123.44999999999999,225.10000000000025 L 120.6,225.10000000000025 L 120.6,219.40000000000026 L 123.44999999999999,219.40000000000026 C 123.53299999999999,219.40000000000026 123.6,219.33300000000025 123.6,219.25000000000028 L 123.6,213.25000000000028 C 123.6,213.16700000000026 123.53299999999999,213.10000000000025 123.44999999999999,213.10000000000025 L 120.6,213.10000000000025 L 120.6,207.40000000000026 L 123.44999999999999,207.40000000000026 C 123.53299999999999,207.40000000000026 123.6,207.33300000000025 123.6,207.25000000000028 L 123.6,201.25000000000028 C 123.6,201.16700000000026 123.53299999999999,201.10000000000025 123.44999999999999,201.10000000000025 L 120.6,201.10000000000025 L 120.6,195.40000000000026 L 123.44999999999999,195.40000000000026 C 123.53299999999999,195.40000000000026 123.6,195.33300000000025 123.6,195.25000000000028 L 123.6,189.25000000000028 C 123.6,189.16700000000026 123.53299999999999,189.10000000000025 123.44999999999999,189.10000000000025 L 120.6,189.10000000000025 L 120.6,183.40000000000026 L 123.44999999999999,183.40000000000026 C 123.53299999999999,183.40000000000026 123.6,183.33300000000025 123.6,183.25000000000028 L 123.6,177.25000000000028 C 123.6,177.16700000000026 123.53299999999999,177.10000000000025 123.44999999999999,177.10000000000025 L 120.6,177.10000000000025 L 120.6,171.40000000000026 L 123.44999999999999,171.40000000000026 C 123.53299999999999,171.40000000000026 123.6,171.33300000000025 123.6,171.25000000000028 L 123.6,165.25000000000028 C 123.6,165.16700000000026 123.53299999999999,165.10000000000025 123.44999999999999,165.10000000000025 L 120.6,165.10000000000025 L 120.6,159.40000000000026 L 123.44999999999999,159.40000000000026 C 123.53299999999999,159.40000000000026 123.6,159.33300000000025 123.6,159.25000000000028 L 123.6,153.25000000000028 C 123.6,153.16700000000026 123.53299999999999,153.10000000000025 123.44999999999999,153.10000000000025 L 120.6,153.10000000000025 L 120.6,144.75000000000028 L 120.6,141.75000000000028 C 120.6,141.66700000000026 120.53299999999999,141.60000000000025 120.44999999999999,141.60000000000025 L 111.44999999999999,141.60000000000025 C 111.36699999999999,141.60000000000025 111.3,141.66700000000026 111.3,141.75000000000028 L 111.3,144.60000000000025 L 105.6,144.60000000000025 L 105.6,141.75000000000028 C 105.6,141.66700000000026 105.533,141.60000000000025 105.44999999999999,141.60000000000025 L 96.45,141.60000000000025 C 96.36699999999999,141.60000000000025 96.3,141.66700000000026 96.3,141.75000000000028 L 96.3,144.75000000000028 L 96.3,153.10000000000025 L 93.45,153.10000000000025 C 93.36699999999999,153.10000000000025 93.3,153.16700000000026 93.3,153.25000000000028 L 93.3,159.25000000000028 C 93.3,159.33300000000025 93.36699999999999,159.40000000000026 93.45,159.40000000000026 L 96.3,159.40000000000026 L 96.3,165.10000000000025 L 93.45,165.10000000000025 C 93.36699999999999,165.10000000000025 93.3,165.16700000000026 93.3,165.25000000000028 L 93.3,171.25000000000028 C 93.3,171.33300000000025 93.36699999999999,171.40000000000026 93.45,171.40000000000026 L 96.3,171.40000000000026 L 96.3,177.10000000000025 L 93.45,177.10000000000025 C 93.36699999999999,177.10000000000025 93.3,177.16700000000026 93.3,177.25000000000028 L 93.3,183.25000000000028 C 93.3,183.33300000000025 93.36699999999999,183.40000000000026 93.45,183.40000000000026 L 96.3,183.40000000000026 L 96.3,189.10000000000025 L 93.45,189.10000000000025 C 93.36699999999999,189.10000000000025 93.3,189.16700000000026 93.3,189.25000000000028 L 93.3,195.25000000000028 C 93.3,195.33300000000025 93.36699999999999,195.40000000000026 93.45,195.40000000000026 L 96.3,195.40000000000026 L 96.3,201.10000000000025 L 93.45,201.10000000000025 C 93.36699999999999,201.10000000000025 93.3,201.16700000000026 93.3,201.25000000000028 L 93.3,207.25000000000028 C 93.3,207.33300000000025 93.36699999999999,207.40000000000026 93.45,207.40000000000026 L 96.3,207.40000000000026 L 96.3,213.10000000000025 L 93.45,213.10000000000025 C 93.36699999999999,213.10000000000025 93.3,213.16700000000026 93.3,213.25000000000028 L 93.3,219.25000000000028 C 93.3,219.33300000000025 93.36699999999999,219.40000000000026 93.45,219.40000000000026 L 96.3,219.40000000000026 L 96.3,225.10000000000025 L 93.45,225.10000000000025 C 93.36699999999999,225.10000000000025 93.3,225.16700000000026 93.3,225.25000000000028 L 93.3,231.25000000000026 C 93.3,231.33300000000025 93.36699999999999,231.40000000000026 93.45,231.40000000000026 L 96.3,231.40000000000026 L 96.3,237.10000000000028 L 93.45,237.10000000000028 C 93.36699999999999,237.10000000000028 93.3,237.16700000000026 93.3,237.25000000000026 L 93.3,243.25000000000026 C 93.3,243.33300000000025 93.36699999999999,243.40000000000026 93.45,243.40000000000026 L 96.3,243.40000000000026 L 96.3,251.75000000000026 C 96.3,251.83300000000025 96.36699999999999,251.90000000000026 96.45,251.90000000000026" stroke="#E10600" stroke-width="0.30" fill="none" />
</g>
<g id="p-10" style="fill:none;stroke-linecap:round;stroke-linejoin:round;" data-panel="Tower Cap">
  <path d="M 253.0500000000001,263.90000000000055 L 258.9000000000001,263.90000000000055 L 258.9000000000001,266.7500000000005 C 258.9000000000001,266.83300000000054 258.9670000000001,266.90000000000055 259.05000000000007,266.90000000000055 L 265.05000000000007,266.90000000000055 C 265.1330000000001,266.90000000000055 265.2000000000001,266.83300000000054 265.2000000000001,266.7500000000005 L 265.2000000000001,263.90000000000055 L 270.9000000000001,263.90000000000055 L 270.9000000000001,266.7500000000005 C 270.9000000000001,266.83300000000054 270.9670000000001,266.90000000000055 271.05000000000007,266.90000000000055 L 277.05000000000007,266.90000000000055 C 277.1330000000001,266.90000000000055 277.2000000000001,266.83300000000054 277.2000000000001,266.7500000000005 L 277.2000000000001,263.90000000000055 L 283.05000000000007,263.90000000000055 C 283.1330000000001,263.90000000000055 283.2000000000001,263.83300000000054 283.2000000000001,263.7500000000005 L 283.2000000000001,254.90000000000055 L 286.05000000000007,254.90000000000055 C 286.1330000000001,254.90000000000055 286.2000000000001,254.83300000000054 286.2000000000001,254.75000000000054 L 286.2000000000001,248.75000000000054 C 286.2000000000001,248.66700000000054 286.1330000000001,248.60000000000053 286.05000000000007,248.60000000000053 L 283.2000000000001,248.60000000000053 L 283.2000000000001,239.75000000000054 C 283.2000000000001,239.66700000000054 283.1330000000001,239.60000000000053 283.05000000000007,239.60000000000053 L 277.2000000000001,239.60000000000053 L 277.2000000000001,236.75000000000054 C 277.2000000000001,236.66700000000054 277.1330000000001,236.60000000000053 277.05000000000007,236.60000000000053 L 271.05000000000007,236.60000000000053 C 270.9670000000001,236.60000000000053 270.9000000000001,236.66700000000054 270.9000000000001,236.75000000000054 L 270.9000000000001,239.60000000000053 L 265.2000000000001,239.60000000000053 L 265.2000000000001,236.75000000000054 C 265.2000000000001,236.66700000000054 265.1330000000001,236.60000000000053 265.05000000000007,236.60000000000053 L 259.05000000000007,236.60000000000053 C 258.9670000000001,236.60000000000053 258.9000000000001,236.66700000000054 258.9000000000001,236.75000000000054 L 258.9000000000001,239.60000000000053 L 253.0500000000001,239.60000000000053 C 252.9670000000001,239.60000000000053 252.9000000000001,239.66700000000054 252.9000000000001,239.75000000000054 L 252.9000000000001,248.60000000000053 L 250.0500000000001,248.60000000000053 C 249.9670000000001,248.60000000000053 249.9000000000001,248.66700000000054 249.9000000000001,248.75000000000054 L 249.9000000000001,254.75000000000054 C 249.9000000000001,254.83300000000054 249.9670000000001,254.90000000000055 250.0500000000001,254.90000000000055 L 252.9000000000001,254.90000000000055 L 252.9000000000001,263.7500000000005 C 252.9000000000001,263.83300000000054 252.9670000000001,263.90000000000055 253.0500000000001,263.90000000000055" stroke="#E10600" stroke-width="0.30" fill="none" />
</g>
</svg>