0
SECTION
2
HEADER
9
$ACADVER
1
AC1009
9
$INSUNITS
70
4
9
$MEASUREMENT
70
1
0
ENDSEC
0
SECTION
2
TABLES
0
TABLE
2
LAYER
70
2
0
LAYER
2
CUT
70
0
62
1
6
CONTINUOUS
0
LAYER
2
ENGRAVE
70
0
62
7
6
CONTINUOUS
0
ENDTAB
0
ENDSEC
0
SECTION
2
ENTITIES
0
POLYLINE
8
CUT
66
1
70
0
0
VERTEX
8
CUT
10
355.9500
20
6.2750
0
VERTEX
8
CUT
10
291.9750
20
6.2750
0
SEQEND
0
POLYLINE
8
CUT
66
1
70
1
0
VERTEX
8
CUT
10
206.7250
20
43.5000
0
VERTEX
8
CUT
10
206.7250
20
60.4250
0
VERTEX
8
CUT
10
204.0250
20
60.4250
0
VERTEX
8
CUT
10
204.0250
20
43.5000
0
SEQEND
0
POLYLINE
8
CUT
66
1
70
1
0
VERTEX
8
CUT
10
206.7250
20
170.5000
0
VERTEX
8
CUT
10
206.7250
20
187.4250
0
VERTEX
8
CUT
10
204.0250
20
187.4250
0
VERTEX
8
CUT
10
204.0250
20
170.5000
0
SEQEND
0
POLYLINE
8
CUT
66
1
70
0
0
VERTEX
8
CUT
10
257.5250
20
64.8500
0
VERTEX
8
CUT
10
269.6500
20
74.7250
0
VERTEX
8
CUT
10
269.7500
20
74.8000
0
VERTEX
8
CUT
10
269.8250
20
74.9000
0
VERTEX
8
CUT
10
269.9250
20
75.0000
0
VERTEX
8
CUT
10
270.0000
20
75.0750
0
VERTEX
8
CUT
10
270.0750
20
75.1750
0
VERTEX
8
CUT
10
270.1250
20
75.3000
0
VERTEX
8
CUT
10
270.2000
20
75.4000
0
VERTEX
8
CUT
10
270.2500
20
75.5000
0
VERTEX
8
CUT
10
270.2750
20
75.6250
0
VERTEX
8
CUT
10
270.3250
20
75.7500
0
VERTEX
8
CUT
10
270.3500
20
75.8500
0
VERTEX
8
CUT
10
270.3750
20
75.9750
0
VERTEX
8
CUT
10
270.3750
20
76.1000
0
VERTEX
8
CUT
10
270.3750
20
76.2500
0
VERTEX
8
CUT
10
270.3750
20
76.2750
0
VERTEX
8
CUT
10
270.3750
20
96.1500
0
SEQEND
0
POLYLINE
8
CUT
66
1
70
1
0
VERTEX
8
CUT
10
303.1250
20
157.9000
0
VERTEX
8
CUT
10
303.1250
20
157.5250
0
VERTEX
8
CUT
10
303.1500
20
157.1500
0
VERTEX
8
CUT
10
303.2000
20
156.7750
0
VERTEX
8
CUT
10
303.2750
20
156.4000
0
VERTEX
8
CUT
10
303.3500
20
156.0500
0
VERTEX
8
CUT
10
303.4500
20
155.6750
0
VERTEX
8
CUT
10
303.5750
20
155.3250
0
VERTEX
8
CUT
10
303.7000
20
154.9750
0
VERTEX
8
CUT
10
303.8250
20
154.6500
0
VERTEX
8
CUT
10
303.9750
20
154.3250
0
VERTEX
8
CUT
10
304.1500
20
154.0000
0
VERTEX
8
CUT
10
304.3500
20
153.6750
0
VERTEX
8
CUT
10
304.5250
20
153.3500
0
VERTEX
8
CUT
10
304.7500
20
153.0500
0
VERTEX
8
CUT
10
304.9500
20
152.7500
0
VERTEX
8
CUT
10
305.1750
20
152.4750
0
VERTEX
8
CUT
10
305.4250
20
152.1750
0
VERTEX
8
CUT
10
305.6750
20
151.9000
0
VERTEX
8
CUT
10
305.9250
20
151.6250
0
VERTEX
8
CUT
10
306.1750
20
151.3750
0
VERTEX
8
CUT
10
306.4250
20
151.1250
0
VERTEX
8
CUT
10
306.7000
20
150.8750
0
VERTEX
8
CUT
10
306.9750
20
150.6250
0
VERTEX
8
CUT
10
307.2750
20
150.4000
0
VERTEX
8
CUT
10
307.5500
20
150.1750
0
VERTEX
8
CUT
10
307.8250
20
149.9750
0
VERTEX
8
CUT
10
308.1250
20
149.7500
0
VERTEX
8
CUT
10
308.4250
20
149.5500
0
VERTEX
8
CUT
10
308.7500
20
149.3500
0
VERTEX
8
CUT
10
309.0500
20
149.1500
0
VERTEX
8
CUT
10
309.3750
20
148.9500
0
VERTEX
8
CUT
10
309.6750
20
148.7750
0
VERTEX
8
CUT
10
310.0000
20
148.6000
0
VERTEX
8
CUT
10
310.3000
20
148.4250
0
VERTEX
8
CUT
10
310.6250
20
148.2500
0
VERTEX
8
CUT
10
310.9750
20
148.1000
0
VERTEX
8
CUT
10
311.3000
20
147.9250
0
VERTEX
8
CUT
10
311.6500
20
147.7750
0
VERTEX
8
CUT
10
311.9750
20
147.6250
0
VERTEX
8
CUT
10
312.3000
20
147.5000
0
VERTEX
8
CUT
10
312.6250
20
147.3500
0
VERTEX
8
CUT
10
312.9750
20
147.2250
0
VERTEX
8
CUT
10
313.3000
20
147.1000
0
VERTEX
8
CUT
10
313.6500
20
146.9750
0
VERTEX
8
CUT
10
314.0000
20
146.8500
0
VERTEX
8
CUT
10
314.3250
20
146.7500
0
VERTEX
8
CUT
10
314.7000
20
146.6250
0
VERTEX
8
CUT
10
315.0500
20
146.5250
0
VERTEX
8
CUT
10
315.4000
20
146.4250
0
VERTEX
8
CUT
10
315.7750
20
146.3250
0
VERTEX
8
CUT
10
316.1000
20
146.2500
0
VERTEX
8
CUT
10
316.4500
20
146.1500
0
VERTEX
8
CUT
10
316.8000
20
146.0750
0
VERTEX
8
CUT
10
317.1250
20
146.0000
0
VERTEX
8
CUT
10
317.4750
20
145.9250
0
VERTEX
8
CUT
10
317.8250
20
145.8500
0
VERTEX
8
CUT
10
318.2000
20
145.7750
0
VERTEX
8
CUT
10
318.5500
20
145.7250
0
VERTEX
8
CUT
10
318.9000
20
145.6500
0
VERTEX
8
CUT
10
319.2750
20
145.6000
0
VERTEX
8
CUT
10
319.6250
20
145.5500
0
VERTEX
8
CUT
10
320.0000
20
145.5000
0
VERTEX
8
CUT
10
320.3750
20
145.4500
0
VERTEX
8
CUT
10
320.7500
20
145.4000
0
VERTEX
8
CUT
10
321.1000
20
145.3750
0
VERTEX
8
CUT
10
321.4750
20
145.3250
0
VERTEX
8
CUT
10
321.8250
20
145.3000
0
VERTEX
8
CUT
10
322.1750
20
145.2750
0
VERTEX
8
CUT
10
322.5250
20
145.2500
0
VERTEX
8
CUT
10
322.8750
20
145.2500
0
VERTEX
8
CUT
10
323.2250
20
145.2250
0
VERTEX
8
CUT
10
323.5750
20
145.2250
0
VERTEX
8
CUT
10
323.9250
20
145.2000
0
VERTEX
8
CUT
10
324.2750
20
145.2000
0
VERTEX
8
CUT
10
324.6250
20
145.2000
0
VERTEX
8
CUT
10
325.0000
20
145.2000
0
VERTEX
8
CUT
10
325.3750
20
145.2000
0
VERTEX
8
CUT
10
325.7500
20
145.2250
0
VERTEX
8
CUT
10
326.1000
20
145.2250
0
VERTEX
8
CUT
10
326.4750
20
145.2500
0
VERTEX
8
CUT
10
326.8250
20
145.2750
0
VERTEX
8
CUT
10
327.2000
20
145.3000
0
VERTEX
8
CUT
10
327.5750
20
145.3250
0
VERTEX
8
CUT
10
327.9500
20
145.3500
0
VERTEX
8
CUT
10
328.3250
20
145.3750
0
VERTEX
8
CUT
10
328.7000
20
145.4250
0
VERTEX
8
CUT
10
329.0500
20
145.4750
0
VERTEX
8
CUT
10
329.4250
20
145.5250
0
VERTEX
8
CUT
10
329.7750
20
145.5750
0
VERTEX
8
CUT
10
330.1500
20
145.6250
0
VERTEX
8
CUT
10
330.5250
20
145.6750
0
VERTEX
8
CUT
10
330.9000
20
145.7500
0
VERTEX
8
CUT
10
331.2500
20
145.8250
0
VERTEX
8
CUT
10
331.6250
20
145.8750
0
VERTEX
8
CUT
10
331.9750
20
145.9500
0
VERTEX
8
CUT
10
332.3500
20
146.0500
0
VERTEX
8
CUT
10
332.7000
20
146.1250
0
VERTEX
8
CUT
10
333.0750
20
146.2250
0
VERTEX
8
CUT
10
333.4250
20
146.3000
0
VERTEX
8
CUT
10
333.8000
20
146.4000
0
VERTEX
8
CUT
10
334.1500
20
146.5000
0
VERTEX
8
CUT
10
334.5000
20
146.6000
0
VERTEX
8
CUT
10
334.8500
20
146.7250
0
VERTEX
8
CUT
10
335.2000
20
146.8500
0
VERTEX
8
CUT
10
335.5750
20
146.9500
0
VERTEX
8
CUT
10
335.9000
20
147.0750
0
VERTEX
8
CUT
10
336.2500
20
147.2000
0
VERTEX
8
CUT
10
336.6000
20
147.3500
0
VERTEX
8
CUT
10
336.9500
20
147.4750
0
VERTEX
8
CUT
10
337.3000
20
147.6250
0
VERTEX
8
CUT
10
337.6250
20
147.7750
0
VERTEX
8
CUT
10
337.9750
20
147.9250
0
VERTEX
8
CUT
10
338.3000
20
148.1000
0
VERTEX
8
CUT
10
338.6500
20
148.2500
0
VERTEX
8
CUT
10
338.7000
20
148.3000
0
VERTEX
8
CUT
10
339.0250
20
148.4500
0
VERTEX
8
CUT
10
339.3500
20
148.6250
0
VERTEX
8
CUT
10
339.6750
20
148.8250
0
VERTEX
8
CUT
10
340.0000
20
149.0000
0
VERTEX
8
CUT
10
340.3000
20
149.2000
0
VERTEX
8
CUT
10
340.6000
20
149.4000
0
VERTEX
8
CUT
10
340.9250
20
149.6000
0
VERTEX
8
CUT
10
341.2250
20
149.8250
0
VERTEX
8
CUT
10
341.5250
20
150.0250
0
VERTEX
8
CUT
10
341.8250
20
150.2500
0
VERTEX
8
CUT
10
342.1000
20
150.5000
0
VERTEX
8
CUT
10
342.4000
20
150.7250
0
VERTEX
8
CUT
10
342.6750
20
150.9750
0
VERTEX
8
CUT
10
342.9500
20
151.2250
0
VERTEX
8
CUT
10
343.2000
20
151.4750
0
VERTEX
8
CUT
10
343.4750
20
151.7500
0
VERTEX
8
CUT
10
343.7250
20
152.0250
0
VERTEX
8
CUT
10
343.9500
20
152.3000
0
VERTEX
8
CUT
10
344.2000
20
152.6000
0
VERTEX
8
CUT
10
344.4250
20
152.9000
0
VERTEX
8
CUT
10
344.6250
20
153.2000
0
VERTEX
8
CUT
10
344.8250
20
153.5250
0
VERTEX
8
CUT
10
345.0250
20
153.8250
0
VERTEX
8
CUT
10
345.2000
20
154.1500
0
VERTEX
8
CUT
10
345.3750
20
154.5000
0
VERTEX
8
CUT
10
345.5250
20
154.8250
0
VERTEX
8
CUT
10
345.6500
20
155.1750
0
VERTEX
8
CUT
10
345.7750
20
155.5250
0
VERTEX
8
CUT
10
345.8750
20
155.9000
0
VERTEX
8
CUT
10
345.9750
20
156.2500
0
VERTEX
8
CUT
10
346.0500
20
156.6250
0
VERTEX
8
CUT
10
346.1000
20
157.0000
0
VERTEX
8
CUT
10
346.1250
20
157.3750
0
VERTEX
8
CUT
10
346.1500
20
157.7250
0
VERTEX
8
CUT
10
346.1500
20
157.9000
0
VERTEX
8
CUT
10
346.1500
20
158.2750
0
VERTEX
8
CUT
10
346.1000
20
158.6500
0
VERTEX
8
CUT
10
346.0750
20
159.0250
0
VERTEX
8
CUT
10
346.0000
20
159.3750
0
VERTEX
8
CUT
10
345.9250
20
159.7500
0
VERTEX
8
CUT
10
345.8250
20
160.1250
0
VERTEX
8
CUT
10
345.7000
20
160.4750
0
VERTEX
8
CUT
10
345.5750
20
160.8000
0
VERTEX
8
CUT
10
345.4500
20
161.1500
0
VERTEX
8
CUT
10
345.2750
20
161.4750
0
VERTEX
8
CUT
10
345.1250
20
161.8000
0
VERTEX
8
CUT
10
344.9250
20
162.1250
0
VERTEX
8
CUT
10
344.7250
20
162.4250
0
VERTEX
8
CUT
10
344.5250
20
162.7500
0
VERTEX
8
CUT
10
344.3000
20
163.0250
0
VERTEX
8
CUT
10
344.1000
20
163.3250
0
VERTEX
8
CUT
10
343.8500
20
163.6000
0
VERTEX
8
CUT
10
343.6000
20
163.8750
0
VERTEX
8
CUT
10
343.3500
20
164.1500
0
VERTEX
8
CUT
10
343.1000
20
164.4250
0
VERTEX
8
CUT
10
342.8250
20
164.6750
0
VERTEX
8
CUT
10
342.5750
20
164.9000
0
VERTEX
8
CUT
10
342.2750
20
165.1500
0
VERTEX
8
CUT
10
342.0000
20
165.4000
0
VERTEX
8
CUT
10
341.7250
20
165.6000
0
VERTEX
8
CUT
10
341.4250
20
165.8250
0
VERTEX
8
CUT
10
341.1500
20
166.0500
0
VERTEX
8
CUT
10
340.8500
20
166.2500
0
VERTEX
8
CUT
10
340.5250
20
166.4500
0
VERTEX
8
CUT
10
340.2250
20
166.6500
0
VERTEX
8
CUT
10
339.9000
20
166.8500
0
VERTEX
8
CUT
10
339.6000
20
167.0250
0
VERTEX
8
CUT
10
339.2750
20
167.2000
0
VERTEX
8
CUT
10
338.9500
20
167.3750
0
VERTEX
8
CUT
10
338.6250
20
167.5250
0
VERTEX
8
CUT
10
338.3000
20
167.7000
0
VERTEX
8
CUT
10
337.9750
20
167.8500
0
VERTEX
8
CUT
10
337.6250
20
168.0000
0
VERTEX
8
CUT
10
337.2750
20
168.1750
0
VERTEX
8
CUT
10
336.9750
20
168.3000
0
VERTEX
8
CUT
10
336.6250
20
168.4250
0
VERTEX
8
CUT
10
336.3000
20
168.5500
0
VERTEX
8
CUT
10
335.9750
20
168.7000
0
VERTEX
8
CUT
10
335.6250
20
168.8000
0
VERTEX
8
CUT
10
335.2750
20
168.9250
0
VERTEX
8
CUT
10
334.9250
20
169.0500
0
VERTEX
8
CUT
10
334.5750
20
169.1500
0
VERTEX
8
CUT
10
334.2250
20
169.2500
0
VERTEX
8
CUT
10
333.8750
20
169.3750
0
VERTEX
8
CUT
10
333.5000
20
169.4750
0
VERTEX
8
CUT
10
333.1750
20
169.5500
0
VERTEX
8
CUT
10
332.8250
20
169.6500
0
VERTEX
8
CUT
10
332.4750
20
169.7250
0
VERTEX
8
CUT
10
332.1250
20
169.8000
0
VERTEX
8
CUT
10
331.7750
20
169.8750
0
VERTEX
8
CUT
10
331.4250
20
169.9500
0
VERTEX
8
CUT
10
331.0750
20
170.0000
0
VERTEX
8
CUT
10
330.7250
20
170.0750
0
VERTEX
8
CUT
10
330.3750
20
170.1250
0
VERTEX
8
CUT
10
330.0000
20
170.2000
0
VERTEX
8
CUT
10
329.6500
20
170.2500
0
VERTEX
8
CUT
10
329.2750
20
170.3000
0
VERTEX
8
CUT
10
328.9000
20
170.3500
0
VERTEX
8
CUT
10
328.5250
20
170.3750
0
VERTEX
8
CUT
10
328.1500
20
170.4250
0
VERTEX
8
CUT
10
327.7750
20
170.4500
0
VERTEX
8
CUT
10
327.4500
20
170.4750
0
VERTEX
8
CUT
10
327.1000
20
170.5000
0
VERTEX
8
CUT
10
326.7500
20
170.5250
0
VERTEX
8
CUT
10
326.4000
20
170.5500
0
VERTEX
8
CUT
10
326.0500
20
170.5500
0
VERTEX
8
CUT
10
325.7000
20
170.5750
0
VERTEX
8
CUT
10
325.3500
20
170.5750
0
VERTEX
8
CUT
10
325.0000
20
170.6000
0
VERTEX
8
CUT
10
324.6250
20
170.6000
0
VERTEX
8
CUT
10
324.2750
20
170.6000
0
VERTEX
8
CUT
10
323.9250
20
170.5750
0
VERTEX
8
CUT
10
323.5750
20
170.5750
0
VERTEX
8
CUT
10
323.2250
20
170.5500
0
VERTEX
8
CUT
10
322.8750
20
170.5500
0
VERTEX
8
CUT
10
322.5250
20
170.5250
0
VERTEX
8
CUT
10
322.1750
20
170.5000
0
VERTEX
8
CUT
10
321.8250
20
170.4750
0
VERTEX
8
CUT
10
321.4750
20
170.4500
0
VERTEX
8
CUT
10
321.1000
20
170.4250
0
VERTEX
8
CUT
10
320.7500
20
170.3750
0
VERTEX
8
CUT
10
320.3750
20
170.3500
0
VERTEX
8
CUT
10
320.0000
20
170.3000
0
VERTEX
8
CUT
10
319.6250
20
170.2500
0
VERTEX
8
CUT
10
319.2750
20
170.2000
0
VERTEX
8
CUT
10
318.9000
20
170.1250
0
VERTEX
8
CUT
10
318.5500
20
170.0750
0
VERTEX
8
CUT
10
318.2000
20
170.0000
0
VERTEX
8
CUT
10
317.8250
20
169.9500
0
VERTEX
8
CUT
10
317.4750
20
169.8750
0
VERTEX
8
CUT
10
317.1250
20
169.8000
0
VERTEX
8
CUT
10
316.8000
20
169.7250
0
VERTEX
8
CUT
10
316.4500
20
169.6500
0
VERTEX
8
CUT
10
316.1000
20
169.5500
0
VERTEX
8
CUT
10
315.7750
20
169.4750
0
VERTEX
8
CUT
10
315.4000
20
169.3750
0
VERTEX
8
CUT
10
315.0500
20
169.2500
0
VERTEX
8
CUT
10
314.7000
20
169.1500
0
VERTEX
8
CUT
10
314.3250
20
169.0500
0
VERTEX
8
CUT
10
314.0000
20
168.9250
0
VERTEX
8
CUT
10
313.6500
20
168.8000
0
VERTEX
8
CUT
10
313.3000
20
168.7000
0
VERTEX
8
CUT
10
312.9750
20
168.5500
0
VERTEX
8
CUT
10
312.6250
20
168.4250
0
VERTEX
8
CUT
10
312.3000
20
168.3000
0
VERTEX
8
CUT
10
311.9750
20
168.1750
0
VERTEX
8
CUT
10
311.6500
20
168.0000
0
VERTEX
8
CUT
10
311.3000
20
167.8500
0
VERTEX
8
CUT
10
310.9750
20
167.7000
0
VERTEX
8
CUT
10
310.6250
20
167.5250
0
VERTEX
8
CUT
10
310.3000
20
167.3750
0
VERTEX
8
CUT
10
310.0000
20
167.2000
0
VERTEX
8
CUT
10
309.6750
20
167.0250
0
VERTEX
8
CUT
10
309.3750
20
166.8500
0
VERTEX
8
CUT
10
309.0500
20
166.6500
0
VERTEX
8
CUT
10
308.7500
20
166.4500
0
VERTEX
8
CUT
10
308.4250
20
166.2500
0
VERTEX
8
CUT
10
308.1250
20
166.0500
0
VERTEX
8
CUT
10
307.8250
20
165.8250
0
VERTEX
8
CUT
10
307.5500
20
165.6000
0
VERTEX
8
CUT
10
307.2750
20
165.4000
0
VERTEX
8
CUT
10
306.9750
20
165.1500
0
VERTEX
8
CUT
10
306.7000
20
164.9000
0
VERTEX
8
CUT
10
306.4250
20
164.6750
0
VERTEX
8
CUT
10
306.1750
20
164.4250
0
VERTEX
8
CUT
10
305.9250
20
164.1500
0
VERTEX
8
CUT
10
305.6750
20
163.8750
0
VERTEX
8
CUT
10
305.4250
20
163.6000
0
VERTEX
8
CUT
10
305.1750
20
163.3250
0
VERTEX
8
CUT
10
304.9500
20
163.0250
0
VERTEX
8
CUT
10
304.7500
20
162.7500
0
VERTEX
8
CUT
10
304.5250
20
162.4250
0
VERTEX
8
CUT
10
304.3500
20
162.1250
0
VERTEX
8
CUT
10
304.1500
20
161.8000
0
VERTEX
8
CUT
10
303.9750
20
161.4750
0
VERTEX
8
CUT
10
303.8250
20
161.1500
0
VERTEX
8
CUT
10
303.7000
20
160.8000
0
VERTEX
8
CUT
10
303.5750
20
160.4750
0
VERTEX
8
CUT
10
303.4500
20
160.1250
0
VERTEX
8
CUT
10
303.3500
20
159.7500
0
VERTEX
8
CUT
10
303.2750
20
159.3750
0
VERTEX
8
CUT
10
303.2000
20
159.0250
0
VERTEX
8
CUT
10
303.1500
20
158.6500
0
VERTEX
8
CUT
10
303.1250
20
158.2750
0
SEQEND
0
POLYLINE
8
CUT
66
1
70
0
0
VERTEX
8
CUT
10
295.7750
20
136.8500
0
VERTEX
8
CUT
10
286.6250
20
136.8500
0
VERTEX
8
CUT
10
286.6250
20
156.3000
0
VERTEX
8
CUT
10
282.6250
20
156.3000
0
VERTEX
8
CUT
10
282.6250
20
164.7500
0
VERTEX
8
CUT
10
286.6250
20
164.7500
0
VERTEX
8
CUT
10
286.6250
20
219.2250
0
SEQEND
0
POLYLINE
8
CUT
66
1
70
0
0
VERTEX
8
CUT
10
142.3250
20
206.2250
0
VERTEX
8
CUT
10
142.3250
20
207.2320
0
VERTEX
8
CUT
10
204.9000
20
207.2320
0
VERTEX
8
CUT
10
204.9000
20
208.9250
0
SEQEND
0
POLYLINE
8
CUT
66
1
70
1
0
VERTEX
8
CUT
10
133.1250
20
231.2500
0
VERTEX
8
CUT
10
133.1250
20
268.9750
0
VERTEX
8
CUT
10
130.4250
20
268.9750
0
VERTEX
8
CUT
10
130.4250
20
231.2500
0
SEQEND
0
POLYLINE
8
CUT
66
1
70
1
0
VERTEX
8
CUT
10
91.6250
20
211.4750
0
VERTEX
8
CUT
10
53.9000
20
211.4750
0
VERTEX
8
CUT
10
53.9000
20
208.7750
0
VERTEX
8
CUT
10
91.6250
20
208.7750
0
SEQEND
0
POLYLINE
8
CUT
66
1
70
1
0
VERTEX
8
CUT
10
91.6250
20
288.7750
0
VERTEX
8
CUT
10
91.6250
20
291.4750
0
VERTEX
8
CUT
10
53.9000
20
291.4750
0
VERTEX
8
CUT
10
53.9000
20
288.7750
0
SEQEND
0
POLYLINE
8
CUT
66
1
70
1
0
VERTEX
8
CUT
10
15.1250
20
268.9750
0
VERTEX
8
CUT
10
12.4250
20
268.9750
0
VERTEX
8
CUT
10
12.4250
20
231.2500
0
VERTEX
8
CUT
10
15.1250
20
231.2500
0
SEQEND
0
POLYLINE
8
CUT
66
1
70
0
0
VERTEX
8
CUT
10
129.4250
20
204.1250
0
VERTEX
8
CUT
10
135.7750
20
204.1250
0
VERTEX
8
CUT
10
136.0000
20
204.1250
0
VERTEX
8
CUT
10
136.2000
20
204.1750
0
VERTEX
8
CUT
10
136.4250
20
204.2250
0
VERTEX
8
CUT
10
136.6250
20
204.3250
0
VERTEX
8
CUT
10
136.8000
20
204.4250
0
VERTEX
8
CUT
10
137.0000
20
204.5500
0
VERTEX
8
CUT
10
137.1500
20
204.6750
0
VERTEX
8
CUT
10
137.3000
20
204.8500
0
VERTEX
8
CUT
10
137.4250
20
205.0250
0
VERTEX
8
CUT
10
137.5500
20
205.2000
0
VERTEX
8
CUT
10
137.6250
20
205.4000
0
VERTEX
8
CUT
10
137.7000
20
205.6000
0
VERTEX
8
CUT
10
137.7500
20
205.8250
0
VERTEX
8
CUT
10
137.7500
20
206.0500
0
VERTEX
8
CUT
10
137.7750
20
206.1250
0
VERTEX
8
CUT
10
137.7750
20
244.9250
0
SEQEND
0
POLYLINE
8
CUT
66
1
70
1
0
VERTEX
8
CUT
10
24.1500
20
179.3000
0
VERTEX
8
CUT
10
24.0250
20
179.3000
0
VERTEX
8
CUT
10
23.9250
20
179.2750
0
VERTEX
8
CUT
10
23.8000
20
179.2500
0
VERTEX
8
CUT
10
23.7000
20
179.2250
0
VERTEX
8
CUT
10
23.6250
20
179.1500
0
VERTEX
8
CUT
10
23.5250
20
179.1000
0
VERTEX
8
CUT
10
23.4500
20
179.0250
0
VERTEX
8
CUT
10
23.3750
20
178.9500
0
VERTEX
8
CUT
10
23.3000
20
178.8750
0
VERTEX
8
CUT
10
23.2500
20
178.7750
0
VERTEX
8
CUT
10
23.2000
20
178.6750
0
VERTEX
8
CUT
10
23.1750
20
178.5750
0
VERTEX
8
CUT
10
23.1500
20
178.4500
0
VERTEX
8
CUT
10
23.1500
20
178.3500
0
VERTEX
8
CUT
10
23.1500
20
178.3000
0
VERTEX
8
CUT
10
23.1500
20
153.0000
0
VERTEX
8
CUT
10
23.1500
20
152.9000
0
VERTEX
8
CUT
10
23.1750
20
152.7750
0
VERTEX
8
CUT
10
23.2000
20
152.6750
0
VERTEX
8
CUT
10
23.2250
20
152.5750
0
VERTEX
8
CUT
10
23.3000
20
152.4750
0
VERTEX
8
CUT
10
23.3500
20
152.4000
0
VERTEX
8
CUT
10
23.4250
20
152.3000
0
VERTEX
8
CUT
10
23.5000
20
152.2250
0
VERTEX
8
CUT
10
23.5750
20
152.1750
0
VERTEX
8
CUT
10
23.6750
20
152.1250
0
VERTEX
8
CUT
10
23.7750
20
152.0750
0
VERTEX
8
CUT
10
23.8750
20
152.0250
0
VERTEX
8
CUT
10
24.0000
20
152.0000
0
VERTEX
8
CUT
10
24.1000
20
152.0000
0
VERTEX
8
CUT
10
24.1500
20
152.0000
0
VERTEX
8
CUT
10
34.8500
20
152.0000
0
VERTEX
8
CUT
10
34.9500
20
152.0000
0
VERTEX
8
CUT
10
35.0750
20
152.0250
0
VERTEX
8
CUT
10
35.1750
20
152.0500
0
VERTEX
8
CUT
10
35.2750
20
152.1000
0
VERTEX
8
CUT
10
35.3750
20
152.1500
0
VERTEX
8
CUT
10
35.4500
20
152.2000
0
VERTEX
8
CUT
10
35.5250
20
152.2750
0
VERTEX
8
CUT
10
35.6000
20
152.3500
0
VERTEX
8
CUT
10
35.6750
20
152.4500
0
VERTEX
8
CUT
10
35.7250
20
152.5500
0
VERTEX
8
CUT
10
35.7750
20
152.6500
0
VERTEX
8
CUT
10
35.8000
20
152.7500
0
VERTEX
8
CUT
10
35.8250
20
152.8500
0
VERTEX
8
CUT
10
35.8500
20
152.9750
0
VERTEX
8
CUT
10
35.8500
20
153.0000
0
VERTEX
8
CUT
10
35.8500
20
178.3000
0
VERTEX
8
CUT
10
35.8250
20
178.4250
0
VERTEX
8
CUT
10
35.8250
20
178.5250
0
VERTEX
8
CUT
10
35.7750
20
178.6500
0
VERTEX
8
CUT
10
35.7500
20
178.7500
0
VERTEX
8
CUT
10
35.7000
20
178.8250
0
VERTEX
8
CUT
10
35.6250
20
178.9250
0
VERTEX
8
CUT
10
35.5500
20
179.0000
0
VERTEX
8
CUT
10
35.4750
20
179.0750
0
VERTEX
8
CUT
10
35.4000
20
179.1500
0
VERTEX
8
CUT
10
35.3000
20
179.2000
0
VERTEX
8
CUT
10
35.2000
20
179.2500
0
VERTEX
8
CUT
10
35.1000
20
179.2750
0
VERTEX
8
CUT
10
34.9750
20
179.3000
0
VERTEX
8
CUT
10
34.8750
20
179.3000
0
VERTEX
8
CUT
10
34.8500
20
179.3000
0
SEQEND
0
POLYLINE
8
CUT
66
1
70
1
0
VERTEX
8
CUT
10
39.5000
20
178.3000
0
VERTEX
8
CUT
10
39.5000
20
166.6500
0
VERTEX
8
CUT
10
39.5000
20
166.5500
0
VERTEX
8
CUT
10
39.5250
20
166.4250
0
VERTEX
8
CUT
10
39.5500
20
166.3250
0
VERTEX
8
CUT
10
39.6000
20
166.2250
0
VERTEX
8
CUT
10
39.6500
20
166.1250
0
VERTEX
8
CUT
10
39.7000
20
166.0500
0
VERTEX
8
CUT
10
39.7750
20
165.9500
0
VERTEX
8
CUT
10
39.8500
20
165.8750
0
VERTEX
8
CUT
10
39.9500
20
165.8250
0
VERTEX
8
CUT
10
40.0250
20
165.7750
0
VERTEX
8
CUT
10
40.1250
20
165.7250
0
VERTEX
8
CUT
10
40.2500
20
165.7000
0
VERTEX
8
CUT
10
40.3500
20
165.6750
0
VERTEX
8
CUT
10
40.4500
20
165.6500
0
VERTEX
8
CUT
10
40.5000
20
165.6500
0
VERTEX
8
CUT
10
51.2000
20
165.6500
0
VERTEX
8
CUT
10
51.3000
20
165.6750
0
VERTEX
8
CUT
10
51.4250
20
165.6750
0
VERTEX
8
CUT
10
51.5250
20
165.7000
0
VERTEX
8
CUT
10
51.6250
20
165.7500
0
VERTEX
8
CUT
10
51.7250
20
165.8000
0
VERTEX
8
CUT
10
51.8000
20
165.8750
0
VERTEX
8
CUT
10
51.9000
20
165.9500
0
VERTEX
8
CUT
10
51.9750
20
166.0250
0
VERTEX
8
CUT
10
52.0250
20
166.1000
0
VERTEX
8
CUT
10
52.0750
20
166.2000
0
VERTEX
8
CUT
10
52.1250
20
166.3000
0
VERTEX
8
CUT
10
52.1500
20
166.4000
0
VERTEX
8
CUT
10
52.1750
20
166.5000
0
VERTEX
8
CUT
10
52.2000
20
166.6250
0
VERTEX
8
CUT
10
52.2000
20
166.6500
0
VERTEX
8
CUT
10
52.2000
20
178.3000
0
VERTEX
8
CUT
10
52.2000
20
178.4250
0
VERTEX
8
CUT
10
52.1750
20
178.5250
0
VERTEX
8
CUT
10
52.1500
20
178.6500
0
VERTEX
8
CUT
10
52.1000
20
178.7500
0
VERTEX
8
CUT
10
52.0500
20
178.8250
0
VERTEX
8
CUT
10
51.9750
20
178.9250
0
VERTEX
8
CUT
10
51.9250
20
179.0000
0
VERTEX
8
CUT
10
51.8250
20
179.0750
0
VERTEX
8
CUT
10
51.7500
20
179.1500
0
VERTEX
8
CUT
10
51.6500
20
179.2000
0
VERTEX
8
CUT
10
51.5500
20
179.2500
0
VERTEX
8
CUT
10
51.4500
20
179.2750
0
VERTEX
8
CUT
10
51.3500
20
179.3000
0
VERTEX
8
CUT
10
51.2250
20
179.3000
0
VERTEX
8
CUT
10
51.2000
20
179.3000
0
VERTEX
8
CUT
10
40.5000
20
179.3000
0
VERTEX
8
CUT
10
40.3750
20
179.3000
0
VERTEX
8
CUT
10
40.2750
20
179.2750
0
VERTEX
8
CUT
10
40.1750
20
179.2500
0
VERTEX
8
CUT
10
40.0750
20
179.2250
0
VERTEX
8
CUT
10
39.9750
20
179.1500
0
VERTEX
8
CUT
10
39.8750
20
179.1000
0
VERTEX
8
CUT
10
39.8000
20
179.0250
0
VERTEX
8
CUT
10
39.7250
20
178.9500
0
VERTEX
8
CUT
10
39.6500
20
178.8750
0
VERTEX
8
CUT
10
39.6000
20
178.7750
0
VERTEX
8
CUT
10
39.5500
20
178.6750
0
VERTEX
8
CUT
10
39.5250
20
178.5750
0
VERTEX
8
CUT
10
39.5000
20
178.4500
0
VERTEX
8
CUT
10
39.5000
20
178.3500
0
SEQEND
0
POLYLINE
8
CUT
66
1
70
1
0
VERTEX
8
CUT
10
40.5000
20
161.6750
0
VERTEX
8
CUT
10
40.3750
20
161.6750
0
VERTEX
8
CUT
10
40.2750
20
161.6500
0
VERTEX
8
CUT
10
40.1750
20
161.6250
0
VERTEX
8
CUT
10
40.0750
20
161.6000
0
VERTEX
8
CUT
10
39.9750
20
161.5250
0
VERTEX
8
CUT
10
39.8750
20
161.4750
0
VERTEX
8
CUT
10
39.8000
20
161.4000
0
VERTEX
8
CUT
10
39.7250
20
161.3250
0
VERTEX
8
CUT
10
39.6500
20
161.2500
0
VERTEX
8
CUT
10
39.6000
20
161.1500
0
VERTEX
8
CUT
10
39.5500
20
161.0500
0
VERTEX
8
CUT
10
39.5250
20
160.9500
0
VERTEX
8
CUT
10
39.5000
20
160.8250
0
VERTEX
8
CUT
10
39.5000
20
160.7250
0
VERTEX
8
CUT
10
39.5000
20
160.6750
0
VERTEX
8
CUT
10
39.5000
20
153.0000
0
VERTEX
8
CUT
10
39.5000
20
152.9000
0
VERTEX
8
CUT
10
39.5250
20
152.7750
0
VERTEX
8
CUT
10
39.5500
20
152.6750
0
VERTEX
8
CUT
10
39.6000
20
152.5750
0
VERTEX
8
CUT
10
39.6500
20
152.4750
0
VERTEX
8
CUT
10
39.7000
20
152.4000
0
VERTEX
8
CUT
10
39.7750
20
152.3000
0
VERTEX
8
CUT
10
39.8500
20
152.2250
0
VERTEX
8
CUT
10
39.9500
20
152.1750
0
VERTEX
8
CUT
10
40.0250
20
152.1250
0
VERTEX
8
CUT
10
40.1250
20
152.0750
0
VERTEX
8
CUT
10
40.2500
20
152.0250
0
VERTEX
8
CUT
10
40.3500
20
152.0000
0
VERTEX
8
CUT
10
40.4500
20
152.0000
0
VERTEX
8
CUT
10
40.5000
20
152.0000
0
VERTEX
8
CUT
10
51.2000
20
152.0000
0
VERTEX
8
CUT
10
51.3000
20
152.0000
0
VERTEX
8
CUT
10
51.4250
20
152.0250
0
VERTEX
8
CUT
10
51.5250
20
152.0500
0
VERTEX
8
CUT
10
51.6250
20
152.1000
0
VERTEX
8
CUT
10
51.7250
20
152.1500
0
VERTEX
8
CUT
10
51.8000
20
152.2000
0
VERTEX
8
CUT
10
51.9000
20
152.2750
0
VERTEX
8
CUT
10
51.9750
20
152.3500
0
VERTEX
8
CUT
10
52.0250
20
152.4500
0
VERTEX
8
CUT
10
52.0750
20
152.5500
0
VERTEX
8
CUT
10
52.1250
20
152.6500
0
VERTEX
8
CUT
10
52.1500
20
152.7500
0
VERTEX
8
CUT
10
52.1750
20
152.8500
0
VERTEX
8
CUT
10
52.2000
20
152.9750
0
VERTEX
8
CUT
10
52.2000
20
153.0000
0
VERTEX
8
CUT
10
52.2000
20
160.6750
0
VERTEX
8
CUT
10
52.2000
20
160.8000
0
VERTEX
8
CUT
10
52.1750
20
160.9000
0
VERTEX
8
CUT
10
52.1500
20
161.0250
0
VERTEX
8
CUT
10
52.1000
20
161.1250
0
VERTEX
8
CUT
10
52.0500
20
161.2000
0
VERTEX
8
CUT
10
51.9750
20
161.3000
0
VERTEX
8
CUT
10
51.9250
20
161.3750
0
VERTEX
8
CUT
10
51.8250
20
161.4500
0
VERTEX
8
CUT
10
51.7500
20
161.5250
0
VERTEX
8
CUT
10
51.6500
20
161.5750
0
VERTEX
8
CUT
10
51.5500
20
161.6250
0
VERTEX
8
CUT
10
51.4500
20
161.6500
0
VERTEX
8
CUT
10
51.3500
20
161.6750
0
VERTEX
8
CUT
10
51.2250
20
161.6750
0
VERTEX
8
CUT
10
51.2000
20
161.6750
0
SEQEND
0
POLYLINE
8
CUT
66
1
70
1
0
VERTEX
8
CUT
10
40.5000
20
134.0500
0
VERTEX
8
CUT
10
40.3750
20
134.0500
0
VERTEX
8
CUT
10
40.2750
20
134.0250
0
VERTEX
8
CUT
10
40.1750
20
134.0000
0
VERTEX
8
CUT
10
40.0750
20
133.9500
0
VERTEX
8
CUT
10
39.9750
20
133.9000
0
VERTEX
8
CUT
10
39.8750
20
133.8500
0
VERTEX
8
CUT
10
39.8000
20
133.7750
0
VERTEX
8
CUT
10
39.7250
20
133.7000
0
VERTEX
8
CUT
10
39.6500
20
133.6000
0
VERTEX
8
CUT
10
39.6000
20
133.5250
0
VERTEX
8
CUT
10
39.5500
20
133.4250
0
VERTEX
8
CUT
10
39.5250
20
133.3250
0
VERTEX
8
CUT
10
39.5000
20
133.2000
0
VERTEX
8
CUT
10
39.5000
20
133.1000
0
VERTEX
8
CUT
10
39.5000
20
133.0500
0
VERTEX
8
CUT
10
39.5000
20
121.4000
0
VERTEX
8
CUT
10
39.5000
20
121.3000
0
VERTEX
8
CUT
10
39.5250
20
121.1750
0
VERTEX
8
CUT
10
39.5500
20
121.0750
0
VERTEX
8
CUT
10
39.6000
20
120.9750
0
VERTEX
8
CUT
10
39.6500
20
120.8750
0
VERTEX
8
CUT
10
39.7000
20
120.8000
0
VERTEX
8
CUT
10
39.7750
20
120.7000
0
VERTEX
8
CUT
10
39.8500
20
120.6250
0
VERTEX
8
CUT
10
39.9500
20
120.5750
0
VERTEX
8
CUT
10
40.0250
20
120.5250
0
VERTEX
8
CUT
10
40.1250
20
120.4750
0
VERTEX
8
CUT
10
40.2500
20
120.4250
0
VERTEX
8
CUT
10
40.3500
20
120.4250
0
VERTEX
8
CUT
10
40.4500
20
120.4000
0
VERTEX
8
CUT
10
40.5000
20
120.4000
0
VERTEX
8
CUT
10
51.2000
20
120.4000
0
VERTEX
8
CUT
10
51.3000
20
120.4000
0
VERTEX
8
CUT
10
51.4250
20
120.4250
0
VERTEX
8
CUT
10
51.5250
20
120.4500
0
VERTEX
8
CUT
10
51.6250
20
120.5000
0
VERTEX
8
CUT
10
51.7250
20
120.5500
0
VERTEX
8
CUT
10
51.8000
20
120.6250
0
VERTEX
8
CUT
10
51.9000
20
120.6750
0
VERTEX
8
CUT
10
51.9750
20
120.7750
0
VERTEX
8
CUT
10
52.0250
20
120.8500
0
VERTEX
8
CUT
10
52.0750
20
120.9500
0
VERTEX
8
CUT
10
52.1250
20
121.0500
0
VERTEX
8
CUT
10
52.1500
20
121.1500
0
VERTEX
8
CUT
10
52.1750
20
121.2500
0
VERTEX
8
CUT
10
52.2000
20
121.3750
0
VERTEX
8
CUT
10
52.2000
20
121.4000
0
VERTEX
8
CUT
10
52.2000
20
133.0500
0
VERTEX
8
CUT
10
52.2000
20
133.1750
0
VERTEX
8
CUT
10
52.1750
20
133.2750
0
VERTEX
8
CUT
10
52.1500
20
133.4000
0
VERTEX
8
CUT
10
52.1000
20
133.5000
0
VERTEX
8
CUT
10
52.0500
20
133.5750
0
VERTEX
8
CUT
10
51.9750
20
133.6750
0
VERTEX
8
CUT
10
51.9250
20
133.7500
0
VERTEX
8
CUT
10
51.8250
20
133.8250
0
VERTEX
8
CUT
10
51.7500
20
133.9000
0
VERTEX
8
CUT
10
51.6500
20
133.9500
0
VERTEX
8
CUT
10
51.5500
20
134.0000
0
VERTEX
8
CUT
10
51.4500
20
134.0250
0
VERTEX
8
CUT
10
51.3500
20
134.0500
0
VERTEX
8
CUT
10
51.2250
20
134.0500
0
VERTEX
8
CUT
10
51.2000
20
134.0500
0
SEQEND
0
POLYLINE
8
CUT
66
1
70
1
0
VERTEX
8
CUT
10
35.8500
20
133.0500
0
VERTEX
8
CUT
10
35.8250
20
133.1750
0
VERTEX
8
CUT
10
35.8250
20
133.2750
0
VERTEX
8
CUT
10
35.7750
20
133.4000
0
VERTEX
8
CUT
10
35.7500
20
133.5000
0
VERTEX
8
CUT
10
35.7000
20
133.5750
0
VERTEX
8
CUT
10
35.6250
20
133.6750
0
VERTEX
8
CUT
10
35.5500
20
133.7500
0
VERTEX
8
CUT
10
35.4750
20
133.8250
0
VERTEX
8
CUT
10
35.4000
20
133.9000
0
VERTEX
8
CUT
10
35.3000
20
133.9500
0
VERTEX
8
CUT
10
35.2000
20
134.0000
0
VERTEX
8
CUT
10
35.1000
20
134.0250
0
VERTEX
8
CUT
10
34.9750
20
134.0500
0
VERTEX
8
CUT
10
34.8750
20
134.0500
0
VERTEX
8
CUT
10
34.8500
20
134.0500
0
VERTEX
8
CUT
10
24.1500
20
134.0500
0
VERTEX
8
CUT
10
24.0250
20
134.0500
0
VERTEX
8
CUT
10
23.9250
20
134.0250
0
VERTEX
8
CUT
10
23.8000
20
134.0000
0
VERTEX
8
CUT
10
23.7000
20
133.9500
0
VERTEX
8
CUT
10
23.6250
20
133.9000
0
VERTEX
8
CUT
10
23.5250
20
133.8500
0
VERTEX
8
CUT
10
23.4500
20
133.7750
0
VERTEX
8
CUT
10
23.3750
20
133.7000
0
VERTEX
8
CUT
10
23.3000
20
133.6000
0
VERTEX
8
CUT
10
23.2500
20
133.5250
0
VERTEX
8
CUT
10
23.2000
20
133.4250
0
VERTEX
8
CUT
10
23.1750
20
133.3250
0
VERTEX
8
CUT
10
23.1500
20
133.2000
0
VERTEX
8
CUT
10
23.1500
20
133.1000
0
VERTEX
8
CUT
10
23.1500
20
133.0500
0
VERTEX
8
CUT
10
23.1500
20
107.7500
0
VERTEX
8
CUT
10
23.1500
20
107.6250
0
VERTEX
8
CUT
10
23.1750
20
107.5250
0
VERTEX
8
CUT
10
23.2000
20
107.4250
0
VERTEX
8
CUT
10
23.2250
20
107.3250
0
VERTEX
8
CUT
10
23.3000
20
107.2250
0
VERTEX
8
CUT
10
23.3500
20
107.1250
0
VERTEX
8
CUT
10
23.4250
20
107.0500
0
VERTEX
8
CUT
10
23.5000
20
106.9750
0
VERTEX
8
CUT
10
23.5750
20
106.9250
0
VERTEX
8
CUT
10
23.6750
20
106.8500
0
VERTEX
8
CUT
10
23.7750
20
106.8250
0
VERTEX
8
CUT
10
23.8750
20
106.7750
0
VERTEX
8
CUT
10
24.0000
20
106.7500
0
VERTEX
8
CUT
10
24.1000
20
106.7500
0
VERTEX
8
CUT
10
24.1500
20
106.7500
0
VERTEX
8
CUT
10
34.8500
20
106.7500
0
VERTEX
8
CUT
10
34.9500
20
106.7500
0
VERTEX
8
CUT
10
35.0750
20
106.7750
0
VERTEX
8
CUT
10
35.1750
20
106.8000
0
VERTEX
8
CUT
10
35.2750
20
106.8500
0
VERTEX
8
CUT
10
35.3750
20
106.9000
0
VERTEX
8
CUT
10
35.4500
20
106.9500
0
VERTEX
8
CUT
10
35.5250
20
107.0250
0
VERTEX
8
CUT
10
35.6000
20
107.1000
0
VERTEX
8
CUT
10
35.6750
20
107.2000
0
VERTEX
8
CUT
10
35.7250
20
107.3000
0
VERTEX
8
CUT
10
35.7750
20
107.4000
0
VERTEX
8
CUT
10
35.8000
20
107.5000
0
VERTEX
8
CUT
10
35.8250
20
107.6000
0
VERTEX
8
CUT
10
35.8500
20
107.7250
0
VERTEX
8
CUT
10
35.8500
20
107.7500
0
SEQEND
0
POLYLINE
8
CUT
66
1
70
1
0
VERTEX
8
CUT
10
40.5000
20
116.4250
0
VERTEX
8
CUT
10
40.3750
20
116.4250
0
VERTEX
8
CUT
10
40.2750
20
116.4000
0
VERTEX
8
CUT
10
40.1750
20
116.3750
0
VERTEX
8
CUT
10
40.0750
20
116.3250
0
VERTEX
8
CUT
10
39.9750
20
116.2750
0
VERTEX
8
CUT
10
39.8750
20
116.2250
0
VERTEX
8
CUT
10
39.8000
20
116.1500
0
VERTEX
8
CUT
10
39.7250
20
116.0750
0
VERTEX
8
CUT
10
39.6500
20
115.9750
0
VERTEX
8
CUT
10
39.6000
20
115.9000
0
VERTEX
8
CUT
10
39.5500
20
115.8000
0
VERTEX
8
CUT
10
39.5250
20
115.7000
0
VERTEX
8
CUT
10
39.5000
20
115.5750
0
VERTEX
8
CUT
10
39.5000
20
115.4750
0
VERTEX
8
CUT
10
39.5000
20
115.4250
0
VERTEX
8
CUT
10
39.5000
20
107.7500
0
VERTEX
8
CUT
10
39.5000
20
107.6250
0
VERTEX
8
CUT
10
39.5250
20
107.5250
0
VERTEX
8
CUT
10
39.5500
20
107.4250
0
VERTEX
8
CUT
10
39.6000
20
107.3250
0
VERTEX
8
CUT
10
39.6500
20
107.2250
0
VERTEX
8
CUT
10
39.7000
20
107.1250
0
VERTEX
8
CUT
10
39.7750
20
107.0500
0
VERTEX
8
CUT
10
39.8500
20
106.9750
0
VERTEX
8
CUT
10
39.9500
20
106.9250
0
VERTEX
8
CUT
10
40.0250
20
106.8500
0
VERTEX
8
CUT
10
40.1250
20
106.8250
0
VERTEX
8
CUT
10
40.2500
20
106.7750
0
VERTEX
8
CUT
10
40.3500
20
106.7500
0
VERTEX
8
CUT
10
40.4500
20
106.7500
0
VERTEX
8
CUT
10
40.5000
20
106.7500
0
VERTEX
8
CUT
10
51.2000
20
106.7500
0
VERTEX
8
CUT
10
51.3000
20
106.7500
0
VERTEX
8
CUT
10
51.4250
20
106.7750
0
VERTEX
8
CUT
10
51.5250
20
106.8000
0
VERTEX
8
CUT
10
51.6250
20
106.8500
0
VERTEX
8
CUT
10
51.7250
20
106.9000
0
VERTEX
8
CUT
10
51.8000
20
106.9500
0
VERTEX
8
CUT
10
51.9000
20
107.0250
0
VERTEX
8
CUT
10
51.9750
20
107.1000
0
VERTEX
8
CUT
10
52.0250
20
107.2000
0
VERTEX
8
CUT
10
52.0750
20
107.3000
0
VERTEX
8
CUT
10
52.1250
20
107.4000
0
VERTEX
8
CUT
10
52.1500
20
107.5000
0
VERTEX
8
CUT
10
52.1750
20
107.6000
0
VERTEX
8
CUT
10
52.2000
20
107.7250
0
VERTEX
8
CUT
10
52.2000
20
107.7500
0
VERTEX
8
CUT
10
52.2000
20
115.4250
0
VERTEX
8
CUT
10
52.2000
20
115.5500
0
VERTEX
8
CUT
10
52.1750
20
115.6500
0
VERTEX
8
CUT
10
52.1500
20
115.7750
0
VERTEX
8
CUT
10
52.1000
20
115.8750
0
VERTEX
8
CUT
10
52.0500
20
115.9500
0
VERTEX
8
CUT
10
51.9750
20
116.0500
0
VERTEX
8
CUT
10
51.9250
20
116.1250
0
VERTEX
8
CUT
10
51.8250
20
116.2000
0
VERTEX
8
CUT
10
51.7500
20
116.2750
0
VERTEX
8
CUT
10
51.6500
20
116.3250
0
VERTEX
8
CUT
10
51.5500
20
116.3750
0
VERTEX
8
CUT
10
51.4500
20
116.4000
0
VERTEX
8
CUT
10
51.3500
20
116.4250
0
VERTEX
8
CUT
10
51.2250
20
116.4250
0
VERTEX
8
CUT
10
51.2000
20
116.4250
0
SEQEND
0
POLYLINE
8
CUT
66
1
70
1
0
VERTEX
8
CUT
10
91.9500
20
107.7500
0
VERTEX
8
CUT
10
91.9750
20
107.6250
0
VERTEX
8
CUT
10
91.9750
20
107.5250
0
VERTEX
8
CUT
10
92.0250
20
107.4250
0
VERTEX
8
CUT
10
92.0500
20
107.3250
0
VERTEX
8
CUT
10
92.1000
20
107.2250
0
VERTEX
8
CUT
10
92.1750
20
107.1250
0
VERTEX
8
CUT
10
92.2500
20
107.0500
0
VERTEX
8
CUT
10
92.3250
20
106.9750
0
VERTEX
8
CUT
10
92.4000
20
106.9250
0
VERTEX
8
CUT
10
92.5000
20
106.8500
0
VERTEX
8
CUT
10
92.6000
20
106.8250
0
VERTEX
8
CUT
10
92.7000
20
106.7750
0
VERTEX
8
CUT
10
92.8000
20
106.7500
0
VERTEX
8
CUT
10
92.9250
20
106.7500
0
VERTEX
8
CUT
10
92.9500
20
106.7500
0
VERTEX
8
CUT
10
103.6500
20
106.7500
0
VERTEX
8
CUT
10
103.7750
20
106.7500
0
VERTEX
8
CUT
10
103.8750
20
106.7750
0
VERTEX
8
CUT
10
104.0000
20
106.8000
0
VERTEX
8
CUT
10
104.1000
20
106.8500
0
VERTEX
8
CUT
10
104.1750
20
106.9000
0
VERTEX
8
CUT
10
104.2750
20
106.9500
0
VERTEX
8
CUT
10
104.3500
20
107.0250
0
VERTEX
8
CUT
10
104.4250
20
107.1000
0
VERTEX
8
CUT
10
104.5000
20
107.2000
0
VERTEX
8
CUT
10
104.5500
20
107.3000
0
VERTEX
8
CUT
10
104.6000
20
107.4000
0
VERTEX
8
CUT
10
104.6250
20
107.5000
0
VERTEX
8
CUT
10
104.6500
20
107.6000
0
VERTEX
8
CUT
10
104.6500
20
107.7250
0
VERTEX
8
CUT
10
104.6500
20
107.7500
0
VERTEX
8
CUT
10
104.6500
20
133.0500
0
VERTEX
8
CUT
10
104.6500
20
133.1750
0
VERTEX
8
CUT
10
104.6250
20
133.2750
0
VERTEX
8
CUT
10
104.6000
20
133.4000
0
VERTEX
8
CUT
10
104.5500
20
133.5000
0
VERTEX
8
CUT
10
104.5000
20
133.5750
0
VERTEX
8
CUT
10
104.4500
20
133.6750
0
VERTEX
8
CUT
10
104.3750
20
133.7500
0
VERTEX
8
CUT
10
104.3000
20
133.8250
0
VERTEX
8
CUT
10
104.2000
20
133.9000
0
VERTEX
8
CUT
10
104.1250
20
133.9500
0
VERTEX
8
CUT
10
104.0250
20
134.0000
0
VERTEX
8
CUT
10
103.9250
20
134.0250
0
VERTEX
8
CUT
10
103.8000
20
134.0500
0
VERTEX
8
CUT
10
103.7000
20
134.0500
0
VERTEX
8
CUT
10
103.6500
20
134.0500
0
VERTEX
8
CUT
10
92.9500
20
134.0500
0
VERTEX
8
CUT
10
92.8500
20
134.0500
0
VERTEX
8
CUT
10
92.7250
20
134.0250
0
VERTEX
8
CUT
10
92.6250
20
134.0000
0
VERTEX
8
CUT
10
92.5250
20
133.9500
0
VERTEX
8
CUT
10
92.4250
20
133.9000
0
VERTEX
8
CUT
10
92.3500
20
133.8500
0
VERTEX
8
CUT
10
92.2750
20
133.7750
0
VERTEX
8
CUT
10
92.2000
20
133.7000
0
VERTEX
8
CUT
10
92.1250
20
133.6000
0
VERTEX
8
CUT
10
92.0750
20
133.5250
0
VERTEX
8
CUT
10
92.0250
20
133.4250
0
VERTEX
8
CUT
10
92.0000
20
133.3250
0
VERTEX
8
CUT
10
91.9750
20
133.2000
0
VERTEX
8
CUT
10
91.9500
20
133.1000
0
VERTEX
8
CUT
10
91.9500
20
133.0500
0
SEQEND
0
POLYLINE
8
CUT
66
1
70
1
0
VERTEX
8
CUT
10
108.3000
20
107.7500
0
VERTEX
8
CUT
10
108.3250
20
107.6250
0
VERTEX
8
CUT
10
108.3250
20
107.5250
0
VERTEX
8
CUT
10
108.3750
20
107.4250
0
VERTEX
8
CUT
10
108.4000
20
107.3250
0
VERTEX
8
CUT
10
108.4500
20
107.2250
0
VERTEX
8
CUT
10
108.5250
20
107.1250
0
VERTEX
8
CUT
10
108.6000
20
107.0500
0
VERTEX
8
CUT
10
108.6750
20
106.9750
0
VERTEX
8
CUT
10
108.7500
20
106.9250
0
VERTEX
8
CUT
10
108.8500
20
106.8500
0
VERTEX
8
CUT
10
108.9500
20
106.8250
0
VERTEX
8
CUT
10
109.0500
20
106.7750
0
VERTEX
8
CUT
10
109.1750
20
106.7500
0
VERTEX
8
CUT
10
109.2750
20
106.7500
0
VERTEX
8
CUT
10
109.3000
20
106.7500
0
VERTEX
8
CUT
10
120.0250
20
106.7500
0
VERTEX
8
CUT
10
120.1250
20
106.7500
0
VERTEX
8
CUT
10
120.2250
20
106.7750
0
VERTEX
8
CUT
10
120.3500
20
106.8000
0
VERTEX
8
CUT
10
120.4500
20
106.8500
0
VERTEX
8
CUT
10
120.5500
20
106.9000
0
VERTEX
8
CUT
10
120.6250
20
106.9500
0
VERTEX
8
CUT
10
120.7000
20
107.0250
0
VERTEX
8
CUT
10
120.7750
20
107.1000
0
VERTEX
8
CUT
10
120.8500
20
107.2000
0
VERTEX
8
CUT
10
120.9000
20
107.3000
0
VERTEX
8
CUT
10
120.9500
20
107.4000
0
VERTEX
8
CUT
10
120.9750
20
107.5000
0
VERTEX
8
CUT
10
121.0000
20
107.6000
0
VERTEX
8
CUT
10
121.0250
20
107.7250
0
VERTEX
8
CUT
10
121.0250
20
107.7500
0
VERTEX
8
CUT
10
121.0250
20
115.4250
0
VERTEX
8
CUT
10
121.0000
20
115.5500
0
VERTEX
8
CUT
10
121.0000
20
115.6500
0
VERTEX
8
CUT
10
120.9500
20
115.7750
0
VERTEX
8
CUT
10
120.9250
20
115.8750
0
VERTEX
8
CUT
10
120.8750
20
115.9500
0
VERTEX
8
CUT
10
120.8000
20
116.0500
0
VERTEX
8
CUT
10
120.7250
20
116.1250
0
VERTEX
8
CUT
10
120.6500
20
116.2000
0
VERTEX
8
CUT
10
120.5750
20
116.2750
0
VERTEX
8
CUT
10
120.4750
20
116.3250
0
VERTEX
8
CUT
10
120.3750
20
116.3750
0
VERTEX
8
CUT
10
120.2750
20
116.4000
0
VERTEX
8
CUT
10
120.1500
20
116.4250
0
VERTEX
8
CUT
10
120.0500
20
116.4250
0
VERTEX
8
CUT
10
120.0250
20
116.4250
0
VERTEX
8
CUT
10
109.3000
20
116.4250
0
VERTEX
8
CUT
10
109.2000
20
116.4250
0
VERTEX
8
CUT
10
109.1000
20
116.4000
0
VERTEX
8
CUT
10
108.9750
20
116.3750
0
VERTEX
8
CUT
10
108.8750
20
116.3250
0
VERTEX
8
CUT
10
108.7750
20
116.2750
0
VERTEX
8
CUT
10
108.7000
20
116.2250
0
VERTEX
8
CUT
10
108.6250
20
116.1500
0
VERTEX
8
CUT
10
108.5500
20
116.0750
0
VERTEX
8
CUT
10
108.4750
20
115.9750
0
VERTEX
8
CUT
10
108.4250
20
115.9000
0
VERTEX
8
CUT
10
108.3750
20
115.8000
0
VERTEX
8
CUT
10
108.3500
20
115.7000
0
VERTEX
8
CUT
10
108.3250
20
115.5750
0
VERTEX
8
CUT
10
108.3000
20
115.4750
0
VERTEX
8
CUT
10
108.3000
20
115.4250
0
SEQEND
0
POLYLINE
8
CUT
66
1
70
1
0
VERTEX
8
CUT
10
109.3000
20
120.4000
0
VERTEX
8
CUT
10
120.0250
20
120.4000
0
VERTEX
8
CUT
10
120.1250
20
120.4000
0
VERTEX
8
CUT
10
120.2250
20
120.4250
0
VERTEX
8
CUT
10
120.3500
20
120.4500
0
VERTEX
8
CUT
10
120.4500
20
120.5000
0
VERTEX
8
CUT
10
120.5500
20
120.5500
0
VERTEX
8
CUT
10
120.6250
20
120.6250
0
VERTEX
8
CUT
10
120.7000
20
120.6750
0
VERTEX
8
CUT
10
120.7750
20
120.7750
0
VERTEX
8
CUT
10
120.8500
20
120.8500
0
VERTEX
8
CUT
10
120.9000
20
120.9500
0
VERTEX
8
CUT
10
120.9500
20
121.0500
0
VERTEX
8
CUT
10
120.9750
20
121.1500
0
VERTEX
8
CUT
10
121.0000
20
121.2500
0
VERTEX
8
CUT
10
121.0250
20
121.3750
0
VERTEX
8
CUT
10
121.0250
20
121.4000
0
VERTEX
8
CUT
10
121.0250
20
133.0500
0
VERTEX
8
CUT
10
121.0000
20
133.1750
0
VERTEX
8
CUT
10
121.0000
20
133.2750
0
VERTEX
8
CUT
10
120.9500
20
133.4000
0
VERTEX
8
CUT
10
120.9250
20
133.5000
0
VERTEX
8
CUT
10
120.8750
20
133.5750
0
VERTEX
8
CUT
10
120.8000
20
133.6750
0
VERTEX
8
CUT
10
120.7250
20
133.7500
0
VERTEX
8
CUT
10
120.6500
20
133.8250
0
VERTEX
8
CUT
10
120.5750
20
133.9000
0
VERTEX
8
CUT
10
120.4750
20
133.9500
0
VERTEX
8
CUT
10
120.3750
20
134.0000
0
VERTEX
8
CUT
10
120.2750
20
134.0250
0
VERTEX
8
CUT
10
120.1500
20
134.0500
0
VERTEX
8
CUT
10
120.0500
20
134.0500
0
VERTEX
8
CUT
10
120.0250
20
134.0500
0
VERTEX
8
CUT
10
109.3000
20
134.0500
0
VERTEX
8
CUT
10
109.2000
20
134.0500
0
VERTEX
8
CUT
10
109.1000
20
134.0250
0
VERTEX
8
CUT
10
108.9750
20
134.0000
0
VERTEX
8
CUT
10
108.8750
20
133.9500
0
VERTEX
8
CUT
10
108.7750
20
133.9000
0
VERTEX
8
CUT
10
108.7000
20
133.8500
0
VERTEX
8
CUT
10
108.6250
20
133.7750
0
VERTEX
8
CUT
10
108.5500
20
133.7000
0
VERTEX
8
CUT
10
108.4750
20
133.6000
0
VERTEX
8
CUT
10
108.4250
20
133.5250
0
VERTEX
8
CUT
10
108.3750
20
133.4250
0
VERTEX
8
CUT
10
108.3500
20
133.3250
0
VERTEX
8
CUT
10
108.3250
20
133.2000
0
VERTEX
8
CUT
10
108.3000
20
133.1000
0
VERTEX
8
CUT
10
108.3000
20
133.0500
0
VERTEX
8
CUT
10
108.3000
20
121.4000
0
VERTEX
8
CUT
10
108.3250
20
121.3000
0
VERTEX
8
CUT
10
108.3250
20
121.1750
0
VERTEX
8
CUT
10
108.3750
20
121.0750
0
VERTEX
8
CUT
10
108.4000
20
120.9750
0
VERTEX
8
CUT
10
108.4500
20
120.8750
0
VERTEX
8
CUT
10
108.5250
20
120.8000
0
VERTEX
8
CUT
10
108.6000
20
120.7000
0
VERTEX
8
CUT
10
108.6750
20
120.6250
0
VERTEX
8
CUT
10
108.7500
20
120.5750
0
VERTEX
8
CUT
10
108.8500
20
120.5250
0
VERTEX
8
CUT
10
108.9500
20
120.4750
0
VERTEX
8
CUT
10
109.0500
20
120.4250
0
VERTEX
8
CUT
10
109.1750
20
120.4250
0
VERTEX
8
CUT
10
109.2750
20
120.4000
0
SEQEND
0
POLYLINE
8
CUT
66
1
70
1
0
VERTEX
8
CUT
10
109.3000
20
152.0000
0
VERTEX
8
CUT
10
120.0250
20
152.0000
0
VERTEX
8
CUT
10
120.1250
20
152.0000
0
VERTEX
8
CUT
10
120.2250
20
152.0250
0
VERTEX
8
CUT
10
120.3500
20
152.0500
0
VERTEX
8
CUT
10
120.4500
20
152.1000
0
VERTEX
8
CUT
10
120.5500
20
152.1500
0
VERTEX
8
CUT
10
120.6250
20
152.2000
0
VERTEX
8
CUT
10
120.7000
20
152.2750
0
VERTEX
8
CUT
10
120.7750
20
152.3500
0
VERTEX
8
CUT
10
120.8500
20
152.4500
0
VERTEX
8
CUT
10
120.9000
20
152.5500
0
VERTEX
8
CUT
10
120.9500
20
152.6500
0
VERTEX
8
CUT
10
120.9750
20
152.7500
0
VERTEX
8
CUT
10
121.0000
20
152.8500
0
VERTEX
8
CUT
10
121.0250
20
152.9750
0
VERTEX
8
CUT
10
121.0250
20
153.0000
0
VERTEX
8
CUT
10
121.0250
20
160.6750
0
VERTEX
8
CUT
10
121.0000
20
160.8000
0
VERTEX
8
CUT
10
121.0000
20
160.9000
0
VERTEX
8
CUT
10
120.9500
20
161.0250
0
VERTEX
8
CUT
10
120.9250
20
161.1250
0
VERTEX
8
CUT
10
120.8750
20
161.2000
0
VERTEX
8
CUT
10
120.8000
20
161.3000
0
VERTEX
8
CUT
10
120.7250
20
161.3750
0
VERTEX
8
CUT
10
120.6500
20
161.4500
0
VERTEX
8
CUT
10
120.5750
20
161.5250
0
VERTEX
8
CUT
10
120.4750
20
161.5750
0
VERTEX
8
CUT
10
120.3750
20
161.6250
0
VERTEX
8
CUT
10
120.2750
20
161.6500
0
VERTEX
8
CUT
10
120.1500
20
161.6750
0
VERTEX
8
CUT
10
120.0500
20
161.6750
0
VERTEX
8
CUT
10
120.0250
20
161.6750
0
VERTEX
8
CUT
10
109.3000
20
161.6750
0
VERTEX
8
CUT
10
109.2000
20
161.6750
0
VERTEX
8
CUT
10
109.1000
20
161.6500
0
VERTEX
8
CUT
10
108.9750
20
161.6250
0
VERTEX
8
CUT
10
108.8750
20
161.6000
0
VERTEX
8
CUT
10
108.7750
20
161.5250
0
VERTEX
8
CUT
10
108.7000
20
161.4750
0
VERTEX
8
CUT
10
108.6250
20
161.4000
0
VERTEX
8
CUT
10
108.5500
20
161.3250
0
VERTEX
8
CUT
10
108.4750
20
161.2500
0
VERTEX
8
CUT
10
108.4250
20
161.1500
0
VERTEX
8
CUT
10
108.3750
20
161.0500
0
VERTEX
8
CUT
10
108.3500
20
160.9500
0
VERTEX
8
CUT
10
108.3250
20
160.8250
0
VERTEX
8
CUT
10
108.3000
20
160.7250
0
VERTEX
8
CUT
10
108.3000
20
160.6750
0
VERTEX
8
CUT
10
108.3000
20
153.0000
0
VERTEX
8
CUT
10
108.3250
20
152.9000
0
VERTEX
8
CUT
10
108.3250
20
152.7750
0
VERTEX
8
CUT
10
108.3750
20
152.6750
0
VERTEX
8
CUT
10
108.4000
20
152.5750
0
VERTEX
8
CUT
10
108.4500
20
152.4750
0
VERTEX
8
CUT
10
108.5250
20
152.4000
0
VERTEX
8
CUT
10
108.6000
20
152.3000
0
VERTEX
8
CUT
10
108.6750
20
152.2250
0
VERTEX
8
CUT
10
108.7500
20
152.1750
0
VERTEX
8
CUT
10
108.8500
20
152.1250
0
VERTEX
8
CUT
10
108.9500
20
152.0750
0
VERTEX
8
CUT
10
109.0500
20
152.0250
0
VERTEX
8
CUT
10
109.1750
20
152.0000
0
VERTEX
8
CUT
10
109.2750
20
152.0000
0
SEQEND
0
POLYLINE
8
CUT
66
1
70
1
0
VERTEX
8
CUT
10
104.6500
20
153.0000
0
VERTEX
8
CUT
10
104.6500
20
178.3000
0
VERTEX
8
CUT
10
104.6500
20
178.4250
0
VERTEX
8
CUT
10
104.6250
20
178.5250
0
VERTEX
8
CUT
10
104.6000
20
178.6500
0
VERTEX
8
CUT
10
104.5500
20
178.7500
0
VERTEX
8
CUT
10
104.5000
20
178.8250
0
VERTEX
8
CUT
10
104.4500
20
178.9250
0
VERTEX
8
CUT
10
104.3750
20
179.0000
0
VERTEX
8
CUT
10
104.3000
20
179.0750
0
VERTEX
8
CUT
10
104.2000
20
179.1500
0
VERTEX
8
CUT
10
104.1250
20
179.2000
0
VERTEX
8
CUT
10
104.0250
20
179.2500
0
VERTEX
8
CUT
10
103.9250
20
179.2750
0
VERTEX
8
CUT
10
103.8000
20
179.3000
0
VERTEX
8
CUT
10
103.7000
20
179.3000
0
VERTEX
8
CUT
10
103.6500
20
179.3000
0
VERTEX
8
CUT
10
92.9500
20
179.3000
0
VERTEX
8
CUT
10
92.8500
20
179.3000
0
VERTEX
8
CUT
10
92.7250
20
179.2750
0
VERTEX
8
CUT
10
92.6250
20
179.2500
0
VERTEX
8
CUT
10
92.5250
20
179.2250
0
VERTEX
8
CUT
10
92.4250
20
179.1500
0
VERTEX
8
CUT
10
92.3500
20
179.1000
0
VERTEX
8
CUT
10
92.2750
20
179.0250
0
VERTEX
8
CUT
10
92.2000
20
178.9500
0
VERTEX
8
CUT
10
92.1250
20
178.8750
0
VERTEX
8
CUT
10
92.0750
20
178.7750
0
VERTEX
8
CUT
10
92.0250
20
178.6750
0
VERTEX
8
CUT
10
92.0000
20
178.5750
0
VERTEX
8
CUT
10
91.9750
20
178.4500
0
VERTEX
8
CUT
10
91.9500
20
178.3500
0
VERTEX
8
CUT
10
91.9500
20
178.3000
0
VERTEX
8
CUT
10
91.9500
20
153.0000
0
VERTEX
8
CUT
10
91.9750
20
152.9000
0
VERTEX
8
CUT
10
91.9750
20
152.7750
0
VERTEX
8
CUT
10
92.0250
20
152.6750
0
VERTEX
8
CUT
10
92.0500
20
152.5750
0
VERTEX
8
CUT
10
92.1000
20
152.4750
0
VERTEX
8
CUT
10
92.1750
20
152.4000
0
VERTEX
8
CUT
10
92.2500
20
152.3000
0
VERTEX
8
CUT
10
92.3250
20
152.2250
0
VERTEX
8
CUT
10
92.4000
20
152.1750
0
VERTEX
8
CUT
10
92.5000
20
152.1250
0
VERTEX
8
CUT
10
92.6000
20
152.0750
0
VERTEX
8
CUT
10
92.7000
20
152.0250
0
VERTEX
8
CUT
10
92.8000
20
152.0000
0
VERTEX
8
CUT
10
92.9250
20
152.0000
0
VERTEX
8
CUT
10
92.9500
20
152.0000
0
VERTEX
8
CUT
10
103.6500
20
152.0000
0
VERTEX
8
CUT
10
103.7750
20
152.0000
0
VERTEX
8
CUT
10
103.8750
20
152.0250
0
VERTEX
8
CUT
10
104.0000
20
152.0500
0
VERTEX
8
CUT
10
104.1000
20
152.1000
0
VERTEX
8
CUT
10
104.1750
20
152.1500
0
VERTEX
8
CUT
10
104.2750
20
152.2000
0
VERTEX
8
CUT
10
104.3500
20
152.2750
0
VERTEX
8
CUT
10
104.4250
20
152.3500
0
VERTEX
8
CUT
10
104.5000
20
152.4500
0
VERTEX
8
CUT
10
104.5500
20
152.5500
0
VERTEX
8
CUT
10
104.6000
20
152.6500
0
VERTEX
8
CUT
10
104.6250
20
152.7500
0
VERTEX
8
CUT
10
104.6500
20
152.8500
0
VERTEX
8
CUT
10
104.6500
20
152.9750
0
SEQEND
0
POLYLINE
8
CUT
66
1
70
1
0
VERTEX
8
CUT
10
109.3000
20
165.6500
0
VERTEX
8
CUT
10
120.0250
20
165.6500
0
VERTEX
8
CUT
10
120.1250
20
165.6750
0
VERTEX
8
CUT
10
120.2250
20
165.6750
0
VERTEX
8
CUT
10
120.3500
20
165.7000
0
VERTEX
8
CUT
10
120.4500
20
165.7500
0
VERTEX
8
CUT
10
120.5500
20
165.8000
0
VERTEX
8
CUT
10
120.6250
20
165.8750
0
VERTEX
8
CUT
10
120.7000
20
165.9500
0
VERTEX
8
CUT
10
120.7750
20
166.0250
0
VERTEX
8
CUT
10
120.8500
20
166.1000
0
VERTEX
8
CUT
10
120.9000
20
166.2000
0
VERTEX
8
CUT
10
120.9500
20
166.3000
0
VERTEX
8
CUT
10
120.9750
20
166.4000
0
VERTEX
8
CUT
10
121.0000
20
166.5000
0
VERTEX
8
CUT
10
121.0250
20
166.6250
0
VERTEX
8
CUT
10
121.0250
20
166.6500
0
VERTEX
8
CUT
10
121.0250
20
178.3000
0
VERTEX
8
CUT
10
121.0000
20
178.4250
0
VERTEX
8
CUT
10
121.0000
20
178.5250
0
VERTEX
8
CUT
10
120.9500
20
178.6500
0
VERTEX
8
CUT
10
120.9250
20
178.7500
0
VERTEX
8
CUT
10
120.8750
20
178.8250
0
VERTEX
8
CUT
10
120.8000
20
178.9250
0
VERTEX
8
CUT
10
120.7250
20
179.0000
0
VERTEX
8
CUT
10
120.6500
20
179.0750
0
VERTEX
8
CUT
10
120.5750
20
179.1500
0
VERTEX
8
CUT
10
120.4750
20
179.2000
0
VERTEX
8
CUT
10
120.3750
20
179.2500
0
VERTEX
8
CUT
10
120.2750
20
179.2750
0
VERTEX
8
CUT
10
120.1500
20
179.3000
0
VERTEX
8
CUT
10
120.0500
20
179.3000
0
VERTEX
8
CUT
10
120.0250
20
179.3000
0
VERTEX
8
CUT
10
109.3000
20
179.3000
0
VERTEX
8
CUT
10
109.2000
20
179.3000
0
VERTEX
8
CUT
10
109.1000
20
179.2750
0
VERTEX
8
CUT
10
108.9750
20
179.2500
0
VERTEX
8
CUT
10
108.8750
20
179.2250
0
VERTEX
8
CUT
10
108.7750
20
179.1500
0
VERTEX
8
CUT
10
108.7000
20
179.1000
0
VERTEX
8
CUT
10
108.6250
20
179.0250
0
VERTEX
8
CUT
10
108.5500
20
178.9500
0
VERTEX
8
CUT
10
108.4750
20
178.8750
0
VERTEX
8
CUT
10
108.4250
20
178.7750
0
VERTEX
8
CUT
10
108.3750
20
178.6750
0
VERTEX
8
CUT
10
108.3500
20
178.5750
0
VERTEX
8
CUT
10
108.3250
20
178.4500
0
VERTEX
8
CUT
10
108.3000
20
178.3500
0
VERTEX
8
CUT
10
108.3000
20
178.3000
0
VERTEX
8
CUT
10
108.3000
20
166.6500
0
VERTEX
8
CUT
10
108.3250
20
166.5500
0
VERTEX
8
CUT
10
108.3250
20
166.4250
0
VERTEX
8
CUT
10
108.3750
20
166.3250
0
VERTEX
8
CUT
10
108.4000
20
166.2250
0
VERTEX
8
CUT
10
108.4500
20
166.1250
0
VERTEX
8
CUT
10
108.5250
20
166.0500
0
VERTEX
8
CUT
10
108.6000
20
165.9500
0
VERTEX
8
CUT
10
108.6750
20
165.8750
0
VERTEX
8
CUT
10
108.7500
20
165.8250
0
VERTEX
8
CUT
10
108.8500
20
165.7750
0
VERTEX
8
CUT
10
108.9500
20
165.7250
0
VERTEX
8
CUT
10
109.0500
20
165.7000
0
VERTEX
8
CUT
10
109.1750
20
165.6750
0
VERTEX
8
CUT
10
109.2750
20
165.6500
0
SEQEND
0
POLYLINE
8
CUT
66
1
70
1
0
VERTEX
8
CUT
10
73.4250
20
170.3250
0
VERTEX
8
CUT
10
73.4250
20
187.2750
0
VERTEX
8
CUT
10
70.7250
20
187.2750
0
VERTEX
8
CUT
10
70.7250
20
170.3250
0
SEQEND
0
POLYLINE
8
CUT
66
1
70
1
0
VERTEX
8
CUT
10
73.4250
20
60.2750
0
VERTEX
8
CUT
10
70.7250
20
60.2750
0
VERTEX
8
CUT
10
70.7250
20
51.8000
0
VERTEX
8
CUT
10
73.4250
20
51.8000
0
SEQEND
0
POLYLINE
8
CUT
66
1
70
0
0
VERTEX
8
CUT
10
14.3750
20
69.2000
0
VERTEX
8
CUT
10
70.8250
20
23.2750
0
VERTEX
8
CUT
10
70.9750
20
23.1500
0
VERTEX
8
CUT
10
71.1500
20
23.0500
0
VERTEX
8
CUT
10
71.3250
20
22.9750
0
VERTEX
8
CUT
10
71.5000
20
22.9000
0
VERTEX
8
CUT
10
71.6750
20
22.8500
0
VERTEX
8
CUT
10
71.8500
20
22.8250
0
VERTEX
8
CUT
10
72.0500
20
22.8250
0
VERTEX
8
CUT
10
72.2250
20
22.8250
0
VERTEX
8
CUT
10
72.4250
20
22.8500
0
VERTEX
8
CUT
10
72.6000
20
22.8750
0
VERTEX
8
CUT
10
72.7750
20
22.9500
0
VERTEX
8
CUT
10
72.9500
20
23.0250
0
VERTEX
8
CUT
10
73.1250
20
23.1250
0
VERTEX
8
CUT
10
73.3000
20
23.2250
0
VERTEX
8
CUT
10
73.3500
20
23.2750
0
VERTEX
8
CUT
10
117.7750
20
59.4500
0
SEQEND
0
POLYLINE
8
CUT
66
1
70
1
0
VERTEX
8
CUT
10
127.5500
20
65.7000
0
VERTEX
8
CUT
10
127.4500
20
65.7000
0
VERTEX
8
CUT
10
127.3500
20
65.6750
0
VERTEX
8
CUT
10
127.2500
20
65.6500
0
VERTEX
8
CUT
10
127.1500
20
65.6250
0
VERTEX
8
CUT
10
127.0750
20
65.5750
0
VERTEX
8
CUT
10
127.0000
20
65.5250
0
VERTEX
8
CUT
10
126.9250
20
65.4500
0
VERTEX
8
CUT
10
126.8500
20
65.3750
0
VERTEX
8
CUT
10
126.8000
20
65.3000
0
VERTEX
8
CUT
10
126.7500
20
65.2250
0
VERTEX
8
CUT
10
126.7000
20
65.1250
0
VERTEX
8
CUT
10
126.6750
20
65.0250
0
VERTEX
8
CUT
10
126.6500
20
64.9500
0
VERTEX
8
CUT
10
126.6500
20
64.8250
0
VERTEX
8
CUT
10
126.6500
20
64.8000
0
VERTEX
8
CUT
10
126.6500
20
25.0000
0
VERTEX
8
CUT
10
126.6500
20
24.9000
0
VERTEX
8
CUT
10
126.6750
20
24.8000
0
VERTEX
8
CUT
10
126.7000
20
24.7000
0
VERTEX
8
CUT
10
126.7250
20
24.6000
0
VERTEX
8
CUT
10
126.7750
20
24.5250
0
VERTEX
8
CUT
10
126.8500
20
24.4500
0
VERTEX
8
CUT
10
126.9000
20
24.3750
0
VERTEX
8
CUT
10
126.9750
20
24.3000
0
VERTEX
8
CUT
10
127.0500
20
24.2500
0
VERTEX
8
CUT
10
127.1250
20
24.2000
0
VERTEX
8
CUT
10
127.2250
20
24.1500
0
VERTEX
8
CUT
10
127.3250
20
24.1250
0
VERTEX
8
CUT
10
127.4250
20
24.1000
0
VERTEX
8
CUT
10
127.5250
20
24.1000
0
VERTEX
8
CUT
10
127.5500
20
24.1000
0
VERTEX
8
CUT
10
151.0500
20
24.1000
0
VERTEX
8
CUT
10
151.1500
20
24.1000
0
VERTEX
8
CUT
10
151.2500
20
24.1250
0
VERTEX
8
CUT
10
151.3500
20
24.1500
0
VERTEX
8
CUT
10
151.4250
20
24.1750
0
VERTEX
8
CUT
10
151.5250
20
24.2250
0
VERTEX
8
CUT
10
151.6000
20
24.2750
0
VERTEX
8
CUT
10
151.6750
20
24.3500
0
VERTEX
8
CUT
10
151.7500
20
24.4250
0
VERTEX
8
CUT
10
151.8000
20
24.5000
0
VERTEX
8
CUT
10
151.8500
20
24.5750
0
VERTEX
8
CUT
10
151.8750
20
24.6750
0
VERTEX
8
CUT
10
151.9250
20
24.7500
0
VERTEX
8
CUT
10
151.9250
20
24.8500
0
VERTEX
8
CUT
10
151.9500
20
24.9500
0
VERTEX
8
CUT
10
151.9500
20
25.0000
0
VERTEX
8
CUT
10
151.9500
20
64.8000
0
VERTEX
8
CUT
10
151.9500
20
64.9000
0
VERTEX
8
CUT
10
151.9250
20
65.0000
0
VERTEX
8
CUT
10
151.9000
20
65.1000
0
VERTEX
8
CUT
10
151.8500
20
65.2000
0
VERTEX
8
CUT
10
151.8000
20
65.2750
0
VERTEX
8
CUT
10
151.7500
20
65.3500
0
VERTEX
8
CUT
10
151.7000
20
65.4250
0
VERTEX
8
CUT
10
151.6250
20
65.5000
0
VERTEX
8
CUT
10
151.5500
20
65.5500
0
VERTEX
8
CUT
10
151.4500
20
65.6000
0
VERTEX
8
CUT
10
151.3750
20
65.6500
0
VERTEX
8
CUT
10
151.2750
20
65.6750
0
VERTEX
8
CUT
10
151.1750
20
65.7000
0
VERTEX
8
CUT
10
151.0750
20
65.7000
0
VERTEX
8
CUT
10
151.0500
20
65.7000
0
SEQEND
0
POLYLINE
8
CUT
66
1
70
0
0
VERTEX
8
CUT
10
118.2500
20
28.9750
0
VERTEX
8
CUT
10
118.3500
20
28.9500
0
VERTEX
8
CUT
10
118.5000
20
28.9500
0
VERTEX
8
CUT
10
118.6250
20
28.9500
0
VERTEX
8
CUT
10
118.7000
20
28.9500
0
VERTEX
8
CUT
10
118.7500
20
28.9500
0
VERTEX
8
CUT
10
118.7500
20
28.9500
0
VERTEX
8
CUT
10
118.7500
20
29.0000
0
VERTEX
8
CUT
10
118.7750
20
29.1500
0
VERTEX
8
CUT
10
118.8250
20
29.4000
0
VERTEX
8
CUT
10
118.8750
20
29.7500
0
VERTEX
8
CUT
10
118.9500
20
30.1250
0
VERTEX
8
CUT
10
119.0000
20
30.4750
0
VERTEX
8
CUT
10
119.0750
20
30.8500
0
VERTEX
8
CUT
10
119.1500
20
31.2250
0
VERTEX
8
CUT
10
119.2250
20
31.5750
0
VERTEX
8
CUT
10
119.3000
20
31.9500
0
VERTEX
8
CUT
10
119.3750
20
32.3250
0
VERTEX
8
CUT
10
119.4750
20
32.6750
0
VERTEX
8
CUT
10
119.5500
20
33.0500
0
VERTEX
8
CUT
10
119.6500
20
33.4000
0
VERTEX
8
CUT
10
119.7500
20
33.7500
0
VERTEX
8
CUT
10
119.8750
20
34.1250
0
VERTEX
8
CUT
10
119.9750
20
34.4750
0
VERTEX
8
CUT
10
120.1000
20
34.8250
0
VERTEX
8
CUT
10
120.2250
20
35.1250
0
VERTEX
8
CUT
10
120.3500
20
35.4000
0
VERTEX
8
CUT
10
120.4750
20
35.7000
0
VERTEX
8
CUT
10
120.6250
20
36.0000
0
VERTEX
8
CUT
10
120.8000
20
36.3000
0
VERTEX
8
CUT
10
120.9750
20
36.6250
0
VERTEX
8
CUT
10
121.1500
20
36.9500
0
VERTEX
8
CUT
10
121.3250
20
37.2750
0
VERTEX
8
CUT
10
121.5250
20
37.6000
0
VERTEX
8
CUT
10
121.7000
20
37.9250
0
VERTEX
8
CUT
10
121.9000
20
38.2500
0
VERTEX
8
CUT
10
122.1000
20
38.5750
0
VERTEX
8
CUT
10
122.3000
20
38.8750
0
VERTEX
8
CUT
10
122.5000
20
39.1750
0
VERTEX
8
CUT
10
122.6750
20
39.4750
0
VERTEX
8
CUT
10
122.7500
20
39.5750
0
VERTEX
8
CUT
10
122.8250
20
39.5250
0
VERTEX
8
CUT
10
122.8750
20
39.5000
0
VERTEX
8
CUT
10
122.9500
20
39.4500
0
VERTEX
8
CUT
10
123.0250
20
39.4000
0
VERTEX
8
CUT
10
123.1250
20
39.3750
0
VERTEX
8
CUT
10
123.2000
20
39.3500
0
VERTEX
8
CUT
10
123.2750
20
39.3250
0
VERTEX
8
CUT
10
123.3500
20
39.3000
0
VERTEX
8
CUT
10
123.4500
20
39.2750
0
VERTEX
8
CUT
10
123.5250
20
39.2500
0
VERTEX
8
CUT
10
123.6250
20
39.2500
0
VERTEX
8
CUT
10
123.7000
20
39.2250
0
VERTEX
8
CUT
10
123.8000
20
39.2250
0
VERTEX
8
CUT
10
123.8750
20
39.2250
0
VERTEX
8
CUT
10
123.9000
20
39.2250
0
VERTEX
8
CUT
10
124.1500
20
39.2250
0
VERTEX
8
CUT
10
124.3750
20
39.2750
0
VERTEX
8
CUT
10
124.6000
20
39.3500
0
VERTEX
8
CUT
10
124.8250
20
39.4250
0
VERTEX
8
CUT
10
125.0250
20
39.5250
0
VERTEX
8
CUT
10
125.2000
20
39.6750
0
VERTEX
8
CUT
10
125.3750
20
39.8250
0
VERTEX
8
CUT
10
125.5250
20
39.9750
0
VERTEX
8
CUT
10
125.6500
20
40.1750
0
VERTEX
8
CUT
10
125.7750
20
40.3500
0
VERTEX
8
CUT
10
125.8750
20
40.5750
0
VERTEX
8
CUT
10
125.9500
20
40.8000
0
VERTEX
8
CUT
10
126.0000
20
41.0250
0
VERTEX
8
CUT
10
126.0000
20
41.2500
0
VERTEX
8
CUT
10
126.0000
20
41.3250
0
VERTEX
8
CUT
10
126.0000
20
41.5750
0
VERTEX
8
CUT
10
125.9500
20
41.8000
0
VERTEX
8
CUT
10
125.9000
20
42.0250
0
VERTEX
8
CUT
10
125.8000
20
42.2250
0
VERTEX
8
CUT
10
125.7000
20
42.4250
0
VERTEX
8
CUT
10
125.5750
20
42.6250
0
VERTEX
8
CUT
10
125.4250
20
42.8000
0
VERTEX
8
CUT
10
125.2500
20
42.9500
0
VERTEX
8
CUT
10
125.0750
20
43.0750
0
VERTEX
8
CUT
10
124.8750
20
43.2000
0
VERTEX
8
CUT
10
124.6750
20
43.3000
0
VERTEX
8
CUT
10
124.4500
20
43.3500
0
VERTEX
8
CUT
10
124.2250
20
43.4000
0
VERTEX
8
CUT
10
123.9750
20
43.4250
0
VERTEX
8
CUT
10
123.9000
20
43.4250
0
VERTEX
8
CUT
10
123.6750
20
43.4250
0
VERTEX
8
CUT
10
123.4500
20
43.3750
0
VERTEX
8
CUT
10
123.2250
20
43.3250
0
VERTEX
8
CUT
10
123.0000
20
43.2250
0
VERTEX
8
CUT
10
122.8000
20
43.1250
0
VERTEX
8
CUT
10
122.6250
20
42.9750
0
VERTEX
8
CUT
10
122.4500
20
42.8500
0
VERTEX
8
CUT
10
122.3000
20
42.6750
0
VERTEX
8
CUT
10
122.1500
20
42.5000
0
VERTEX
8
CUT
10
122.0500
20
42.3000
0
VERTEX
8
CUT
10
121.9500
20
42.0750
0
VERTEX
8
CUT
10
121.8750
20
41.8750
0
VERTEX
8
CUT
10
121.8250
20
41.6250
0
VERTEX
8
CUT
10
121.8000
20
41.4000
0
VERTEX
8
CUT
10
121.8000
20
41.3250
0
VERTEX
8
CUT
10
121.8000
20
41.2500
0
VERTEX
8
CUT
10
121.8000
20
41.1750
0
VERTEX
8
CUT
10
121.8250
20
41.1250
0
VERTEX
8
CUT
10
121.8250
20
41.0500
0
VERTEX
8
CUT
10
121.8250
20
40.9750
0
VERTEX
8
CUT
10
121.8500
20
40.9250
0
VERTEX
8
CUT
10
121.8500
20
40.8500
0
VERTEX
8
CUT
10
121.8750
20
40.7750
0
VERTEX
8
CUT
10
121.9000
20
40.7250
0
VERTEX
8
CUT
10
121.9250
20
40.6500
0
VERTEX
8
CUT
10
121.9500
20
40.6000
0
VERTEX
8
CUT
10
121.9750
20
40.5250
0
VERTEX
8
CUT
10
122.0000
20
40.4750
0
VERTEX
8
CUT
10
122.0250
20
40.4000
0
VERTEX
8
CUT
10
122.0250
20
40.3750
0
VERTEX
8
CUT
10
121.6750
20
40.2250
0
VERTEX
8
CUT
10
121.3500
20
40.0750
0
VERTEX
8
CUT
10
121.0250
20
39.9250
0
VERTEX
8
CUT
10
120.6750
20
39.7750
0
VERTEX
8
CUT
10
120.3250
20
39.6250
0
VERTEX
8
CUT
10
120.0000
20
39.5000
0
VERTEX
8
CUT
10
119.6500
20
39.3750
0
VERTEX
8
CUT
10
119.3000
20
39.2500
0
VERTEX
8
CUT
10
118.9500
20
39.1500
0
VERTEX
8
CUT
10
118.5750
20
39.0750
0
VERTEX
8
CUT
10
118.2250
20
39.0000
0
VERTEX
8
CUT
10
117.8500
20
38.9500
0
VERTEX
8
CUT
10
117.4750
20
38.9500
0
VERTEX
8
CUT
10
117.1000
20
38.9750
0
VERTEX
8
CUT
10
116.7500
20
39.0500
0
VERTEX
8
CUT
10
116.4000
20
39.1750
0
VERTEX
8
CUT
10
116.0750
20
39.3500
0
VERTEX
8
CUT
10
115.7750
20
39.6000
0
VERTEX
8
CUT
10
115.5000
20
39.8500
0
VERTEX
8
CUT
10
115.2750
20
40.1500
0
VERTEX
8
CUT
10
115.0750
20
40.4500
0
VERTEX
8
CUT
10
114.9000
20
40.7750
0
VERTEX
8
CUT
10
114.7250
20
41.1000
0
VERTEX
8
CUT
10
114.5750
20
41.4500
0
VERTEX
8
CUT
10
114.4500
20
41.8000
0
VERTEX
8
CUT
10
114.3250
20
42.1500
0
VERTEX
8
CUT
10
114.2000
20
42.5000
0
VERTEX
8
CUT
10
114.1000
20
42.8500
0
VERTEX
8
CUT
10
114.0000
20
43.2000
0
VERTEX
8
CUT
10
113.9000
20
43.5750
0
VERTEX
8
CUT
10
113.8000
20
43.9250
0
VERTEX
8
CUT
10
113.7250
20
44.2750
0
VERTEX
8
CUT
10
113.6500
20
44.6500
0
VERTEX
8
CUT
10
113.5500
20
45.0000
0
VERTEX
8
CUT
10
113.5000
20
45.2750
0
VERTEX
8
CUT
10
113.6500
20
45.3500
0
VERTEX
8
CUT
10
113.8000
20
45.4500
0
VERTEX
8
CUT
10
113.9250
20
45.5500
0
VERTEX
8
CUT
10
114.0500
20
45.6500
0
VERTEX
8
CUT
10
114.1750
20
45.7750
0
VERTEX
8
CUT
10
114.2750
20
45.9000
0
VERTEX
8
CUT
10
114.3750
20
46.0250
0
VERTEX
8
CUT
10
114.4750
20
46.1750
0
VERTEX
8
CUT
10
114.5500
20
46.3250
0
VERTEX
8
CUT
10
114.6000
20
46.4750
0
VERTEX
8
CUT
10
114.6750
20
46.6250
0
VERTEX
8
CUT
10
114.7000
20
46.8000
0
VERTEX
8
CUT
10
114.7250
20
46.9750
0
VERTEX
8
CUT
10
114.7500
20
47.1500
0
VERTEX
8
CUT
10
114.7500
20
47.2000
0
VERTEX
8
CUT
10
114.7250
20
47.4500
0
VERTEX
8
CUT
10
114.7000
20
47.6750
0
VERTEX
8
CUT
10
114.6250
20
47.9000
0
VERTEX
8
CUT
10
114.5250
20
48.1000
0
VERTEX
8
CUT
10
114.4250
20
48.3000
0
VERTEX
8
CUT
10
114.3000
20
48.5000
0
VERTEX
8
CUT
10
114.1500
20
48.6750
0
VERTEX
8
CUT
10
113.9750
20
48.8250
0
VERTEX
8
CUT
10
113.8000
20
48.9500
0
VERTEX
8
CUT
10
113.6000
20
49.0750
0
VERTEX
8
CUT
10
113.4000
20
49.1750
0
VERTEX
8
CUT
10
113.3000
20
49.1750
0
SEQEND
0
POLYLINE
8
CUT
66
1
70
0
0
VERTEX
8
CUT
10
161.5500
20
46.4250
0
VERTEX
8
CUT
10
158.6500
20
47.6250
0
VERTEX
8
CUT
10
158.6000
20
47.6500
0
VERTEX
8
CUT
10
158.5250
20
47.6750
0
VERTEX
8
CUT
10
158.4750
20
47.7000
0
VERTEX
8
CUT
10
158.4000
20
47.7000
0
VERTEX
8
CUT
10
158.3500
20
47.7000
0
VERTEX
8
CUT
10
158.2750
20
47.7000
0
VERTEX
8
CUT
10
158.2250
20
47.7000
0
VERTEX
8
CUT
10
158.1500
20
47.7000
0
VERTEX
8
CUT
10
158.1000
20
47.6750
0
VERTEX
8
CUT
10
158.0250
20
47.6500
0
VERTEX
8
CUT
10
157.9750
20
47.6500
0
VERTEX
8
CUT
10
157.9000
20
47.6000
0
VERTEX
8
CUT
10
157.8500
20
47.5750
0
VERTEX
8
CUT
10
157.8000
20
47.5500
0
VERTEX
8
CUT
10
157.7750
20
47.5250
0
VERTEX
8
CUT
10
157.7250
20
47.5000
0
VERTEX
8
CUT
10
157.6750
20
47.4500
0
VERTEX
8
CUT
10
157.6250
20
47.4000
0
VERTEX
8
CUT
10
157.6000
20
47.3500
0
VERTEX
8
CUT
10
157.5500
20
47.3000
0
VERTEX
8
CUT
10
157.5250
20
47.2500
0
VERTEX
8
CUT
10
157.5000
20
47.2000
0
VERTEX
8
CUT
10
157.4750
20
47.1250
0
VERTEX
8
CUT
10
157.4500
20
47.0750
0
VERTEX
8
CUT
10
157.4250
20
47.0000
0
VERTEX
8
CUT
10
157.4250
20
46.9500
0
VERTEX
8
CUT
10
157.4250
20
46.8750
0
VERTEX
8
CUT
10
157.4000
20
46.8250
0
VERTEX
8
CUT
10
157.4250
20
46.7500
0
VERTEX
8
CUT
10
157.4250
20
46.7250
0
VERTEX
8
CUT
10
158.0000
20
39.6750
0
VERTEX
8
CUT
10
158.0000
20
39.6250
0
VERTEX
8
CUT
10
158.0000
20
39.5750
0
VERTEX
8
CUT
10
158.0000
20
39.5250
0
VERTEX
8
CUT
10
158.0000
20
39.4750
0
VERTEX
8
CUT
10
158.0000
20
39.4250
0
VERTEX
8
CUT
10
157.9750
20
39.3750
0
VERTEX
8
CUT
10
157.9750
20
39.3250
0
VERTEX
8
CUT
10
157.9500
20
39.2750
0
VERTEX
8
CUT
10
157.9250
20
39.2250
0
VERTEX
8
CUT
10
157.9250
20
39.1750
0
VERTEX
8
CUT
10
157.9000
20
39.1500
0
VERTEX
8
CUT
10
157.8750
20
39.1000
0
VERTEX
8
CUT
10
157.8250
20
39.0500
0
VERTEX
8
CUT
10
157.8000
20
39.0250
0
VERTEX
8
CUT
10
157.8000
20
39.0000
0
VERTEX
8
CUT
10
153.1750
20
33.6500
0
VERTEX
8
CUT
10
153.1250
20
33.6000
0
VERTEX
8
CUT
10
153.0750
20
33.5500
0
VERTEX
8
CUT
10
153.0500
20
33.4750
0
VERTEX
8
CUT
10
153.0250
20
33.4250
0
VERTEX
8
CUT
10
153.0000
20
33.3750
0
VERTEX
8
CUT
10
152.9750
20
33.3000
0
VERTEX
8
CUT
10
152.9500
20
33.2500
0
VERTEX
8
CUT
10
152.9500
20
33.1750
0
VERTEX
8
CUT
10
152.9500
20
33.1250
0
VERTEX
8
CUT
10
152.9500
20
33.0500
0
VERTEX
8
CUT
10
152.9500
20
33.0000
0
VERTEX
8
CUT
10
152.9500
20
32.9250
0
VERTEX
8
CUT
10
152.9750
20
32.8500
0
VERTEX
8
CUT
10
152.9750
20
32.8000
0
VERTEX
8
CUT
10
153.0000
20
32.7750
0
VERTEX
8
CUT
10
153.0000
20
32.7250
0
VERTEX
8
CUT
10
153.0500
20
32.6500
0
VERTEX
8
CUT
10
153.0750
20
32.6000
0
VERTEX
8
CUT
10
153.1000
20
32.5500
0
VERTEX
8
CUT
10
153.1500
20
32.5000
0
VERTEX
8
CUT
10
153.1750
20
32.4500
0
VERTEX
8
CUT
10
153.2250
20
32.4000
0
VERTEX
8
CUT
10
153.2750
20
32.3500
0
VERTEX
8
CUT
10
153.3250
20
32.3250
0
VERTEX
8
CUT
10
153.3750
20
32.2750
0
VERTEX
8
CUT
10
153.4250
20
32.2500
0
VERTEX
8
CUT
10
153.5000
20
32.2250
0
VERTEX
8
CUT
10
153.5500
20
32.2000
0
VERTEX
8
CUT
10
153.6250
20
32.1750
0
VERTEX
8
CUT
10
153.6500
20
32.1750
0
VERTEX
8
CUT
10
158.1250
20
31.1250
0
SEQEND
0
POLYLINE
8
CUT
66
1
70
1
0
VERTEX
8
CUT
10
5.0000
20
5.0000
0
VERTEX
8
CUT
10
5.0000
20
304.6000
0
VERTEX
8
CUT
10
370.0250
20
304.6000
0
VERTEX
8
CUT
10
370.0250
20
5.0000
0
SEQEND
0
POLYLINE
8
CUT
66
1
70
0
0
VERTEX
8
CUT
10
290.7750
20
6.2750
0
VERTEX
8
CUT
10
283.7750
20
6.2750
0
VERTEX
8
CUT
10
283.7750
20
68.8750
0
VERTEX
8
CUT
10
279.7750
20
68.8750
0
VERTEX
8
CUT
10
279.7750
20
6.2750
0
VERTEX
8
CUT
10
275.7750
20
6.2750
0
VERTEX
8
CUT
10
275.7750
20
6.6500
0
VERTEX
8
CUT
10
275.7750
20
7.0000
0
VERTEX
8
CUT
10
275.7750
20
7.3750
0
VERTEX
8
CUT
10
275.7750
20
7.7250
0
VERTEX
8
CUT
10
275.7750
20
8.1000
0
VERTEX
8
CUT
10
275.7750
20
8.4750
0
VERTEX
8
CUT
10
275.7750
20
8.8250
0
VERTEX
8
CUT
10
275.7750
20
9.2000
0
VERTEX
8
CUT
10
275.7750
20
9.5500
0
VERTEX
8
CUT
10
275.7750
20
9.9250
0
VERTEX
8
CUT
10
275.7750
20
10.3000
0
VERTEX
8
CUT
10
275.7750
20
10.6500
0
VERTEX
8
CUT
10
275.7750
20
11.0250
0
VERTEX
8
CUT
10
275.7750
20
11.3750
0
VERTEX
8
CUT
10
275.7750
20
11.7500
0
VERTEX
8
CUT
10
275.7750
20
12.1250
0
VERTEX
8
CUT
10
275.7750
20
12.4750
0
VERTEX
8
CUT
10
275.7750
20
12.8500
0
VERTEX
8
CUT
10
275.7750
20
13.2250
0
VERTEX
8
CUT
10
275.7750
20
13.5750
0
VERTEX
8
CUT
10
275.7750
20
13.9500
0
VERTEX
8
CUT
10
275.7750
20
14.3000
0
VERTEX
8
CUT
10
275.7750
20
14.6750
0
VERTEX
8
CUT
10
275.7750
20
15.0500
0
VERTEX
8
CUT
10
275.7750
20
15.4000
0
VERTEX
8
CUT
10
275.7750
20
15.7750
0
VERTEX
8
CUT
10
275.7750
20
16.1500
0
VERTEX
8
CUT
10
275.7750
20
16.5000
0
VERTEX
8
CUT
10
275.7750
20
16.8750
0
VERTEX
8
CUT
10
275.7750
20
17.2250
0
VERTEX
8
CUT
10
275.7750
20
17.6000
0
VERTEX
8
CUT
10
275.7750
20
17.9750
0
VERTEX
8
CUT
10
275.7750
20
18.3250
0
VERTEX
8
CUT
10
275.7750
20
18.7000
0
VERTEX
8
CUT
10
275.7750
20
19.0750
0
VERTEX
8
CUT
10
275.7750
20
19.4250
0
VERTEX
8
CUT
10
275.7750
20
19.8000
0
VERTEX
8
CUT
10
275.7750
20
20.1750
0
VERTEX
8
CUT
10
275.7750
20
20.5250
0
VERTEX
8
CUT
10
275.7750
20
20.9000
0
VERTEX
8
CUT
10
275.7750
20
21.2500
0
VERTEX
8
CUT
10
275.7750
20
21.6250
0
VERTEX
8
CUT
10
275.7750
20
22.0000
0
VERTEX
8
CUT
10
275.7750
20
22.3500
0
VERTEX
8
CUT
10
275.7750
20
22.7250
0
VERTEX
8
CUT
10
275.7750
20
23.1000
0
VERTEX
8
CUT
10
275.7750
20
23.4500
0
VERTEX
8
CUT
10
275.7750
20
23.8250
0
VERTEX
8
CUT
10
275.7750
20
24.2000
0
VERTEX
8
CUT
10
275.7750
20
24.5500
0
VERTEX
8
CUT
10
275.7750
20
24.9250
0
VERTEX
8
CUT
10
275.7750
20
25.3000
0
VERTEX
8
CUT
10
275.7750
20
25.6500
0
VERTEX
8
CUT
10
275.7750
20
26.0250
0
VERTEX
8
CUT
10
275.7750
20
26.4000
0
VERTEX
8
CUT
10
275.7750
20
26.7500
0
VERTEX
8
CUT
10
275.7750
20
27.1250
0
VERTEX
8
CUT
10
275.7750
20
27.5000
0
VERTEX
8
CUT
10
275.7750
20
27.8500
0
VERTEX
8
CUT
10
275.7750
20
28.2250
0
VERTEX
8
CUT
10
275.7750
20
28.5750
0
VERTEX
8
CUT
10
275.7750
20
28.9500
0
VERTEX
8
CUT
10
275.7750
20
29.3250
0
VERTEX
8
CUT
10
275.7750
20
29.6750
0
VERTEX
8
CUT
10
275.7750
20
30.0500
0
VERTEX
8
CUT
10
275.7750
20
30.4250
0
VERTEX
8
CUT
10
275.7750
20
30.7750
0
VERTEX
8
CUT
10
275.7750
20
31.1500
0
VERTEX
8
CUT
10
275.7750
20
31.5250
0
VERTEX
8
CUT
10
275.7750
20
31.8750
0
VERTEX
8
CUT
10
275.7750
20
32.2500
0
VERTEX
8
CUT
10
275.7750
20
32.6250
0
VERTEX
8
CUT
10
275.7750
20
32.9750
0
VERTEX
8
CUT
10
275.7750
20
33.3500
0
VERTEX
8
CUT
10
275.7750
20
33.4750
0
SEQEND
0
POLYLINE
8
CUT
66
1
70
0
0
VERTEX
8
CUT
10
360.7750
20
128.4000
0
VERTEX
8
CUT
10
367.7750
20
128.4000
0
VERTEX
8
CUT
10
367.7750
20
128.0750
0
VERTEX
8
CUT
10
367.7750
20
127.7250
0
VERTEX
8
CUT
10
367.7750
20
127.3750
0
VERTEX
8
CUT
10
367.7750
20
127.0500
0
VERTEX
8
CUT
10
367.7750
20
126.7000
0
VERTEX
8
CUT
10
367.7750
20
126.3500
0
VERTEX
8
CUT
10
367.7750
20
126.0000
0
VERTEX
8
CUT
10
367.7750
20
125.6750
0
VERTEX
8
CUT
10
367.7750
20
125.3250
0
VERTEX
8
CUT
10
367.7750
20
124.9750
0
VERTEX
8
CUT
10
367.7750
20
124.6250
0
VERTEX
8
CUT
10
367.7750
20
124.3000
0
VERTEX
8
CUT
10
367.7750
20
123.9500
0
VERTEX
8
CUT
10
367.7750
20
123.6000
0
VERTEX
8
CUT
10
367.7750
20
123.2500
0
VERTEX
8
CUT
10
367.7750
20
122.9000
0
VERTEX
8
CUT
10
367.7750
20
122.5750
0
VERTEX
8
CUT
10
367.7750
20
122.2250
0
VERTEX
8
CUT
10
367.7750
20
121.8750
0
VERTEX
8
CUT
10
367.7750
20
121.5250
0
VERTEX
8
CUT
10
367.7750
20
121.1750
0
VERTEX
8
CUT
10
367.7750
20
120.8250
0
VERTEX
8
CUT
10
367.7750
20
120.5000
0
VERTEX
8
CUT
10
367.7750
20
120.1500
0
VERTEX
8
CUT
10
367.7750
20
119.8000
0
VERTEX
8
CUT
10
367.7750
20
119.4500
0
VERTEX
8
CUT
10
367.7750
20
119.1000
0
VERTEX
8
CUT
10
367.7750
20
118.7500
0
VERTEX
8
CUT
10
367.7750
20
118.4000
0
VERTEX
8
CUT
10
367.7750
20
118.0500
0
VERTEX
8
CUT
10
367.7750
20
117.7250
0
VERTEX
8
CUT
10
367.7750
20
117.3750
0
VERTEX
8
CUT
10
367.7750
20
117.0250
0
VERTEX
8
CUT
10
367.7750
20
116.6750
0
VERTEX
8
CUT
10
367.7750
20
116.3250
0
VERTEX
8
CUT
10
367.7750
20
115.9750
0
VERTEX
8
CUT
10
367.7750
20
115.8750
0
SEQEND
0
POLYLINE
8
CUT
66
1
70
0
0
VERTEX
8
CUT
10
284.2750
20
129.0500
0
VERTEX
8
CUT
10
302.9250
20
129.0500
0
VERTEX
8
CUT
10
302.9250
20
131.7500
0
VERTEX
8
CUT
10
340.6500
20
131.7500
0
VERTEX
8
CUT
10
340.6500
20
129.0500
0
VERTEX
8
CUT
10
359.6000
20
129.0500
0
SEQEND
0
POLYLINE
8
CUT
66
1
70
0
0
VERTEX
8
CUT
10
275.7750
20
106.6750
0
VERTEX
8
CUT
10
275.7750
20
106.7750
0
VERTEX
8
CUT
10
275.7750
20
107.1250
0
VERTEX
8
CUT
10
275.7750
20
107.4750
0
VERTEX
8
CUT
10
275.7750
20
107.8250
0
VERTEX
8
CUT
10
275.7750
20
108.1750
0
VERTEX
8
CUT
10
275.7750
20
108.5250
0
VERTEX
8
CUT
10
275.7750
20
108.8750
0
VERTEX
8
CUT
10
275.7750
20
109.2250
0
VERTEX
8
CUT
10
275.7750
20
109.5750
0
VERTEX
8
CUT
10
275.7750
20
109.9250
0
VERTEX
8
CUT
10
275.7750
20
110.3000
0
VERTEX
8
CUT
10
275.7750
20
110.6500
0
VERTEX
8
CUT
10
275.7750
20
111.0000
0
VERTEX
8
CUT
10
275.7750
20
111.3500
0
VERTEX
8
CUT
10
275.7750
20
111.7000
0
VERTEX
8
CUT
10
275.7750
20
112.0500
0
VERTEX
8
CUT
10
275.7750
20
112.4000
0
VERTEX
8
CUT
10
275.7750
20
112.7500
0
VERTEX
8
CUT
10
275.7750
20
113.1000
0
VERTEX
8
CUT
10
275.7750
20
113.4500
0
VERTEX
8
CUT
10
275.7750
20
113.8000
0
VERTEX
8
CUT
10
275.7750
20
114.1500
0
VERTEX
8
CUT
10
275.7750
20
114.5000
0
VERTEX
8
CUT
10
275.7750
20
114.8250
0
VERTEX
8
CUT
10
275.7750
20
115.1750
0
VERTEX
8
CUT
10
275.7750
20
115.5250
0
VERTEX
8
CUT
10
275.7750
20
115.8750
0
VERTEX
8
CUT
10
275.7750
20
116.2250
0
VERTEX
8
CUT
10
275.7750
20
116.5750
0
VERTEX
8
CUT
10
275.7750
20
116.9250
0
VERTEX
8
CUT
10
275.7750
20
117.2750
0
VERTEX
8
CUT
10
275.7750
20
117.6250
0
VERTEX
8
CUT
10
275.7750
20
117.9750
0
VERTEX
8
CUT
10
275.7750
20
118.3250
0
VERTEX
8
CUT
10
275.7750
20
118.6750
0
VERTEX
8
CUT
10
275.7750
20
119.0250
0
VERTEX
8
CUT
10
275.7750
20
119.3500
0
VERTEX
8
CUT
10
275.7750
20
119.7000
0
VERTEX
8
CUT
10
275.7750
20
120.0500
0
VERTEX
8
CUT
10
275.7750
20
120.4000
0
VERTEX
8
CUT
10
275.7750
20
120.7500
0
VERTEX
8
CUT
10
275.7750
20
121.1000
0
VERTEX
8
CUT
10
275.7750
20
121.4500
0
VERTEX
8
CUT
10
275.7750
20
121.7750
0
VERTEX
8
CUT
10
275.7750
20
122.1250
0
VERTEX
8
CUT
10
275.7750
20
122.4750
0
VERTEX
8
CUT
10
275.7750
20
122.8250
0
VERTEX
8
CUT
10
275.7750
20
123.1750
0
VERTEX
8
CUT
10
275.7750
20
123.5000
0
VERTEX
8
CUT
10
275.7750
20
123.8500
0
VERTEX
8
CUT
10
275.7750
20
124.2000
0
VERTEX
8
CUT
10
275.7750
20
124.5500
0
VERTEX
8
CUT
10
275.7750
20
124.9000
0
VERTEX
8
CUT
10
275.7750
20
125.2250
0
VERTEX
8
CUT
10
275.7750
20
125.5750
0
VERTEX
8
CUT
10
275.7750
20
125.9250
0
VERTEX
8
CUT
10
275.7750
20
126.2750
0
VERTEX
8
CUT
10
275.7750
20
126.6000
0
VERTEX
8
CUT
10
275.7750
20
126.9500
0
VERTEX
8
CUT
10
275.7750
20
127.3000
0
VERTEX
8
CUT
10
275.7750
20
127.6250
0
VERTEX
8
CUT
10
275.7750
20
127.9750
0
VERTEX
8
CUT
10
275.7750
20
128.3250
0
VERTEX
8
CUT
10
275.7750
20
128.4000
0
VERTEX
8
CUT
10
283.0750
20
128.4000
0
SEQEND
0
POLYLINE
8
CUT
66
1
70
0
0
VERTEX
8
CUT
10
275.7750
20
34.6750
0
VERTEX
8
CUT
10
275.7750
20
34.8250
0
VERTEX
8
CUT
10
275.7750
20
35.1750
0
VERTEX
8
CUT
10
275.7750
20
35.5500
0
VERTEX
8
CUT
10
275.7750
20
35.9250
0
VERTEX
8
CUT
10
275.7750
20
36.2750
0
VERTEX
8
CUT
10
275.7750
20
36.6500
0
VERTEX
8
CUT
10
275.7750
20
37.0250
0
VERTEX
8
CUT
10
275.7750
20
37.3750
0
VERTEX
8
CUT
10
275.7750
20
37.7500
0
VERTEX
8
CUT
10
275.7750
20
38.1250
0
VERTEX
8
CUT
10
275.7750
20
38.4750
0
VERTEX
8
CUT
10
275.7750
20
38.8500
0
VERTEX
8
CUT
10
275.7750
20
39.2250
0
VERTEX
8
CUT
10
275.7750
20
39.5750
0
VERTEX
8
CUT
10
275.7750
20
39.9500
0
VERTEX
8
CUT
10
275.7750
20
40.3000
0
VERTEX
8
CUT
10
275.7750
20
40.6750
0
VERTEX
8
CUT
10
275.7750
20
41.0500
0
VERTEX
8
CUT
10
275.7750
20
41.4000
0
VERTEX
8
CUT
10
275.7750
20
41.7750
0
VERTEX
8
CUT
10
275.7750
20
42.1500
0
VERTEX
8
CUT
10
275.7750
20
42.5000
0
VERTEX
8
CUT
10
275.7750
20
42.8750
0
VERTEX
8
CUT
10
275.7750
20
43.2500
0
VERTEX
8
CUT
10
275.7750
20
43.6000
0
VERTEX
8
CUT
10
275.7750
20
43.9750
0
VERTEX
8
CUT
10
275.7750
20
44.3500
0
VERTEX
8
CUT
10
275.7750
20
44.7000
0
VERTEX
8
CUT
10
275.7750
20
45.0750
0
VERTEX
8
CUT
10
275.7750
20
45.4500
0
VERTEX
8
CUT
10
275.7750
20
45.8000
0
VERTEX
8
CUT
10
275.7750
20
46.1750
0
VERTEX
8
CUT
10
275.7750
20
46.5250
0
VERTEX
8
CUT
10
275.7750
20
46.9000
0
VERTEX
8
CUT
10
275.7750
20
47.2750
0
VERTEX
8
CUT
10
275.7750
20
47.6250
0
VERTEX
8
CUT
10
275.7750
20
48.0000
0
VERTEX
8
CUT
10
275.7750
20
48.3750
0
VERTEX
8
CUT
10
275.7750
20
48.7250
0
VERTEX
8
CUT
10
275.7750
20
49.1000
0
VERTEX
8
CUT
10
275.7750
20
49.4750
0
VERTEX
8
CUT
10
275.7750
20
49.8250
0
VERTEX
8
CUT
10
275.7750
20
50.2000
0
VERTEX
8
CUT
10
275.7750
20
50.5500
0
VERTEX
8
CUT
10
275.7750
20
50.9250
0
VERTEX
8
CUT
10
275.7750
20
51.3000
0
VERTEX
8
CUT
10
275.7750
20
51.6500
0
VERTEX
8
CUT
10
275.7750
20
52.0250
0
VERTEX
8
CUT
10
275.7750
20
52.3750
0
VERTEX
8
CUT
10
275.7750
20
52.7500
0
VERTEX
8
CUT
10
275.7750
20
53.1250
0
VERTEX
8
CUT
10
275.7750
20
53.4750
0
VERTEX
8
CUT
10
275.7750
20
53.8500
0
VERTEX
8
CUT
10
275.7750
20
54.2250
0
VERTEX
8
CUT
10
275.7750
20
54.5750
0
VERTEX
8
CUT
10
275.7750
20
54.9500
0
VERTEX
8
CUT
10
275.7750
20
55.3000
0
VERTEX
8
CUT
10
275.7750
20
55.6750
0
VERTEX
8
CUT
10
275.7750
20
56.0500
0
VERTEX
8
CUT
10
275.7750
20
56.4000
0
VERTEX
8
CUT
10
275.7750
20
56.7750
0
VERTEX
8
CUT
10
275.7750
20
57.1250
0
VERTEX
8
CUT
10
275.7750
20
57.5000
0
VERTEX
8
CUT
10
275.7750
20
57.8750
0
VERTEX
8
CUT
10
275.7750
20
58.2250
0
VERTEX
8
CUT
10
275.7750
20
58.6000
0
VERTEX
8
CUT
10
275.7750
20
58.9500
0
VERTEX
8
CUT
10
275.7750
20
59.3250
0
VERTEX
8
CUT
10
275.7750
20
59.7000
0
VERTEX
8
CUT
10
275.7750
20
60.0500
0
VERTEX
8
CUT
10
275.7750
20
60.4250
0
VERTEX
8
CUT
10
275.7750
20
60.7750
0
VERTEX
8
CUT
10
275.7750
20
61.1500
0
VERTEX
8
CUT
10
275.7750
20
61.5000
0
VERTEX
8
CUT
10
275.7750
20
61.8750
0
VERTEX
8
CUT
10
275.7750
20
62.2500
0
VERTEX
8
CUT
10
275.7750
20
62.6000
0
VERTEX
8
CUT
10
275.7750
20
62.9750
0
VERTEX
8
CUT
10
275.7750
20
63.3250
0
VERTEX
8
CUT
10
275.7750
20
63.7000
0
VERTEX
8
CUT
10
275.7750
20
64.0500
0
VERTEX
8
CUT
10
275.7750
20
64.4250
0
VERTEX
8
CUT
10
275.7750
20
64.8000
0
VERTEX
8
CUT
10
275.7750
20
65.1500
0
VERTEX
8
CUT
10
275.7750
20
65.5250
0
VERTEX
8
CUT
10
275.7750
20
65.8750
0
VERTEX
8
CUT
10
275.7750
20
66.2500
0
VERTEX
8
CUT
10
275.7750
20
66.6000
0
VERTEX
8
CUT
10
275.7750
20
66.9750
0
VERTEX
8
CUT
10
275.7750
20
67.3250
0
VERTEX
8
CUT
10
275.7750
20
67.7000
0
VERTEX
8
CUT
10
275.7750
20
68.0500
0
VERTEX
8
CUT
10
275.7750
20
68.4250
0
VERTEX
8
CUT
10
275.7750
20
68.7750
0
VERTEX
8
CUT
10
275.7750
20
69.1500
0
VERTEX
8
CUT
10
275.7750
20
69.5250
0
VERTEX
8
CUT
10
275.7750
20
69.8750
0
VERTEX
8
CUT
10
275.7750
20
70.2500
0
VERTEX
8
CUT
10
275.7750
20
70.6000
0
VERTEX
8
CUT
10
275.7750
20
70.9750
0
VERTEX
8
CUT
10
275.7750
20
71.3250
0
VERTEX
8
CUT
10
275.7750
20
71.7000
0
VERTEX
8
CUT
10
275.7750
20
72.0500
0
VERTEX
8
CUT
10
275.7750
20
72.4250
0
VERTEX
8
CUT
10
275.7750
20
72.7750
0
VERTEX
8
CUT
10
275.7750
20
73.1500
0
VERTEX
8
CUT
10
275.7750
20
73.5000
0
VERTEX
8
CUT
10
275.7750
20
73.8750
0
VERTEX
8
CUT
10
275.7750
20
74.2250
0
VERTEX
8
CUT
10
275.7750
20
74.6000
0
VERTEX
8
CUT
10
275.7750
20
74.9500
0
VERTEX
8
CUT
10
275.7750
20
75.3000
0
VERTEX
8
CUT
10
275.7750
20
75.6750
0
VERTEX
8
CUT
10
275.7750
20
76.0250
0
VERTEX
8
CUT
10
275.7750
20
76.4000
0
VERTEX
8
CUT
10
275.7750
20
76.7500
0
VERTEX
8
CUT
10
275.7750
20
77.1250
0
VERTEX
8
CUT
10
275.7750
20
77.4750
0
VERTEX
8
CUT
10
275.7750
20
77.8500
0
VERTEX
8
CUT
10
275.7750
20
78.2000
0
VERTEX
8
CUT
10
275.7750
20
78.5750
0
VERTEX
8
CUT
10
275.7750
20
78.9250
0
VERTEX
8
CUT
10
275.7750
20
79.2750
0
VERTEX
8
CUT
10
275.7750
20
79.6500
0
VERTEX
8
CUT
10
275.7750
20
80.0000
0
VERTEX
8
CUT
10
275.7750
20
80.3750
0
VERTEX
8
CUT
10
275.7750
20
80.7250
0
VERTEX
8
CUT
10
275.7750
20
81.1000
0
VERTEX
8
CUT
10
275.7750
20
81.4500
0
VERTEX
8
CUT
10
275.7750
20
81.8000
0
VERTEX
8
CUT
10
275.7750
20
82.1750
0
VERTEX
8
CUT
10
275.7750
20
82.5250
0
VERTEX
8
CUT
10
275.7750
20
82.9000
0
VERTEX
8
CUT
10
275.7750
20
83.2500
0
VERTEX
8
CUT
10
275.7750
20
83.6000
0
VERTEX
8
CUT
10
275.7750
20
83.9750
0
VERTEX
8
CUT
10
275.7750
20
84.3250
0
VERTEX
8
CUT
10
275.7750
20
84.7000
0
VERTEX
8
CUT
10
275.7750
20
85.0500
0
VERTEX
8
CUT
10
275.7750
20
85.4000
0
VERTEX
8
CUT
10
275.7750
20
85.7750
0
VERTEX
8
CUT
10
275.7750
20
86.1250
0
VERTEX
8
CUT
10
275.7750
20
86.5000
0
VERTEX
8
CUT
10
275.7750
20
86.8500
0
VERTEX
8
CUT
10
275.7750
20
87.2000
0
VERTEX
8
CUT
10
275.7750
20
87.5750
0
VERTEX
8
CUT
10
275.7750
20
87.9250
0
VERTEX
8
CUT
10
275.7750
20
88.2750
0
VERTEX
8
CUT
10
275.7750
20
88.6500
0
VERTEX
8
CUT
10
275.7750
20
89.0000
0
VERTEX
8
CUT
10
275.7750
20
89.3500
0
VERTEX
8
CUT
10
275.7750
20
89.7250
0
VERTEX
8
CUT
10
275.7750
20
90.0750
0
VERTEX
8
CUT
10
275.7750
20
90.4250
0
VERTEX
8
CUT
10
275.7750
20
90.8000
0
VERTEX
8
CUT
10
275.7750
20
91.1500
0
VERTEX
8
CUT
10
275.7750
20
91.5000
0
VERTEX
8
CUT
10
275.7750
20
91.8500
0
VERTEX
8
CUT
10
275.7750
20
92.2250
0
VERTEX
8
CUT
10
275.7750
20
92.5750
0
VERTEX
8
CUT
10
275.7750
20
92.9250
0
VERTEX
8
CUT
10
275.7750
20
93.3000
0
VERTEX
8
CUT
10
275.7750
20
93.6500
0
VERTEX
8
CUT
10
275.7750
20
94.0000
0
VERTEX
8
CUT
10
275.7750
20
94.3500
0
VERTEX
8
CUT
10
275.7750
20
94.7250
0
VERTEX
8
CUT
10
275.7750
20
95.0750
0
VERTEX
8
CUT
10
275.7750
20
95.4250
0
VERTEX
8
CUT
10
275.7750
20
95.8000
0
VERTEX
8
CUT
10
275.7750
20
96.1500
0
VERTEX
8
CUT
10
275.7750
20
96.5000
0
VERTEX
8
CUT
10
275.7750
20
96.8500
0
VERTEX
8
CUT
10
275.7750
20
97.2000
0
VERTEX
8
CUT
10
275.7750
20
97.5750
0
VERTEX
8
CUT
10
275.7750
20
97.9250
0
VERTEX
8
CUT
10
275.7750
20
98.2750
0
VERTEX
8
CUT
10
275.7750
20
98.6250
0
VERTEX
8
CUT
10
275.7750
20
99.0000
0
VERTEX
8
CUT
10
275.7750
20
99.3500
0
VERTEX
8
CUT
10
275.7750
20
99.7000
0
VERTEX
8
CUT
10
275.7750
20
100.0500
0
VERTEX
8
CUT
10
275.7750
20
100.4000
0
VERTEX
8
CUT
10
275.7750
20
100.7750
0
VERTEX
8
CUT
10
275.7750
20
101.1250
0
VERTEX
8
CUT
10
275.7750
20
101.4750
0
VERTEX
8
CUT
10
275.7750
20
101.8250
0
VERTEX
8
CUT
10
275.7750
20
102.1750
0
VERTEX
8
CUT
10
275.7750
20
102.5250
0
VERTEX
8
CUT
10
275.7750
20
102.9000
0
VERTEX
8
CUT
10
275.7750
20
103.2500
0
VERTEX
8
CUT
10
275.7750
20
103.6000
0
VERTEX
8
CUT
10
275.7750
20
103.9500
0
VERTEX
8
CUT
10
275.7750
20
104.3000
0
VERTEX
8
CUT
10
275.7750
20
104.6500
0
VERTEX
8
CUT
10
275.7750
20
105.0000
0
VERTEX
8
CUT
10
275.7750
20
105.3500
0
VERTEX
8
CUT
10
275.7750
20
105.4750
0
SEQEND
0
POLYLINE
8
CUT
66
1
70
0
0
VERTEX
8
CUT
10
367.7750
20
35.0500
0
VERTEX
8
CUT
10
367.7750
20
34.9000
0
VERTEX
8
CUT
10
367.7750
20
34.5500
0
VERTEX
8
CUT
10
367.7750
20
34.1750
0
VERTEX
8
CUT
10
367.7750
20
33.8000
0
VERTEX
8
CUT
10
367.7750
20
33.4500
0
VERTEX
8
CUT
10
367.7750
20
33.0750
0
VERTEX
8
CUT
10
367.7750
20
32.7000
0
VERTEX
8
CUT
10
367.7750
20
32.3500
0
VERTEX
8
CUT
10
367.7750
20
31.9750
0
VERTEX
8
CUT
10
367.7750
20
31.6000
0
VERTEX
8
CUT
10
367.7750
20
31.2500
0
VERTEX
8
CUT
10
367.7750
20
30.8750
0
VERTEX
8
CUT
10
367.7750
20
30.5250
0
VERTEX
8
CUT
10
367.7750
20
30.1500
0
VERTEX
8
CUT
10
367.7750
20
29.7750
0
VERTEX
8
CUT
10
367.7750
20
29.4250
0
VERTEX
8
CUT
10
367.7750
20
29.0500
0
VERTEX
8
CUT
10
367.7750
20
28.6750
0
VERTEX
8
CUT
10
367.7750
20
28.3250
0
VERTEX
8
CUT
10
367.7750
20
27.9500
0
VERTEX
8
CUT
10
367.7750
20
27.5750
0
VERTEX
8
CUT
10
367.7750
20
27.2250
0
VERTEX
8
CUT
10
367.7750
20
26.8500
0
VERTEX
8
CUT
10
367.7750
20
26.4750
0
VERTEX
8
CUT
10
367.7750
20
26.1250
0
VERTEX
8
CUT
10
367.7750
20
25.7500
0
VERTEX
8
CUT
10
367.7750
20
25.3750
0
VERTEX
8
CUT
10
367.7750
20
25.0250
0
VERTEX
8
CUT
10
367.7750
20
24.6500
0
VERTEX
8
CUT
10
367.7750
20
24.2750
0
VERTEX
8
CUT
10
367.7750
20
23.9250
0
VERTEX
8
CUT
10
367.7750
20
23.5500
0
VERTEX
8
CUT
10
367.7750
20
23.1750
0
VERTEX
8
CUT
10
367.7750
20
22.8250
0
VERTEX
8
CUT
10
367.7750
20
22.4500
0
VERTEX
8
CUT
10
367.7750
20
22.1000
0
VERTEX
8
CUT
10
367.7750
20
21.7250
0
VERTEX
8
CUT
10
367.7750
20
21.3500
0
VERTEX
8
CUT
10
367.7750
20
21.0000
0
VERTEX
8
CUT
10
367.7750
20
20.6250
0
VERTEX
8
CUT
10
367.7750
20
20.2500
0
VERTEX
8
CUT
10
367.7750
20
19.9000
0
VERTEX
8
CUT
10
367.7750
20
19.5250
0
VERTEX
8
CUT
10
367.7750
20
19.1500
0
VERTEX
8
CUT
10
367.7750
20
18.8000
0
VERTEX
8
CUT
10
367.7750
20
18.4250
0
VERTEX
8
CUT
10
367.7750
20
18.0500
0
VERTEX
8
CUT
10
367.7750
20
17.7000
0
VERTEX
8
CUT
10
367.7750
20
17.3250
0
VERTEX
8
CUT
10
367.7750
20
16.9750
0
VERTEX
8
CUT
10
367.7750
20
16.6000
0
VERTEX
8
CUT
10
367.7750
20
16.2250
0
VERTEX
8
CUT
10
367.7750
20
15.8750
0
VERTEX
8
CUT
10
367.7750
20
15.5000
0
VERTEX
8
CUT
10
367.7750
20
15.1250
0
VERTEX
8
CUT
10
367.7750
20
14.7750
0
VERTEX
8
CUT
10
367.7750
20
14.4000
0
VERTEX
8
CUT
10
367.7750
20
14.0500
0
VERTEX
8
CUT
10
367.7750
20
13.6750
0
VERTEX
8
CUT
10
367.7750
20
13.3000
0
VERTEX
8
CUT
10
367.7750
20
12.9500
0
VERTEX
8
CUT
10
367.7750
20
12.5750
0
VERTEX
8
CUT
10
367.7750
20
12.2000
0
VERTEX
8
CUT
10
367.7750
20
11.8500
0
VERTEX
8
CUT
10
367.7750
20
11.4750
0
VERTEX
8
CUT
10
367.7750
20
11.1250
0
VERTEX
8
CUT
10
367.7750
20
10.7500
0
VERTEX
8
CUT
10
367.7750
20
10.3750
0
VERTEX
8
CUT
10
367.7750
20
10.0250
0
VERTEX
8
CUT
10
367.7750
20
9.6500
0
VERTEX
8
CUT
10
367.7750
20
9.3000
0
VERTEX
8
CUT
10
367.7750
20
8.9250
0
VERTEX
8
CUT
10
367.7750
20
8.5500
0
VERTEX
8
CUT
10
367.7750
20
8.2000
0
VERTEX
8
CUT
10
367.7750
20
7.8250
0
VERTEX
8
CUT
10
367.7750
20
7.4750
0
VERTEX
8
CUT
10
367.7750
20
7.1000
0
VERTEX
8
CUT
10
367.7750
20
6.7250
0
VERTEX
8
CUT
10
367.7750
20
6.3750
0
VERTEX
8
CUT
10
367.7750
20
6.2750
0
VERTEX
8
CUT
10
363.7750
20
6.2750
0
VERTEX
8
CUT
10
363.7750
20
68.8750
0
VERTEX
8
CUT
10
359.7750
20
68.8750
0
VERTEX
8
CUT
10
359.7750
20
6.2750
0
VERTEX
8
CUT
10
357.1500
20
6.2750
0
SEQEND
0
POLYLINE
8
CUT
66
1
70
0
0
VERTEX
8
CUT
10
367.7750
20
114.6750
0
VERTEX
8
CUT
10
367.7750
20
114.5750
0
VERTEX
8
CUT
10
367.7750
20
114.2250
0
VERTEX
8
CUT
10
367.7750
20
113.8750
0
VERTEX
8
CUT
10
367.7750
20
113.5250
0
VERTEX
8
CUT
10
367.7750
20
113.1750
0
VERTEX
8
CUT
10
367.7750
20
112.8250
0
VERTEX
8
CUT
10
367.7750
20
112.4750
0
VERTEX
8
CUT
10
367.7750
20
112.1250
0
VERTEX
8
CUT
10
367.7750
20
111.7750
0
VERTEX
8
CUT
10
367.7750
20
111.4250
0
VERTEX
8
CUT
10
367.7750
20
111.0750
0
VERTEX
8
CUT
10
367.7750
20
110.7250
0
VERTEX
8
CUT
10
367.7750
20
110.3750
0
VERTEX
8
CUT
10
367.7750
20
110.0250
0
VERTEX
8
CUT
10
367.7750
20
109.6750
0
VERTEX
8
CUT
10
367.7750
20
109.3250
0
VERTEX
8
CUT
10
367.7750
20
108.9750
0
VERTEX
8
CUT
10
367.7750
20
108.6250
0
VERTEX
8
CUT
10
367.7750
20
108.2750
0
VERTEX
8
CUT
10
367.7750
20
107.9250
0
VERTEX
8
CUT
10
367.7750
20
107.5750
0
VERTEX
8
CUT
10
367.7750
20
107.2250
0
VERTEX
8
CUT
10
367.7750
20
106.8750
0
VERTEX
8
CUT
10
367.7750
20
106.5000
0
VERTEX
8
CUT
10
367.7750
20
106.1500
0
VERTEX
8
CUT
10
367.7750
20
105.8000
0
VERTEX
8
CUT
10
367.7750
20
105.4500
0
VERTEX
8
CUT
10
367.7750
20
105.1000
0
VERTEX
8
CUT
10
367.7750
20
104.7500
0
VERTEX
8
CUT
10
367.7750
20
104.4000
0
VERTEX
8
CUT
10
367.7750
20
104.0500
0
VERTEX
8
CUT
10
367.7750
20
103.6750
0
VERTEX
8
CUT
10
367.7750
20
103.3250
0
VERTEX
8
CUT
10
367.7750
20
102.9750
0
VERTEX
8
CUT
10
367.7750
20
102.6250
0
VERTEX
8
CUT
10
367.7750
20
102.2750
0
VERTEX
8
CUT
10
367.7750
20
101.9250
0
VERTEX
8
CUT
10
367.7750
20
101.5750
0
VERTEX
8
CUT
10
367.7750
20
101.2000
0
VERTEX
8
CUT
10
367.7750
20
100.8500
0
VERTEX
8
CUT
10
367.7750
20
100.5000
0
VERTEX
8
CUT
10
367.7750
20
100.1500
0
VERTEX
8
CUT
10
367.7750
20
99.8000
0
VERTEX
8
CUT
10
367.7750
20
99.4250
0
VERTEX
8
CUT
10
367.7750
20
99.0750
0
VERTEX
8
CUT
10
367.7750
20
98.7250
0
VERTEX
8
CUT
10
367.7750
20
98.3750
0
VERTEX
8
CUT
10
367.7750
20
98.0250
0
VERTEX
8
CUT
10
367.7750
20
97.6500
0
VERTEX
8
CUT
10
367.7750
20
97.3000
0
VERTEX
8
CUT
10
367.7750
20
96.9500
0
VERTEX
8
CUT
10
367.7750
20
96.6000
0
VERTEX
8
CUT
10
367.7750
20
96.2250
0
VERTEX
8
CUT
10
367.7750
20
95.8750
0
VERTEX
8
CUT
10
367.7750
20
95.5250
0
VERTEX
8
CUT
10
367.7750
20
95.1750
0
VERTEX
8
CUT
10
367.7750
20
94.8000
0
VERTEX
8
CUT
10
367.7750
20
94.4500
0
VERTEX
8
CUT
10
367.7750
20
94.1000
0
VERTEX
8
CUT
10
367.7750
20
93.7500
0
VERTEX
8
CUT
10
367.7750
20
93.3750
0
VERTEX
8
CUT
10
367.7750
20
93.0250
0
VERTEX
8
CUT
10
367.7750
20
92.6750
0
VERTEX
8
CUT
10
367.7750
20
92.3000
0
VERTEX
8
CUT
10
367.7750
20
91.9500
0
VERTEX
8
CUT
10
367.7750
20
91.6000
0
VERTEX
8
CUT
10
367.7750
20
91.2500
0
VERTEX
8
CUT
10
367.7750
20
90.8750
0
VERTEX
8
CUT
10
367.7750
20
90.5250
0
VERTEX
8
CUT
10
367.7750
20
90.1750
0
VERTEX
8
CUT
10
367.7750
20
89.8000
0
VERTEX
8
CUT
10
367.7750
20
89.4500
0
VERTEX
8
CUT
10
367.7750
20
89.1000
0
VERTEX
8
CUT
10
367.7750
20
88.7250
0
VERTEX
8
CUT
10
367.7750
20
88.3750
0
VERTEX
8
CUT
10
367.7750
20
88.0250
0
VERTEX
8
CUT
10
367.7750
20
87.6500
0
VERTEX
8
CUT
10
367.7750
20
87.3000
0
VERTEX
8
CUT
10
367.7750
20
86.9500
0
VERTEX
8
CUT
10
367.7750
20
86.5750
0
VERTEX
8
CUT
10
367.7750
20
86.2250
0
VERTEX
8
CUT
10
367.7750
20
85.8500
0
VERTEX
8
CUT
10
367.7750
20
85.5000
0
VERTEX
8
CUT
10
367.7750
20
85.1500
0
VERTEX
8
CUT
10
367.7750
20
84.7750
0
VERTEX
8
CUT
10
367.7750
20
84.4250
0
VERTEX
8
CUT
10
367.7750
20
84.0750
0
VERTEX
8
CUT
10
367.7750
20
83.7000
0
VERTEX
8
CUT
10
367.7750
20
83.3500
0
VERTEX
8
CUT
10
367.7750
20
82.9750
0
VERTEX
8
CUT
10
367.7750
20
82.6250
0
VERTEX
8
CUT
10
367.7750
20
82.2750
0
VERTEX
8
CUT
10
367.7750
20
81.9000
0
VERTEX
8
CUT
10
367.7750
20
81.5500
0
VERTEX
8
CUT
10
367.7750
20
81.1750
0
VERTEX
8
CUT
10
367.7750
20
80.8250
0
VERTEX
8
CUT
10
367.7750
20
80.4500
0
VERTEX
8
CUT
10
367.7750
20
80.1000
0
VERTEX
8
CUT
10
367.7750
20
79.7500
0
VERTEX
8
CUT
10
367.7750
20
79.3750
0
VERTEX
8
CUT
10
367.7750
20
79.0250
0
VERTEX
8
CUT
10
367.7750
20
78.6500
0
VERTEX
8
CUT
10
367.7750
20
78.3000
0
VERTEX
8
CUT
10
367.7750
20
77.9250
0
VERTEX
8
CUT
10
367.7750
20
77.5750
0
VERTEX
8
CUT
10
367.7750
20
77.2250
0
VERTEX
8
CUT
10
367.7750
20
76.8500
0
VERTEX
8
CUT
10
367.7750
20
76.5000
0
VERTEX
8
CUT
10
367.7750
20
76.1250
0
VERTEX
8
CUT
10
367.7750
20
75.7750
0
VERTEX
8
CUT
10
367.7750
20
75.4000
0
VERTEX
8
CUT
10
367.7750
20
75.0500
0
VERTEX
8
CUT
10
367.7750
20
74.6750
0
VERTEX
8
CUT
10
367.7750
20
74.3250
0
VERTEX
8
CUT
10
367.7750
20
73.9500
0
VERTEX
8
CUT
10
367.7750
20
73.6000
0
VERTEX
8
CUT
10
367.7750
20
73.2250
0
VERTEX
8
CUT
10
367.7750
20
72.8750
0
VERTEX
8
CUT
10
367.7750
20
72.5000
0
VERTEX
8
CUT
10
367.7750
20
72.1500
0
VERTEX
8
CUT
10
367.7750
20
71.7750
0
VERTEX
8
CUT
10
367.7750
20
71.4250
0
VERTEX
8
CUT
10
367.7750
20
71.0500
0
VERTEX
8
CUT
10
367.7750
20
70.7000
0
VERTEX
8
CUT
10
367.7750
20
70.3250
0
VERTEX
8
CUT
10
367.7750
20
69.9750
0
VERTEX
8
CUT
10
367.7750
20
69.6000
0
VERTEX
8
CUT
10
367.7750
20
69.2500
0
VERTEX
8
CUT
10
367.7750
20
68.8750
0
VERTEX
8
CUT
10
367.7750
20
68.5250
0
VERTEX
8
CUT
10
367.7750
20
68.1500
0
VERTEX
8
CUT
10
367.7750
20
67.8000
0
VERTEX
8
CUT
10
367.7750
20
67.4250
0
VERTEX
8
CUT
10
367.7750
20
67.0750
0
VERTEX
8
CUT
10
367.7750
20
66.7000
0
VERTEX
8
CUT
10
367.7750
20
66.3250
0
VERTEX
8
CUT
10
367.7750
20
65.9750
0
VERTEX
8
CUT
10
367.7750
20
65.6000
0
VERTEX
8
CUT
10
367.7750
20
65.2500
0
VERTEX
8
CUT
10
367.7750
20
64.8750
0
VERTEX
8
CUT
10
367.7750
20
64.5250
0
VERTEX
8
CUT
10
367.7750
20
64.1500
0
VERTEX
8
CUT
10
367.7750
20
63.8000
0
VERTEX
8
CUT
10
367.7750
20
63.4250
0
VERTEX
8
CUT
10
367.7750
20
63.0500
0
VERTEX
8
CUT
10
367.7750
20
62.7000
0
VERTEX
8
CUT
10
367.7750
20
62.3250
0
VERTEX
8
CUT
10
367.7750
20
61.9750
0
VERTEX
8
CUT
10
367.7750
20
61.6000
0
VERTEX
8
CUT
10
367.7750
20
61.2500
0
VERTEX
8
CUT
10
367.7750
20
60.8750
0
VERTEX
8
CUT
10
367.7750
20
60.5000
0
VERTEX
8
CUT
10
367.7750
20
60.1500
0
VERTEX
8
CUT
10
367.7750
20
59.7750
0
VERTEX
8
CUT
10
367.7750
20
59.4250
0
VERTEX
8
CUT
10
367.7750
20
59.0500
0
VERTEX
8
CUT
10
367.7750
20
58.7000
0
VERTEX
8
CUT
10
367.7750
20
58.3250
0
VERTEX
8
CUT
10
367.7750
20
57.9500
0
VERTEX
8
CUT
10
367.7750
20
57.6000
0
VERTEX
8
CUT
10
367.7750
20
57.2250
0
VERTEX
8
CUT
10
367.7750
20
56.8750
0
VERTEX
8
CUT
10
367.7750
20
56.5000
0
VERTEX
8
CUT
10
367.7750
20
56.1250
0
VERTEX
8
CUT
10
367.7750
20
55.7750
0
VERTEX
8
CUT
10
367.7750
20
55.4000
0
VERTEX
8
CUT
10
367.7750
20
55.0500
0
VERTEX
8
CUT
10
367.7750
20
54.6750
0
VERTEX
8
CUT
10
367.7750
20
54.3000
0
VERTEX
8
CUT
10
367.7750
20
53.9500
0
VERTEX
8
CUT
10
367.7750
20
53.5750
0
VERTEX
8
CUT
10
367.7750
20
53.2000
0
VERTEX
8
CUT
10
367.7750
20
52.8500
0
VERTEX
8
CUT
10
367.7750
20
52.4750
0
VERTEX
8
CUT
10
367.7750
20
52.1250
0
VERTEX
8
CUT
10
367.7750
20
51.7500
0
VERTEX
8
CUT
10
367.7750
20
51.3750
0
VERTEX
8
CUT
10
367.7750
20
51.0250
0
VERTEX
8
CUT
10
367.7750
20
50.6500
0
VERTEX
8
CUT
10
367.7750
20
50.3000
0
VERTEX
8
CUT
10
367.7750
20
49.9250
0
VERTEX
8
CUT
10
367.7750
20
49.5500
0
VERTEX
8
CUT
10
367.7750
20
49.2000
0
VERTEX
8
CUT
10
367.7750
20
48.8250
0
VERTEX
8
CUT
10
367.7750
20
48.4500
0
VERTEX
8
CUT
10
367.7750
20
48.1000
0
VERTEX
8
CUT
10
367.7750
20
47.7250
0
VERTEX
8
CUT
10
367.7750
20
47.3500
0
VERTEX
8
CUT
10
367.7750
20
47.0000
0
VERTEX
8
CUT
10
367.7750
20
46.6250
0
VERTEX
8
CUT
10
367.7750
20
46.2750
0
VERTEX
8
CUT
10
367.7750
20
45.9000
0
VERTEX
8
CUT
10
367.7750
20
45.5250
0
VERTEX
8
CUT
10
367.7750
20
45.1750
0
VERTEX
8
CUT
10
367.7750
20
44.8000
0
VERTEX
8
CUT
10
367.7750
20
44.4250
0
VERTEX
8
CUT
10
367.7750
20
44.0750
0
VERTEX
8
CUT
10
367.7750
20
43.7000
0
VERTEX
8
CUT
10
367.7750
20
43.3250
0
VERTEX
8
CUT
10
367.7750
20
42.9750
0
VERTEX
8
CUT
10
367.7750
20
42.6000
0
VERTEX
8
CUT
10
367.7750
20
42.2250
0
VERTEX
8
CUT
10
367.7750
20
41.8750
0
VERTEX
8
CUT
10
367.7750
20
41.5000
0
VERTEX
8
CUT
10
367.7750
20
41.1500
0
VERTEX
8
CUT
10
367.7750
20
40.7750
0
VERTEX
8
CUT
10
367.7750
20
40.4000
0
VERTEX
8
CUT
10
367.7750
20
40.0500
0
VERTEX
8
CUT
10
367.7750
20
39.6750
0
VERTEX
8
CUT
10
367.7750
20
39.3000
0
VERTEX
8
CUT
10
367.7750
20
38.9500
0
VERTEX
8
CUT
10
367.7750
20
38.5750
0
VERTEX
8
CUT
10
367.7750
20
38.2000
0
VERTEX
8
CUT
10
367.7750
20
37.8500
0
VERTEX
8
CUT
10
367.7750
20
37.4750
0
VERTEX
8
CUT
10
367.7750
20
37.1000
0
VERTEX
8
CUT
10
367.7750
20
36.7500
0
VERTEX
8
CUT
10
367.7750
20
36.3750
0
VERTEX
8
CUT
10
367.7750
20
36.2500
0
SEQEND
0
POLYLINE
8
CUT
66
1
70
0
0
VERTEX
8
CUT
10
355.9500
20
136.8500
0
VERTEX
8
CUT
10
296.9750
20
136.8500
0
SEQEND
0
POLYLINE
8
CUT
66
1
70
0
0
VERTEX
8
CUT
10
362.6250
20
147.2500
0
VERTEX
8
CUT
10
362.6250
20
136.8500
0
VERTEX
8
CUT
10
357.1500
20
136.8500
0
SEQEND
0
POLYLINE
8
CUT
66
1
70
0
0
VERTEX
8
CUT
10
363.2750
20
214.3750
0
VERTEX
8
CUT
10
363.2750
20
164.7500
0
VERTEX
8
CUT
10
365.9750
20
164.7500
0
VERTEX
8
CUT
10
365.9750
20
156.3000
0
VERTEX
8
CUT
10
363.2750
20
156.3000
0
VERTEX
8
CUT
10
363.2750
20
148.4500
0
SEQEND
0
POLYLINE
8
CUT
66
1
70
0
0
VERTEX
8
CUT
10
363.2750
20
295.4250
0
VERTEX
8
CUT
10
363.2750
20
291.7500
0
VERTEX
8
CUT
10
365.9750
20
291.7500
0
VERTEX
8
CUT
10
365.9750
20
274.8250
0
VERTEX
8
CUT
10
363.2750
20
274.8250
0
VERTEX
8
CUT
10
363.2750
20
215.5750
0
SEQEND
0
POLYLINE
8
CUT
66
1
70
0
0
VERTEX
8
CUT
10
323.9000
20
302.7250
0
VERTEX
8
CUT
10
362.6250
20
302.7250
0
VERTEX
8
CUT
10
362.6250
20
296.6250
0
SEQEND
0
POLYLINE
8
CUT
66
1
70
0
0
VERTEX
8
CUT
10
286.6250
20
296.9500
0
VERTEX
8
CUT
10
286.6250
20
302.7250
0
VERTEX
8
CUT
10
322.7000
20
302.7250
0
SEQEND
0
POLYLINE
8
CUT
66
1
70
0
0
VERTEX
8
CUT
10
285.9750
20
220.4250
0
VERTEX
8
CUT
10
285.9750
20
274.8250
0
VERTEX
8
CUT
10
283.2750
20
274.8250
0
VERTEX
8
CUT
10
283.2750
20
291.7500
0
VERTEX
8
CUT
10
285.9750
20
291.7500
0
VERTEX
8
CUT
10
285.9750
20
295.7500
0
SEQEND
0
POLYLINE
8
CUT
66
1
70
0
0
VERTEX
8
CUT
10
161.3500
20
58.2500
0
VERTEX
8
CUT
10
204.1250
20
23.4250
0
VERTEX
8
CUT
10
204.2750
20
23.3250
0
VERTEX
8
CUT
10
204.4500
20
23.2250
0
VERTEX
8
CUT
10
204.6250
20
23.1250
0
VERTEX
8
CUT
10
204.8000
20
23.0750
0
VERTEX
8
CUT
10
204.9750
20
23.0250
0
VERTEX
8
CUT
10
205.1750
20
23.0000
0
VERTEX
8
CUT
10
205.3500
20
22.9750
0
VERTEX
8
CUT
10
205.5500
20
23.0000
0
VERTEX
8
CUT
10
205.7250
20
23.0000
0
VERTEX
8
CUT
10
205.9250
20
23.0500
0
VERTEX
8
CUT
10
206.1000
20
23.1250
0
VERTEX
8
CUT
10
206.2750
20
23.2000
0
VERTEX
8
CUT
10
206.4500
20
23.2750
0
VERTEX
8
CUT
10
206.6000
20
23.4000
0
VERTEX
8
CUT
10
206.6500
20
23.4250
0
VERTEX
8
CUT
10
256.6000
20
64.1000
0
SEQEND
0
POLYLINE
8
CUT
66
1
70
0
0
VERTEX
8
CUT
10
140.3750
20
125.1750
0
VERTEX
8
CUT
10
140.3750
20
76.2750
0
VERTEX
8
CUT
10
140.4000
20
76.1500
0
VERTEX
8
CUT
10
140.4000
20
76.0250
0
VERTEX
8
CUT
10
140.4250
20
75.9000
0
VERTEX
8
CUT
10
140.4500
20
75.7750
0
VERTEX
8
CUT
10
140.4750
20
75.6500
0
VERTEX
8
CUT
10
140.5250
20
75.5500
0
VERTEX
8
CUT
10
140.5750
20
75.4250
0
VERTEX
8
CUT
10
140.6250
20
75.3250
0
VERTEX
8
CUT
10
140.6750
20
75.2250
0
VERTEX
8
CUT
10
140.7500
20
75.1250
0
VERTEX
8
CUT
10
140.8250
20
75.0250
0
VERTEX
8
CUT
10
140.9000
20
74.9250
0
VERTEX
8
CUT
10
141.0000
20
74.8250
0
VERTEX
8
CUT
10
141.1000
20
74.7500
0
VERTEX
8
CUT
10
141.1250
20
74.7250
0
VERTEX
8
CUT
10
160.4250
20
59.0000
0
SEQEND
0
POLYLINE
8
CUT
66
1
70
0
0
VERTEX
8
CUT
10
146.0750
20
138.8750
0
VERTEX
8
CUT
10
144.3750
20
138.8750
0
VERTEX
8
CUT
10
144.3750
20
198.4000
0
VERTEX
8
CUT
10
142.3750
20
198.4000
0
VERTEX
8
CUT
10
142.1500
20
198.4000
0
VERTEX
8
CUT
10
141.9500
20
198.3500
0
VERTEX
8
CUT
10
141.7250
20
198.3000
0
VERTEX
8
CUT
10
141.5250
20
198.2250
0
VERTEX
8
CUT
10
141.3250
20
198.1000
0
VERTEX
8
CUT
10
141.1500
20
197.9750
0
VERTEX
8
CUT
10
141.0000
20
197.8500
0
VERTEX
8
CUT
10
140.8500
20
197.6750
0
VERTEX
8
CUT
10
140.7250
20
197.5000
0
VERTEX
8
CUT
10
140.6000
20
197.3250
0
VERTEX
8
CUT
10
140.5250
20
197.1250
0
VERTEX
8
CUT
10
140.4500
20
196.9250
0
VERTEX
8
CUT
10
140.4000
20
196.7000
0
VERTEX
8
CUT
10
140.3750
20
196.4750
0
VERTEX
8
CUT
10
140.3750
20
196.4000
0
VERTEX
8
CUT
10
140.3750
20
126.3750
0
SEQEND
0
POLYLINE
8
CUT
66
1
70
0
0
VERTEX
8
CUT
10
262.1620
20
138.8750
0
VERTEX
8
CUT
10
261.6690
20
138.8750
0
VERTEX
8
CUT
10
261.6690
20
198.4000
0
VERTEX
8
CUT
10
259.4630
20
198.4000
0
SEQEND
0
POLYLINE
8
CUT
66
1
70
0
0
VERTEX
8
CUT
10
270.3750
20
145.7250
0
VERTEX
8
CUT
10
270.3750
20
196.4000
0
VERTEX
8
CUT
10
270.3750
20
196.6250
0
VERTEX
8
CUT
10
270.3250
20
196.8500
0
VERTEX
8
CUT
10
270.2750
20
197.0750
0
VERTEX
8
CUT
10
270.2000
20
197.2750
0
VERTEX
8
CUT
10
270.0750
20
197.4500
0
VERTEX
8
CUT
10
269.9500
20
197.6250
0
VERTEX
8
CUT
10
269.8250
20
197.8000
0
VERTEX
8
CUT
10
269.6500
20
197.9500
0
VERTEX
8
CUT
10
269.5000
20
198.0750
0
VERTEX
8
CUT
10
269.3000
20
198.1750
0
VERTEX
8
CUT
10
269.1000
20
198.2750
0
VERTEX
8
CUT
10
268.9000
20
198.3500
0
VERTEX
8
CUT
10
268.6750
20
198.3750
0
VERTEX
8
CUT
10
268.4500
20
198.4000
0
VERTEX
8
CUT
10
268.3750
20
198.4000
0
VERTEX
8
CUT
10
266.3750
20
198.4000
0
VERTEX
8
CUT
10
266.3750
20
138.8750
0
VERTEX
8
CUT
10
264.4750
20
138.8750
0
SEQEND
0
POLYLINE
8
CUT
66
1
70
0
0
VERTEX
8
CUT
10
270.3750
20
97.3500
0
VERTEX
8
CUT
10
270.3750
20
144.5250
0
SEQEND
0
POLYLINE
8
CUT
66
1
70
0
0
VERTEX
8
CUT
10
245.2750
20
199.0500
0
VERTEX
8
CUT
10
224.2500
20
199.0500
0
VERTEX
8
CUT
10
224.2500
20
201.7500
0
VERTEX
8
CUT
10
186.5250
20
201.7500
0
VERTEX
8
CUT
10
186.5250
20
199.0500
0
VERTEX
8
CUT
10
174.3000
20
199.0500
0
SEQEND
0
POLYLINE
8
CUT
66
1
70
0
0
VERTEX
8
CUT
10
156.9750
20
198.4000
0
VERTEX
8
CUT
10
150.0000
20
198.4000
0
SEQEND
0
POLYLINE
8
CUT
66
1
70
0
0
VERTEX
8
CUT
10
204.9000
20
210.4500
0
VERTEX
8
CUT
10
204.9000
20
211.1500
0
VERTEX
8
CUT
10
142.3250
20
211.1500
0
VERTEX
8
CUT
10
142.3250
20
250.5250
0
SEQEND
0
POLYLINE
8
CUT
66
1
70
0
0
VERTEX
8
CUT
10
264.4500
20
209.8500
0
VERTEX
8
CUT
10
264.4500
20
203.1500
0
VERTEX
8
CUT
10
264.1000
20
203.1500
0
VERTEX
8
CUT
10
263.7750
20
203.1500
0
VERTEX
8
CUT
10
263.4250
20
203.1500
0
VERTEX
8
CUT
10
263.0750
20
203.1500
0
VERTEX
8
CUT
10
262.7250
20
203.1500
0
VERTEX
8
CUT
10
262.4000
20
203.1500
0
VERTEX
8
CUT
10
262.0500
20
203.1500
0
VERTEX
8
CUT
10
261.7000
20
203.1500
0
VERTEX
8
CUT
10
261.3500
20
203.1500
0
VERTEX
8
CUT
10
261.0250
20
203.1500
0
VERTEX
8
CUT
10
260.6750
20
203.1500
0
VERTEX
8
CUT
10
260.3250
20
203.1500
0
VERTEX
8
CUT
10
259.9750
20
203.1500
0
VERTEX
8
CUT
10
259.6500
20
203.1500
0
VERTEX
8
CUT
10
259.3000
20
203.1500
0
VERTEX
8
CUT
10
258.9500
20
203.1500
0
VERTEX
8
CUT
10
258.6000
20
203.1500
0
VERTEX
8
CUT
10
258.2500
20
203.1500
0
VERTEX
8
CUT
10
257.9250
20
203.1500
0
VERTEX
8
CUT
10
257.5750
20
203.1500
0
VERTEX
8
CUT
10
257.2250
20
203.1500
0
VERTEX
8
CUT
10
256.8750
20
203.1500
0
VERTEX
8
CUT
10
256.5250
20
203.1500
0
VERTEX
8
CUT
10
256.1750
20
203.1500
0
VERTEX
8
CUT
10
255.8250
20
203.1500
0
VERTEX
8
CUT
10
255.5000
20
203.1500
0
VERTEX
8
CUT
10
255.1500
20
203.1500
0
VERTEX
8
CUT
10
254.8000
20
203.1500
0
VERTEX
8
CUT
10
254.4500
20
203.1500
0
VERTEX
8
CUT
10
254.1000
20
203.1500
0
VERTEX
8
CUT
10
253.7500
20
203.1500
0
VERTEX
8
CUT
10
253.4000
20
203.1500
0
VERTEX
8
CUT
10
253.0500
20
203.1500
0
VERTEX
8
CUT
10
252.7000
20
203.1500
0
VERTEX
8
CUT
10
252.3500
20
203.1500
0
VERTEX
8
CUT
10
252.0250
20
203.1500
0
VERTEX
8
CUT
10
251.6750
20
203.1500
0
VERTEX
8
CUT
10
251.3250
20
203.1500
0
VERTEX
8
CUT
10
250.9750
20
203.1500
0
VERTEX
8
CUT
10
250.6250
20
203.1500
0
VERTEX
8
CUT
10
250.2750
20
203.1500
0
VERTEX
8
CUT
10
249.9250
20
203.1500
0
VERTEX
8
CUT
10
249.5750
20
203.1500
0
VERTEX
8
CUT
10
249.2250
20
203.1500
0
VERTEX
8
CUT
10
248.8750
20
203.1500
0
VERTEX
8
CUT
10
248.5250
20
203.1500
0
VERTEX
8
CUT
10
248.1750
20
203.1500
0
VERTEX
8
CUT
10
247.8250
20
203.1500
0
VERTEX
8
CUT
10
247.4750
20
203.1500
0
VERTEX
8
CUT
10
247.1250
20
203.1500
0
VERTEX
8
CUT
10
246.7750
20
203.1500
0
VERTEX
8
CUT
10
246.4250
20
203.1500
0
VERTEX
8
CUT
10
246.0750
20
203.1500
0
VERTEX
8
CUT
10
245.7250
20
203.1500
0
VERTEX
8
CUT
10
245.3750
20
203.1500
0
VERTEX
8
CUT
10
245.0250
20
203.1500
0
VERTEX
8
CUT
10
244.6750
20
203.1500
0
VERTEX
8
CUT
10
244.3000
20
203.1500
0
VERTEX
8
CUT
10
243.9500
20
203.1500
0
VERTEX
8
CUT
10
243.6000
20
203.1500
0
VERTEX
8
CUT
10
243.2500
20
203.1500
0
VERTEX
8
CUT
10
242.9000
20
203.1500
0
VERTEX
8
CUT
10
242.5500
20
203.1500
0
VERTEX
8
CUT
10
242.2000
20
203.1500
0
VERTEX
8
CUT
10
241.8500
20
203.1500
0
VERTEX
8
CUT
10
241.5000
20
203.1500
0
VERTEX
8
CUT
10
241.1500
20
203.1500
0
VERTEX
8
CUT
10
240.7750
20
203.1500
0
VERTEX
8
CUT
10
240.4250
20
203.1500
0
VERTEX
8
CUT
10
240.0750
20
203.1500
0
VERTEX
8
CUT
10
239.7250
20
203.1500
0
VERTEX
8
CUT
10
239.3750
20
203.1500
0
VERTEX
8
CUT
10
239.0250
20
203.1500
0
VERTEX
8
CUT
10
238.6750
20
203.1500
0
VERTEX
8
CUT
10
238.3250
20
203.1500
0
VERTEX
8
CUT
10
237.9500
20
203.1500
0
VERTEX
8
CUT
10
237.6000
20
203.1500
0
VERTEX
8
CUT
10
237.2500
20
203.1500
0
VERTEX
8
CUT
10
236.9000
20
203.1500
0
VERTEX
8
CUT
10
236.5500
20
203.1500
0
VERTEX
8
CUT
10
236.4000
20
203.1500
0
SEQEND
0
POLYLINE
8
CUT
66
1
70
0
0
VERTEX
8
CUT
10
265.1000
20
279.7000
0
VERTEX
8
CUT
10
265.1000
20
268.0250
0
VERTEX
8
CUT
10
267.8000
20
268.0250
0
VERTEX
8
CUT
10
267.8000
20
230.3000
0
VERTEX
8
CUT
10
265.1000
20
230.3000
0
VERTEX
8
CUT
10
265.1000
20
211.0500
0
SEQEND
0
POLYLINE
8
CUT
66
1
70
0
0
VERTEX
8
CUT
10
142.3250
20
293.1500
0
VERTEX
8
CUT
10
142.3250
20
295.1500
0
VERTEX
8
CUT
10
142.6750
20
295.1500
0
VERTEX
8
CUT
10
143.0500
20
295.1500
0
VERTEX
8
CUT
10
143.4000
20
295.1500
0
VERTEX
8
CUT
10
143.7750
20
295.1500
0
VERTEX
8
CUT
10
144.1500
20
295.1500
0
VERTEX
8
CUT
10
144.5000
20
295.1500
0
VERTEX
8
CUT
10
144.8750
20
295.1500
0
VERTEX
8
CUT
10
145.2250
20
295.1500
0
VERTEX
8
CUT
10
145.6000
20
295.1500
0
VERTEX
8
CUT
10
145.9750
20
295.1500
0
VERTEX
8
CUT
10
146.3250
20
295.1500
0
VERTEX
8
CUT
10
146.7000
20
295.1500
0
VERTEX
8
CUT
10
147.0750
20
295.1500
0
VERTEX
8
CUT
10
147.4250
20
295.1500
0
VERTEX
8
CUT
10
147.8000
20
295.1500
0
VERTEX
8
CUT
10
148.1500
20
295.1500
0
VERTEX
8
CUT
10
148.5250
20
295.1500
0
VERTEX
8
CUT
10
148.9000
20
295.1500
0
VERTEX
8
CUT
10
149.2500
20
295.1500
0
VERTEX
8
CUT
10
149.6250
20
295.1500
0
VERTEX
8
CUT
10
149.9750
20
295.1500
0
VERTEX
8
CUT
10
150.3500
20
295.1500
0
VERTEX
8
CUT
10
150.7250
20
295.1500
0
VERTEX
8
CUT
10
151.0750
20
295.1500
0
VERTEX
8
CUT
10
151.4500
20
295.1500
0
VERTEX
8
CUT
10
151.8250
20
295.1500
0
VERTEX
8
CUT
10
152.1750
20
295.1500
0
VERTEX
8
CUT
10
152.5500
20
295.1500
0
VERTEX
8
CUT
10
152.9000
20
295.1500
0
VERTEX
8
CUT
10
153.2750
20
295.1500
0
VERTEX
8
CUT
10
153.6500
20
295.1500
0
VERTEX
8
CUT
10
154.0000
20
295.1500
0
VERTEX
8
CUT
10
154.3750
20
295.1500
0
VERTEX
8
CUT
10
154.7500
20
295.1500
0
VERTEX
8
CUT
10
155.1000
20
295.1500
0
VERTEX
8
CUT
10
155.4750
20
295.1500
0
VERTEX
8
CUT
10
155.8500
20
295.1500
0
VERTEX
8
CUT
10
156.2000
20
295.1500
0
VERTEX
8
CUT
10
156.5750
20
295.1500
0
VERTEX
8
CUT
10
156.9250
20
295.1500
0
VERTEX
8
CUT
10
157.3000
20
295.1500
0
VERTEX
8
CUT
10
157.6750
20
295.1500
0
VERTEX
8
CUT
10
158.0250
20
295.1500
0
VERTEX
8
CUT
10
158.4000
20
295.1500
0
VERTEX
8
CUT
10
158.7750
20
295.1500
0
VERTEX
8
CUT
10
159.1250
20
295.1500
0
VERTEX
8
CUT
10
159.5000
20
295.1500
0
VERTEX
8
CUT
10
159.8750
20
295.1500
0
VERTEX
8
CUT
10
160.2250
20
295.1500
0
VERTEX
8
CUT
10
160.6000
20
295.1500
0
VERTEX
8
CUT
10
160.9750
20
295.1500
0
VERTEX
8
CUT
10
161.3250
20
295.1500
0
VERTEX
8
CUT
10
161.7000
20
295.1500
0
VERTEX
8
CUT
10
162.0750
20
295.1500
0
VERTEX
8
CUT
10
162.4250
20
295.1500
0
VERTEX
8
CUT
10
162.8000
20
295.1500
0
VERTEX
8
CUT
10
163.1500
20
295.1500
0
VERTEX
8
CUT
10
163.5250
20
295.1500
0
VERTEX
8
CUT
10
163.9000
20
295.1500
0
VERTEX
8
CUT
10
164.2500
20
295.1500
0
VERTEX
8
CUT
10
164.6250
20
295.1500
0
VERTEX
8
CUT
10
165.0000
20
295.1500
0
VERTEX
8
CUT
10
165.3500
20
295.1500
0
VERTEX
8
CUT
10
165.7250
20
295.1500
0
VERTEX
8
CUT
10
166.1000
20
295.1500
0
VERTEX
8
CUT
10
166.4500
20
295.1500
0
VERTEX
8
CUT
10
166.8250
20
295.1500
0
VERTEX
8
CUT
10
167.2000
20
295.1500
0
VERTEX
8
CUT
10
167.5500
20
295.1500
0
VERTEX
8
CUT
10
167.9250
20
295.1500
0
VERTEX
8
CUT
10
168.3000
20
295.1500
0
VERTEX
8
CUT
10
168.6500
20
295.1500
0
VERTEX
8
CUT
10
169.0250
20
295.1500
0
VERTEX
8
CUT
10
169.4000
20
295.1500
0
VERTEX
8
CUT
10
169.7500
20
295.1500
0
VERTEX
8
CUT
10
170.1250
20
295.1500
0
VERTEX
8
CUT
10
170.5000
20
295.1500
0
VERTEX
8
CUT
10
170.8500
20
295.1500
0
VERTEX
8
CUT
10
171.2250
20
295.1500
0
VERTEX
8
CUT
10
171.6000
20
295.1500
0
VERTEX
8
CUT
10
171.9500
20
295.1500
0
VERTEX
8
CUT
10
172.3250
20
295.1500
0
VERTEX
8
CUT
10
172.7000
20
295.1500
0
VERTEX
8
CUT
10
173.0500
20
295.1500
0
VERTEX
8
CUT
10
173.4250
20
295.1500
0
VERTEX
8
CUT
10
173.8000
20
295.1500
0
VERTEX
8
CUT
10
174.1500
20
295.1500
0
VERTEX
8
CUT
10
174.5250
20
295.1500
0
VERTEX
8
CUT
10
174.8750
20
295.1500
0
VERTEX
8
CUT
10
175.2500
20
295.1500
0
VERTEX
8
CUT
10
175.6250
20
295.1500
0
VERTEX
8
CUT
10
175.9750
20
295.1500
0
VERTEX
8
CUT
10
176.3500
20
295.1500
0
VERTEX
8
CUT
10
176.7250
20
295.1500
0
VERTEX
8
CUT
10
177.0750
20
295.1500
0
VERTEX
8
CUT
10
177.4500
20
295.1500
0
VERTEX
8
CUT
10
177.8250
20
295.1500
0
VERTEX
8
CUT
10
178.1750
20
295.1500
0
VERTEX
8
CUT
10
178.5500
20
295.1500
0
VERTEX
8
CUT
10
178.9250
20
295.1500
0
VERTEX
8
CUT
10
179.2750
20
295.1500
0
VERTEX
8
CUT
10
179.6500
20
295.1500
0
VERTEX
8
CUT
10
180.0250
20
295.1500
0
VERTEX
8
CUT
10
180.3750
20
295.1500
0
VERTEX
8
CUT
10
180.7500
20
295.1500
0
VERTEX
8
CUT
10
181.1000
20
295.1500
0
VERTEX
8
CUT
10
181.4750
20
295.1500
0
VERTEX
8
CUT
10
181.8500
20
295.1500
0
VERTEX
8
CUT
10
182.2000
20
295.1500
0
VERTEX
8
CUT
10
182.5750
20
295.1500
0
VERTEX
8
CUT
10
182.9500
20
295.1500
0
VERTEX
8
CUT
10
183.3000
20
295.1500
0
VERTEX
8
CUT
10
183.6750
20
295.1500
0
VERTEX
8
CUT
10
184.0500
20
295.1500
0
VERTEX
8
CUT
10
184.4000
20
295.1500
0
VERTEX
8
CUT
10
184.7750
20
295.1500
0
VERTEX
8
CUT
10
185.1250
20
295.1500
0
VERTEX
8
CUT
10
185.5000
20
295.1500
0
VERTEX
8
CUT
10
185.8750
20
295.1500
0
VERTEX
8
CUT
10
186.2250
20
295.1500
0
VERTEX
8
CUT
10
186.6000
20
295.1500
0
VERTEX
8
CUT
10
186.9750
20
295.1500
0
VERTEX
8
CUT
10
187.3250
20
295.1500
0
VERTEX
8
CUT
10
187.7000
20
295.1500
0
VERTEX
8
CUT
10
188.0750
20
295.1500
0
VERTEX
8
CUT
10
188.4250
20
295.1500
0
VERTEX
8
CUT
10
188.8000
20
295.1500
0
VERTEX
8
CUT
10
189.1500
20
295.1500
0
VERTEX
8
CUT
10
189.5250
20
295.1500
0
VERTEX
8
CUT
10
189.9000
20
295.1500
0
VERTEX
8
CUT
10
190.2500
20
295.1500
0
VERTEX
8
CUT
10
190.6250
20
295.1500
0
VERTEX
8
CUT
10
190.9750
20
295.1500
0
VERTEX
8
CUT
10
191.3500
20
295.1500
0
VERTEX
8
CUT
10
191.7250
20
295.1500
0
VERTEX
8
CUT
10
192.0750
20
295.1500
0
VERTEX
8
CUT
10
192.4500
20
295.1500
0
VERTEX
8
CUT
10
192.8000
20
295.1500
0
VERTEX
8
CUT
10
193.1750
20
295.1500
0
VERTEX
8
CUT
10
193.5500
20
295.1500
0
VERTEX
8
CUT
10
193.9000
20
295.1500
0
VERTEX
8
CUT
10
194.2750
20
295.1500
0
VERTEX
8
CUT
10
194.6250
20
295.1500
0
VERTEX
8
CUT
10
195.0000
20
295.1500
0
VERTEX
8
CUT
10
195.3750
20
295.1500
0
VERTEX
8
CUT
10
195.7250
20
295.1500
0
VERTEX
8
CUT
10
196.1000
20
295.1500
0
VERTEX
8
CUT
10
196.4500
20
295.1500
0
VERTEX
8
CUT
10
196.8250
20
295.1500
0
VERTEX
8
CUT
10
197.1750
20
295.1500
0
VERTEX
8
CUT
10
197.5500
20
295.1500
0
VERTEX
8
CUT
10
197.9250
20
295.1500
0
VERTEX
8
CUT
10
198.2750
20
295.1500
0
VERTEX
8
CUT
10
198.6500
20
295.1500
0
VERTEX
8
CUT
10
199.0000
20
295.1500
0
VERTEX
8
CUT
10
199.3750
20
295.1500
0
VERTEX
8
CUT
10
199.7250
20
295.1500
0
VERTEX
8
CUT
10
200.1000
20
295.1500
0
VERTEX
8
CUT
10
200.4750
20
295.1500
0
VERTEX
8
CUT
10
200.8250
20
295.1500
0
VERTEX
8
CUT
10
201.2000
20
295.1500
0
VERTEX
8
CUT
10
201.5500
20
295.1500
0
VERTEX
8
CUT
10
201.9250
20
295.1500
0
VERTEX
8
CUT
10
202.2750
20
295.1500
0
VERTEX
8
CUT
10
202.6500
20
295.1500
0
VERTEX
8
CUT
10
203.0000
20
295.1500
0
VERTEX
8
CUT
10
203.3750
20
295.1500
0
VERTEX
8
CUT
10
203.7250
20
295.1500
0
VERTEX
8
CUT
10
204.1000
20
295.1500
0
VERTEX
8
CUT
10
204.4750
20
295.1500
0
VERTEX
8
CUT
10
204.8250
20
295.1500
0
VERTEX
8
CUT
10
205.2000
20
295.1500
0
VERTEX
8
CUT
10
205.5500
20
295.1500
0
VERTEX
8
CUT
10
205.9250
20
295.1500
0
VERTEX
8
CUT
10
206.2750
20
295.1500
0
VERTEX
8
CUT
10
206.6500
20
295.1500
0
VERTEX
8
CUT
10
207.0000
20
295.1500
0
VERTEX
8
CUT
10
207.3750
20
295.1500
0
VERTEX
8
CUT
10
207.7250
20
295.1500
0
VERTEX
8
CUT
10
207.9500
20
295.1500
0
SEQEND
0
POLYLINE
8
CUT
66
1
70
0
0
VERTEX
8
CUT
10
204.9000
20
289.3130
0
VERTEX
8
CUT
10
204.9000
20
291.1740
0
VERTEX
8
CUT
10
142.3250
20
291.1740
0
VERTEX
8
CUT
10
142.3250
20
292.0120
0
SEQEND
0
POLYLINE
8
CUT
66
1
70
0
0
VERTEX
8
CUT
10
142.3250
20
251.7250
0
VERTEX
8
CUT
10
142.3250
20
287.1500
0
VERTEX
8
CUT
10
204.9000
20
287.1500
0
VERTEX
8
CUT
10
204.9000
20
288.1750
0
SEQEND
0
POLYLINE
8
CUT
66
1
70
0
0
VERTEX
8
CUT
10
14.2250
20
204.1250
0
VERTEX
8
CUT
10
128.2250
20
204.1250
0
SEQEND
0
POLYLINE
8
CUT
66
1
70
0
0
VERTEX
8
CUT
10
7.7750
20
244.0250
0
VERTEX
8
CUT
10
7.7750
20
206.1250
0
VERTEX
8
CUT
10
7.7750
20
205.9000
0
VERTEX
8
CUT
10
7.8250
20
205.6750
0
VERTEX
8
CUT
10
7.8750
20
205.4750
0
VERTEX
8
CUT
10
7.9500
20
205.2500
0
VERTEX
8
CUT
10
8.0500
20
205.0750
0
VERTEX
8
CUT
10
8.1750
20
204.9000
0
VERTEX
8
CUT
10
8.3250
20
204.7250
0
VERTEX
8
CUT
10
8.4750
20
204.5750
0
VERTEX
8
CUT
10
8.6500
20
204.4500
0
VERTEX
8
CUT
10
8.8500
20
204.3500
0
VERTEX
8
CUT
10
9.0500
20
204.2500
0
VERTEX
8
CUT
10
9.2500
20
204.1750
0
VERTEX
8
CUT
10
9.4750
20
204.1500
0
VERTEX
8
CUT
10
9.7000
20
204.1250
0
VERTEX
8
CUT
10
9.7750
20
204.1250
0
VERTEX
8
CUT
10
13.0250
20
204.1250
0
SEQEND
0
POLYLINE
8
CUT
66
1
70
0
0
VERTEX
8
CUT
10
27.5250
20
296.1250
0
VERTEX
8
CUT
10
9.7750
20
296.1250
0
VERTEX
8
CUT
10
9.5500
20
296.1000
0
VERTEX
8
CUT
10
9.3250
20
296.0750
0
VERTEX
8
CUT
10
9.1000
20
296.0000
0
VERTEX
8
CUT
10
8.9000
20
295.9250
0
VERTEX
8
CUT
10
8.7250
20
295.8250
0
VERTEX
8
CUT
10
8.5250
20
295.7000
0
VERTEX
8
CUT
10
8.3750
20
295.5500
0
VERTEX
8
CUT
10
8.2250
20
295.4000
0
VERTEX
8
CUT
10
8.1000
20
295.2250
0
VERTEX
8
CUT
10
7.9750
20
295.0500
0
VERTEX
8
CUT
10
7.9000
20
294.8500
0
VERTEX
8
CUT
10
7.8250
20
294.6250
0
VERTEX
8
CUT
10
7.7750
20
294.4250
0
VERTEX
8
CUT
10
7.7750
20
294.1750
0
VERTEX
8
CUT
10
7.7750
20
294.1250
0
VERTEX
8
CUT
10
7.7750
20
245.2250
0
SEQEND
0
POLYLINE
8
CUT
66
1
70
0
0
VERTEX
8
CUT
10
114.9250
20
296.1250
0
VERTEX
8
CUT
10
28.7250
20
296.1250
0
SEQEND
0
POLYLINE
8
CUT
66
1
70
0
0
VERTEX
8
CUT
10
137.7750
20
246.1250
0
VERTEX
8
CUT
10
137.7750
20
294.1250
0
VERTEX
8
CUT
10
137.7500
20
294.3500
0
VERTEX
8
CUT
10
137.7000
20
294.5750
0
VERTEX
8
CUT
10
137.6500
20
294.7750
0
VERTEX
8
CUT
10
137.5750
20
294.9750
0
VERTEX
8
CUT
10
137.4750
20
295.1750
0
VERTEX
8
CUT
10
137.3500
20
295.3500
0
VERTEX
8
CUT
10
137.2000
20
295.5000
0
VERTEX
8
CUT
10
137.0500
20
295.6500
0
VERTEX
8
CUT
10
136.8750
20
295.7750
0
VERTEX
8
CUT
10
136.6750
20
295.9000
0
VERTEX
8
CUT
10
136.4750
20
295.9750
0
VERTEX
8
CUT
10
136.2750
20
296.0500
0
VERTEX
8
CUT
10
136.0500
20
296.1000
0
VERTEX
8
CUT
10
135.8250
20
296.1250
0
VERTEX
8
CUT
10
135.7750
20
296.1250
0
VERTEX
8
CUT
10
116.1250
20
296.1250
0
SEQEND
0
POLYLINE
8
CUT
66
1
70
0
0
VERTEX
8
CUT
10
118.7250
20
60.2000
0
VERTEX
8
CUT
10
136.3500
20
74.5500
0
VERTEX
8
CUT
10
136.4250
20
74.6500
0
VERTEX
8
CUT
10
136.5250
20
74.7250
0
VERTEX
8
CUT
10
136.6000
20
74.8250
0
VERTEX
8
CUT
10
136.7000
20
74.9250
0
VERTEX
8
CUT
10
136.7500
20
75.0250
0
VERTEX
8
CUT
10
136.8250
20
75.1250
0
VERTEX
8
CUT
10
136.8750
20
75.2250
0
VERTEX
8
CUT
10
136.9250
20
75.3500
0
VERTEX
8
CUT
10
136.9750
20
75.4500
0
VERTEX
8
CUT
10
137.0000
20
75.5750
0
VERTEX
8
CUT
10
137.0250
20
75.7000
0
VERTEX
8
CUT
10
137.0500
20
75.8250
0
VERTEX
8
CUT
10
137.0750
20
75.9500
0
VERTEX
8
CUT
10
137.0750
20
76.0750
0
VERTEX
8
CUT
10
137.0750
20
76.1000
0
VERTEX
8
CUT
10
137.0750
20
100.3750
0
SEQEND
0
POLYLINE
8
CUT
66
1
70
0
0
VERTEX
8
CUT
10
137.0750
20
101.5750
0
VERTEX
8
CUT
10
137.0750
20
133.7000
0
SEQEND
0
POLYLINE
8
CUT
66
1
70
0
0
VERTEX
8
CUT
10
137.0750
20
188.3750
0
VERTEX
8
CUT
10
137.0750
20
196.2500
0
VERTEX
8
CUT
10
137.0750
20
196.4750
0
VERTEX
8
CUT
10
137.0250
20
196.6750
0
VERTEX
8
CUT
10
136.9750
20
196.9000
0
VERTEX
8
CUT
10
136.8750
20
197.1000
0
VERTEX
8
CUT
10
136.7750
20
197.3000
0
VERTEX
8
CUT
10
136.6500
20
197.4750
0
VERTEX
8
CUT
10
136.5250
20
197.6250
0
VERTEX
8
CUT
10
136.3500
20
197.7750
0
VERTEX
8
CUT
10
136.1750
20
197.9000
0
VERTEX
8
CUT
10
136.0000
20
198.0250
0
VERTEX
8
CUT
10
135.8000
20
198.1000
0
VERTEX
8
CUT
10
135.5750
20
198.1750
0
VERTEX
8
CUT
10
135.3750
20
198.2250
0
VERTEX
8
CUT
10
135.1500
20
198.2500
0
VERTEX
8
CUT
10
135.0750
20
198.2500
0
VERTEX
8
CUT
10
133.0750
20
198.2500
0
VERTEX
8
CUT
10
133.0750
20
138.7000
0
VERTEX
8
CUT
10
131.2500
20
138.7000
0
SEQEND
0
POLYLINE
8
CUT
66
1
70
0
0
VERTEX
8
CUT
10
71.6750
20
201.6000
0
VERTEX
8
CUT
10
53.2250
20
201.6000
0
VERTEX
8
CUT
10
53.2250
20
198.9000
0
VERTEX
8
CUT
10
18.1000
20
198.9000
0
SEQEND
0
POLYLINE
8
CUT
66
1
70
0
0
VERTEX
8
CUT
10
7.0750
20
187.7750
0
VERTEX
8
CUT
10
7.0750
20
76.1000
0
VERTEX
8
CUT
10
7.0750
20
75.9750
0
VERTEX
8
CUT
10
7.1000
20
75.8500
0
VERTEX
8
CUT
10
7.1000
20
75.7250
0
VERTEX
8
CUT
10
7.1250
20
75.6000
0
VERTEX
8
CUT
10
7.1750
20
75.5000
0
VERTEX
8
CUT
10
7.2000
20
75.3750
0
VERTEX
8
CUT
10
7.2500
20
75.2750
0
VERTEX
8
CUT
10
7.3000
20
75.1500
0
VERTEX
8
CUT
10
7.3750
20
75.0500
0
VERTEX
8
CUT
10
7.4500
20
74.9500
0
VERTEX
8
CUT
10
7.5250
20
74.8500
0
VERTEX
8
CUT
10
7.6000
20
74.7500
0
VERTEX
8
CUT
10
7.7000
20
74.6750
0
VERTEX
8
CUT
10
7.7750
20
74.5750
0
VERTEX
8
CUT
10
7.8250
20
74.5500
0
VERTEX
8
CUT
10
13.4500
20
69.9750
0
SEQEND
0
POLYLINE
8
CUT
66
1
70
0
0
VERTEX
8
CUT
10
12.7250
20
138.7000
0
VERTEX
8
CUT
10
11.0750
20
138.7000
0
VERTEX
8
CUT
10
11.0750
20
198.2500
0
VERTEX
8
CUT
10
9.0750
20
198.2500
0
VERTEX
8
CUT
10
8.8500
20
198.2250
0
VERTEX
8
CUT
10
8.6250
20
198.2000
0
VERTEX
8
CUT
10
8.4250
20
198.1250
0
VERTEX
8
CUT
10
8.2250
20
198.0500
0
VERTEX
8
CUT
10
8.0250
20
197.9500
0
VERTEX
8
CUT
10
7.8500
20
197.8250
0
VERTEX
8
CUT
10
7.6750
20
197.6750
0
VERTEX
8
CUT
10
7.5500
20
197.5250
0
VERTEX
8
CUT
10
7.4000
20
197.3500
0
VERTEX
8
CUT
10
7.3000
20
197.1500
0
VERTEX
8
CUT
10
7.2000
20
196.9500
0
VERTEX
8
CUT
10
7.1500
20
196.7500
0
VERTEX
8
CUT
10
7.1000
20
196.5250
0
VERTEX
8
CUT
10
7.0750
20
196.3000
0
VERTEX
8
CUT
10
7.0750
20
196.2500
0
VERTEX
8
CUT
10
7.0750
20
188.9750
0
SEQEND
0
POLYLINE
8
CUT
66
1
70
0
0
VERTEX
8
CUT
10
130.2870
20
138.7000
0
VERTEX
8
CUT
10
129.1040
20
138.7000
0
VERTEX
8
CUT
10
129.1040
20
198.2500
0
VERTEX
8
CUT
10
127.5880
20
198.2500
0
SEQEND
0
POLYLINE
8
CUT
66
1
70
0
0
VERTEX
8
CUT
10
105.2250
20
34.6250
0
VERTEX
8
CUT
10
105.3000
20
34.4250
0
VERTEX
8
CUT
10
105.4250
20
34.0750
0
VERTEX
8
CUT
10
105.5250
20
33.7250
0
VERTEX
8
CUT
10
105.6250
20
33.3750
0
VERTEX
8
CUT
10
105.7250
20
33.0000
0
VERTEX
8
CUT
10
105.8250
20
32.6500
0
VERTEX
8
CUT
10
105.9000
20
32.2750
0
VERTEX
8
CUT
10
105.9750
20
31.9250
0
VERTEX
8
CUT
10
106.0500
20
31.5500
0
VERTEX
8
CUT
10
106.1250
20
31.1750
0
VERTEX
8
CUT
10
106.2000
20
30.8250
0
VERTEX
8
CUT
10
106.2750
20
30.4500
0
VERTEX
8
CUT
10
106.3500
20
30.0750
0
VERTEX
8
CUT
10
106.4000
20
29.7250
0
VERTEX
8
CUT
10
106.4500
20
29.3750
0
VERTEX
8
CUT
10
106.5000
20
29.1500
0
VERTEX
8
CUT
10
106.5250
20
29.0000
0
VERTEX
8
CUT
10
106.5250
20
28.9500
0
VERTEX
8
CUT
10
106.5500
20
28.9500
0
VERTEX
8
CUT
10
106.6250
20
28.9500
0
VERTEX
8
CUT
10
106.7250
20
28.9500
0
VERTEX
8
CUT
10
106.8750
20
28.9500
0
VERTEX
8
CUT
10
107.0500
20
28.9750
0
VERTEX
8
CUT
10
107.2750
20
28.9750
0
VERTEX
8
CUT
10
107.5000
20
28.9750
0
VERTEX
8
CUT
10
107.7750
20
29.0000
0
VERTEX
8
CUT
10
108.0500
20
29.0000
0
VERTEX
8
CUT
10
108.3500
20
29.0250
0
VERTEX
8
CUT
10
108.6500
20
29.0500
0
VERTEX
8
CUT
10
108.9500
20
29.0500
0
VERTEX
8
CUT
10
109.2500
20
29.0750
0
VERTEX
8
CUT
10
109.5500
20
29.1000
0
VERTEX
8
CUT
10
109.6500
20
29.1000
0
VERTEX
8
CUT
10
109.9500
20
29.1250
0
VERTEX
8
CUT
10
110.2500
20
29.1250
0
VERTEX
8
CUT
10
110.5500
20
29.1500
0
VERTEX
8
CUT
10
110.8250
20
29.1500
0
VERTEX
8
CUT
10
111.1250
20
29.1500
0
VERTEX
8
CUT
10
111.4000
20
29.1500
0
VERTEX
8
CUT
10
111.6500
20
29.1500
0
VERTEX
8
CUT
10
111.8750
20
29.1500
0
VERTEX
8
CUT
10
112.0750
20
29.1250
0
VERTEX
8
CUT
10
112.2500
20
29.1250
0
VERTEX
8
CUT
10
112.4000
20
29.1250
0
VERTEX
8
CUT
10
112.5250
20
29.1000
0
VERTEX
8
CUT
10
112.6000
20
29.1000
0
VERTEX
8
CUT
10
112.6250
20
29.1000
0
VERTEX
8
CUT
10
112.6250
20
29.1000
0
VERTEX
8
CUT
10
112.6500
20
29.1000
0
VERTEX
8
CUT
10
112.7250
20
29.1000
0
VERTEX
8
CUT
10
112.8250
20
29.1250
0
VERTEX
8
CUT
10
112.9750
20
29.1250
0
VERTEX
8
CUT
10
113.1250
20
29.1250
0
VERTEX
8
CUT
10
113.3250
20
29.1250
0
VERTEX
8
CUT
10
113.5500
20
29.1500
0
VERTEX
8
CUT
10
113.8000
20
29.1500
0
VERTEX
8
CUT
10
114.0750
20
29.1500
0
VERTEX
8
CUT
10
114.3500
20
29.1500
0
VERTEX
8
CUT
10
114.6500
20
29.1500
0
VERTEX
8
CUT
10
114.9500
20
29.1500
0
VERTEX
8
CUT
10
115.2500
20
29.1250
0
VERTEX
8
CUT
10
115.5500
20
29.1000
0
VERTEX
8
CUT
10
115.6250
20
29.1000
0
VERTEX
8
CUT
10
115.9250
20
29.0750
0
VERTEX
8
CUT
10
116.2250
20
29.0500
0
VERTEX
8
CUT
10
116.5500
20
29.0500
0
VERTEX
8
CUT
10
116.8500
20
29.0250
0
VERTEX
8
CUT
10
117.0500
20
29.0250
0
SEQEND
0
POLYLINE
8
CUT
66
1
70
0
0
VERTEX
8
CUT
10
112.1250
20
49.2250
0
VERTEX
8
CUT
10
111.9500
20
49.1750
0
VERTEX
8
CUT
10
111.7250
20
49.1000
0
VERTEX
8
CUT
10
111.5250
20
49.0000
0
VERTEX
8
CUT
10
111.3500
20
48.8500
0
VERTEX
8
CUT
10
111.1750
20
48.7250
0
VERTEX
8
CUT
10
111.0250
20
48.5500
0
VERTEX
8
CUT
10
110.8750
20
48.3750
0
VERTEX
8
CUT
10
110.7750
20
48.1750
0
VERTEX
8
CUT
10
110.6750
20
47.9500
0
VERTEX
8
CUT
10
110.6000
20
47.7500
0
VERTEX
8
CUT
10
110.5500
20
47.5000
0
VERTEX
8
CUT
10
110.5250
20
47.2750
0
VERTEX
8
CUT
10
110.5250
20
47.2000
0
VERTEX
8
CUT
10
110.5500
20
47.0250
0
VERTEX
8
CUT
10
110.5750
20
46.8500
0
VERTEX
8
CUT
10
110.6000
20
46.6750
0
VERTEX
8
CUT
10
110.6500
20
46.5250
0
VERTEX
8
CUT
10
110.7000
20
46.3500
0
VERTEX
8
CUT
10
110.7750
20
46.2000
0
VERTEX
8
CUT
10
110.8750
20
46.0750
0
VERTEX
8
CUT
10
110.9500
20
45.9250
0
VERTEX
8
CUT
10
111.0750
20
45.8000
0
VERTEX
8
CUT
10
111.1750
20
45.6750
0
VERTEX
8
CUT
10
111.3000
20
45.5750
0
VERTEX
8
CUT
10
111.4500
20
45.4750
0
VERTEX
8
CUT
10
111.5750
20
45.3750
0
VERTEX
8
CUT
10
111.7250
20
45.3000
0
VERTEX
8
CUT
10
111.7750
20
45.2750
0
VERTEX
8
CUT
10
111.7000
20
44.9250
0
VERTEX
8
CUT
10
111.6250
20
44.5500
0
VERTEX
8
CUT
10
111.5250
20
44.2000
0
VERTEX
8
CUT
10
111.4500
20
43.8250
0
VERTEX
8
CUT
10
111.3500
20
43.4750
0
VERTEX
8
CUT
10
111.2500
20
43.1250
0
VERTEX
8
CUT
10
111.1500
20
42.7750
0
VERTEX
8
CUT
10
111.0500
20
42.4250
0
VERTEX
8
CUT
10
110.9250
20
42.0750
0
VERTEX
8
CUT
10
110.8000
20
41.7250
0
VERTEX
8
CUT
10
110.6750
20
41.3750
0
VERTEX
8
CUT
10
110.5000
20
41.0250
0
VERTEX
8
CUT
10
110.3500
20
40.7000
0
VERTEX
8
CUT
10
110.1500
20
40.3750
0
VERTEX
8
CUT
10
109.9500
20
40.0750
0
VERTEX
8
CUT
10
109.7000
20
39.7750
0
VERTEX
8
CUT
10
109.4250
20
39.5250
0
VERTEX
8
CUT
10
109.1250
20
39.3250
0
VERTEX
8
CUT
10
108.8000
20
39.1500
0
VERTEX
8
CUT
10
108.4500
20
39.0250
0
VERTEX
8
CUT
10
108.0750
20
38.9750
0
VERTEX
8
CUT
10
107.7000
20
38.9500
0
VERTEX
8
CUT
10
107.3250
20
38.9750
0
VERTEX
8
CUT
10
106.9500
20
39.0250
0
VERTEX
8
CUT
10
106.6000
20
39.1000
0
VERTEX
8
CUT
10
106.2250
20
39.1750
0
VERTEX
8
CUT
10
105.8750
20
39.3000
0
VERTEX
8
CUT
10
105.5250
20
39.4250
0
VERTEX
8
CUT
10
105.1750
20
39.5500
0
VERTEX
8
CUT
10
104.8250
20
39.6750
0
VERTEX
8
CUT
10
104.4750
20
39.8250
0
VERTEX
8
CUT
10
104.1250
20
39.9750
0
VERTEX
8
CUT
10
103.8000
20
40.1250
0
VERTEX
8
CUT
10
103.4500
20
40.2750
0
VERTEX
8
CUT
10
103.2500
20
40.3750
0
VERTEX
8
CUT
10
103.2750
20
40.4500
0
VERTEX
8
CUT
10
103.3000
20
40.5000
0
VERTEX
8
CUT
10
103.3250
20
40.5750
0
VERTEX
8
CUT
10
103.3500
20
40.6250
0
VERTEX
8
CUT
10
103.3750
20
40.7000
0
VERTEX
8
CUT
10
103.4000
20
40.7500
0
VERTEX
8
CUT
10
103.4000
20
40.8250
0
VERTEX
8
CUT
10
103.4250
20
40.9000
0
VERTEX
8
CUT
10
103.4250
20
40.9500
0
VERTEX
8
CUT
10
103.4500
20
41.0250
0
VERTEX
8
CUT
10
103.4500
20
41.1000
0
VERTEX
8
CUT
10
103.4750
20
41.1750
0
VERTEX
8
CUT
10
103.4750
20
41.2250
0
VERTEX
8
CUT
10
103.4750
20
41.3000
0
VERTEX
8
CUT
10
103.4750
20
41.3250
0
VERTEX
8
CUT
10
103.4500
20
41.5750
0
VERTEX
8
CUT
10
103.4250
20
41.8000
0
VERTEX
8
CUT
10
103.3500
20
42.0250
0
VERTEX
8
CUT
10
103.2750
20
42.2250
0
VERTEX
8
CUT
10
103.1500
20
42.4250
0
VERTEX
8
CUT
10
103.0250
20
42.6250
0
VERTEX
8
CUT
10
102.8750
20
42.8000
0
VERTEX
8
CUT
10
102.7000
20
42.9500
0
VERTEX
8
CUT
10
102.5250
20
43.0750
0
VERTEX
8
CUT
10
102.3250
20
43.2000
0
VERTEX
8
CUT
10
102.1250
20
43.3000
0
VERTEX
8
CUT
10
101.9000
20
43.3500
0
VERTEX
8
CUT
10
101.6750
20
43.4000
0
VERTEX
8
CUT
10
101.4250
20
43.4250
0
VERTEX
8
CUT
10
101.3750
20
43.4250
0
VERTEX
8
CUT
10
101.1250
20
43.4250
0
VERTEX
8
CUT
10
100.9000
20
43.3750
0
VERTEX
8
CUT
10
100.6750
20
43.3250
0
VERTEX
8
CUT
10
100.4500
20
43.2250
0
VERTEX
8
CUT
10
100.2500
20
43.1250
0
VERTEX
8
CUT
10
100.0750
20
42.9750
0
VERTEX
8
CUT
10
99.9000
20
42.8500
0
VERTEX
8
CUT
10
99.7500
20
42.6750
0
VERTEX
8
CUT
10
99.6250
20
42.5000
0
VERTEX
8
CUT
10
99.5000
20
42.3000
0
VERTEX
8
CUT
10
99.4000
20
42.0750
0
VERTEX
8
CUT
10
99.3250
20
41.8750
0
VERTEX
8
CUT
10
99.2750
20
41.6250
0
VERTEX
8
CUT
10
99.2750
20
41.4000
0
VERTEX
8
CUT
10
99.2750
20
41.3250
0
VERTEX
8
CUT
10
99.2750
20
41.1000
0
VERTEX
8
CUT
10
99.3250
20
40.8500
0
VERTEX
8
CUT
10
99.3750
20
40.6250
0
VERTEX
8
CUT
10
99.4750
20
40.4250
0
VERTEX
8
CUT
10
99.5750
20
40.2250
0
VERTEX
8
CUT
10
99.7000
20
40.0250
0
VERTEX
8
CUT
10
99.8500
20
39.8750
0
VERTEX
8
CUT
10
100.0250
20
39.7000
0
VERTEX
8
CUT
10
100.2000
20
39.5750
0
VERTEX
8
CUT
10
100.4000
20
39.4500
0
VERTEX
8
CUT
10
100.6000
20
39.3750
0
VERTEX
8
CUT
10
100.8250
20
39.3000
0
VERTEX
8
CUT
10
101.0500
20
39.2500
0
VERTEX
8
CUT
10
101.3000
20
39.2250
0
VERTEX
8
CUT
10
101.3750
20
39.2250
0
VERTEX
8
CUT
10
101.4500
20
39.2250
0
VERTEX
8
CUT
10
101.5500
20
39.2250
0
VERTEX
8
CUT
10
101.6250
20
39.2500
0
VERTEX
8
CUT
10
101.7250
20
39.2500
0
VERTEX
8
CUT
10
101.8000
20
39.2750
0
VERTEX
8
CUT
10
101.9000
20
39.3000
0
VERTEX
8
CUT
10
101.9750
20
39.3000
0
VERTEX
8
CUT
10
102.0500
20
39.3500
0
VERTEX
8
CUT
10
102.1250
20
39.3750
0
VERTEX
8
CUT
10
102.2250
20
39.4000
0
VERTEX
8
CUT
10
102.3000
20
39.4250
0
VERTEX
8
CUT
10
102.3750
20
39.4750
0
VERTEX
8
CUT
10
102.4500
20
39.5250
0
VERTEX
8
CUT
10
102.5000
20
39.5500
0
VERTEX
8
CUT
10
102.5250
20
39.5750
0
VERTEX
8
CUT
10
102.7250
20
39.3000
0
VERTEX
8
CUT
10
102.9000
20
39.0000
0
VERTEX
8
CUT
10
103.1000
20
38.6750
0
VERTEX
8
CUT
10
103.3000
20
38.3500
0
VERTEX
8
CUT
10
103.5000
20
38.0500
0
VERTEX
8
CUT
10
103.6750
20
37.7250
0
VERTEX
8
CUT
10
103.8750
20
37.4000
0
VERTEX
8
CUT
10
104.0750
20
37.0750
0
VERTEX
8
CUT
10
104.2500
20
36.7500
0
VERTEX
8
CUT
10
104.4250
20
36.4250
0
VERTEX
8
CUT
10
104.5750
20
36.1000
0
VERTEX
8
CUT
10
104.7500
20
35.8000
0
VERTEX
8
CUT
10
104.7750
20
35.7250
0
SEQEND
0
POLYLINE
8
CUT
66
1
70
0
0
VERTEX
8
CUT
10
174.7000
20
31.5500
0
VERTEX
8
CUT
10
177.4250
20
32.1750
0
VERTEX
8
CUT
10
177.5000
20
32.2000
0
VERTEX
8
CUT
10
177.5750
20
32.2250
0
VERTEX
8
CUT
10
177.6250
20
32.2500
0
VERTEX
8
CUT
10
177.6750
20
32.2750
0
VERTEX
8
CUT
10
177.7250
20
32.3000
0
VERTEX
8
CUT
10
177.7750
20
32.3500
0
VERTEX
8
CUT
10
177.8250
20
32.3750
0
VERTEX
8
CUT
10
177.8750
20
32.4250
0
VERTEX
8
CUT
10
177.9250
20
32.4750
0
VERTEX
8
CUT
10
177.9500
20
32.5250
0
VERTEX
8
CUT
10
178.0000
20
32.5750
0
VERTEX
8
CUT
10
178.0250
20
32.6500
0
VERTEX
8
CUT
10
178.0500
20
32.7000
0
VERTEX
8
CUT
10
178.0750
20
32.7500
0
VERTEX
8
CUT
10
178.0750
20
32.7750
0
VERTEX
8
CUT
10
178.1000
20
32.8500
0
VERTEX
8
CUT
10
178.1250
20
32.9000
0
VERTEX
8
CUT
10
178.1250
20
32.9750
0
VERTEX
8
CUT
10
178.1250
20
33.0250
0
VERTEX
8
CUT
10
178.1250
20
33.1000
0
VERTEX
8
CUT
10
178.1250
20
33.1750
0
VERTEX
8
CUT
10
178.1250
20
33.2250
0
VERTEX
8
CUT
10
178.1000
20
33.3000
0
VERTEX
8
CUT
10
178.0750
20
33.3500
0
VERTEX
8
CUT
10
178.0750
20
33.4000
0
VERTEX
8
CUT
10
178.0250
20
33.4750
0
VERTEX
8
CUT
10
178.0000
20
33.5250
0
VERTEX
8
CUT
10
177.9750
20
33.5750
0
VERTEX
8
CUT
10
177.9250
20
33.6250
0
VERTEX
8
CUT
10
177.9250
20
33.6500
0
VERTEX
8
CUT
10
173.2750
20
39.0000
0
VERTEX
8
CUT
10
173.2500
20
39.0500
0
VERTEX
8
CUT
10
173.2250
20
39.1000
0
VERTEX
8
CUT
10
173.2000
20
39.1250
0
VERTEX
8
CUT
10
173.1750
20
39.1750
0
VERTEX
8
CUT
10
173.1500
20
39.2250
0
VERTEX
8
CUT
10
173.1250
20
39.2750
0
VERTEX
8
CUT
10
173.1000
20
39.3000
0
VERTEX
8
CUT
10
173.1000
20
39.3500
0
VERTEX
8
CUT
10
173.0750
20
39.4000
0
VERTEX
8
CUT
10
173.0750
20
39.4500
0
VERTEX
8
CUT
10
173.0750
20
39.5000
0
VERTEX
8
CUT
10
173.0750
20
39.5500
0
VERTEX
8
CUT
10
173.0750
20
39.6000
0
VERTEX
8
CUT
10
173.0750
20
39.6500
0
VERTEX
8
CUT
10
173.0750
20
39.6750
0
VERTEX
8
CUT
10
173.6500
20
46.7250
0
VERTEX
8
CUT
10
173.6750
20
46.8000
0
VERTEX
8
CUT
10
173.6750
20
46.8500
0
VERTEX
8
CUT
10
173.6500
20
46.9250
0
VERTEX
8
CUT
10
173.6500
20
47.0000
0
VERTEX
8
CUT
10
173.6250
20
47.0500
0
VERTEX
8
CUT
10
173.6250
20
47.1000
0
VERTEX
8
CUT
10
173.6000
20
47.1750
0
VERTEX
8
CUT
10
173.5500
20
47.2250
0
VERTEX
8
CUT
10
173.5250
20
47.2750
0
VERTEX
8
CUT
10
173.5000
20
47.3250
0
VERTEX
8
CUT
10
173.4500
20
47.3750
0
VERTEX
8
CUT
10
173.4000
20
47.4250
0
VERTEX
8
CUT
10
173.3500
20
47.4750
0
VERTEX
8
CUT
10
173.3000
20
47.5250
0
VERTEX
8
CUT
10
173.3000
20
47.5250
0
VERTEX
8
CUT
10
173.2500
20
47.5750
0
VERTEX
8
CUT
10
173.1750
20
47.6000
0
VERTEX
8
CUT
10
173.1250
20
47.6250
0
VERTEX
8
CUT
10
173.0750
20
47.6500
0
VERTEX
8
CUT
10
173.0000
20
47.6750
0
VERTEX
8
CUT
10
172.9500
20
47.7000
0
VERTEX
8
CUT
10
172.8750
20
47.7000
0
VERTEX
8
CUT
10
172.8250
20
47.7000
0
VERTEX
8
CUT
10
172.7500
20
47.7000
0
VERTEX
8
CUT
10
172.7000
20
47.7000
0
VERTEX
8
CUT
10
172.6250
20
47.7000
0
VERTEX
8
CUT
10
172.5500
20
47.6750
0
VERTEX
8
CUT
10
172.5000
20
47.6750
0
VERTEX
8
CUT
10
172.4250
20
47.6500
0
VERTEX
8
CUT
10
172.4250
20
47.6250
0
VERTEX
8
CUT
10
165.8750
20
44.9000
0
VERTEX
8
CUT
10
165.8500
20
44.8750
0
VERTEX
8
CUT
10
165.8000
20
44.8500
0
VERTEX
8
CUT
10
165.7500
20
44.8500
0
VERTEX
8
CUT
10
165.7000
20
44.8250
0
VERTEX
8
CUT
10
165.6500
20
44.8250
0
VERTEX
8
CUT
10
165.6000
20
44.8250
0
VERTEX
8
CUT
10
165.5500
20
44.8250
0
VERTEX
8
CUT
10
165.5000
20
44.8250
0
VERTEX
8
CUT
10
165.4500
20
44.8250
0
VERTEX
8
CUT
10
165.4000
20
44.8250
0
VERTEX
8
CUT
10
165.3500
20
44.8250
0
VERTEX
8
CUT
10
165.3000
20
44.8500
0
VERTEX
8
CUT
10
165.2500
20
44.8750
0
VERTEX
8
CUT
10
165.2000
20
44.8750
0
VERTEX
8
CUT
10
165.2000
20
44.9000
0
VERTEX
8
CUT
10
162.6500
20
45.9500
0
SEQEND
0
POLYLINE
8
CUT
66
1
70
0
0
VERTEX
8
CUT
10
159.2750
20
30.8500
0
VERTEX
8
CUT
10
160.5250
20
30.5750
0
VERTEX
8
CUT
10
160.5750
20
30.5500
0
VERTEX
8
CUT
10
160.6250
20
30.5250
0
VERTEX
8
CUT
10
160.6750
20
30.5250
0
VERTEX
8
CUT
10
160.7250
20
30.5000
0
VERTEX
8
CUT
10
160.7750
20
30.4750
0
VERTEX
8
CUT
10
160.8250
20
30.4500
0
VERTEX
8
CUT
10
160.8500
20
30.4250
0
VERTEX
8
CUT
10
160.9000
20
30.4000
0
VERTEX
8
CUT
10
160.9250
20
30.3500
0
VERTEX
8
CUT
10
160.9750
20
30.3250
0
VERTEX
8
CUT
10
161.0000
20
30.3000
0
VERTEX
8
CUT
10
161.0250
20
30.2500
0
VERTEX
8
CUT
10
161.0500
20
30.2000
0
VERTEX
8
CUT
10
161.1000
20
30.1750
0
VERTEX
8
CUT
10
161.1000
20
30.1500
0
VERTEX
8
CUT
10
164.7750
20
24.1000
0
VERTEX
8
CUT
10
164.8000
20
24.0500
0
VERTEX
8
CUT
10
164.8500
20
23.9750
0
VERTEX
8
CUT
10
164.8750
20
23.9250
0
VERTEX
8
CUT
10
164.9250
20
23.9000
0
VERTEX
8
CUT
10
164.9750
20
23.8500
0
VERTEX
8
CUT
10
165.0250
20
23.8250
0
VERTEX
8
CUT
10
165.0750
20
23.7750
0
VERTEX
8
CUT
10
165.1500
20
23.7500
0
VERTEX
8
CUT
10
165.2000
20
23.7250
0
VERTEX
8
CUT
10
165.2500
20
23.7000
0
VERTEX
8
CUT
10
165.3250
20
23.6750
0
VERTEX
8
CUT
10
165.3750
20
23.6750
0
VERTEX
8
CUT
10
165.4500
20
23.6750
0
VERTEX
8
CUT
10
165.5250
20
23.6500
0
VERTEX
8
CUT
10
165.5500
20
23.6500
0
VERTEX
8
CUT
10
165.6000
20
23.6750
0
VERTEX
8
CUT
10
165.6750
20
23.6750
0
VERTEX
8
CUT
10
165.7250
20
23.6750
0
VERTEX
8
CUT
10
165.8000
20
23.7000
0
VERTEX
8
CUT
10
165.8500
20
23.7250
0
VERTEX
8
CUT
10
165.9250
20
23.7500
0
VERTEX
8
CUT
10
165.9750
20
23.7750
0
VERTEX
8
CUT
10
166.0250
20
23.8000
0
VERTEX
8
CUT
10
166.0750
20
23.8500
0
VERTEX
8
CUT
10
166.1250
20
23.8750
0
VERTEX
8
CUT
10
166.1750
20
23.9250
0
VERTEX
8
CUT
10
166.2250
20
23.9750
0
VERTEX
8
CUT
10
166.2500
20
24.0250
0
VERTEX
8
CUT
10
166.3000
20
24.0750
0
VERTEX
8
CUT
10
166.3000
20
24.1000
0
VERTEX
8
CUT
10
169.9750
20
30.1500
0
VERTEX
8
CUT
10
170.0000
20
30.2000
0
VERTEX
8
CUT
10
170.0250
20
30.2500
0
VERTEX
8
CUT
10
170.0750
20
30.2750
0
VERTEX
8
CUT
10
170.1000
20
30.3250
0
VERTEX
8
CUT
10
170.1250
20
30.3500
0
VERTEX
8
CUT
10
170.1750
20
30.3750
0
VERTEX
8
CUT
10
170.2000
20
30.4000
0
VERTEX
8
CUT
10
170.2500
20
30.4500
0
VERTEX
8
CUT
10
170.3000
20
30.4750
0
VERTEX
8
CUT
10
170.3250
20
30.5000
0
VERTEX
8
CUT
10
170.3750
20
30.5000
0
VERTEX
8
CUT
10
170.4250
20
30.5250
0
VERTEX
8
CUT
10
170.4750
20
30.5500
0
VERTEX
8
CUT
10
170.5250
20
30.5500
0
VERTEX
8
CUT
10
170.5500
20
30.5750
0
VERTEX
8
CUT
10
173.5500
20
31.2750
0
SEQEND
0
POLYLINE
8
CUT
66
1
70
0
0
VERTEX
8
CUT
10
130.0500
20
138.7000
0
VERTEX
8
CUT
10
131.2500
20
138.7000
0
SEQEND
0
POLYLINE
8
CUT
66
1
70
0
0
VERTEX
8
CUT
10
146.0750
20
138.8750
0
VERTEX
8
CUT
10
147.3250
20
138.8750
0
SEQEND
0
POLYLINE
8
CUT
66
1
70
0
0
VERTEX
8
CUT
10
264.5000
20
138.8750
0
VERTEX
8
CUT
10
263.2250
20
138.8750
0
SEQEND
0
POLYLINE
8
CUT
66
1
70
0
0
VERTEX
8
CUT
10
367.7750
20
36.2750
0
VERTEX
8
CUT
10
367.8000
20
34.9750
0
SEQEND
0
POLYLINE
8
CUT
66
1
70
0
0
VERTEX
8
CUT
10
275.7750
20
34.7250
0
VERTEX
8
CUT
10
275.8000
20
33.4000
0
SEQEND
0
POLYLINE
8
CUT
66
1
70
0
0
VERTEX
8
CUT
10
13.9750
20
138.7000
0
VERTEX
8
CUT
10
12.5500
20
138.7000
0
SEQEND
0
POLYLINE
8
CUT
66
1
70
0
0
VERTEX
8
CUT
10
137.0750
20
188.7750
0
VERTEX
8
CUT
10
137.0750
20
186.0000
0
SEQEND
0
POLYLINE
8
CUT
66
1
70
0
0
VERTEX
8
CUT
10
7.0750
20
189.5750
0
VERTEX
8
CUT
10
7.0750
20
186.4500
0
SEQEND
0
POLYLINE
8
CUT
66
1
70
0
0
VERTEX
8
CUT
10
204.9000
20
210.5250
0
VERTEX
8
CUT
10
204.9000
20
209.1000
0
SEQEND
0
POLYLINE
8
CUT
66
1
70
0
0
VERTEX
8
CUT
10
142.3250
20
204.6000
0
VERTEX
8
CUT
10
142.3250
20
206.1500
0
SEQEND
0
POLYLINE
8
CUT
66
1
70
0
0
VERTEX
8
CUT
10
204.9000
20
288.1000
0
VERTEX
8
CUT
10
204.9000
20
289.5250
0
SEQEND
0
POLYLINE
8
CUT
66
1
70
0
0
VERTEX
8
CUT
10
142.3000
20
291.8000
0
VERTEX
8
CUT
10
142.3000
20
293.5500
0
SEQEND
0
POLYLINE
8
CUT
66
1
70
0
0
VERTEX
8
CUT
10
270.3750
20
145.8500
0
VERTEX
8
CUT
10
270.3750
20
144.2750
0
SEQEND
0
POLYLINE
8
CUT
66
1
70
0
0
VERTEX
8
CUT
10
137.0750
20
134.5000
0
VERTEX
8
CUT
10
137.0750
20
187.1750
0
SEQEND
0
POLYLINE
8
CUT
66
1
70
0
0
VERTEX
8
CUT
10
17.0370
20
198.2500
0
VERTEX
8
CUT
10
15.2180
20
198.2500
0
VERTEX
8
CUT
10
15.2180
20
138.7000
0
VERTEX
8
CUT
10
14.3380
20
138.7000
0
SEQEND
0
POLYLINE
8
CUT
66
1
70
0
0
VERTEX
8
CUT
10
127.5250
20
198.2500
0
VERTEX
8
CUT
10
119.6750
20
198.2500
0
SEQEND
0
POLYLINE
8
CUT
66
1
70
0
0
VERTEX
8
CUT
10
118.9750
20
198.2500
0
VERTEX
8
CUT
10
98.9000
20
198.2500
0
SEQEND
0
POLYLINE
8
CUT
66
1
70
0
0
VERTEX
8
CUT
10
98.6000
20
198.9000
0
VERTEX
8
CUT
10
90.9500
20
198.9000
0
VERTEX
8
CUT
10
90.9500
20
201.6000
0
VERTEX
8
CUT
10
72.8750
20
201.6000
0
SEQEND
0
POLYLINE
8
CUT
66
1
70
0
0
VERTEX
8
CUT
10
258.0500
20
198.4000
0
VERTEX
8
CUT
10
255.3500
20
198.4000
0
SEQEND
0
POLYLINE
8
CUT
66
1
70
0
0
VERTEX
8
CUT
10
255.0500
20
198.4000
0
VERTEX
8
CUT
10
246.4750
20
198.4000
0
SEQEND
0
POLYLINE
8
CUT
66
1
70
0
0
VERTEX
8
CUT
10
149.8380
20
198.4000
0
VERTEX
8
CUT
10
148.3620
20
198.4000
0
VERTEX
8
CUT
10
148.3620
20
138.8750
0
VERTEX
8
CUT
10
147.1370
20
138.8750
0
SEQEND
0
POLYLINE
8
CUT
66
1
70
0
0
VERTEX
8
CUT
10
174.0000
20
198.4000
0
VERTEX
8
CUT
10
158.1750
20
198.4000
0
SEQEND
0
POLYLINE
8
CUT
66
1
70
0
0
VERTEX
8
CUT
10
212.0250
20
203.1500
0
VERTEX
8
CUT
10
211.8000
20
203.1500
0
VERTEX
8
CUT
10
211.4500
20
203.1500
0
VERTEX
8
CUT
10
211.0750
20
203.1500
0
VERTEX
8
CUT
10
210.7250
20
203.1500
0
VERTEX
8
CUT
10
210.3500
20
203.1500
0
VERTEX
8
CUT
10
210.0000
20
203.1500
0
VERTEX
8
CUT
10
209.6250
20
203.1500
0
VERTEX
8
CUT
10
209.2750
20
203.1500
0
VERTEX
8
CUT
10
208.9000
20
203.1500
0
VERTEX
8
CUT
10
208.5500
20
203.1500
0
VERTEX
8
CUT
10
208.1750
20
203.1500
0
VERTEX
8
CUT
10
207.8250
20
203.1500
0
VERTEX
8
CUT
10
207.4500
20
203.1500
0
VERTEX
8
CUT
10
207.1000
20
203.1500
0
VERTEX
8
CUT
10
206.7250
20
203.1500
0
VERTEX
8
CUT
10
206.3750
20
203.1500
0
VERTEX
8
CUT
10
206.0000
20
203.1500
0
VERTEX
8
CUT
10
205.6500
20
203.1500
0
VERTEX
8
CUT
10
205.2750
20
203.1500
0
VERTEX
8
CUT
10
204.9250
20
203.1500
0
VERTEX
8
CUT
10
204.5500
20
203.1500
0
VERTEX
8
CUT
10
204.2000
20
203.1500
0
VERTEX
8
CUT
10
203.8250
20
203.1500
0
VERTEX
8
CUT
10
203.4750
20
203.1500
0
VERTEX
8
CUT
10
203.1000
20
203.1500
0
VERTEX
8
CUT
10
202.7500
20
203.1500
0
VERTEX
8
CUT
10
202.3750
20
203.1500
0
VERTEX
8
CUT
10
202.0250
20
203.1500
0
VERTEX
8
CUT
10
201.6500
20
203.1500
0
VERTEX
8
CUT
10
201.2750
20
203.1500
0
VERTEX
8
CUT
10
200.9250
20
203.1500
0
VERTEX
8
CUT
10
200.5500
20
203.1500
0
VERTEX
8
CUT
10
200.2000
20
203.1500
0
VERTEX
8
CUT
10
199.8250
20
203.1500
0
VERTEX
8
CUT
10
199.4750
20
203.1500
0
VERTEX
8
CUT
10
199.1000
20
203.1500
0
VERTEX
8
CUT
10
198.7500
20
203.1500
0
VERTEX
8
CUT
10
198.3750
20
203.1500
0
VERTEX
8
CUT
10
198.0000
20
203.1500
0
VERTEX
8
CUT
10
197.6500
20
203.1500
0
VERTEX
8
CUT
10
197.2750
20
203.1500
0
VERTEX
8
CUT
10
196.9250
20
203.1500
0
VERTEX
8
CUT
10
196.5500
20
203.1500
0
VERTEX
8
CUT
10
196.1750
20
203.1500
0
VERTEX
8
CUT
10
195.8250
20
203.1500
0
VERTEX
8
CUT
10
195.4500
20
203.1500
0
VERTEX
8
CUT
10
195.1000
20
203.1500
0
VERTEX
8
CUT
10
194.7250
20
203.1500
0
VERTEX
8
CUT
10
194.3750
20
203.1500
0
VERTEX
8
CUT
10
194.0000
20
203.1500
0
VERTEX
8
CUT
10
193.6250
20
203.1500
0
VERTEX
8
CUT
10
193.2750
20
203.1500
0
VERTEX
8
CUT
10
192.9000
20
203.1500
0
VERTEX
8
CUT
10
192.5500
20
203.1500
0
VERTEX
8
CUT
10
192.1750
20
203.1500
0
VERTEX
8
CUT
10
191.8000
20
203.1500
0
VERTEX
8
CUT
10
191.4500
20
203.1500
0
VERTEX
8
CUT
10
191.0750
20
203.1500
0
VERTEX
8
CUT
10
190.7250
20
203.1500
0
VERTEX
8
CUT
10
190.3500
20
203.1500
0
VERTEX
8
CUT
10
189.9750
20
203.1500
0
VERTEX
8
CUT
10
189.6250
20
203.1500
0
VERTEX
8
CUT
10
189.2500
20
203.1500
0
VERTEX
8
CUT
10
188.8750
20
203.1500
0
VERTEX
8
CUT
10
188.5250
20
203.1500
0
VERTEX
8
CUT
10
188.1500
20
203.1500
0
VERTEX
8
CUT
10
187.8000
20
203.1500
0
VERTEX
8
CUT
10
187.4250
20
203.1500
0
VERTEX
8
CUT
10
187.0500
20
203.1500
0
VERTEX
8
CUT
10
186.7000
20
203.1500
0
VERTEX
8
CUT
10
186.3250
20
203.1500
0
VERTEX
8
CUT
10
185.9750
20
203.1500
0
VERTEX
8
CUT
10
185.6000
20
203.1500
0
VERTEX
8
CUT
10
185.2250
20
203.1500
0
VERTEX
8
CUT
10
184.8750
20
203.1500
0
VERTEX
8
CUT
10
184.5000
20
203.1500
0
VERTEX
8
CUT
10
184.1250
20
203.1500
0
VERTEX
8
CUT
10
183.7750
20
203.1500
0
VERTEX
8
CUT
10
183.4000
20
203.1500
0
VERTEX
8
CUT
10
183.0250
20
203.1500
0
VERTEX
8
CUT
10
182.6750
20
203.1500
0
VERTEX
8
CUT
10
182.3000
20
203.1500
0
VERTEX
8
CUT
10
181.9500
20
203.1500
0
VERTEX
8
CUT
10
181.5750
20
203.1500
0
VERTEX
8
CUT
10
181.2000
20
203.1500
0
VERTEX
8
CUT
10
180.8500
20
203.1500
0
VERTEX
8
CUT
10
180.4750
20
203.1500
0
VERTEX
8
CUT
10
180.1000
20
203.1500
0
VERTEX
8
CUT
10
179.7500
20
203.1500
0
VERTEX
8
CUT
10
179.3750
20
203.1500
0
VERTEX
8
CUT
10
179.0000
20
203.1500
0
VERTEX
8
CUT
10
178.6500
20
203.1500
0
VERTEX
8
CUT
10
178.2750
20
203.1500
0
VERTEX
8
CUT
10
177.9000
20
203.1500
0
VERTEX
8
CUT
10
177.5500
20
203.1500
0
VERTEX
8
CUT
10
177.1750
20
203.1500
0
VERTEX
8
CUT
10
176.8250
20
203.1500
0
VERTEX
8
CUT
10
176.4500
20
203.1500
0
VERTEX
8
CUT
10
176.0750
20
203.1500
0
VERTEX
8
CUT
10
175.7250
20
203.1500
0
VERTEX
8
CUT
10
175.3500
20
203.1500
0
VERTEX
8
CUT
10
174.9750
20
203.1500
0
VERTEX
8
CUT
10
174.6250
20
203.1500
0
VERTEX
8
CUT
10
174.2500
20
203.1500
0
VERTEX
8
CUT
10
173.8750
20
203.1500
0
VERTEX
8
CUT
10
173.5250
20
203.1500
0
VERTEX
8
CUT
10
173.1500
20
203.1500
0
VERTEX
8
CUT
10
172.7750
20
203.1500
0
VERTEX
8
CUT
10
172.4250
20
203.1500
0
VERTEX
8
CUT
10
172.0500
20
203.1500
0
VERTEX
8
CUT
10
171.6750
20
203.1500
0
VERTEX
8
CUT
10
171.3250
20
203.1500
0
VERTEX
8
CUT
10
170.9500
20
203.1500
0
VERTEX
8
CUT
10
170.5750
20
203.1500
0
VERTEX
8
CUT
10
170.2250
20
203.1500
0
VERTEX
8
CUT
10
169.8500
20
203.1500
0
VERTEX
8
CUT
10
169.4750
20
203.1500
0
VERTEX
8
CUT
10
169.1250
20
203.1500
0
VERTEX
8
CUT
10
168.7500
20
203.1500
0
VERTEX
8
CUT
10
168.3750
20
203.1500
0
VERTEX
8
CUT
10
168.0250
20
203.1500
0
VERTEX
8
CUT
10
167.6500
20
203.1500
0
VERTEX
8
CUT
10
167.2750
20
203.1500
0
VERTEX
8
CUT
10
166.9250
20
203.1500
0
VERTEX
8
CUT
10
166.5500
20
203.1500
0
VERTEX
8
CUT
10
166.1750
20
203.1500
0
VERTEX
8
CUT
10
165.8250
20
203.1500
0
VERTEX
8
CUT
10
165.4500
20
203.1500
0
VERTEX
8
CUT
10
165.1000
20
203.1500
0
VERTEX
8
CUT
10
164.7250
20
203.1500
0
VERTEX
8
CUT
10
164.3500
20
203.1500
0
VERTEX
8
CUT
10
164.0000
20
203.1500
0
VERTEX
8
CUT
10
163.6250
20
203.1500
0
VERTEX
8
CUT
10
163.2500
20
203.1500
0
VERTEX
8
CUT
10
162.9000
20
203.1500
0
VERTEX
8
CUT
10
162.5250
20
203.1500
0
VERTEX
8
CUT
10
162.1500
20
203.1500
0
VERTEX
8
CUT
10
161.8000
20
203.1500
0
VERTEX
8
CUT
10
161.4250
20
203.1500
0
VERTEX
8
CUT
10
161.0500
20
203.1500
0
VERTEX
8
CUT
10
160.7000
20
203.1500
0
VERTEX
8
CUT
10
160.3250
20
203.1500
0
VERTEX
8
CUT
10
159.9500
20
203.1500
0
VERTEX
8
CUT
10
159.6000
20
203.1500
0
VERTEX
8
CUT
10
159.2250
20
203.1500
0
VERTEX
8
CUT
10
158.8500
20
203.1500
0
VERTEX
8
CUT
10
158.5000
20
203.1500
0
VERTEX
8
CUT
10
158.1250
20
203.1500
0
VERTEX
8
CUT
10
157.7500
20
203.1500
0
VERTEX
8
CUT
10
157.4000
20
203.1500
0
VERTEX
8
CUT
10
157.0250
20
203.1500
0
VERTEX
8
CUT
10
156.6750
20
203.1500
0
VERTEX
8
CUT
10
156.3000
20
203.1500
0
VERTEX
8
CUT
10
155.9250
20
203.1500
0
VERTEX
8
CUT
10
155.5750
20
203.1500
0
VERTEX
8
CUT
10
155.2000
20
203.1500
0
VERTEX
8
CUT
10
154.8250
20
203.1500
0
VERTEX
8
CUT
10
154.4750
20
203.1500
0
VERTEX
8
CUT
10
154.1000
20
203.1500
0
VERTEX
8
CUT
10
153.7250
20
203.1500
0
VERTEX
8
CUT
10
153.3750
20
203.1500
0
VERTEX
8
CUT
10
153.0000
20
203.1500
0
VERTEX
8
CUT
10
152.6500
20
203.1500
0
VERTEX
8
CUT
10
152.2750
20
203.1500
0
VERTEX
8
CUT
10
151.9000
20
203.1500
0
VERTEX
8
CUT
10
151.5500
20
203.1500
0
VERTEX
8
CUT
10
151.1750
20
203.1500
0
VERTEX
8
CUT
10
150.8000
20
203.1500
0
VERTEX
8
CUT
10
150.4500
20
203.1500
0
VERTEX
8
CUT
10
150.0750
20
203.1500
0
VERTEX
8
CUT
10
149.7250
20
203.1500
0
VERTEX
8
CUT
10
149.3500
20
203.1500
0
VERTEX
8
CUT
10
148.9750
20
203.1500
0
VERTEX
8
CUT
10
148.6250
20
203.1500
0
VERTEX
8
CUT
10
148.2500
20
203.1500
0
VERTEX
8
CUT
10
147.8750
20
203.1500
0
VERTEX
8
CUT
10
147.5250
20
203.1500
0
VERTEX
8
CUT
10
147.1500
20
203.1500
0
VERTEX
8
CUT
10
146.8000
20
203.1500
0
VERTEX
8
CUT
10
146.4250
20
203.1500
0
VERTEX
8
CUT
10
146.0500
20
203.1500
0
VERTEX
8
CUT
10
145.7000
20
203.1500
0
VERTEX
8
CUT
10
145.3250
20
203.1500
0
VERTEX
8
CUT
10
144.9750
20
203.1500
0
VERTEX
8
CUT
10
144.6000
20
203.1500
0
VERTEX
8
CUT
10
144.2250
20
203.1500
0
VERTEX
8
CUT
10
143.8750
20
203.1500
0
VERTEX
8
CUT
10
143.5000
20
203.1500
0
VERTEX
8
CUT
10
143.1500
20
203.1500
0
VERTEX
8
CUT
10
142.7750
20
203.1500
0
VERTEX
8
CUT
10
142.4000
20
203.1500
0
VERTEX
8
CUT
10
142.3250
20
203.1500
0
VERTEX
8
CUT
10
142.3250
20
204.7000
0
SEQEND
0
POLYLINE
8
CUT
66
1
70
0
0
VERTEX
8
CUT
10
235.6750
20
203.1500
0
VERTEX
8
CUT
10
235.4750
20
203.1500
0
VERTEX
8
CUT
10
235.1250
20
203.1500
0
VERTEX
8
CUT
10
234.7750
20
203.1500
0
VERTEX
8
CUT
10
234.4000
20
203.1500
0
VERTEX
8
CUT
10
234.0500
20
203.1500
0
VERTEX
8
CUT
10
233.7000
20
203.1500
0
VERTEX
8
CUT
10
233.3500
20
203.1500
0
VERTEX
8
CUT
10
233.0000
20
203.1500
0
VERTEX
8
CUT
10
232.6250
20
203.1500
0
VERTEX
8
CUT
10
232.2750
20
203.1500
0
VERTEX
8
CUT
10
231.9250
20
203.1500
0
VERTEX
8
CUT
10
231.5750
20
203.1500
0
VERTEX
8
CUT
10
231.2000
20
203.1500
0
VERTEX
8
CUT
10
230.8500
20
203.1500
0
VERTEX
8
CUT
10
230.5000
20
203.1500
0
VERTEX
8
CUT
10
230.1500
20
203.1500
0
VERTEX
8
CUT
10
229.7750
20
203.1500
0
VERTEX
8
CUT
10
229.4250
20
203.1500
0
VERTEX
8
CUT
10
229.0750
20
203.1500
0
VERTEX
8
CUT
10
228.7000
20
203.1500
0
VERTEX
8
CUT
10
228.3500
20
203.1500
0
VERTEX
8
CUT
10
228.0000
20
203.1500
0
VERTEX
8
CUT
10
227.6250
20
203.1500
0
VERTEX
8
CUT
10
227.2750
20
203.1500
0
VERTEX
8
CUT
10
226.9250
20
203.1500
0
VERTEX
8
CUT
10
226.5750
20
203.1500
0
VERTEX
8
CUT
10
226.2000
20
203.1500
0
VERTEX
8
CUT
10
225.8500
20
203.1500
0
VERTEX
8
CUT
10
225.5000
20
203.1500
0
VERTEX
8
CUT
10
225.1250
20
203.1500
0
VERTEX
8
CUT
10
224.7750
20
203.1500
0
VERTEX
8
CUT
10
224.4250
20
203.1500
0
VERTEX
8
CUT
10
224.0500
20
203.1500
0
VERTEX
8
CUT
10
223.7000
20
203.1500
0
VERTEX
8
CUT
10
223.3500
20
203.1500
0
VERTEX
8
CUT
10
222.9750
20
203.1500
0
VERTEX
8
CUT
10
222.6250
20
203.1500
0
VERTEX
8
CUT
10
222.2500
20
203.1500
0
VERTEX
8
CUT
10
221.9000
20
203.1500
0
VERTEX
8
CUT
10
221.5500
20
203.1500
0
VERTEX
8
CUT
10
221.1750
20
203.1500
0
VERTEX
8
CUT
10
220.8250
20
203.1500
0
VERTEX
8
CUT
10
220.4750
20
203.1500
0
VERTEX
8
CUT
10
220.1000
20
203.1500
0
VERTEX
8
CUT
10
219.7500
20
203.1500
0
VERTEX
8
CUT
10
219.3750
20
203.1500
0
VERTEX
8
CUT
10
219.0250
20
203.1500
0
VERTEX
8
CUT
10
218.6750
20
203.1500
0
VERTEX
8
CUT
10
218.3000
20
203.1500
0
VERTEX
8
CUT
10
217.9500
20
203.1500
0
VERTEX
8
CUT
10
217.5750
20
203.1500
0
VERTEX
8
CUT
10
217.2250
20
203.1500
0
VERTEX
8
CUT
10
216.8750
20
203.1500
0
VERTEX
8
CUT
10
216.5000
20
203.1500
0
VERTEX
8
CUT
10
216.1500
20
203.1500
0
VERTEX
8
CUT
10
215.7750
20
203.1500
0
VERTEX
8
CUT
10
215.4250
20
203.1500
0
VERTEX
8
CUT
10
215.0500
20
203.1500
0
VERTEX
8
CUT
10
214.7000
20
203.1500
0
VERTEX
8
CUT
10
214.3250
20
203.1500
0
VERTEX
8
CUT
10
213.9750
20
203.1500
0
VERTEX
8
CUT
10
213.6250
20
203.1500
0
VERTEX
8
CUT
10
213.2500
20
203.1500
0
VERTEX
8
CUT
10
213.0500
20
203.1500
0
SEQEND
0
POLYLINE
8
CUT
66
1
70
0
0
VERTEX
8
CUT
10
208.2500
20
295.1500
0
VERTEX
8
CUT
10
208.4500
20
295.1500
0
VERTEX
8
CUT
10
208.8250
20
295.1500
0
VERTEX
8
CUT
10
209.1750
20
295.1500
0
VERTEX
8
CUT
10
209.4000
20
295.1500
0
SEQEND
0
POLYLINE
8
CUT
66
1
70
0
0
VERTEX
8
CUT
10
216.1000
20
295.1500
0
VERTEX
8
CUT
10
216.4000
20
295.1500
0
VERTEX
8
CUT
10
216.7750
20
295.1500
0
VERTEX
8
CUT
10
217.1250
20
295.1500
0
VERTEX
8
CUT
10
217.5000
20
295.1500
0
VERTEX
8
CUT
10
217.8500
20
295.1500
0
VERTEX
8
CUT
10
218.2000
20
295.1500
0
VERTEX
8
CUT
10
218.5750
20
295.1500
0
VERTEX
8
CUT
10
218.7750
20
295.1500
0
SEQEND
0
POLYLINE
8
CUT
66
1
70
0
0
VERTEX
8
CUT
10
219.0750
20
295.1500
0
VERTEX
8
CUT
10
219.3000
20
295.1500
0
VERTEX
8
CUT
10
219.6500
20
295.1500
0
VERTEX
8
CUT
10
220.0000
20
295.1500
0
VERTEX
8
CUT
10
220.3750
20
295.1500
0
VERTEX
8
CUT
10
220.7250
20
295.1500
0
VERTEX
8
CUT
10
221.1000
20
295.1500
0
VERTEX
8
CUT
10
221.4500
20
295.1500
0
VERTEX
8
CUT
10
221.8000
20
295.1500
0
VERTEX
8
CUT
10
222.1750
20
295.1500
0
VERTEX
8
CUT
10
222.5250
20
295.1500
0
VERTEX
8
CUT
10
222.8750
20
295.1500
0
VERTEX
8
CUT
10
223.2500
20
295.1500
0
VERTEX
8
CUT
10
223.6000
20
295.1500
0
VERTEX
8
CUT
10
223.9750
20
295.1500
0
VERTEX
8
CUT
10
224.3250
20
295.1500
0
VERTEX
8
CUT
10
224.6750
20
295.1500
0
VERTEX
8
CUT
10
225.0500
20
295.1500
0
VERTEX
8
CUT
10
225.4000
20
295.1500
0
VERTEX
8
CUT
10
225.7500
20
295.1500
0
VERTEX
8
CUT
10
226.1250
20
295.1500
0
VERTEX
8
CUT
10
226.4750
20
295.1500
0
VERTEX
8
CUT
10
226.8250
20
295.1500
0
VERTEX
8
CUT
10
227.2000
20
295.1500
0
VERTEX
8
CUT
10
227.5500
20
295.1500
0
VERTEX
8
CUT
10
227.9000
20
295.1500
0
VERTEX
8
CUT
10
228.2500
20
295.1500
0
VERTEX
8
CUT
10
228.6250
20
295.1500
0
VERTEX
8
CUT
10
228.9750
20
295.1500
0
VERTEX
8
CUT
10
229.3250
20
295.1500
0
VERTEX
8
CUT
10
229.7000
20
295.1500
0
VERTEX
8
CUT
10
230.0500
20
295.1500
0
VERTEX
8
CUT
10
230.4000
20
295.1500
0
VERTEX
8
CUT
10
230.7500
20
295.1500
0
VERTEX
8
CUT
10
231.1250
20
295.1500
0
VERTEX
8
CUT
10
231.4750
20
295.1500
0
VERTEX
8
CUT
10
231.8250
20
295.1500
0
VERTEX
8
CUT
10
232.1750
20
295.1500
0
VERTEX
8
CUT
10
232.5500
20
295.1500
0
VERTEX
8
CUT
10
232.9000
20
295.1500
0
VERTEX
8
CUT
10
233.2500
20
295.1500
0
VERTEX
8
CUT
10
233.6000
20
295.1500
0
VERTEX
8
CUT
10
233.9750
20
295.1500
0
VERTEX
8
CUT
10
234.3250
20
295.1500
0
VERTEX
8
CUT
10
234.6750
20
295.1500
0
VERTEX
8
CUT
10
235.0250
20
295.1500
0
VERTEX
8
CUT
10
235.3750
20
295.1500
0
VERTEX
8
CUT
10
235.7500
20
295.1500
0
VERTEX
8
CUT
10
236.1000
20
295.1500
0
VERTEX
8
CUT
10
236.4500
20
295.1500
0
VERTEX
8
CUT
10
236.8000
20
295.1500
0
VERTEX
8
CUT
10
237.1500
20
295.1500
0
VERTEX
8
CUT
10
237.5250
20
295.1500
0
VERTEX
8
CUT
10
237.8750
20
295.1500
0
VERTEX
8
CUT
10
238.2250
20
295.1500
0
VERTEX
8
CUT
10
238.5750
20
295.1500
0
VERTEX
8
CUT
10
238.9250
20
295.1500
0
VERTEX
8
CUT
10
239.2750
20
295.1500
0
VERTEX
8
CUT
10
239.6250
20
295.1500
0
VERTEX
8
CUT
10
240.0000
20
295.1500
0
VERTEX
8
CUT
10
240.3500
20
295.1500
0
VERTEX
8
CUT
10
240.7000
20
295.1500
0
VERTEX
8
CUT
10
241.0500
20
295.1500
0
VERTEX
8
CUT
10
241.4000
20
295.1500
0
VERTEX
8
CUT
10
241.7500
20
295.1500
0
VERTEX
8
CUT
10
242.1000
20
295.1500
0
VERTEX
8
CUT
10
242.4500
20
295.1500
0
VERTEX
8
CUT
10
242.8250
20
295.1500
0
VERTEX
8
CUT
10
243.1750
20
295.1500
0
VERTEX
8
CUT
10
243.5250
20
295.1500
0
VERTEX
8
CUT
10
243.8750
20
295.1500
0
VERTEX
8
CUT
10
244.2250
20
295.1500
0
VERTEX
8
CUT
10
244.5750
20
295.1500
0
VERTEX
8
CUT
10
244.9250
20
295.1500
0
VERTEX
8
CUT
10
245.2750
20
295.1500
0
VERTEX
8
CUT
10
245.6250
20
295.1500
0
VERTEX
8
CUT
10
245.9750
20
295.1500
0
VERTEX
8
CUT
10
246.3250
20
295.1500
0
VERTEX
8
CUT
10
246.6750
20
295.1500
0
VERTEX
8
CUT
10
247.0250
20
295.1500
0
VERTEX
8
CUT
10
247.3750
20
295.1500
0
VERTEX
8
CUT
10
247.7250
20
295.1500
0
VERTEX
8
CUT
10
248.0750
20
295.1500
0
VERTEX
8
CUT
10
248.4250
20
295.1500
0
VERTEX
8
CUT
10
248.7750
20
295.1500
0
VERTEX
8
CUT
10
249.1250
20
295.1500
0
VERTEX
8
CUT
10
249.4750
20
295.1500
0
VERTEX
8
CUT
10
249.8250
20
295.1500
0
VERTEX
8
CUT
10
250.1750
20
295.1500
0
VERTEX
8
CUT
10
250.5250
20
295.1500
0
VERTEX
8
CUT
10
250.8750
20
295.1500
0
VERTEX
8
CUT
10
251.2250
20
295.1500
0
VERTEX
8
CUT
10
251.5750
20
295.1500
0
VERTEX
8
CUT
10
251.9250
20
295.1500
0
VERTEX
8
CUT
10
252.2750
20
295.1500
0
VERTEX
8
CUT
10
252.6250
20
295.1500
0
VERTEX
8
CUT
10
252.9750
20
295.1500
0
VERTEX
8
CUT
10
253.3250
20
295.1500
0
VERTEX
8
CUT
10
253.5250
20
295.1500
0
SEQEND
0
POLYLINE
8
CUT
66
1
70
0
0
VERTEX
8
CUT
10
210.0500
20
295.1500
0
VERTEX
8
CUT
10
210.2750
20
295.1500
0
VERTEX
8
CUT
10
210.6250
20
295.1500
0
VERTEX
8
CUT
10
211.0000
20
295.1500
0
VERTEX
8
CUT
10
211.3500
20
295.1500
0
VERTEX
8
CUT
10
211.7250
20
295.1500
0
VERTEX
8
CUT
10
212.0750
20
295.1500
0
VERTEX
8
CUT
10
212.4500
20
295.1500
0
VERTEX
8
CUT
10
212.8000
20
295.1500
0
VERTEX
8
CUT
10
213.1500
20
295.1500
0
VERTEX
8
CUT
10
213.5250
20
295.1500
0
VERTEX
8
CUT
10
213.8750
20
295.1500
0
VERTEX
8
CUT
10
214.2500
20
295.1500
0
VERTEX
8
CUT
10
214.6000
20
295.1500
0
VERTEX
8
CUT
10
214.9750
20
295.1500
0
VERTEX
8
CUT
10
215.3250
20
295.1500
0
VERTEX
8
CUT
10
215.7000
20
295.1500
0
VERTEX
8
CUT
10
215.8000
20
295.1500
0
SEQEND
0
POLYLINE
8
CUT
66
1
70
0
0
VERTEX
8
CUT
10
254.2250
20
295.1500
0
VERTEX
8
CUT
10
254.3500
20
295.1500
0
VERTEX
8
CUT
10
254.7000
20
295.1500
0
VERTEX
8
CUT
10
255.0500
20
295.1500
0
VERTEX
8
CUT
10
255.4000
20
295.1500
0
VERTEX
8
CUT
10
255.7500
20
295.1500
0
VERTEX
8
CUT
10
256.1000
20
295.1500
0
VERTEX
8
CUT
10
256.4500
20
295.1500
0
VERTEX
8
CUT
10
256.7750
20
295.1500
0
VERTEX
8
CUT
10
257.1250
20
295.1500
0
VERTEX
8
CUT
10
257.4750
20
295.1500
0
VERTEX
8
CUT
10
257.8250
20
295.1500
0
VERTEX
8
CUT
10
258.1750
20
295.1500
0
VERTEX
8
CUT
10
258.5250
20
295.1500
0
VERTEX
8
CUT
10
258.8500
20
295.1500
0
VERTEX
8
CUT
10
259.2000
20
295.1500
0
VERTEX
8
CUT
10
259.5500
20
295.1500
0
VERTEX
8
CUT
10
259.9000
20
295.1500
0
VERTEX
8
CUT
10
260.2500
20
295.1500
0
VERTEX
8
CUT
10
260.5750
20
295.1500
0
VERTEX
8
CUT
10
260.9250
20
295.1500
0
VERTEX
8
CUT
10
261.2750
20
295.1500
0
VERTEX
8
CUT
10
261.6250
20
295.1500
0
VERTEX
8
CUT
10
261.9500
20
295.1500
0
VERTEX
8
CUT
10
262.3000
20
295.1500
0
VERTEX
8
CUT
10
262.6500
20
295.1500
0
VERTEX
8
CUT
10
263.0000
20
295.1500
0
VERTEX
8
CUT
10
263.3250
20
295.1500
0
VERTEX
8
CUT
10
263.6750
20
295.1500
0
VERTEX
8
CUT
10
264.0250
20
295.1500
0
VERTEX
8
CUT
10
264.3750
20
295.1500
0
VERTEX
8
CUT
10
264.4500
20
295.1500
0
VERTEX
8
CUT
10
264.4500
20
280.9000
0
SEQEND
0
POLYLINE
8
CUT
66
1
70
1
0
VERTEX
8
CUT
10
128.7500
20
25.8250
0
VERTEX
8
CUT
10
134.9000
20
25.8250
0
VERTEX
8
CUT
10
134.9000
20
28.0000
0
VERTEX
8
CUT
10
128.7500
20
28.0000
0
SEQEND
0
POLYLINE
8
CUT
66
1
70
1
0
VERTEX
8
CUT
10
128.7500
20
29.7370
0
VERTEX
8
CUT
10
149.8500
20
29.7370
0
VERTEX
8
CUT
10
149.8500
20
32.4370
0
VERTEX
8
CUT
10
128.7500
20
32.4370
0
SEQEND
0
POLYLINE
8
CUT
66
1
70
1
0
VERTEX
8
CUT
10
128.7500
20
34.1750
0
VERTEX
8
CUT
10
134.9000
20
34.1750
0
VERTEX
8
CUT
10
134.9000
20
55.6250
0
VERTEX
8
CUT
10
128.7500
20
55.6250
0
SEQEND
0
POLYLINE
8
CUT
66
1
70
1
0
VERTEX
8
CUT
10
136.2250
20
34.1750
0
VERTEX
8
CUT
10
142.3750
20
34.1750
0
VERTEX
8
CUT
10
142.3750
20
55.6250
0
VERTEX
8
CUT
10
136.2250
20
55.6250
0
SEQEND
0
POLYLINE
8
CUT
66
1
70
1
0
VERTEX
8
CUT
10
136.2250
20
28.0000
0
VERTEX
8
CUT
10
136.2250
20
25.8250
0
VERTEX
8
CUT
10
142.3750
20
25.8250
0
VERTEX
8
CUT
10
142.3750
20
28.0000
0
SEQEND
0
POLYLINE
8
CUT
66
1
70
1
0
VERTEX
8
CUT
10
143.7000
20
28.0000
0
VERTEX
8
CUT
10
143.7000
20
25.8250
0
VERTEX
8
CUT
10
149.8500
20
25.8250
0
VERTEX
8
CUT
10
149.8500
20
28.0000
0
SEQEND
0
POLYLINE
8
CUT
66
1
70
1
0
VERTEX
8
CUT
10
146.9000
20
43.8250
0
VERTEX
8
CUT
10
147.0250
20
43.8250
0
VERTEX
8
CUT
10
147.1500
20
43.8500
0
VERTEX
8
CUT
10
147.2750
20
43.8750
0
VERTEX
8
CUT
10
147.3750
20
43.9250
0
VERTEX
8
CUT
10
147.5000
20
43.9750
0
VERTEX
8
CUT
10
147.6000
20
44.0500
0
VERTEX
8
CUT
10
147.6750
20
44.1250
0
VERTEX
8
CUT
10
147.7500
20
44.2000
0
VERTEX
8
CUT
10
147.8250
20
44.3000
0
VERTEX
8
CUT
10
147.9000
20
44.4000
0
VERTEX
8
CUT
10
147.9500
20
44.5000
0
VERTEX
8
CUT
10
147.9750
20
44.6250
0
VERTEX
8
CUT
10
148.0000
20
44.7500
0
VERTEX
8
CUT
10
148.0250
20
44.8750
0
VERTEX
8
CUT
10
148.0250
20
44.9000
0
VERTEX
8
CUT
10
148.0000
20
45.0250
0
VERTEX
8
CUT
10
148.0000
20
45.1500
0
VERTEX
8
CUT
10
147.9500
20
45.2500
0
VERTEX
8
CUT
10
147.9000
20
45.3750
0
VERTEX
8
CUT
10
147.8500
20
45.4750
0
VERTEX
8
CUT
10
147.7750
20
45.5750
0
VERTEX
8
CUT
10
147.7000
20
45.6500
0
VERTEX
8
CUT
10
147.6250
20
45.7250
0
VERTEX
8
CUT
10
147.5250
20
45.8000
0
VERTEX
8
CUT
10
147.4250
20
45.8750
0
VERTEX
8
CUT
10
147.3000
20
45.9250
0
VERTEX
8
CUT
10
147.2000
20
45.9500
0
VERTEX
8
CUT
10
147.0750
20
45.9750
0
VERTEX
8
CUT
10
146.9500
20
45.9750
0
VERTEX
8
CUT
10
146.9000
20
45.9750
0
VERTEX
8
CUT
10
146.7750
20
45.9750
0
VERTEX
8
CUT
10
146.6500
20
45.9500
0
VERTEX
8
CUT
10
146.5500
20
45.9250
0
VERTEX
8
CUT
10
146.4250
20
45.8750
0
VERTEX
8
CUT
10
146.3250
20
45.8250
0
VERTEX
8
CUT
10
146.2250
20
45.7500
0
VERTEX
8
CUT
10
146.1250
20
45.6750
0
VERTEX
8
CUT
10
146.0500
20
45.6000
0
VERTEX
8
CUT
10
145.9750
20
45.5000
0
VERTEX
8
CUT
10
145.9250
20
45.4000
0
VERTEX
8
CUT
10
145.8750
20
45.3000
0
VERTEX
8
CUT
10
145.8250
20
45.1750
0
VERTEX
8
CUT
10
145.8000
20
45.0500
0
VERTEX
8
CUT
10
145.8000
20
44.9250
0
VERTEX
8
CUT
10
145.8000
20
44.9000
0
VERTEX
8
CUT
10
145.8000
20
44.7750
0
VERTEX
8
CUT
10
145.8250
20
44.6500
0
VERTEX
8
CUT
10
145.8500
20
44.5500
0
VERTEX
8
CUT
10
145.9000
20
44.4250
0
VERTEX
8
CUT
10
145.9500
20
44.3250
0
VERTEX
8
CUT
10
146.0250
20
44.2250
0
VERTEX
8
CUT
10
146.1000
20
44.1500
0
VERTEX
8
CUT
10
146.2000
20
44.0750
0
VERTEX
8
CUT
10
146.3000
20
44.0000
0
VERTEX
8
CUT
10
146.4000
20
43.9250
0
VERTEX
8
CUT
10
146.5000
20
43.8750
0
VERTEX
8
CUT
10
146.6250
20
43.8500
0
VERTEX
8
CUT
10
146.7500
20
43.8250
0
VERTEX
8
CUT
10
146.8750
20
43.8250
0
SEQEND
0
POLYLINE
8
CUT
66
1
70
1
0
VERTEX
8
CUT
10
149.8500
20
34.1750
0
VERTEX
8
CUT
10
149.8500
20
55.6250
0
VERTEX
8
CUT
10
143.7000
20
55.6250
0
VERTEX
8
CUT
10
143.7000
20
34.1750
0
SEQEND
0
POLYLINE
8
CUT
66
1
70
1
0
VERTEX
8
CUT
10
149.8500
20
57.3620
0
VERTEX
8
CUT
10
149.8500
20
60.0630
0
VERTEX
8
CUT
10
128.7500
20
60.0630
0
VERTEX
8
CUT
10
128.7500
20
57.3620
0
SEQEND
0
POLYLINE
8
CUT
66
1
70
1
0
VERTEX
8
CUT
10
149.8500
20
61.8000
0
VERTEX
8
CUT
10
149.8500
20
63.9750
0
VERTEX
8
CUT
10
143.7000
20
63.9750
0
VERTEX
8
CUT
10
143.7000
20
61.8000
0
SEQEND
0
POLYLINE
8
CUT
66
1
70
1
0
VERTEX
8
CUT
10
142.3750
20
61.8000
0
VERTEX
8
CUT
10
142.3750
20
63.9750
0
VERTEX
8
CUT
10
136.2250
20
63.9750
0
VERTEX
8
CUT
10
136.2250
20
61.8000
0
SEQEND
0
POLYLINE
8
CUT
66
1
70
1
0
VERTEX
8
CUT
10
134.9000
20
61.8000
0
VERTEX
8
CUT
10
134.9000
20
63.9750
0
VERTEX
8
CUT
10
128.7500
20
63.9750
0
VERTEX
8
CUT
10
128.7500
20
61.8000
0
SEQEND
0
ENDSEC
0
EOF
