0
SECTION
2
HEADER
9
$ACADVER
1
AC1009
9
$INSUNITS
70
4
9
$MEASUREMENT
70
1
0
ENDSEC
0
SECTION
2
TABLES
0
TABLE
2
LAYER
70
2
0
LAYER
2
CUT
70
0
62
1
6
CONTINUOUS
0
LAYER
2
ENGRAVE
70
0
62
2
6
CONTINUOUS
0
ENDTAB
0
ENDSEC
0
SECTION
2
ENTITIES
0
POLYLINE
8
ENGRAVE
66
1
70
1
0
VERTEX
8
ENGRAVE
10
206.6550
20
375.4540
0
VERTEX
8
ENGRAVE
10
206.3620
20
374.9470
0
VERTEX
8
ENGRAVE
10
206.0830
20
374.7160
0
VERTEX
8
ENGRAVE
10
205.7440
20
374.5570
0
VERTEX
8
ENGRAVE
10
205.2020
20
374.4590
0
VERTEX
8
ENGRAVE
10
203.6200
20
374.4550
0
VERTEX
8
ENGRAVE
10
203.6200
20
372.5570
0
VERTEX
8
ENGRAVE
10
202.9590
20
372.5570
0
VERTEX
8
ENGRAVE
10
202.9590
20
377.4270
0
VERTEX
8
ENGRAVE
10
205.3220
20
377.4120
0
VERTEX
8
ENGRAVE
10
205.7360
20
377.3310
0
VERTEX
8
ENGRAVE
10
206.0830
20
377.1820
0
VERTEX
8
ENGRAVE
10
206.4400
20
376.8780
0
VERTEX
8
ENGRAVE
10
206.6550
20
376.4700
0
VERTEX
8
ENGRAVE
10
206.7270
20
375.9620
0
SEQEND
0
POLYLINE
8
ENGRAVE
66
1
70
1
0
VERTEX
8
ENGRAVE
10
205.8820
20
376.5590
0
VERTEX
8
ENGRAVE
10
205.6550
20
376.7480
0
VERTEX
8
ENGRAVE
10
205.3380
20
376.8610
0
VERTEX
8
ENGRAVE
10
203.6200
20
376.8990
0
VERTEX
8
ENGRAVE
10
203.6200
20
374.9770
0
VERTEX
8
ENGRAVE
10
205.1680
20
374.9860
0
VERTEX
8
ENGRAVE
10
205.6650
20
375.1330
0
VERTEX
8
ENGRAVE
10
205.8870
20
375.3290
0
VERTEX
8
ENGRAVE
10
206.0530
20
375.7690
0
VERTEX
8
ENGRAVE
10
206.0180
20
376.2950
0
SEQEND
0
POLYLINE
8
ENGRAVE
66
1
70
1
0
VERTEX
8
ENGRAVE
10
207.1140
20
372.5570
0
VERTEX
8
ENGRAVE
10
209.1020
20
377.4270
0
VERTEX
8
ENGRAVE
10
209.8520
20
377.4270
0
VERTEX
8
ENGRAVE
10
211.8090
20
372.5570
0
VERTEX
8
ENGRAVE
10
211.1350
20
372.5570
0
VERTEX
8
ENGRAVE
10
210.5780
20
373.9810
0
VERTEX
8
ENGRAVE
10
208.3590
20
373.9810
0
VERTEX
8
ENGRAVE
10
207.7990
20
372.5570
0
SEQEND
0
POLYLINE
8
ENGRAVE
66
1
70
1
0
VERTEX
8
ENGRAVE
10
209.4690
20
376.9300
0
VERTEX
8
ENGRAVE
10
208.5590
20
374.4960
0
VERTEX
8
ENGRAVE
10
210.3810
20
374.4960
0
SEQEND
0
POLYLINE
8
ENGRAVE
66
1
70
1
0
VERTEX
8
ENGRAVE
10
213.8520
20
374.5760
0
VERTEX
8
ENGRAVE
10
211.9780
20
377.4270
0
VERTEX
8
ENGRAVE
10
212.7040
20
377.4270
0
VERTEX
8
ENGRAVE
10
214.1870
20
375.1080
0
VERTEX
8
ENGRAVE
10
215.6630
20
377.4270
0
VERTEX
8
ENGRAVE
10
216.3890
20
377.4270
0
VERTEX
8
ENGRAVE
10
214.5090
20
374.5760
0
VERTEX
8
ENGRAVE
10
214.5090
20
372.5570
0
VERTEX
8
ENGRAVE
10
213.8520
20
372.5570
0
SEQEND
0
POLYLINE
8
ENGRAVE
66
1
70
1
0
VERTEX
8
ENGRAVE
10
216.5580
20
372.5570
0
VERTEX
8
ENGRAVE
10
218.5460
20
377.4270
0
VERTEX
8
ENGRAVE
10
219.2960
20
377.4270
0
VERTEX
8
ENGRAVE
10
221.2530
20
372.5570
0
VERTEX
8
ENGRAVE
10
220.5790
20
372.5570
0
VERTEX
8
ENGRAVE
10
220.0220
20
373.9810
0
VERTEX
8
ENGRAVE
10
217.8030
20
373.9810
0
VERTEX
8
ENGRAVE
10
217.2430
20
372.5570
0
SEQEND
0
POLYLINE
8
ENGRAVE
66
1
70
1
0
VERTEX
8
ENGRAVE
10
218.9130
20
376.9300
0
VERTEX
8
ENGRAVE
10
218.0030
20
374.4960
0
VERTEX
8
ENGRAVE
10
219.8250
20
374.4960
0
SEQEND
0
POLYLINE
8
ENGRAVE
66
1
70
1
0
VERTEX
8
ENGRAVE
10
234.5100
20
376.8880
0
VERTEX
8
ENGRAVE
10
232.8370
20
376.8880
0
VERTEX
8
ENGRAVE
10
232.8370
20
377.4270
0
VERTEX
8
ENGRAVE
10
236.8400
20
377.4270
0
VERTEX
8
ENGRAVE
10
236.8400
20
376.8880
0
VERTEX
8
ENGRAVE
10
235.1660
20
376.8880
0
VERTEX
8
ENGRAVE
10
235.1660
20
372.5570
0
VERTEX
8
ENGRAVE
10
234.5100
20
372.5570
0
SEQEND
0
POLYLINE
8
ENGRAVE
66
1
70
1
0
VERTEX
8
ENGRAVE
10
241.2780
20
376.8880
0
VERTEX
8
ENGRAVE
10
238.2430
20
376.8880
0
VERTEX
8
ENGRAVE
10
238.2430
20
375.3260
0
VERTEX
8
ENGRAVE
10
241.0710
20
375.3260
0
VERTEX
8
ENGRAVE
10
241.0710
20
374.7930
0
VERTEX
8
ENGRAVE
10
238.2430
20
374.7930
0
VERTEX
8
ENGRAVE
10
238.2430
20
373.0960
0
VERTEX
8
ENGRAVE
10
241.4200
20
373.0960
0
VERTEX
8
ENGRAVE
10
241.4200
20
372.5570
0
VERTEX
8
ENGRAVE
10
237.5830
20
372.5570
0
VERTEX
8
ENGRAVE
10
237.5830
20
377.4270
0
VERTEX
8
ENGRAVE
10
241.2780
20
377.4270
0
SEQEND
0
POLYLINE
8
ENGRAVE
66
1
70
1
0
VERTEX
8
ENGRAVE
10
246.4460
20
372.5570
0
VERTEX
8
ENGRAVE
10
246.4770
20
376.8430
0
VERTEX
8
ENGRAVE
10
246.2000
20
375.9480
0
VERTEX
8
ENGRAVE
10
244.9150
20
372.5570
0
VERTEX
8
ENGRAVE
10
244.4510
20
372.5570
0
VERTEX
8
ENGRAVE
10
243.1760
20
375.8750
0
VERTEX
8
ENGRAVE
10
242.8680
20
376.8430
0
VERTEX
8
ENGRAVE
10
242.8920
20
372.5570
0
VERTEX
8
ENGRAVE
10
242.3050
20
372.5570
0
VERTEX
8
ENGRAVE
10
242.3050
20
377.4270
0
VERTEX
8
ENGRAVE
10
243.1720
20
377.4270
0
VERTEX
8
ENGRAVE
10
244.4690
20
374.0500
0
VERTEX
8
ENGRAVE
10
244.6870
20
373.2760
0
VERTEX
8
ENGRAVE
10
244.8980
20
373.9880
0
VERTEX
8
ENGRAVE
10
246.1940
20
377.4270
0
VERTEX
8
ENGRAVE
10
247.0410
20
377.4270
0
VERTEX
8
ENGRAVE
10
247.0410
20
372.5570
0
SEQEND
0
POLYLINE
8
ENGRAVE
66
1
70
1
0
VERTEX
8
ENGRAVE
10
225.5790
20
373.4110
0
VERTEX
8
ENGRAVE
10
225.4050
20
373.1070
0
VERTEX
8
ENGRAVE
10
225.0270
20
372.7870
0
VERTEX
8
ENGRAVE
10
224.5020
20
372.5800
0
VERTEX
8
ENGRAVE
10
224.0180
20
372.5020
0
VERTEX
8
ENGRAVE
10
223.3110
20
372.5000
0
VERTEX
8
ENGRAVE
10
222.7180
20
372.5990
0
VERTEX
8
ENGRAVE
10
222.2460
20
372.7970
0
VERTEX
8
ENGRAVE
10
221.8930
20
373.0940
0
VERTEX
8
ENGRAVE
10
221.5880
20
373.7250
0
VERTEX
8
ENGRAVE
10
222.2280
20
373.8530
0
VERTEX
8
ENGRAVE
10
222.4000
20
373.4720
0
VERTEX
8
ENGRAVE
10
222.6980
20
373.2080
0
VERTEX
8
ENGRAVE
10
223.1220
20
373.0540
0
VERTEX
8
ENGRAVE
10
223.6760
20
373.0030
0
VERTEX
8
ENGRAVE
10
224.2430
20
373.0580
0
VERTEX
8
ENGRAVE
10
224.6630
20
373.2220
0
VERTEX
8
ENGRAVE
10
224.9240
20
373.4930
0
VERTEX
8
ENGRAVE
10
225.0070
20
373.7840
0
VERTEX
8
ENGRAVE
10
224.9410
20
374.1910
0
VERTEX
8
ENGRAVE
10
224.6340
20
374.4800
0
VERTEX
8
ENGRAVE
10
222.7070
20
375.0340
0
VERTEX
8
ENGRAVE
10
222.3310
20
375.2240
0
VERTEX
8
ENGRAVE
10
222.0760
20
375.4440
0
VERTEX
8
ENGRAVE
10
221.8610
20
375.8450
0
VERTEX
8
ENGRAVE
10
221.8210
20
376.3190
0
VERTEX
8
ENGRAVE
10
221.9360
20
376.7510
0
VERTEX
8
ENGRAVE
10
222.2040
20
377.0910
0
VERTEX
8
ENGRAVE
10
222.5030
20
377.2830
0
VERTEX
8
ENGRAVE
10
222.8770
20
377.4150
0
VERTEX
8
ENGRAVE
10
223.6660
20
377.5000
0
VERTEX
8
ENGRAVE
10
224.6360
20
377.3760
0
VERTEX
8
ENGRAVE
10
225.1740
20
377.0610
0
VERTEX
8
ENGRAVE
10
225.3670
20
376.8120
0
VERTEX
8
ENGRAVE
10
225.5500
20
376.3800
0
VERTEX
8
ENGRAVE
10
224.9000
20
376.2660
0
VERTEX
8
ENGRAVE
10
224.7010
20
376.6540
0
VERTEX
8
ENGRAVE
10
224.4290
20
376.8610
0
VERTEX
8
ENGRAVE
10
223.9570
20
376.9870
0
VERTEX
8
ENGRAVE
10
223.4360
20
376.9940
0
VERTEX
8
ENGRAVE
10
222.9760
20
376.9070
0
VERTEX
8
ENGRAVE
10
222.6560
20
376.7240
0
VERTEX
8
ENGRAVE
10
222.4870
20
376.4440
0
VERTEX
8
ENGRAVE
10
222.4640
20
376.1450
0
VERTEX
8
ENGRAVE
10
222.5790
20
375.8600
0
VERTEX
8
ENGRAVE
10
222.8790
20
375.6320
0
VERTEX
8
ENGRAVE
10
224.6510
20
375.1420
0
VERTEX
8
ENGRAVE
10
225.3010
20
374.7900
0
VERTEX
8
ENGRAVE
10
225.5210
20
374.5140
0
VERTEX
8
ENGRAVE
10
225.6370
20
374.1960
0
VERTEX
8
ENGRAVE
10
225.6580
20
373.7700
0
SEQEND
0
POLYLINE
8
ENGRAVE
66
1
70
1
0
VERTEX
8
ENGRAVE
10
232.2680
20
373.4110
0
VERTEX
8
ENGRAVE
10
232.0940
20
373.1070
0
VERTEX
8
ENGRAVE
10
231.7160
20
372.7870
0
VERTEX
8
ENGRAVE
10
231.1910
20
372.5800
0
VERTEX
8
ENGRAVE
10
230.7070
20
372.5020
0
VERTEX
8
ENGRAVE
10
230.0000
20
372.5000
0
VERTEX
8
ENGRAVE
10
229.4070
20
372.5990
0
VERTEX
8
ENGRAVE
10
228.9350
20
372.7970
0
VERTEX
8
ENGRAVE
10
228.5820
20
373.0940
0
VERTEX
8
ENGRAVE
10
228.2770
20
373.7250
0
VERTEX
8
ENGRAVE
10
228.9170
20
373.8530
0
VERTEX
8
ENGRAVE
10
229.0890
20
373.4720
0
VERTEX
8
ENGRAVE
10
229.3870
20
373.2080
0
VERTEX
8
ENGRAVE
10
229.8110
20
373.0540
0
VERTEX
8
ENGRAVE
10
230.3650
20
373.0030
0
VERTEX
8
ENGRAVE
10
230.9310
20
373.0580
0
VERTEX
8
ENGRAVE
10
231.3520
20
373.2220
0
VERTEX
8
ENGRAVE
10
231.5740
20
373.4310
0
VERTEX
8
ENGRAVE
10
231.6960
20
373.7840
0
VERTEX
8
ENGRAVE
10
231.6300
20
374.1910
0
VERTEX
8
ENGRAVE
10
231.3230
20
374.4800
0
VERTEX
8
ENGRAVE
10
229.3960
20
375.0340
0
VERTEX
8
ENGRAVE
10
229.0200
20
375.2240
0
VERTEX
8
ENGRAVE
10
228.7650
20
375.4440
0
VERTEX
8
ENGRAVE
10
228.5500
20
375.8450
0
VERTEX
8
ENGRAVE
10
228.5100
20
376.3190
0
VERTEX
8
ENGRAVE
10
228.6250
20
376.7510
0
VERTEX
8
ENGRAVE
10
228.8930
20
377.0910
0
VERTEX
8
ENGRAVE
10
229.1920
20
377.2830
0
VERTEX
8
ENGRAVE
10
229.5660
20
377.4150
0
VERTEX
8
ENGRAVE
10
230.3550
20
377.5000
0
VERTEX
8
ENGRAVE
10
231.3250
20
377.3760
0
VERTEX
8
ENGRAVE
10
231.8630
20
377.0610
0
VERTEX
8
ENGRAVE
10
232.0550
20
376.8120
0
VERTEX
8
ENGRAVE
10
232.2390
20
376.3800
0
VERTEX
8
ENGRAVE
10
231.5890
20
376.2660
0
VERTEX
8
ENGRAVE
10
231.3900
20
376.6540
0
VERTEX
8
ENGRAVE
10
231.1180
20
376.8610
0
VERTEX
8
ENGRAVE
10
230.6460
20
376.9870
0
VERTEX
8
ENGRAVE
10
230.1250
20
376.9940
0
VERTEX
8
ENGRAVE
10
229.6650
20
376.9070
0
VERTEX
8
ENGRAVE
10
229.3450
20
376.7240
0
VERTEX
8
ENGRAVE
10
229.1760
20
376.4440
0
VERTEX
8
ENGRAVE
10
229.1530
20
376.1450
0
VERTEX
8
ENGRAVE
10
229.2670
20
375.8600
0
VERTEX
8
ENGRAVE
10
229.5680
20
375.6320
0
VERTEX
8
ENGRAVE
10
231.3400
20
375.1420
0
VERTEX
8
ENGRAVE
10
231.9900
20
374.7900
0
VERTEX
8
ENGRAVE
10
232.2100
20
374.5140
0
VERTEX
8
ENGRAVE
10
232.3260
20
374.1960
0
VERTEX
8
ENGRAVE
10
232.3470
20
373.7700
0
SEQEND
0
POLYLINE
8
ENGRAVE
66
1
70
1
0
VERTEX
8
ENGRAVE
10
180.3900
20
309.5330
0
VERTEX
8
ENGRAVE
10
180.3900
20
308.0000
0
VERTEX
8
ENGRAVE
10
179.8480
20
308.0000
0
VERTEX
8
ENGRAVE
10
179.8480
20
312.0000
0
VERTEX
8
ENGRAVE
10
180.3900
20
312.0000
0
VERTEX
8
ENGRAVE
10
180.3900
20
309.9960
0
VERTEX
8
ENGRAVE
10
182.3180
20
312.0000
0
VERTEX
8
ENGRAVE
10
182.9570
20
312.0000
0
VERTEX
8
ENGRAVE
10
181.2530
20
310.2630
0
VERTEX
8
ENGRAVE
10
183.1840
20
308.0000
0
VERTEX
8
ENGRAVE
10
182.5110
20
308.0000
0
VERTEX
8
ENGRAVE
10
180.9130
20
309.9300
0
SEQEND
0
POLYLINE
8
ENGRAVE
66
1
70
1
0
VERTEX
8
ENGRAVE
10
184.3280
20
308.0000
0
VERTEX
8
ENGRAVE
10
183.7860
20
308.0000
0
VERTEX
8
ENGRAVE
10
183.7860
20
312.0000
0
VERTEX
8
ENGRAVE
10
184.3280
20
312.0000
0
SEQEND
0
POLYLINE
8
ENGRAVE
66
1
70
1
0
VERTEX
8
ENGRAVE
10
185.3410
20
308.0000
0
VERTEX
8
ENGRAVE
10
185.3410
20
312.0000
0
VERTEX
8
ENGRAVE
10
187.4820
20
311.9880
0
VERTEX
8
ENGRAVE
10
187.9230
20
311.8910
0
VERTEX
8
ENGRAVE
10
188.2670
20
311.6980
0
VERTEX
8
ENGRAVE
10
188.5020
20
311.4180
0
VERTEX
8
ENGRAVE
10
188.6010
20
311.1580
0
VERTEX
8
ENGRAVE
10
188.6320
20
310.7680
0
VERTEX
8
ENGRAVE
10
188.5700
20
310.4460
0
VERTEX
8
ENGRAVE
10
188.4240
20
310.1690
0
VERTEX
8
ENGRAVE
10
188.2010
20
309.9440
0
VERTEX
8
ENGRAVE
10
187.6580
20
309.7230
0
VERTEX
8
ENGRAVE
10
188.7930
20
308.0000
0
VERTEX
8
ENGRAVE
10
188.1690
20
308.0000
0
VERTEX
8
ENGRAVE
10
187.1300
20
309.6610
0
VERTEX
8
ENGRAVE
10
185.8840
20
309.6610
0
VERTEX
8
ENGRAVE
10
185.8840
20
308.0000
0
SEQEND
0
POLYLINE
8
ENGRAVE
66
1
70
1
0
VERTEX
8
ENGRAVE
10
188.0510
20
311.1030
0
VERTEX
8
ENGRAVE
10
187.8520
20
311.3830
0
VERTEX
8
ENGRAVE
10
187.4930
20
311.5360
0
VERTEX
8
ENGRAVE
10
185.8840
20
311.5660
0
VERTEX
8
ENGRAVE
10
185.8840
20
310.0890
0
VERTEX
8
ENGRAVE
10
187.2760
20
310.0910
0
VERTEX
8
ENGRAVE
10
187.6970
20
310.1870
0
VERTEX
8
ENGRAVE
10
187.9000
20
310.3310
0
VERTEX
8
ENGRAVE
10
188.0310
20
310.5300
0
VERTEX
8
ENGRAVE
10
188.0870
20
310.7800
0
SEQEND
0
POLYLINE
8
ENGRAVE
66
1
70
1
0
VERTEX
8
ENGRAVE
10
192.9410
20
308.0000
0
VERTEX
8
ENGRAVE
10
192.9670
20
311.5200
0
VERTEX
8
ENGRAVE
10
191.6830
20
308.0000
0
VERTEX
8
ENGRAVE
10
191.3030
20
308.0000
0
VERTEX
8
ENGRAVE
10
190.0030
20
311.5200
0
VERTEX
8
ENGRAVE
10
190.0230
20
308.0000
0
VERTEX
8
ENGRAVE
10
189.5400
20
308.0000
0
VERTEX
8
ENGRAVE
10
189.5400
20
312.0000
0
VERTEX
8
ENGRAVE
10
190.2530
20
312.0000
0
VERTEX
8
ENGRAVE
10
191.3170
20
309.2260
0
VERTEX
8
ENGRAVE
10
191.4960
20
308.5900
0
VERTEX
8
ENGRAVE
10
192.7340
20
312.0000
0
VERTEX
8
ENGRAVE
10
193.4290
20
312.0000
0
VERTEX
8
ENGRAVE
10
193.4290
20
308.0000
0
SEQEND
0
POLYLINE
8
ENGRAVE
66
1
70
1
0
VERTEX
8
ENGRAVE
10
194.9850
20
308.0000
0
VERTEX
8
ENGRAVE
10
194.4430
20
308.0000
0
VERTEX
8
ENGRAVE
10
194.4430
20
312.0000
0
VERTEX
8
ENGRAVE
10
194.9850
20
312.0000
0
SEQEND
0
POLYLINE
8
ENGRAVE
66
1
70
1
0
VERTEX
8
ENGRAVE
10
198.1420
20
311.5570
0
VERTEX
8
ENGRAVE
10
195.9130
20
311.5570
0
VERTEX
8
ENGRAVE
10
195.9130
20
312.0000
0
VERTEX
8
ENGRAVE
10
198.7580
20
312.0000
0
VERTEX
8
ENGRAVE
10
198.7580
20
311.6050
0
VERTEX
8
ENGRAVE
10
196.3220
20
308.4430
0
VERTEX
8
ENGRAVE
10
198.8910
20
308.4430
0
VERTEX
8
ENGRAVE
10
198.8910
20
308.0000
0
VERTEX
8
ENGRAVE
10
195.7060
20
308.0000
0
VERTEX
8
ENGRAVE
10
195.7060
20
308.4060
0
SEQEND
0
POLYLINE
8
ENGRAVE
66
1
70
1
0
VERTEX
8
ENGRAVE
10
200.1520
20
308.0000
0
VERTEX
8
ENGRAVE
10
199.6100
20
308.0000
0
VERTEX
8
ENGRAVE
10
199.6100
20
312.0000
0
VERTEX
8
ENGRAVE
10
200.1520
20
312.0000
0
SEQEND
0
POLYLINE
8
ENGRAVE
66
1
70
1
0
VERTEX
8
ENGRAVE
10
222.8650
20
308.0550
0
VERTEX
8
ENGRAVE
10
222.3190
20
308.0550
0
VERTEX
8
ENGRAVE
10
223.9050
20
311.9420
0
VERTEX
8
ENGRAVE
10
224.5030
20
311.9420
0
VERTEX
8
ENGRAVE
10
226.0650
20
308.0550
0
VERTEX
8
ENGRAVE
10
225.5270
20
308.0550
0
VERTEX
8
ENGRAVE
10
225.0830
20
309.1920
0
VERTEX
8
ENGRAVE
10
223.3120
20
309.1920
0
SEQEND
0
POLYLINE
8
ENGRAVE
66
1
70
1
0
VERTEX
8
ENGRAVE
10
224.1970
20
311.5450
0
VERTEX
8
ENGRAVE
10
223.4720
20
309.6030
0
VERTEX
8
ENGRAVE
10
224.9260
20
309.6030
0
SEQEND
0
POLYLINE
8
ENGRAVE
66
1
70
1
0
VERTEX
8
ENGRAVE
10
227.0660
20
308.0550
0
VERTEX
8
ENGRAVE
10
226.5390
20
308.0550
0
VERTEX
8
ENGRAVE
10
226.5390
20
311.9420
0
VERTEX
8
ENGRAVE
10
228.4970
20
311.9390
0
VERTEX
8
ENGRAVE
10
228.8460
20
311.8950
0
VERTEX
8
ENGRAVE
10
229.2270
20
311.7540
0
VERTEX
8
ENGRAVE
10
229.4500
20
311.5870
0
VERTEX
8
ENGRAVE
10
229.6500
20
311.2970
0
VERTEX
8
ENGRAVE
10
229.7360
20
310.9330
0
VERTEX
8
ENGRAVE
10
229.7170
20
310.5830
0
VERTEX
8
ENGRAVE
10
229.6160
20
310.2920
0
VERTEX
8
ENGRAVE
10
229.3780
20
309.9930
0
VERTEX
8
ENGRAVE
10
229.1150
20
309.8260
0
VERTEX
8
ENGRAVE
10
228.7900
20
309.7300
0
VERTEX
8
ENGRAVE
10
229.8940
20
308.0550
0
VERTEX
8
ENGRAVE
10
229.2870
20
308.0550
0
VERTEX
8
ENGRAVE
10
228.2770
20
309.6690
0
VERTEX
8
ENGRAVE
10
227.0660
20
309.6690
0
SEQEND
0
POLYLINE
8
ENGRAVE
66
1
70
1
0
VERTEX
8
ENGRAVE
10
229.1890
20
311.0140
0
VERTEX
8
ENGRAVE
10
229.0230
20
311.3050
0
VERTEX
8
ENGRAVE
10
228.6980
20
311.4760
0
VERTEX
8
ENGRAVE
10
227.0660
20
311.5200
0
VERTEX
8
ENGRAVE
10
227.0660
20
310.0860
0
VERTEX
8
ENGRAVE
10
228.4190
20
310.0870
0
VERTEX
8
ENGRAVE
10
228.8290
20
310.1810
0
VERTEX
8
ENGRAVE
10
229.0250
20
310.3200
0
VERTEX
8
ENGRAVE
10
229.1530
20
310.5130
0
SEQEND
0
POLYLINE
8
ENGRAVE
66
1
70
1
0
VERTEX
8
ENGRAVE
10
231.2040
20
311.9420
0
VERTEX
8
ENGRAVE
10
231.2040
20
308.0550
0
VERTEX
8
ENGRAVE
10
230.6770
20
308.0550
0
VERTEX
8
ENGRAVE
10
230.6770
20
311.9420
0
SEQEND
0
POLYLINE
8
ENGRAVE
66
1
70
1
0
VERTEX
8
ENGRAVE
10
222.0310
20
308.9230
0
VERTEX
8
ENGRAVE
10
221.8970
20
308.5700
0
VERTEX
8
ENGRAVE
10
221.7080
20
308.3570
0
VERTEX
8
ENGRAVE
10
221.3440
20
308.1450
0
VERTEX
8
ENGRAVE
10
220.9990
20
308.0470
0
VERTEX
8
ENGRAVE
10
220.4430
20
308.0000
0
VERTEX
8
ENGRAVE
10
219.9220
20
308.0400
0
VERTEX
8
ENGRAVE
10
219.4970
20
308.1580
0
VERTEX
8
ENGRAVE
10
219.1680
20
308.3560
0
VERTEX
8
ENGRAVE
10
218.9340
20
308.6320
0
VERTEX
8
ENGRAVE
10
218.7960
20
308.9880
0
VERTEX
8
ENGRAVE
10
219.3060
20
309.0900
0
VERTEX
8
ENGRAVE
10
219.4440
20
308.7860
0
VERTEX
8
ENGRAVE
10
219.6810
20
308.5750
0
VERTEX
8
ENGRAVE
10
220.0200
20
308.4520
0
VERTEX
8
ENGRAVE
10
220.5620
20
308.4130
0
VERTEX
8
ENGRAVE
10
220.9910
20
308.4740
0
VERTEX
8
ENGRAVE
10
221.3020
20
308.6230
0
VERTEX
8
ENGRAVE
10
221.4830
20
308.8560
0
VERTEX
8
ENGRAVE
10
221.5270
20
309.1010
0
VERTEX
8
ENGRAVE
10
221.4570
20
309.3850
0
VERTEX
8
ENGRAVE
10
221.2270
20
309.5900
0
VERTEX
8
ENGRAVE
10
219.7430
20
310.0120
0
VERTEX
8
ENGRAVE
10
219.2090
20
310.3320
0
VERTEX
8
ENGRAVE
10
219.0370
20
310.6080
0
VERTEX
8
ENGRAVE
10
218.9780
20
310.9600
0
VERTEX
8
ENGRAVE
10
219.0390
20
311.3230
0
VERTEX
8
ENGRAVE
10
219.2220
20
311.6120
0
VERTEX
8
ENGRAVE
10
219.7180
20
311.9030
0
VERTEX
8
ENGRAVE
10
220.4540
20
312.0000
0
VERTEX
8
ENGRAVE
10
221.2280
20
311.9010
0
VERTEX
8
ENGRAVE
10
221.6580
20
311.6500
0
VERTEX
8
ENGRAVE
10
221.9570
20
311.1060
0
VERTEX
8
ENGRAVE
10
221.4390
20
311.0150
0
VERTEX
8
ENGRAVE
10
221.2800
20
311.3250
0
VERTEX
8
ENGRAVE
10
221.0630
20
311.4900
0
VERTEX
8
ENGRAVE
10
220.6870
20
311.5900
0
VERTEX
8
ENGRAVE
10
220.2710
20
311.5970
0
VERTEX
8
ENGRAVE
10
219.9040
20
311.5270
0
VERTEX
8
ENGRAVE
10
219.6480
20
311.3800
0
VERTEX
8
ENGRAVE
10
219.5130
20
311.1580
0
VERTEX
8
ENGRAVE
10
219.4950
20
310.9180
0
VERTEX
8
ENGRAVE
10
219.5860
20
310.6910
0
VERTEX
8
ENGRAVE
10
219.8610
20
310.4920
0
VERTEX
8
ENGRAVE
10
221.2070
20
310.1290
0
VERTEX
8
ENGRAVE
10
221.7110
20
309.8780
0
VERTEX
8
ENGRAVE
10
222.0000
20
309.4660
0
SEQEND
0
POLYLINE
8
ENGRAVE
66
1
70
1
0
VERTEX
8
ENGRAVE
10
266.3060
20
308.1530
0
VERTEX
8
ENGRAVE
10
266.1080
20
308.0220
0
VERTEX
8
ENGRAVE
10
265.6910
20
308.0000
0
VERTEX
8
ENGRAVE
10
265.6910
20
308.1780
0
VERTEX
8
ENGRAVE
10
266.0470
20
308.2030
0
VERTEX
8
ENGRAVE
10
266.1110
20
308.2860
0
VERTEX
8
ENGRAVE
10
266.0920
20
308.3850
0
VERTEX
8
ENGRAVE
10
265.9960
20
308.4410
0
VERTEX
8
ENGRAVE
10
265.7690
20
308.4490
0
VERTEX
8
ENGRAVE
10
265.8750
20
308.7460
0
VERTEX
8
ENGRAVE
10
265.4720
20
308.8010
0
VERTEX
8
ENGRAVE
10
265.1240
20
308.9770
0
VERTEX
8
ENGRAVE
10
264.9700
20
309.1580
0
VERTEX
8
ENGRAVE
10
264.8790
20
309.3920
0
VERTEX
8
ENGRAVE
10
265.2150
20
309.4590
0
VERTEX
8
ENGRAVE
10
265.3050
20
309.2590
0
VERTEX
8
ENGRAVE
10
265.4250
20
309.1440
0
VERTEX
8
ENGRAVE
10
265.6340
20
309.0520
0
VERTEX
8
ENGRAVE
10
265.9110
20
309.0140
0
VERTEX
8
ENGRAVE
10
266.2180
20
309.0320
0
VERTEX
8
ENGRAVE
10
266.4130
20
309.0870
0
VERTEX
8
ENGRAVE
10
266.5570
20
309.1790
0
VERTEX
8
ENGRAVE
10
266.6450
20
309.3050
0
VERTEX
8
ENGRAVE
10
266.6590
20
309.5800
0
VERTEX
8
ENGRAVE
10
266.5140
20
309.7650
0
VERTEX
8
ENGRAVE
10
266.2920
20
309.8610
0
VERTEX
8
ENGRAVE
10
265.4330
20
310.0920
0
VERTEX
8
ENGRAVE
10
265.2050
20
310.2250
0
VERTEX
8
ENGRAVE
10
265.0680
20
310.3910
0
VERTEX
8
ENGRAVE
10
264.9990
20
310.6880
0
VERTEX
8
ENGRAVE
10
265.0620
20
310.9780
0
VERTEX
8
ENGRAVE
10
265.2500
20
311.1930
0
VERTEX
8
ENGRAVE
10
265.5550
20
311.3270
0
VERTEX
8
ENGRAVE
10
266.0540
20
311.3700
0
VERTEX
8
ENGRAVE
10
266.5340
20
311.2860
0
VERTEX
8
ENGRAVE
10
266.7960
20
311.1010
0
VERTEX
8
ENGRAVE
10
266.9570
20
310.7840
0
VERTEX
8
ENGRAVE
10
266.6160
20
310.7240
0
VERTEX
8
ENGRAVE
10
266.5340
20
310.8990
0
VERTEX
8
ENGRAVE
10
266.4320
20
310.9990
0
VERTEX
8
ENGRAVE
10
266.2560
20
311.0770
0
VERTEX
8
ENGRAVE
10
266.0200
20
311.1090
0
VERTEX
8
ENGRAVE
10
265.5680
20
311.0450
0
VERTEX
8
ENGRAVE
10
265.4150
20
310.9390
0
VERTEX
8
ENGRAVE
10
265.3510
20
310.8180
0
VERTEX
8
ENGRAVE
10
265.3590
20
310.5790
0
VERTEX
8
ENGRAVE
10
265.4940
20
310.4270
0
VERTEX
8
ENGRAVE
10
266.6300
20
310.0750
0
VERTEX
8
ENGRAVE
10
266.8550
20
309.9220
0
VERTEX
8
ENGRAVE
10
266.9770
20
309.7270
0
VERTEX
8
ENGRAVE
10
267.0050
20
309.3490
0
VERTEX
8
ENGRAVE
10
266.9470
20
309.1710
0
VERTEX
8
ENGRAVE
10
266.8390
20
309.0210
0
VERTEX
8
ENGRAVE
10
266.5540
20
308.8380
0
VERTEX
8
ENGRAVE
10
266.0680
20
308.7460
0
VERTEX
8
ENGRAVE
10
266.0100
20
308.5980
0
VERTEX
8
ENGRAVE
10
266.2070
20
308.5570
0
VERTEX
8
ENGRAVE
10
266.3300
20
308.4330
0
VERTEX
8
ENGRAVE
10
266.3460
20
308.2580
0
SEQEND
0
POLYLINE
8
ENGRAVE
66
1
70
1
0
VERTEX
8
ENGRAVE
10
260.8230
20
309.8380
0
VERTEX
8
ENGRAVE
10
259.8410
20
311.3330
0
VERTEX
8
ENGRAVE
10
260.2220
20
311.3330
0
VERTEX
8
ENGRAVE
10
260.9990
20
310.1170
0
VERTEX
8
ENGRAVE
10
261.7730
20
311.3330
0
VERTEX
8
ENGRAVE
10
262.1540
20
311.3330
0
VERTEX
8
ENGRAVE
10
261.1680
20
309.8380
0
VERTEX
8
ENGRAVE
10
261.1680
20
308.7790
0
VERTEX
8
ENGRAVE
10
260.8230
20
308.7790
0
SEQEND
0
POLYLINE
8
ENGRAVE
66
1
70
1
0
VERTEX
8
ENGRAVE
10
264.4770
20
311.0500
0
VERTEX
8
ENGRAVE
10
262.8860
20
311.0500
0
VERTEX
8
ENGRAVE
10
262.8860
20
310.2310
0
VERTEX
8
ENGRAVE
10
264.3680
20
310.2310
0
VERTEX
8
ENGRAVE
10
264.3680
20
309.9520
0
VERTEX
8
ENGRAVE
10
262.8860
20
309.9520
0
VERTEX
8
ENGRAVE
10
262.8860
20
309.0620
0
VERTEX
8
ENGRAVE
10
264.5510
20
309.0620
0
VERTEX
8
ENGRAVE
10
264.5510
20
308.7790
0
VERTEX
8
ENGRAVE
10
262.5400
20
308.7790
0
VERTEX
8
ENGRAVE
10
262.5400
20
311.3330
0
VERTEX
8
ENGRAVE
10
264.4770
20
311.3330
0
SEQEND
0
POLYLINE
8
ENGRAVE
66
1
70
1
0
VERTEX
8
ENGRAVE
10
267.8750
20
308.7790
0
VERTEX
8
ENGRAVE
10
267.5290
20
308.7790
0
VERTEX
8
ENGRAVE
10
267.5290
20
311.3330
0
VERTEX
8
ENGRAVE
10
267.8750
20
311.3330
0
SEQEND
0
POLYLINE
8
ENGRAVE
66
1
70
1
0
VERTEX
8
ENGRAVE
10
268.8690
20
309.0620
0
VERTEX
8
ENGRAVE
10
270.1590
20
309.0620
0
VERTEX
8
ENGRAVE
10
270.1590
20
308.7790
0
VERTEX
8
ENGRAVE
10
268.5220
20
308.7790
0
VERTEX
8
ENGRAVE
10
268.5220
20
311.3330
0
VERTEX
8
ENGRAVE
10
268.8690
20
311.3330
0
SEQEND
0
POLYLINE
8
ENGRAVE
66
1
70
1
0
VERTEX
8
ENGRAVE
10
267.5400
20
311.6880
0
VERTEX
8
ENGRAVE
10
267.5400
20
312.0000
0
VERTEX
8
ENGRAVE
10
267.8660
20
312.0000
0
VERTEX
8
ENGRAVE
10
267.8660
20
311.6880
0
SEQEND
0
POLYLINE
8
ENGRAVE
66
1
70
1
0
VERTEX
8
ENGRAVE
10
219.3460
20
280.6240
0
VERTEX
8
ENGRAVE
10
219.3460
20
288.4010
0
VERTEX
8
ENGRAVE
10
216.3410
20
288.4010
0
VERTEX
8
ENGRAVE
10
216.3410
20
289.3700
0
VERTEX
8
ENGRAVE
10
223.5290
20
289.3700
0
VERTEX
8
ENGRAVE
10
223.5290
20
288.4010
0
VERTEX
8
ENGRAVE
10
220.5250
20
288.4010
0
VERTEX
8
ENGRAVE
10
220.5250
20
280.6240
0
SEQEND
0
POLYLINE
8
ENGRAVE
66
1
70
1
0
VERTEX
8
ENGRAVE
10
231.4990
20
289.3700
0
VERTEX
8
ENGRAVE
10
231.4990
20
288.4010
0
VERTEX
8
ENGRAVE
10
226.0490
20
288.4010
0
VERTEX
8
ENGRAVE
10
226.0490
20
285.5960
0
VERTEX
8
ENGRAVE
10
231.1260
20
285.5960
0
VERTEX
8
ENGRAVE
10
231.1260
20
284.6400
0
VERTEX
8
ENGRAVE
10
226.0490
20
284.6400
0
VERTEX
8
ENGRAVE
10
226.0490
20
281.5920
0
VERTEX
8
ENGRAVE
10
231.7530
20
281.5920
0
VERTEX
8
ENGRAVE
10
231.7530
20
280.6240
0
VERTEX
8
ENGRAVE
10
224.8630
20
280.6240
0
VERTEX
8
ENGRAVE
10
224.8630
20
289.3700
0
SEQEND
0
POLYLINE
8
ENGRAVE
66
1
70
1
0
VERTEX
8
ENGRAVE
10
240.7780
20
286.6520
0
VERTEX
8
ENGRAVE
10
240.8340
20
288.3210
0
VERTEX
8
ENGRAVE
10
240.3370
20
286.7130
0
VERTEX
8
ENGRAVE
10
238.0280
20
280.6240
0
VERTEX
8
ENGRAVE
10
237.1970
20
280.6240
0
VERTEX
8
ENGRAVE
10
234.9060
20
286.5830
0
VERTEX
8
ENGRAVE
10
234.3540
20
288.3210
0
VERTEX
8
ENGRAVE
10
234.3970
20
280.6240
0
VERTEX
8
ENGRAVE
10
233.3420
20
280.6240
0
VERTEX
8
ENGRAVE
10
233.3420
20
289.3700
0
VERTEX
8
ENGRAVE
10
234.9000
20
289.3700
0
VERTEX
8
ENGRAVE
10
237.2280
20
283.3060
0
VERTEX
8
ENGRAVE
10
237.6190
20
281.9150
0
VERTEX
8
ENGRAVE
10
237.9980
20
283.1940
0
VERTEX
8
ENGRAVE
10
240.3250
20
289.3700
0
VERTEX
8
ENGRAVE
10
241.8460
20
289.3700
0
VERTEX
8
ENGRAVE
10
241.8460
20
280.6240
0
VERTEX
8
ENGRAVE
10
240.7780
20
280.6240
0
SEQEND
0
POLYLINE
8
ENGRAVE
66
1
70
1
0
VERTEX
8
ENGRAVE
10
215.4350
20
282.5760
0
VERTEX
8
ENGRAVE
10
215.3210
20
282.1580
0
VERTEX
8
ENGRAVE
10
215.1320
20
281.7830
0
VERTEX
8
ENGRAVE
10
214.7060
20
281.3020
0
VERTEX
8
ENGRAVE
10
213.8880
20
280.8250
0
VERTEX
8
ENGRAVE
10
213.1120
20
280.6060
0
VERTEX
8
ENGRAVE
10
211.8600
20
280.5000
0
VERTEX
8
ENGRAVE
10
210.6890
20
280.5890
0
VERTEX
8
ENGRAVE
10
209.7330
20
280.8560
0
VERTEX
8
ENGRAVE
10
208.9920
20
281.3000
0
VERTEX
8
ENGRAVE
10
208.4660
20
281.9220
0
VERTEX
8
ENGRAVE
10
208.1540
20
282.7220
0
VERTEX
8
ENGRAVE
10
209.3030
20
282.9520
0
VERTEX
8
ENGRAVE
10
209.6130
20
282.2680
0
VERTEX
8
ENGRAVE
10
210.1470
20
281.7940
0
VERTEX
8
ENGRAVE
10
210.9090
20
281.5170
0
VERTEX
8
ENGRAVE
10
212.1280
20
281.4290
0
VERTEX
8
ENGRAVE
10
213.0930
20
281.5670
0
VERTEX
8
ENGRAVE
10
213.7940
20
281.9010
0
VERTEX
8
ENGRAVE
10
214.1430
20
282.3050
0
VERTEX
8
ENGRAVE
10
214.2430
20
282.5520
0
VERTEX
8
ENGRAVE
10
214.2990
20
282.9770
0
VERTEX
8
ENGRAVE
10
214.2500
20
283.3640
0
VERTEX
8
ENGRAVE
10
214.1410
20
283.6170
0
VERTEX
8
ENGRAVE
10
213.9220
20
283.8700
0
VERTEX
8
ENGRAVE
10
213.6240
20
284.0770
0
VERTEX
8
ENGRAVE
10
212.9010
20
284.3550
0
VERTEX
8
ENGRAVE
10
210.2850
20
285.0260
0
VERTEX
8
ENGRAVE
10
209.5700
20
285.3610
0
VERTEX
8
ENGRAVE
10
209.0850
20
285.7470
0
VERTEX
8
ENGRAVE
10
208.6970
20
286.3680
0
VERTEX
8
ENGRAVE
10
208.5640
20
287.1600
0
VERTEX
8
ENGRAVE
10
208.7020
20
287.9760
0
VERTEX
8
ENGRAVE
10
208.8740
20
288.3230
0
VERTEX
8
ENGRAVE
10
209.1140
20
288.6280
0
VERTEX
8
ENGRAVE
10
209.6030
20
289.0070
0
VERTEX
8
ENGRAVE
10
210.2300
20
289.2810
0
VERTEX
8
ENGRAVE
10
210.9910
20
289.4450
0
VERTEX
8
ENGRAVE
10
211.8850
20
289.5000
0
VERTEX
8
ENGRAVE
10
212.9640
20
289.4270
0
VERTEX
8
ENGRAVE
10
213.6270
20
289.2760
0
VERTEX
8
ENGRAVE
10
214.1630
20
289.0440
0
VERTEX
8
ENGRAVE
10
214.5930
20
288.7120
0
VERTEX
8
ENGRAVE
10
214.9390
20
288.2650
0
VERTEX
8
ENGRAVE
10
215.2680
20
287.4890
0
VERTEX
8
ENGRAVE
10
214.1010
20
287.2840
0
VERTEX
8
ENGRAVE
10
213.9540
20
287.6670
0
VERTEX
8
ENGRAVE
10
213.7450
20
287.9810
0
VERTEX
8
ENGRAVE
10
213.2560
20
288.3520
0
VERTEX
8
ENGRAVE
10
212.4090
20
288.5780
0
VERTEX
8
ENGRAVE
10
211.4730
20
288.5920
0
VERTEX
8
ENGRAVE
10
210.6470
20
288.4360
0
VERTEX
8
ENGRAVE
10
210.0720
20
288.1060
0
VERTEX
8
ENGRAVE
10
209.8570
20
287.8260
0
VERTEX
8
ENGRAVE
10
209.7680
20
287.6050
0
VERTEX
8
ENGRAVE
10
209.7270
20
287.0660
0
VERTEX
8
ENGRAVE
10
209.7960
20
286.7880
0
VERTEX
8
ENGRAVE
10
209.9330
20
286.5550
0
VERTEX
8
ENGRAVE
10
210.1940
20
286.3110
0
VERTEX
8
ENGRAVE
10
210.5500
20
286.1080
0
VERTEX
8
ENGRAVE
10
211.3230
20
285.8580
0
VERTEX
8
ENGRAVE
10
213.5800
20
285.2910
0
VERTEX
8
ENGRAVE
10
214.2180
20
285.0290
0
VERTEX
8
ENGRAVE
10
214.7130
20
284.7250
0
VERTEX
8
ENGRAVE
10
215.1020
20
284.3200
0
VERTEX
8
ENGRAVE
10
215.3640
20
283.7980
0
VERTEX
8
ENGRAVE
10
215.4670
20
283.2250
0
SEQEND
0
POLYLINE
8
ENGRAVE
66
1
70
1
0
VERTEX
8
ENGRAVE
10
203.5910
20
269.5990
0
VERTEX
8
ENGRAVE
10
203.7830
20
269.2670
0
VERTEX
8
ENGRAVE
10
204.0660
20
269.1400
0
VERTEX
8
ENGRAVE
10
204.3220
20
269.1400
0
VERTEX
8
ENGRAVE
10
204.5140
20
269.1950
0
VERTEX
8
ENGRAVE
10
204.6800
20
269.3170
0
VERTEX
8
ENGRAVE
10
204.7770
20
269.4790
0
VERTEX
8
ENGRAVE
10
205.1080
20
269.3850
0
VERTEX
8
ENGRAVE
10
204.9390
20
269.1110
0
VERTEX
8
ENGRAVE
10
204.6780
20
268.9340
0
VERTEX
8
ENGRAVE
10
204.3230
20
268.8540
0
VERTEX
8
ENGRAVE
10
203.9920
20
268.8610
0
VERTEX
8
ENGRAVE
10
203.6670
20
268.9560
0
VERTEX
8
ENGRAVE
10
203.4180
20
269.1480
0
VERTEX
8
ENGRAVE
10
203.2840
20
269.3540
0
VERTEX
8
ENGRAVE
10
203.1580
20
269.9230
0
VERTEX
8
ENGRAVE
10
203.1660
20
270.2530
0
VERTEX
8
ENGRAVE
10
203.2500
20
270.6180
0
VERTEX
8
ENGRAVE
10
203.3680
20
270.8370
0
VERTEX
8
ENGRAVE
10
203.5960
20
271.0530
0
VERTEX
8
ENGRAVE
10
203.8150
20
271.1520
0
VERTEX
8
ENGRAVE
10
204.1690
20
271.2000
0
VERTEX
8
ENGRAVE
10
204.5290
20
271.1510
0
VERTEX
8
ENGRAVE
10
204.8090
20
271.0070
0
VERTEX
8
ENGRAVE
10
205.0090
20
270.7660
0
VERTEX
8
ENGRAVE
10
205.0790
20
270.6090
0
VERTEX
8
ENGRAVE
10
205.1690
20
269.9440
0
VERTEX
8
ENGRAVE
10
203.5510
20
269.9440
0
SEQEND
0
POLYLINE
8
ENGRAVE
66
1
70
1
0
VERTEX
8
ENGRAVE
10
204.7180
20
270.5430
0
VERTEX
8
ENGRAVE
10
204.6260
20
270.7220
0
VERTEX
8
ENGRAVE
10
204.4550
20
270.8620
0
VERTEX
8
ENGRAVE
10
204.2710
20
270.9140
0
VERTEX
8
ENGRAVE
10
204.0080
20
270.9040
0
VERTEX
8
ENGRAVE
10
203.8350
20
270.8310
0
VERTEX
8
ENGRAVE
10
203.6700
20
270.6590
0
VERTEX
8
ENGRAVE
10
203.5550
20
270.2340
0
VERTEX
8
ENGRAVE
10
204.7790
20
270.2340
0
SEQEND
0
POLYLINE
8
ENGRAVE
66
1
70
1
0
VERTEX
8
ENGRAVE
10
210.4200
20
271.1580
0
VERTEX
8
ENGRAVE
10
210.7970
20
271.1580
0
VERTEX
8
ENGRAVE
10
210.7970
20
268.8910
0
VERTEX
8
ENGRAVE
10
210.4200
20
268.8910
0
SEQEND
0
POLYLINE
8
ENGRAVE
66
1
70
1
0
VERTEX
8
ENGRAVE
10
216.8970
20
268.8940
0
VERTEX
8
ENGRAVE
10
216.6830
20
269.0290
0
VERTEX
8
ENGRAVE
10
216.5380
20
269.2930
0
VERTEX
8
ENGRAVE
10
216.5200
20
269.6580
0
VERTEX
8
ENGRAVE
10
216.6240
20
269.9360
0
VERTEX
8
ENGRAVE
10
216.7910
20
270.1000
0
VERTEX
8
ENGRAVE
10
217.0450
20
270.2080
0
VERTEX
8
ENGRAVE
10
217.9980
20
270.2730
0
VERTEX
8
ENGRAVE
10
217.9940
20
270.5010
0
VERTEX
8
ENGRAVE
10
217.9030
20
270.7680
0
VERTEX
8
ENGRAVE
10
217.6920
20
270.8930
0
VERTEX
8
ENGRAVE
10
217.4160
20
270.9090
0
VERTEX
8
ENGRAVE
10
217.1950
20
270.8580
0
VERTEX
8
ENGRAVE
10
217.0660
20
270.7410
0
VERTEX
8
ENGRAVE
10
217.0050
20
270.5520
0
VERTEX
8
ENGRAVE
10
216.6110
20
270.5880
0
VERTEX
8
ENGRAVE
10
216.6790
20
270.8080
0
VERTEX
8
ENGRAVE
10
216.8870
20
271.0470
0
VERTEX
8
ENGRAVE
10
217.2240
20
271.1750
0
VERTEX
8
ENGRAVE
10
217.6830
20
271.1920
0
VERTEX
8
ENGRAVE
10
218.0150
20
271.1040
0
VERTEX
8
ENGRAVE
10
218.2050
20
270.9630
0
VERTEX
8
ENGRAVE
10
218.3450
20
270.7060
0
VERTEX
8
ENGRAVE
10
218.3960
20
269.2890
0
VERTEX
8
ENGRAVE
10
218.4880
20
269.1440
0
VERTEX
8
ENGRAVE
10
218.7150
20
269.1380
0
VERTEX
8
ENGRAVE
10
218.7150
20
268.9030
0
VERTEX
8
ENGRAVE
10
218.3830
20
268.8710
0
VERTEX
8
ENGRAVE
10
218.1860
20
268.9230
0
VERTEX
8
ENGRAVE
10
218.0690
20
269.0570
0
VERTEX
8
ENGRAVE
10
217.9980
20
269.3240
0
VERTEX
8
ENGRAVE
10
217.8080
20
269.0670
0
VERTEX
8
ENGRAVE
10
217.5820
20
268.9180
0
VERTEX
8
ENGRAVE
10
217.2500
20
268.8500
0
SEQEND
0
POLYLINE
8
ENGRAVE
66
1
70
1
0
VERTEX
8
ENGRAVE
10
217.4780
20
269.1550
0
VERTEX
8
ENGRAVE
10
217.7120
20
269.2660
0
VERTEX
8
ENGRAVE
10
217.8860
20
269.4520
0
VERTEX
8
ENGRAVE
10
217.9830
20
269.6850
0
VERTEX
8
ENGRAVE
10
217.9980
20
270.0090
0
VERTEX
8
ENGRAVE
10
217.2420
20
269.9650
0
VERTEX
8
ENGRAVE
10
217.0830
20
269.8980
0
VERTEX
8
ENGRAVE
10
216.9580
20
269.7700
0
VERTEX
8
ENGRAVE
10
216.8990
20
269.4810
0
VERTEX
8
ENGRAVE
10
216.9790
20
269.2530
0
VERTEX
8
ENGRAVE
10
217.1790
20
269.1410
0
SEQEND
0
POLYLINE
8
ENGRAVE
66
1
70
1
0
VERTEX
8
ENGRAVE
10
220.5710
20
271.1580
0
VERTEX
8
ENGRAVE
10
220.5710
20
268.8910
0
VERTEX
8
ENGRAVE
10
220.1940
20
268.8910
0
VERTEX
8
ENGRAVE
10
220.1940
20
271.1580
0
SEQEND
0
POLYLINE
8
ENGRAVE
66
1
70
1
0
VERTEX
8
ENGRAVE
10
207.0810
20
270.4910
0
VERTEX
8
ENGRAVE
10
207.0000
20
270.7640
0
VERTEX
8
ENGRAVE
10
206.8120
20
270.8890
0
VERTEX
8
ENGRAVE
10
206.4680
20
270.8920
0
VERTEX
8
ENGRAVE
10
206.1910
20
270.7220
0
VERTEX
8
ENGRAVE
10
206.0910
20
270.5500
0
VERTEX
8
ENGRAVE
10
206.0400
20
270.3310
0
VERTEX
8
ENGRAVE
10
206.0340
20
268.8910
0
VERTEX
8
ENGRAVE
10
205.6570
20
268.8910
0
VERTEX
8
ENGRAVE
10
205.6440
20
271.1580
0
VERTEX
8
ENGRAVE
10
206.0010
20
271.1580
0
VERTEX
8
ENGRAVE
10
206.0170
20
270.7700
0
VERTEX
8
ENGRAVE
10
206.2580
20
271.0580
0
VERTEX
8
ENGRAVE
10
206.5590
20
271.1840
0
VERTEX
8
ENGRAVE
10
207.0150
20
271.1700
0
VERTEX
8
ENGRAVE
10
207.2170
20
271.0810
0
VERTEX
8
ENGRAVE
10
207.3270
20
270.9750
0
VERTEX
8
ENGRAVE
10
207.4600
20
270.5630
0
VERTEX
8
ENGRAVE
10
207.4670
20
268.8910
0
VERTEX
8
ENGRAVE
10
207.0880
20
268.8910
0
SEQEND
0
POLYLINE
8
ENGRAVE
66
1
70
1
0
VERTEX
8
ENGRAVE
10
215.1970
20
268.8910
0
VERTEX
8
ENGRAVE
10
215.1840
20
271.1580
0
VERTEX
8
ENGRAVE
10
215.5410
20
271.1580
0
VERTEX
8
ENGRAVE
10
215.5660
20
270.6950
0
VERTEX
8
ENGRAVE
10
215.6840
20
270.9780
0
VERTEX
8
ENGRAVE
10
215.7980
20
271.1130
0
VERTEX
8
ENGRAVE
10
215.9850
20
271.1900
0
VERTEX
8
ENGRAVE
10
216.2570
20
271.1790
0
VERTEX
8
ENGRAVE
10
216.2570
20
270.8330
0
VERTEX
8
ENGRAVE
10
216.0100
20
270.8520
0
VERTEX
8
ENGRAVE
10
215.8490
20
270.8030
0
VERTEX
8
ENGRAVE
10
215.7240
20
270.6900
0
VERTEX
8
ENGRAVE
10
215.6190
20
270.4620
0
VERTEX
8
ENGRAVE
10
215.5750
20
270.1460
0
VERTEX
8
ENGRAVE
10
215.5740
20
268.8910
0
SEQEND
0
POLYLINE
8
ENGRAVE
66
1
70
1
0
VERTEX
8
ENGRAVE
10
200.4630
20
271.8430
0
VERTEX
8
ENGRAVE
10
200.8630
20
271.8430
0
VERTEX
8
ENGRAVE
10
200.8630
20
270.3640
0
VERTEX
8
ENGRAVE
10
202.2850
20
271.8430
0
VERTEX
8
ENGRAVE
10
202.7570
20
271.8430
0
VERTEX
8
ENGRAVE
10
201.5000
20
270.5610
0
VERTEX
8
ENGRAVE
10
202.9250
20
268.8910
0
VERTEX
8
ENGRAVE
10
202.4280
20
268.8910
0
VERTEX
8
ENGRAVE
10
201.2480
20
270.3150
0
VERTEX
8
ENGRAVE
10
200.8630
20
270.0220
0
VERTEX
8
ENGRAVE
10
200.8630
20
268.8910
0
VERTEX
8
ENGRAVE
10
200.4630
20
268.8910
0
SEQEND
0
POLYLINE
8
ENGRAVE
66
1
70
1
0
VERTEX
8
ENGRAVE
10
212.3750
20
271.8430
0
VERTEX
8
ENGRAVE
10
214.8010
20
271.8430
0
VERTEX
8
ENGRAVE
10
214.8010
20
271.5160
0
VERTEX
8
ENGRAVE
10
213.7870
20
271.5160
0
VERTEX
8
ENGRAVE
10
213.7870
20
268.8910
0
VERTEX
8
ENGRAVE
10
213.3890
20
268.8910
0
VERTEX
8
ENGRAVE
10
213.3890
20
271.5160
0
VERTEX
8
ENGRAVE
10
212.3750
20
271.5160
0
SEQEND
0
POLYLINE
8
ENGRAVE
66
1
70
1
0
VERTEX
8
ENGRAVE
10
209.3440
20
269.0680
0
VERTEX
8
ENGRAVE
10
209.1160
20
268.9090
0
VERTEX
8
ENGRAVE
10
208.8100
20
268.8500
0
VERTEX
8
ENGRAVE
10
208.4530
20
268.8950
0
VERTEX
8
ENGRAVE
10
208.2180
20
269.0340
0
VERTEX
8
ENGRAVE
10
208.0560
20
269.2650
0
VERTEX
8
ENGRAVE
10
207.9580
20
269.5920
0
VERTEX
8
ENGRAVE
10
207.9260
20
270.0140
0
VERTEX
8
ENGRAVE
10
207.9590
20
270.4410
0
VERTEX
8
ENGRAVE
10
208.0600
20
270.7730
0
VERTEX
8
ENGRAVE
10
208.2260
20
271.0100
0
VERTEX
8
ENGRAVE
10
208.6020
20
271.1880
0
VERTEX
8
ENGRAVE
10
208.9070
20
271.1910
0
VERTEX
8
ENGRAVE
10
209.1540
20
271.1230
0
VERTEX
8
ENGRAVE
10
209.3160
20
271.0120
0
VERTEX
8
ENGRAVE
10
209.4700
20
270.8060
0
VERTEX
8
ENGRAVE
10
209.4660
20
272.0000
0
VERTEX
8
ENGRAVE
10
209.8430
20
272.0000
0
VERTEX
8
ENGRAVE
10
209.8560
20
268.8910
0
VERTEX
8
ENGRAVE
10
209.4960
20
268.8910
0
VERTEX
8
ENGRAVE
10
209.4750
20
269.2550
0
SEQEND
0
POLYLINE
8
ENGRAVE
66
1
70
1
0
VERTEX
8
ENGRAVE
10
208.3540
20
269.6180
0
VERTEX
8
ENGRAVE
10
208.4750
20
269.3060
0
VERTEX
8
ENGRAVE
10
208.7010
20
269.1580
0
VERTEX
8
ENGRAVE
10
209.0850
20
269.1750
0
VERTEX
8
ENGRAVE
10
209.3220
20
269.3620
0
VERTEX
8
ENGRAVE
10
209.4430
20
269.7170
0
VERTEX
8
ENGRAVE
10
209.4600
20
270.2220
0
VERTEX
8
ENGRAVE
10
209.3740
20
270.6180
0
VERTEX
8
ENGRAVE
10
209.2190
20
270.8180
0
VERTEX
8
ENGRAVE
10
209.0350
20
270.9020
0
VERTEX
8
ENGRAVE
10
208.8050
20
270.9190
0
VERTEX
8
ENGRAVE
10
208.6150
20
270.8680
0
VERTEX
8
ENGRAVE
10
208.4760
20
270.7500
0
VERTEX
8
ENGRAVE
10
208.3840
20
270.5600
0
VERTEX
8
ENGRAVE
10
208.3340
20
270.2870
0
SEQEND
0
POLYLINE
8
ENGRAVE
66
1
70
1
0
VERTEX
8
ENGRAVE
10
218.7760
20
271.1580
0
VERTEX
8
ENGRAVE
10
219.0940
20
271.1580
0
VERTEX
8
ENGRAVE
10
219.1160
20
271.6340
0
VERTEX
8
ENGRAVE
10
219.1810
20
271.7980
0
VERTEX
8
ENGRAVE
10
219.2910
20
271.9090
0
VERTEX
8
ENGRAVE
10
219.5410
20
271.9900
0
VERTEX
8
ENGRAVE
10
219.9140
20
271.9710
0
VERTEX
8
ENGRAVE
10
219.9140
20
271.6840
0
VERTEX
8
ENGRAVE
10
219.6010
20
271.6740
0
VERTEX
8
ENGRAVE
10
219.5130
20
271.5930
0
VERTEX
8
ENGRAVE
10
219.4770
20
271.4660
0
VERTEX
8
ENGRAVE
10
219.4710
20
271.1580
0
VERTEX
8
ENGRAVE
10
219.9140
20
271.1580
0
VERTEX
8
ENGRAVE
10
219.9140
20
270.8830
0
VERTEX
8
ENGRAVE
10
219.4710
20
270.8830
0
VERTEX
8
ENGRAVE
10
219.4710
20
268.8910
0
VERTEX
8
ENGRAVE
10
219.0940
20
268.8910
0
VERTEX
8
ENGRAVE
10
219.0940
20
270.8830
0
VERTEX
8
ENGRAVE
10
218.7760
20
270.8830
0
SEQEND
0
POLYLINE
8
ENGRAVE
66
1
70
1
0
VERTEX
8
ENGRAVE
10
210.7970
20
272.0000
0
VERTEX
8
ENGRAVE
10
210.7970
20
271.6400
0
VERTEX
8
ENGRAVE
10
210.4200
20
271.6400
0
VERTEX
8
ENGRAVE
10
210.4200
20
272.0000
0
SEQEND
0
POLYLINE
8
ENGRAVE
66
1
70
1
0
VERTEX
8
ENGRAVE
10
220.1940
20
272.0000
0
VERTEX
8
ENGRAVE
10
220.5710
20
272.0000
0
VERTEX
8
ENGRAVE
10
220.5710
20
271.6400
0
VERTEX
8
ENGRAVE
10
220.1940
20
271.6400
0
SEQEND
0
POLYLINE
8
ENGRAVE
66
1
70
1
0
VERTEX
8
ENGRAVE
10
249.2460
20
269.0380
0
VERTEX
8
ENGRAVE
10
248.8700
20
268.8600
0
VERTEX
8
ENGRAVE
10
248.5160
20
268.8640
0
VERTEX
8
ENGRAVE
10
248.2070
20
268.9900
0
VERTEX
8
ENGRAVE
10
247.9970
20
269.2430
0
VERTEX
8
ENGRAVE
10
248.0060
20
268.0000
0
VERTEX
8
ENGRAVE
10
247.6290
20
268.0000
0
VERTEX
8
ENGRAVE
10
247.6160
20
271.1580
0
VERTEX
8
ENGRAVE
10
247.9810
20
271.1580
0
VERTEX
8
ENGRAVE
10
248.0020
20
270.7930
0
VERTEX
8
ENGRAVE
10
248.2440
20
271.0790
0
VERTEX
8
ENGRAVE
10
248.6080
20
271.1940
0
VERTEX
8
ENGRAVE
10
249.0130
20
271.1530
0
VERTEX
8
ENGRAVE
10
249.1950
20
271.0600
0
VERTEX
8
ENGRAVE
10
249.3380
20
270.9170
0
VERTEX
8
ENGRAVE
10
249.5130
20
270.4640
0
VERTEX
8
ENGRAVE
10
249.5370
20
269.8090
0
VERTEX
8
ENGRAVE
10
249.4710
20
269.4300
0
SEQEND
0
POLYLINE
8
ENGRAVE
66
1
70
1
0
VERTEX
8
ENGRAVE
10
249.1040
20
270.4970
0
VERTEX
8
ENGRAVE
10
248.9650
20
270.7760
0
VERTEX
8
ENGRAVE
10
248.7210
20
270.8980
0
VERTEX
8
ENGRAVE
10
248.3820
20
270.8720
0
VERTEX
8
ENGRAVE
10
248.1530
20
270.6910
0
VERTEX
8
ENGRAVE
10
248.0300
20
270.3380
0
VERTEX
8
ENGRAVE
10
248.0190
20
269.7500
0
VERTEX
8
ENGRAVE
10
248.1210
20
269.3840
0
VERTEX
8
ENGRAVE
10
248.2910
20
269.2030
0
VERTEX
8
ENGRAVE
10
248.4900
20
269.1360
0
VERTEX
8
ENGRAVE
10
248.7180
20
269.1360
0
VERTEX
8
ENGRAVE
10
248.8940
20
269.2020
0
VERTEX
8
ENGRAVE
10
249.0210
20
269.3340
0
VERTEX
8
ENGRAVE
10
249.1030
20
269.5440
0
VERTEX
8
ENGRAVE
10
249.1450
20
269.8430
0
SEQEND
0
POLYLINE
8
ENGRAVE
66
1
70
1
0
VERTEX
8
ENGRAVE
10
227.1040
20
268.9130
0
VERTEX
8
ENGRAVE
10
226.9070
20
269.0660
0
VERTEX
8
ENGRAVE
10
226.7830
20
269.3470
0
VERTEX
8
ENGRAVE
10
226.7770
20
269.6580
0
VERTEX
8
ENGRAVE
10
226.8810
20
269.9360
0
VERTEX
8
ENGRAVE
10
227.0480
20
270.1000
0
VERTEX
8
ENGRAVE
10
227.3010
20
270.2080
0
VERTEX
8
ENGRAVE
10
228.2550
20
270.2730
0
VERTEX
8
ENGRAVE
10
228.2500
20
270.5010
0
VERTEX
8
ENGRAVE
10
228.1600
20
270.7680
0
VERTEX
8
ENGRAVE
10
227.9490
20
270.8930
0
VERTEX
8
ENGRAVE
10
227.6730
20
270.9090
0
VERTEX
8
ENGRAVE
10
227.4520
20
270.8580
0
VERTEX
8
ENGRAVE
10
227.3230
20
270.7410
0
VERTEX
8
ENGRAVE
10
227.2620
20
270.5520
0
VERTEX
8
ENGRAVE
10
226.8680
20
270.5880
0
VERTEX
8
ENGRAVE
10
226.9350
20
270.8080
0
VERTEX
8
ENGRAVE
10
227.1440
20
271.0470
0
VERTEX
8
ENGRAVE
10
227.4810
20
271.1750
0
VERTEX
8
ENGRAVE
10
227.9400
20
271.1920
0
VERTEX
8
ENGRAVE
10
228.3260
20
271.0740
0
VERTEX
8
ENGRAVE
10
228.4980
20
270.9180
0
VERTEX
8
ENGRAVE
10
228.6170
20
270.6440
0
VERTEX
8
ENGRAVE
10
228.6580
20
269.2660
0
VERTEX
8
ENGRAVE
10
228.7620
20
269.1370
0
VERTEX
8
ENGRAVE
10
228.9720
20
269.1380
0
VERTEX
8
ENGRAVE
10
228.9720
20
268.9030
0
VERTEX
8
ENGRAVE
10
228.6400
20
268.8710
0
VERTEX
8
ENGRAVE
10
228.4430
20
268.9230
0
VERTEX
8
ENGRAVE
10
228.3260
20
269.0570
0
VERTEX
8
ENGRAVE
10
228.2680
20
269.3240
0
VERTEX
8
ENGRAVE
10
228.0300
20
269.0350
0
VERTEX
8
ENGRAVE
10
227.7960
20
268.9010
0
VERTEX
8
ENGRAVE
10
227.4530
20
268.8490
0
SEQEND
0
POLYLINE
8
ENGRAVE
66
1
70
1
0
VERTEX
8
ENGRAVE
10
227.7710
20
269.1650
0
VERTEX
8
ENGRAVE
10
227.9980
20
269.2890
0
VERTEX
8
ENGRAVE
10
228.1620
20
269.4850
0
VERTEX
8
ENGRAVE
10
228.2470
20
269.7190
0
VERTEX
8
ENGRAVE
10
228.2550
20
270.0090
0
VERTEX
8
ENGRAVE
10
227.4990
20
269.9650
0
VERTEX
8
ENGRAVE
10
227.3390
20
269.8980
0
VERTEX
8
ENGRAVE
10
227.2140
20
269.7700
0
VERTEX
8
ENGRAVE
10
227.1560
20
269.4810
0
VERTEX
8
ENGRAVE
10
227.2550
20
269.2320
0
VERTEX
8
ENGRAVE
10
227.4680
20
269.1360
0
SEQEND
0
POLYLINE
8
ENGRAVE
66
1
70
1
0
VERTEX
8
ENGRAVE
10
235.5010
20
268.8940
0
VERTEX
8
ENGRAVE
10
235.2870
20
269.0290
0
VERTEX
8
ENGRAVE
10
235.1430
20
269.2930
0
VERTEX
8
ENGRAVE
10
235.1240
20
269.6580
0
VERTEX
8
ENGRAVE
10
235.2290
20
269.9360
0
VERTEX
8
ENGRAVE
10
235.3960
20
270.1000
0
VERTEX
8
ENGRAVE
10
235.6490
20
270.2080
0
VERTEX
8
ENGRAVE
10
236.6030
20
270.2730
0
VERTEX
8
ENGRAVE
10
236.5980
20
270.5010
0
VERTEX
8
ENGRAVE
10
236.5080
20
270.7680
0
VERTEX
8
ENGRAVE
10
236.2960
20
270.8930
0
VERTEX
8
ENGRAVE
10
236.0210
20
270.9090
0
VERTEX
8
ENGRAVE
10
235.8000
20
270.8580
0
VERTEX
8
ENGRAVE
10
235.6710
20
270.7410
0
VERTEX
8
ENGRAVE
10
235.6100
20
270.5520
0
VERTEX
8
ENGRAVE
10
235.2160
20
270.5880
0
VERTEX
8
ENGRAVE
10
235.2830
20
270.8080
0
VERTEX
8
ENGRAVE
10
235.4910
20
271.0470
0
VERTEX
8
ENGRAVE
10
235.8290
20
271.1750
0
VERTEX
8
ENGRAVE
10
236.2880
20
271.1920
0
VERTEX
8
ENGRAVE
10
236.6200
20
271.1040
0
VERTEX
8
ENGRAVE
10
236.8090
20
270.9630
0
VERTEX
8
ENGRAVE
10
236.9500
20
270.7060
0
VERTEX
8
ENGRAVE
10
237.0000
20
269.2890
0
VERTEX
8
ENGRAVE
10
237.0920
20
269.1440
0
VERTEX
8
ENGRAVE
10
237.3200
20
269.1380
0
VERTEX
8
ENGRAVE
10
237.3200
20
268.9030
0
VERTEX
8
ENGRAVE
10
236.9880
20
268.8710
0
VERTEX
8
ENGRAVE
10
236.7910
20
268.9230
0
VERTEX
8
ENGRAVE
10
236.6740
20
269.0570
0
VERTEX
8
ENGRAVE
10
236.6030
20
269.3240
0
VERTEX
8
ENGRAVE
10
236.4120
20
269.0670
0
VERTEX
8
ENGRAVE
10
236.1870
20
268.9180
0
VERTEX
8
ENGRAVE
10
235.8540
20
268.8500
0
SEQEND
0
POLYLINE
8
ENGRAVE
66
1
70
1
0
VERTEX
8
ENGRAVE
10
236.0820
20
269.1550
0
VERTEX
8
ENGRAVE
10
236.3170
20
269.2660
0
VERTEX
8
ENGRAVE
10
236.4900
20
269.4520
0
VERTEX
8
ENGRAVE
10
236.5880
20
269.6850
0
VERTEX
8
ENGRAVE
10
236.6030
20
270.0090
0
VERTEX
8
ENGRAVE
10
235.8470
20
269.9650
0
VERTEX
8
ENGRAVE
10
235.6870
20
269.8980
0
VERTEX
8
ENGRAVE
10
235.5620
20
269.7700
0
VERTEX
8
ENGRAVE
10
235.5040
20
269.4810
0
VERTEX
8
ENGRAVE
10
235.5830
20
269.2530
0
VERTEX
8
ENGRAVE
10
235.7830
20
269.1410
0
SEQEND
0
POLYLINE
8
ENGRAVE
66
1
70
1
0
VERTEX
8
ENGRAVE
10
240.1130
20
271.1580
0
VERTEX
8
ENGRAVE
10
240.4900
20
271.1580
0
VERTEX
8
ENGRAVE
10
240.4900
20
268.8910
0
VERTEX
8
ENGRAVE
10
240.1130
20
268.8910
0
SEQEND
0
POLYLINE
8
ENGRAVE
66
1
70
1
0
VERTEX
8
ENGRAVE
10
245.4720
20
268.9130
0
VERTEX
8
ENGRAVE
10
245.2740
20
269.0660
0
VERTEX
8
ENGRAVE
10
245.1510
20
269.3470
0
VERTEX
8
ENGRAVE
10
245.1440
20
269.6580
0
VERTEX
8
ENGRAVE
10
245.2490
20
269.9360
0
VERTEX
8
ENGRAVE
10
245.4160
20
270.1000
0
VERTEX
8
ENGRAVE
10
245.6690
20
270.2080
0
VERTEX
8
ENGRAVE
10
246.6230
20
270.2730
0
VERTEX
8
ENGRAVE
10
246.6180
20
270.5010
0
VERTEX
8
ENGRAVE
10
246.5280
20
270.7680
0
VERTEX
8
ENGRAVE
10
246.3160
20
270.8930
0
VERTEX
8
ENGRAVE
10
246.0410
20
270.9090
0
VERTEX
8
ENGRAVE
10
245.8200
20
270.8580
0
VERTEX
8
ENGRAVE
10
245.6900
20
270.7410
0
VERTEX
8
ENGRAVE
10
245.6300
20
270.5520
0
VERTEX
8
ENGRAVE
10
245.2360
20
270.5880
0
VERTEX
8
ENGRAVE
10
245.3030
20
270.8080
0
VERTEX
8
ENGRAVE
10
245.5110
20
271.0470
0
VERTEX
8
ENGRAVE
10
245.8490
20
271.1750
0
VERTEX
8
ENGRAVE
10
246.3080
20
271.1920
0
VERTEX
8
ENGRAVE
10
246.6940
20
271.0740
0
VERTEX
8
ENGRAVE
10
246.8660
20
270.9180
0
VERTEX
8
ENGRAVE
10
246.9850
20
270.6440
0
VERTEX
8
ENGRAVE
10
247.0260
20
269.2660
0
VERTEX
8
ENGRAVE
10
247.1300
20
269.1370
0
VERTEX
8
ENGRAVE
10
247.3390
20
269.1380
0
VERTEX
8
ENGRAVE
10
247.3390
20
268.9030
0
VERTEX
8
ENGRAVE
10
247.0070
20
268.8710
0
VERTEX
8
ENGRAVE
10
246.8110
20
268.9230
0
VERTEX
8
ENGRAVE
10
246.6940
20
269.0570
0
VERTEX
8
ENGRAVE
10
246.6350
20
269.3240
0
VERTEX
8
ENGRAVE
10
246.3970
20
269.0350
0
VERTEX
8
ENGRAVE
10
246.1640
20
268.9010
0
VERTEX
8
ENGRAVE
10
245.8200
20
268.8490
0
SEQEND
0
POLYLINE
8
ENGRAVE
66
1
70
1
0
VERTEX
8
ENGRAVE
10
246.1390
20
269.1650
0
VERTEX
8
ENGRAVE
10
246.3660
20
269.2890
0
VERTEX
8
ENGRAVE
10
246.5300
20
269.4850
0
VERTEX
8
ENGRAVE
10
246.6140
20
269.7190
0
VERTEX
8
ENGRAVE
10
246.6230
20
270.0090
0
VERTEX
8
ENGRAVE
10
245.8670
20
269.9650
0
VERTEX
8
ENGRAVE
10
245.7070
20
269.8980
0
VERTEX
8
ENGRAVE
10
245.5820
20
269.7700
0
VERTEX
8
ENGRAVE
10
245.5240
20
269.4810
0
VERTEX
8
ENGRAVE
10
245.6220
20
269.2320
0
VERTEX
8
ENGRAVE
10
245.8360
20
269.1360
0
SEQEND
0
POLYLINE
8
ENGRAVE
66
1
70
1
0
VERTEX
8
ENGRAVE
10
230.5730
20
270.5070
0
VERTEX
8
ENGRAVE
10
230.4910
20
270.7830
0
VERTEX
8
ENGRAVE
10
230.3310
20
270.8880
0
VERTEX
8
ENGRAVE
10
230.0310
20
270.8920
0
VERTEX
8
ENGRAVE
10
229.7850
20
270.7240
0
VERTEX
8
ENGRAVE
10
229.6500
20
270.3320
0
VERTEX
8
ENGRAVE
10
229.6440
20
268.8910
0
VERTEX
8
ENGRAVE
10
229.2690
20
268.8910
0
VERTEX
8
ENGRAVE
10
229.2570
20
271.1580
0
VERTEX
8
ENGRAVE
10
229.6130
20
271.1580
0
VERTEX
8
ENGRAVE
10
229.6360
20
270.7700
0
VERTEX
8
ENGRAVE
10
229.7660
20
270.9740
0
VERTEX
8
ENGRAVE
10
229.9150
20
271.1050
0
VERTEX
8
ENGRAVE
10
230.2980
20
271.2000
0
VERTEX
8
ENGRAVE
10
230.5290
20
271.1740
0
VERTEX
8
ENGRAVE
10
230.7060
20
271.0970
0
VERTEX
8
ENGRAVE
10
230.8330
20
270.9640
0
VERTEX
8
ENGRAVE
10
230.9140
20
270.7700
0
VERTEX
8
ENGRAVE
10
231.1400
20
271.0540
0
VERTEX
8
ENGRAVE
10
231.4290
20
271.1830
0
VERTEX
8
ENGRAVE
10
231.8530
20
271.1700
0
VERTEX
8
ENGRAVE
10
232.1070
20
271.0130
0
VERTEX
8
ENGRAVE
10
232.2070
20
270.8260
0
VERTEX
8
ENGRAVE
10
232.2570
20
270.5620
0
VERTEX
8
ENGRAVE
10
232.2630
20
268.8910
0
VERTEX
8
ENGRAVE
10
231.8900
20
268.8910
0
VERTEX
8
ENGRAVE
10
231.8680
20
270.6060
0
VERTEX
8
ENGRAVE
10
231.7590
20
270.8280
0
VERTEX
8
ENGRAVE
10
231.4760
20
270.9080
0
VERTEX
8
ENGRAVE
10
231.1830
20
270.8180
0
VERTEX
8
ENGRAVE
10
231.0650
20
270.6870
0
VERTEX
8
ENGRAVE
10
230.9880
20
270.5030
0
VERTEX
8
ENGRAVE
10
230.9540
20
268.8910
0
VERTEX
8
ENGRAVE
10
230.5810
20
268.8910
0
SEQEND
0
POLYLINE
8
ENGRAVE
66
1
70
1
0
VERTEX
8
ENGRAVE
10
239.0410
20
270.4910
0
VERTEX
8
ENGRAVE
10
238.9610
20
270.7640
0
VERTEX
8
ENGRAVE
10
238.7720
20
270.8890
0
VERTEX
8
ENGRAVE
10
238.4280
20
270.8920
0
VERTEX
8
ENGRAVE
10
238.1510
20
270.7220
0
VERTEX
8
ENGRAVE
10
238.0510
20
270.5500
0
VERTEX
8
ENGRAVE
10
238.0010
20
270.3310
0
VERTEX
8
ENGRAVE
10
237.9940
20
268.8910
0
VERTEX
8
ENGRAVE
10
237.6170
20
268.8910
0
VERTEX
8
ENGRAVE
10
237.6040
20
271.1580
0
VERTEX
8
ENGRAVE
10
237.9610
20
271.1580
0
VERTEX
8
ENGRAVE
10
237.9770
20
270.7700
0
VERTEX
8
ENGRAVE
10
238.2180
20
271.0580
0
VERTEX
8
ENGRAVE
10
238.5190
20
271.1840
0
VERTEX
8
ENGRAVE
10
238.9750
20
271.1700
0
VERTEX
8
ENGRAVE
10
239.1770
20
271.0810
0
VERTEX
8
ENGRAVE
10
239.2870
20
270.9750
0
VERTEX
8
ENGRAVE
10
239.4210
20
270.5630
0
VERTEX
8
ENGRAVE
10
239.4270
20
268.8910
0
VERTEX
8
ENGRAVE
10
239.0480
20
268.8910
0
SEQEND
0
POLYLINE
8
ENGRAVE
66
1
70
1
0
VERTEX
8
ENGRAVE
10
226.4430
20
268.8910
0
VERTEX
8
ENGRAVE
10
224.5510
20
268.8910
0
VERTEX
8
ENGRAVE
10
224.5510
20
271.8430
0
VERTEX
8
ENGRAVE
10
224.9510
20
271.8430
0
VERTEX
8
ENGRAVE
10
224.9510
20
269.2170
0
VERTEX
8
ENGRAVE
10
226.4430
20
269.2170
0
SEQEND
0
POLYLINE
8
ENGRAVE
66
1
70
1
0
VERTEX
8
ENGRAVE
10
242.1850
20
271.8430
0
VERTEX
8
ENGRAVE
10
242.6250
20
271.8430
0
VERTEX
8
ENGRAVE
10
243.5240
20
270.4370
0
VERTEX
8
ENGRAVE
10
244.4190
20
271.8430
0
VERTEX
8
ENGRAVE
10
244.8590
20
271.8430
0
VERTEX
8
ENGRAVE
10
243.7190
20
270.1140
0
VERTEX
8
ENGRAVE
10
243.7190
20
268.8910
0
VERTEX
8
ENGRAVE
10
243.3210
20
268.8910
0
VERTEX
8
ENGRAVE
10
243.3210
20
270.1140
0
SEQEND
0
POLYLINE
8
ENGRAVE
66
1
70
1
0
VERTEX
8
ENGRAVE
10
234.4530
20
269.0380
0
VERTEX
8
ENGRAVE
10
234.0770
20
268.8600
0
VERTEX
8
ENGRAVE
10
233.7270
20
268.8640
0
VERTEX
8
ENGRAVE
10
233.4250
20
268.9840
0
VERTEX
8
ENGRAVE
10
233.2080
20
269.2430
0
VERTEX
8
ENGRAVE
10
233.1880
20
268.8910
0
VERTEX
8
ENGRAVE
10
232.8230
20
268.8910
0
VERTEX
8
ENGRAVE
10
232.8350
20
272.0000
0
VERTEX
8
ENGRAVE
10
233.2130
20
272.0000
0
VERTEX
8
ENGRAVE
10
233.2040
20
270.7930
0
VERTEX
8
ENGRAVE
10
233.4560
20
271.0850
0
VERTEX
8
ENGRAVE
10
233.8680
20
271.1990
0
VERTEX
8
ENGRAVE
10
234.2910
20
271.1270
0
VERTEX
8
ENGRAVE
10
234.4610
20
271.0150
0
VERTEX
8
ENGRAVE
10
234.5890
20
270.8500
0
VERTEX
8
ENGRAVE
10
234.7200
20
270.4560
0
VERTEX
8
ENGRAVE
10
234.7440
20
269.8090
0
VERTEX
8
ENGRAVE
10
234.6780
20
269.4300
0
SEQEND
0
POLYLINE
8
ENGRAVE
66
1
70
1
0
VERTEX
8
ENGRAVE
10
234.3110
20
270.4950
0
VERTEX
8
ENGRAVE
10
234.1740
20
270.7770
0
VERTEX
8
ENGRAVE
10
233.9290
20
270.9000
0
VERTEX
8
ENGRAVE
10
233.5950
20
270.8730
0
VERTEX
8
ENGRAVE
10
233.3580
20
270.6900
0
VERTEX
8
ENGRAVE
10
233.2360
20
270.3370
0
VERTEX
8
ENGRAVE
10
233.2250
20
269.7520
0
VERTEX
8
ENGRAVE
10
233.3280
20
269.3850
0
VERTEX
8
ENGRAVE
10
233.4980
20
269.2040
0
VERTEX
8
ENGRAVE
10
233.6970
20
269.1360
0
VERTEX
8
ENGRAVE
10
233.9260
20
269.1360
0
VERTEX
8
ENGRAVE
10
234.1030
20
269.2030
0
VERTEX
8
ENGRAVE
10
234.2300
20
269.3380
0
VERTEX
8
ENGRAVE
10
234.3110
20
269.5480
0
VERTEX
8
ENGRAVE
10
234.3520
20
269.8430
0
SEQEND
0
POLYLINE
8
ENGRAVE
66
1
70
1
0
VERTEX
8
ENGRAVE
10
221.1500
20
272.0000
0
VERTEX
8
ENGRAVE
10
221.5270
20
272.0000
0
VERTEX
8
ENGRAVE
10
221.5270
20
270.0580
0
VERTEX
8
ENGRAVE
10
222.5220
20
271.1580
0
VERTEX
8
ENGRAVE
10
222.9640
20
271.1580
0
VERTEX
8
ENGRAVE
10
222.0450
20
270.1830
0
VERTEX
8
ENGRAVE
10
223.0130
20
268.8910
0
VERTEX
8
ENGRAVE
10
222.5700
20
268.8910
0
VERTEX
8
ENGRAVE
10
221.8040
20
269.9260
0
VERTEX
8
ENGRAVE
10
221.5270
20
269.6970
0
VERTEX
8
ENGRAVE
10
221.5270
20
268.8910
0
VERTEX
8
ENGRAVE
10
221.1500
20
268.8910
0
SEQEND
0
POLYLINE
8
ENGRAVE
66
1
70
1
0
VERTEX
8
ENGRAVE
10
223.6410
20
237.5060
0
VERTEX
8
ENGRAVE
10
223.2270
20
237.6030
0
VERTEX
8
ENGRAVE
10
222.8160
20
237.8320
0
VERTEX
8
ENGRAVE
10
222.5610
20
238.1110
0
VERTEX
8
ENGRAVE
10
222.3930
20
238.4640
0
VERTEX
8
ENGRAVE
10
222.3240
20
238.8820
0
VERTEX
8
ENGRAVE
10
222.3220
20
241.4740
0
VERTEX
8
ENGRAVE
10
222.8550
20
241.4740
0
VERTEX
8
ENGRAVE
10
222.8570
20
238.9130
0
VERTEX
8
ENGRAVE
10
222.9530
20
238.4660
0
VERTEX
8
ENGRAVE
10
223.0760
20
238.2590
0
VERTEX
8
ENGRAVE
10
223.3140
20
238.0590
0
VERTEX
8
ENGRAVE
10
223.6290
20
237.9470
0
VERTEX
8
ENGRAVE
10
223.9170
20
237.9220
0
VERTEX
8
ENGRAVE
10
224.3030
20
237.9680
0
VERTEX
8
ENGRAVE
10
224.5430
20
238.0640
0
VERTEX
8
ENGRAVE
10
224.7970
20
238.2710
0
VERTEX
8
ENGRAVE
10
224.9290
20
238.4840
0
VERTEX
8
ENGRAVE
10
225.0320
20
238.9460
0
VERTEX
8
ENGRAVE
10
225.0350
20
241.4740
0
VERTEX
8
ENGRAVE
10
225.5650
20
241.4740
0
VERTEX
8
ENGRAVE
10
225.5630
20
238.9290
0
VERTEX
8
ENGRAVE
10
225.5140
20
238.5800
0
VERTEX
8
ENGRAVE
10
225.4010
20
238.2710
0
VERTEX
8
ENGRAVE
10
225.1180
20
237.8960
0
VERTEX
8
ENGRAVE
10
224.7160
20
237.6380
0
VERTEX
8
ENGRAVE
10
224.2090
20
237.5070
0
SEQEND
0
POLYLINE
8
ENGRAVE
66
1
70
1
0
VERTEX
8
ENGRAVE
10
207.2950
20
237.5460
0
VERTEX
8
ENGRAVE
10
207.3200
20
241.0030
0
VERTEX
8
ENGRAVE
10
207.0970
20
240.2810
0
VERTEX
8
ENGRAVE
10
206.0600
20
237.5460
0
VERTEX
8
ENGRAVE
10
205.6870
20
237.5460
0
VERTEX
8
ENGRAVE
10
204.6580
20
240.2220
0
VERTEX
8
ENGRAVE
10
204.4100
20
241.0030
0
VERTEX
8
ENGRAVE
10
204.4290
20
237.5460
0
VERTEX
8
ENGRAVE
10
203.9550
20
237.5460
0
VERTEX
8
ENGRAVE
10
203.9550
20
241.4740
0
VERTEX
8
ENGRAVE
10
204.6550
20
241.4740
0
VERTEX
8
ENGRAVE
10
205.7010
20
238.7500
0
VERTEX
8
ENGRAVE
10
205.8760
20
238.1260
0
VERTEX
8
ENGRAVE
10
206.0470
20
238.7000
0
VERTEX
8
ENGRAVE
10
207.0920
20
241.4740
0
VERTEX
8
ENGRAVE
10
207.7750
20
241.4740
0
VERTEX
8
ENGRAVE
10
207.7750
20
237.5460
0
SEQEND
0
POLYLINE
8
ENGRAVE
66
1
70
1
0
VERTEX
8
ENGRAVE
10
208.7700
20
241.4740
0
VERTEX
8
ENGRAVE
10
209.3030
20
241.4740
0
VERTEX
8
ENGRAVE
10
209.3030
20
237.5460
0
VERTEX
8
ENGRAVE
10
208.7700
20
237.5460
0
SEQEND
0
POLYLINE
8
ENGRAVE
66
1
70
1
0
VERTEX
8
ENGRAVE
10
210.7720
20
237.5460
0
VERTEX
8
ENGRAVE
10
210.2980
20
237.5460
0
VERTEX
8
ENGRAVE
10
210.2980
20
241.4740
0
VERTEX
8
ENGRAVE
10
210.9170
20
241.4740
0
VERTEX
8
ENGRAVE
10
213.0410
20
238.1060
0
VERTEX
8
ENGRAVE
10
213.0080
20
241.4740
0
VERTEX
8
ENGRAVE
10
213.4870
20
241.4740
0
VERTEX
8
ENGRAVE
10
213.4870
20
237.5460
0
VERTEX
8
ENGRAVE
10
212.8460
20
237.5460
0
VERTEX
8
ENGRAVE
10
210.7440
20
240.8910
0
SEQEND
0
POLYLINE
8
ENGRAVE
66
1
70
1
0
VERTEX
8
ENGRAVE
10
214.4800
20
241.4740
0
VERTEX
8
ENGRAVE
10
215.0120
20
241.4740
0
VERTEX
8
ENGRAVE
10
215.0120
20
237.5460
0
VERTEX
8
ENGRAVE
10
214.4800
20
237.5460
0
SEQEND
0
POLYLINE
8
ENGRAVE
66
1
70
1
0
VERTEX
8
ENGRAVE
10
220.9340
20
237.5460
0
VERTEX
8
ENGRAVE
10
220.9590
20
241.0030
0
VERTEX
8
ENGRAVE
10
220.7360
20
240.2810
0
VERTEX
8
ENGRAVE
10
219.6990
20
237.5460
0
VERTEX
8
ENGRAVE
10
219.3250
20
237.5460
0
VERTEX
8
ENGRAVE
10
218.2960
20
240.2220
0
VERTEX
8
ENGRAVE
10
218.0480
20
241.0030
0
VERTEX
8
ENGRAVE
10
218.0680
20
237.5460
0
VERTEX
8
ENGRAVE
10
217.5940
20
237.5460
0
VERTEX
8
ENGRAVE
10
217.5940
20
241.4740
0
VERTEX
8
ENGRAVE
10
218.2940
20
241.4740
0
VERTEX
8
ENGRAVE
10
219.3390
20
238.7500
0
VERTEX
8
ENGRAVE
10
219.5150
20
238.1260
0
VERTEX
8
ENGRAVE
10
219.6850
20
238.7000
0
VERTEX
8
ENGRAVE
10
220.7300
20
241.4740
0
VERTEX
8
ENGRAVE
10
221.4130
20
241.4740
0
VERTEX
8
ENGRAVE
10
221.4130
20
237.5460
0
SEQEND
0
POLYLINE
8
ENGRAVE
66
1
70
1
0
VERTEX
8
ENGRAVE
10
208.7870
20
242.5000
0
VERTEX
8
ENGRAVE
10
209.2890
20
242.5000
0
VERTEX
8
ENGRAVE
10
209.2890
20
242.0200
0
VERTEX
8
ENGRAVE
10
208.7870
20
242.0200
0
SEQEND
0
POLYLINE
8
ENGRAVE
66
1
70
1
0
VERTEX
8
ENGRAVE
10
214.4970
20
242.5000
0
VERTEX
8
ENGRAVE
10
214.9980
20
242.5000
0
VERTEX
8
ENGRAVE
10
214.9980
20
242.0200
0
VERTEX
8
ENGRAVE
10
214.4970
20
242.0200
0
SEQEND
0
POLYLINE
8
ENGRAVE
66
1
70
1
0
VERTEX
8
ENGRAVE
10
230.6550
20
241.4740
0
VERTEX
8
ENGRAVE
10
231.1880
20
241.4740
0
VERTEX
8
ENGRAVE
10
231.1880
20
237.5460
0
VERTEX
8
ENGRAVE
10
230.6550
20
237.5460
0
SEQEND
0
POLYLINE
8
ENGRAVE
66
1
70
1
0
VERTEX
8
ENGRAVE
10
231.8430
20
241.0390
0
VERTEX
8
ENGRAVE
10
231.8430
20
241.4740
0
VERTEX
8
ENGRAVE
10
235.0710
20
241.4740
0
VERTEX
8
ENGRAVE
10
235.0710
20
241.0390
0
VERTEX
8
ENGRAVE
10
233.7220
20
241.0390
0
VERTEX
8
ENGRAVE
10
233.7220
20
237.5460
0
VERTEX
8
ENGRAVE
10
233.1920
20
237.5460
0
VERTEX
8
ENGRAVE
10
233.1920
20
241.0390
0
SEQEND
0
POLYLINE
8
ENGRAVE
66
1
70
1
0
VERTEX
8
ENGRAVE
10
238.1880
20
237.9810
0
VERTEX
8
ENGRAVE
10
238.1880
20
237.5460
0
VERTEX
8
ENGRAVE
10
235.6710
20
237.5460
0
VERTEX
8
ENGRAVE
10
235.6710
20
241.4740
0
VERTEX
8
ENGRAVE
10
236.2030
20
241.4740
0
VERTEX
8
ENGRAVE
10
236.2030
20
237.9810
0
SEQEND
0
POLYLINE
8
ENGRAVE
66
1
70
1
0
VERTEX
8
ENGRAVE
10
239.3790
20
241.0390
0
VERTEX
8
ENGRAVE
10
239.3790
20
239.7790
0
VERTEX
8
ENGRAVE
10
241.6590
20
239.7790
0
VERTEX
8
ENGRAVE
10
241.6590
20
239.3500
0
VERTEX
8
ENGRAVE
10
239.3790
20
239.3500
0
VERTEX
8
ENGRAVE
10
239.3790
20
237.9810
0
VERTEX
8
ENGRAVE
10
241.9410
20
237.9810
0
VERTEX
8
ENGRAVE
10
241.9410
20
237.5460
0
VERTEX
8
ENGRAVE
10
238.8460
20
237.5460
0
VERTEX
8
ENGRAVE
10
238.8460
20
241.4740
0
VERTEX
8
ENGRAVE
10
241.8260
20
241.4740
0
VERTEX
8
ENGRAVE
10
241.8260
20
241.0390
0
SEQEND
0
POLYLINE
8
ENGRAVE
66
1
70
1
0
VERTEX
8
ENGRAVE
10
242.6540
20
241.4740
0
VERTEX
8
ENGRAVE
10
244.8740
20
241.4470
0
VERTEX
8
ENGRAVE
10
245.2840
20
241.3290
0
VERTEX
8
ENGRAVE
10
245.6570
20
241.0490
0
VERTEX
8
ENGRAVE
10
245.7980
20
240.8220
0
VERTEX
8
ENGRAVE
10
245.8740
20
240.5530
0
VERTEX
8
ENGRAVE
10
245.8780
20
240.1810
0
VERTEX
8
ENGRAVE
10
245.7970
20
239.8750
0
VERTEX
8
ENGRAVE
10
245.6330
20
239.6150
0
VERTEX
8
ENGRAVE
10
245.4630
20
239.4550
0
VERTEX
8
ENGRAVE
10
245.2570
20
239.3360
0
VERTEX
8
ENGRAVE
10
244.9290
20
239.2380
0
VERTEX
8
ENGRAVE
10
246.0450
20
237.5460
0
VERTEX
8
ENGRAVE
10
245.4310
20
237.5460
0
VERTEX
8
ENGRAVE
10
244.4110
20
239.1770
0
VERTEX
8
ENGRAVE
10
243.1870
20
239.1770
0
VERTEX
8
ENGRAVE
10
243.1870
20
237.5460
0
VERTEX
8
ENGRAVE
10
242.6540
20
237.5460
0
SEQEND
0
POLYLINE
8
ENGRAVE
66
1
70
1
0
VERTEX
8
ENGRAVE
10
245.2950
20
240.6470
0
VERTEX
8
ENGRAVE
10
245.1200
20
240.8680
0
VERTEX
8
ENGRAVE
10
244.7670
20
241.0190
0
VERTEX
8
ENGRAVE
10
243.1870
20
241.0480
0
VERTEX
8
ENGRAVE
10
243.1870
20
239.5980
0
VERTEX
8
ENGRAVE
10
244.5540
20
239.6000
0
VERTEX
8
ENGRAVE
10
244.9680
20
239.6940
0
VERTEX
8
ENGRAVE
10
245.2060
20
239.8790
0
VERTEX
8
ENGRAVE
10
245.3160
20
240.0870
0
VERTEX
8
ENGRAVE
10
245.3510
20
240.4120
0
SEQEND
0
POLYLINE
8
ENGRAVE
66
1
70
1
0
VERTEX
8
ENGRAVE
10
227.7380
20
241.0310
0
VERTEX
8
ENGRAVE
10
227.2740
20
240.7580
0
VERTEX
8
ENGRAVE
10
226.9660
20
240.2930
0
VERTEX
8
ENGRAVE
10
226.8390
20
239.6710
0
VERTEX
8
ENGRAVE
10
226.8510
20
239.2510
0
VERTEX
8
ENGRAVE
10
226.9300
20
238.8770
0
VERTEX
8
ENGRAVE
10
227.0780
20
238.5540
0
VERTEX
8
ENGRAVE
10
227.3750
20
238.2090
0
VERTEX
8
ENGRAVE
10
227.6580
20
238.0380
0
VERTEX
8
ENGRAVE
10
227.9880
20
237.9450
0
VERTEX
8
ENGRAVE
10
228.3960
20
237.9360
0
VERTEX
8
ENGRAVE
10
228.8300
20
238.0590
0
VERTEX
8
ENGRAVE
10
229.1900
20
238.3280
0
VERTEX
8
ENGRAVE
10
229.4760
20
238.7450
0
VERTEX
8
ENGRAVE
10
229.9110
20
238.5270
0
VERTEX
8
ENGRAVE
10
229.7480
20
238.2450
0
VERTEX
8
ENGRAVE
10
229.4750
20
237.9360
0
VERTEX
8
ENGRAVE
10
229.2290
20
237.7550
0
VERTEX
8
ENGRAVE
10
228.8550
20
237.5850
0
VERTEX
8
ENGRAVE
10
228.4370
20
237.5010
0
VERTEX
8
ENGRAVE
10
227.9790
20
237.5000
0
VERTEX
8
ENGRAVE
10
227.6570
20
237.5520
0
VERTEX
8
ENGRAVE
10
227.2710
20
237.6900
0
VERTEX
8
ENGRAVE
10
226.9410
20
237.9040
0
VERTEX
8
ENGRAVE
10
226.7370
20
238.1090
0
VERTEX
8
ENGRAVE
10
226.5700
20
238.3530
0
VERTEX
8
ENGRAVE
10
226.4060
20
238.7330
0
VERTEX
8
ENGRAVE
10
226.2950
20
239.5280
0
VERTEX
8
ENGRAVE
10
226.3410
20
240.0550
0
VERTEX
8
ENGRAVE
10
226.4220
20
240.3660
0
VERTEX
8
ENGRAVE
10
226.7060
20
240.8900
0
VERTEX
8
ENGRAVE
10
227.0210
20
241.1920
0
VERTEX
8
ENGRAVE
10
227.2710
20
241.3410
0
VERTEX
8
ENGRAVE
10
227.7040
20
241.4850
0
VERTEX
8
ENGRAVE
10
228.0320
20
241.5270
0
VERTEX
8
ENGRAVE
10
228.4500
20
241.5230
0
VERTEX
8
ENGRAVE
10
228.8860
20
241.4440
0
VERTEX
8
ENGRAVE
10
229.2560
20
241.2870
0
VERTEX
8
ENGRAVE
10
229.4880
20
241.1190
0
VERTEX
8
ENGRAVE
10
229.7360
20
240.8280
0
VERTEX
8
ENGRAVE
10
229.8750
20
240.5600
0
VERTEX
8
ENGRAVE
10
229.3700
20
240.3920
0
VERTEX
8
ENGRAVE
10
229.1460
20
240.7460
0
VERTEX
8
ENGRAVE
10
228.7390
20
241.0090
0
VERTEX
8
ENGRAVE
10
228.2130
20
241.0980
0
SEQEND
0
POLYLINE
8
ENGRAVE
66
1
70
1
0
VERTEX
8
ENGRAVE
10
230.6720
20
242.5000
0
VERTEX
8
ENGRAVE
10
231.1740
20
242.5000
0
VERTEX
8
ENGRAVE
10
231.1740
20
242.0200
0
VERTEX
8
ENGRAVE
10
230.6720
20
242.0200
0
SEQEND
0
POLYLINE
8
ENGRAVE
66
1
70
1
0
VERTEX
8
ENGRAVE
10
191.2780
20
225.4610
0
VERTEX
8
ENGRAVE
10
191.1420
20
225.0530
0
VERTEX
8
ENGRAVE
10
190.8710
20
224.6220
0
VERTEX
8
ENGRAVE
10
190.5810
20
224.3540
0
VERTEX
8
ENGRAVE
10
190.2300
20
224.1580
0
VERTEX
8
ENGRAVE
10
189.6170
20
224.0100
0
VERTEX
8
ENGRAVE
10
187.8940
20
224.0000
0
VERTEX
8
ENGRAVE
10
187.8940
20
228.0000
0
VERTEX
8
ENGRAVE
10
189.7850
20
227.9540
0
VERTEX
8
ENGRAVE
10
190.2700
20
227.8170
0
VERTEX
8
ENGRAVE
10
190.6710
20
227.5870
0
VERTEX
8
ENGRAVE
10
191.0670
20
227.1460
0
VERTEX
8
ENGRAVE
10
191.2490
20
226.7240
0
VERTEX
8
ENGRAVE
10
191.3380
20
226.0410
0
SEQEND
0
POLYLINE
8
ENGRAVE
66
1
70
1
0
VERTEX
8
ENGRAVE
10
190.6910
20
226.6970
0
VERTEX
8
ENGRAVE
10
190.4630
20
227.0940
0
VERTEX
8
ENGRAVE
10
190.0010
20
227.4250
0
VERTEX
8
ENGRAVE
10
189.5000
20
227.5500
0
VERTEX
8
ENGRAVE
10
188.4360
20
227.5660
0
VERTEX
8
ENGRAVE
10
188.4360
20
224.4340
0
VERTEX
8
ENGRAVE
10
189.6630
20
224.4650
0
VERTEX
8
ENGRAVE
10
190.0340
20
224.5910
0
VERTEX
8
ENGRAVE
10
190.3440
20
224.8090
0
VERTEX
8
ENGRAVE
10
190.6140
20
225.1840
0
VERTEX
8
ENGRAVE
10
190.7640
20
225.6670
0
VERTEX
8
ENGRAVE
10
190.7890
20
226.1860
0
SEQEND
0
POLYLINE
8
ENGRAVE
66
1
70
1
0
VERTEX
8
ENGRAVE
10
193.2600
20
228.0000
0
VERTEX
8
ENGRAVE
10
193.8760
20
228.0000
0
VERTEX
8
ENGRAVE
10
195.4830
20
224.0000
0
VERTEX
8
ENGRAVE
10
194.9290
20
224.0000
0
VERTEX
8
ENGRAVE
10
194.4720
20
225.1700
0
VERTEX
8
ENGRAVE
10
192.6490
20
225.1700
0
VERTEX
8
ENGRAVE
10
192.1890
20
224.0000
0
VERTEX
8
ENGRAVE
10
191.6270
20
224.0000
0
SEQEND
0
POLYLINE
8
ENGRAVE
66
1
70
1
0
VERTEX
8
ENGRAVE
10
193.5610
20
227.5910
0
VERTEX
8
ENGRAVE
10
192.8140
20
225.5930
0
VERTEX
8
ENGRAVE
10
194.3100
20
225.5930
0
SEQEND
0
POLYLINE
8
ENGRAVE
66
1
70
1
0
VERTEX
8
ENGRAVE
10
195.9710
20
224.0000
0
VERTEX
8
ENGRAVE
10
195.9710
20
228.0000
0
VERTEX
8
ENGRAVE
10
196.5130
20
228.0000
0
VERTEX
8
ENGRAVE
10
196.5130
20
226.3080
0
VERTEX
8
ENGRAVE
10
198.6760
20
226.3080
0
VERTEX
8
ENGRAVE
10
198.6760
20
228.0000
0
VERTEX
8
ENGRAVE
10
199.2190
20
228.0000
0
VERTEX
8
ENGRAVE
10
199.2190
20
224.0000
0
VERTEX
8
ENGRAVE
10
198.6760
20
224.0000
0
VERTEX
8
ENGRAVE
10
198.6760
20
225.8540
0
VERTEX
8
ENGRAVE
10
196.5130
20
225.8540
0
VERTEX
8
ENGRAVE
10
196.5130
20
224.0000
0
SEQEND
0
POLYLINE
8
ENGRAVE
66
1
70
1
0
VERTEX
8
ENGRAVE
10
201.9520
20
228.0000
0
VERTEX
8
ENGRAVE
10
203.5590
20
224.0000
0
VERTEX
8
ENGRAVE
10
203.0060
20
224.0000
0
VERTEX
8
ENGRAVE
10
202.5490
20
225.1700
0
VERTEX
8
ENGRAVE
10
200.7260
20
225.1700
0
VERTEX
8
ENGRAVE
10
200.2660
20
224.0000
0
VERTEX
8
ENGRAVE
10
199.7040
20
224.0000
0
VERTEX
8
ENGRAVE
10
201.3360
20
228.0000
0
SEQEND
0
POLYLINE
8
ENGRAVE
66
1
70
1
0
VERTEX
8
ENGRAVE
10
201.6370
20
227.5910
0
VERTEX
8
ENGRAVE
10
200.8910
20
225.5930
0
VERTEX
8
ENGRAVE
10
202.3870
20
225.5930
0
SEQEND
0
POLYLINE
8
ENGRAVE
66
1
70
1
0
VERTEX
8
ENGRAVE
10
207.4460
20
228.0000
0
VERTEX
8
ENGRAVE
10
209.0530
20
224.0000
0
VERTEX
8
ENGRAVE
10
208.4990
20
224.0000
0
VERTEX
8
ENGRAVE
10
208.0420
20
225.1700
0
VERTEX
8
ENGRAVE
10
206.2190
20
225.1700
0
VERTEX
8
ENGRAVE
10
205.7590
20
224.0000
0
VERTEX
8
ENGRAVE
10
205.1970
20
224.0000
0
VERTEX
8
ENGRAVE
10
206.8300
20
228.0000
0
SEQEND
0
POLYLINE
8
ENGRAVE
66
1
70
1
0
VERTEX
8
ENGRAVE
10
207.1310
20
227.5910
0
VERTEX
8
ENGRAVE
10
206.3840
20
225.5930
0
VERTEX
8
ENGRAVE
10
207.8800
20
225.5930
0
SEQEND
0
POLYLINE
8
ENGRAVE
66
1
70
1
0
VERTEX
8
ENGRAVE
10
209.1920
20
228.0000
0
VERTEX
8
ENGRAVE
10
209.7880
20
228.0000
0
VERTEX
8
ENGRAVE
10
211.0060
20
226.0950
0
VERTEX
8
ENGRAVE
10
212.2180
20
228.0000
0
VERTEX
8
ENGRAVE
10
212.8140
20
228.0000
0
VERTEX
8
ENGRAVE
10
211.2700
20
225.6580
0
VERTEX
8
ENGRAVE
10
211.2700
20
224.0000
0
VERTEX
8
ENGRAVE
10
210.7300
20
224.0000
0
VERTEX
8
ENGRAVE
10
210.7300
20
225.6580
0
SEQEND
0
POLYLINE
8
ENGRAVE
66
1
70
1
0
VERTEX
8
ENGRAVE
10
216.8020
20
225.4610
0
VERTEX
8
ENGRAVE
10
216.6670
20
225.0530
0
VERTEX
8
ENGRAVE
10
216.3960
20
224.6220
0
VERTEX
8
ENGRAVE
10
216.1060
20
224.3540
0
VERTEX
8
ENGRAVE
10
215.7540
20
224.1580
0
VERTEX
8
ENGRAVE
10
215.1410
20
224.0100
0
VERTEX
8
ENGRAVE
10
213.4190
20
224.0000
0
VERTEX
8
ENGRAVE
10
213.4190
20
228.0000
0
VERTEX
8
ENGRAVE
10
215.3100
20
227.9540
0
VERTEX
8
ENGRAVE
10
215.7940
20
227.8170
0
VERTEX
8
ENGRAVE
10
216.1950
20
227.5870
0
VERTEX
8
ENGRAVE
10
216.5920
20
227.1460
0
VERTEX
8
ENGRAVE
10
216.7740
20
226.7240
0
VERTEX
8
ENGRAVE
10
216.8620
20
226.0410
0
SEQEND
0
POLYLINE
8
ENGRAVE
66
1
70
1
0
VERTEX
8
ENGRAVE
10
216.2150
20
226.6970
0
VERTEX
8
ENGRAVE
10
215.9870
20
227.0940
0
VERTEX
8
ENGRAVE
10
215.5260
20
227.4250
0
VERTEX
8
ENGRAVE
10
215.0250
20
227.5500
0
VERTEX
8
ENGRAVE
10
213.9610
20
227.5660
0
VERTEX
8
ENGRAVE
10
213.9610
20
224.4340
0
VERTEX
8
ENGRAVE
10
215.1870
20
224.4650
0
VERTEX
8
ENGRAVE
10
215.5580
20
224.5910
0
VERTEX
8
ENGRAVE
10
215.8680
20
224.8090
0
VERTEX
8
ENGRAVE
10
216.1380
20
225.1840
0
VERTEX
8
ENGRAVE
10
216.2890
20
225.6670
0
VERTEX
8
ENGRAVE
10
216.3130
20
226.1860
0
SEQEND
0
POLYLINE
8
ENGRAVE
66
1
70
1
0
VERTEX
8
ENGRAVE
10
217.6770
20
224.0000
0
VERTEX
8
ENGRAVE
10
217.6770
20
228.0000
0
VERTEX
8
ENGRAVE
10
218.2190
20
228.0000
0
VERTEX
8
ENGRAVE
10
218.2190
20
224.0000
0
SEQEND
0
POLYLINE
8
ENGRAVE
66
1
70
1
0
VERTEX
8
ENGRAVE
10
219.2330
20
224.0000
0
VERTEX
8
ENGRAVE
10
219.2330
20
228.0000
0
VERTEX
8
ENGRAVE
10
219.8630
20
228.0000
0
VERTEX
8
ENGRAVE
10
222.0260
20
224.5710
0
VERTEX
8
ENGRAVE
10
221.9920
20
228.0000
0
VERTEX
8
ENGRAVE
10
222.4800
20
228.0000
0
VERTEX
8
ENGRAVE
10
222.4800
20
224.0000
0
VERTEX
8
ENGRAVE
10
221.8280
20
224.0000
0
VERTEX
8
ENGRAVE
10
219.6870
20
227.4070
0
VERTEX
8
ENGRAVE
10
219.7150
20
224.0000
0
SEQEND
0
POLYLINE
8
ENGRAVE
66
1
70
1
0
VERTEX
8
ENGRAVE
10
225.9950
20
224.0000
0
VERTEX
8
ENGRAVE
10
223.4320
20
224.0000
0
VERTEX
8
ENGRAVE
10
223.4320
20
228.0000
0
VERTEX
8
ENGRAVE
10
223.9740
20
228.0000
0
VERTEX
8
ENGRAVE
10
223.9740
20
224.4430
0
VERTEX
8
ENGRAVE
10
225.9950
20
224.4430
0
SEQEND
0
POLYLINE
8
ENGRAVE
66
1
70
1
0
VERTEX
8
ENGRAVE
10
226.7250
20
224.0000
0
VERTEX
8
ENGRAVE
10
226.7250
20
228.0000
0
VERTEX
8
ENGRAVE
10
227.2670
20
228.0000
0
VERTEX
8
ENGRAVE
10
227.2670
20
224.0000
0
SEQEND
0
POLYLINE
8
ENGRAVE
66
1
70
1
0
VERTEX
8
ENGRAVE
10
228.2800
20
224.0000
0
VERTEX
8
ENGRAVE
10
228.2800
20
228.0000
0
VERTEX
8
ENGRAVE
10
228.8230
20
228.0000
0
VERTEX
8
ENGRAVE
10
228.8230
20
225.9960
0
VERTEX
8
ENGRAVE
10
230.7500
20
228.0000
0
VERTEX
8
ENGRAVE
10
231.3890
20
228.0000
0
VERTEX
8
ENGRAVE
10
229.6860
20
226.2630
0
VERTEX
8
ENGRAVE
10
231.6160
20
224.0000
0
VERTEX
8
ENGRAVE
10
230.9430
20
224.0000
0
VERTEX
8
ENGRAVE
10
229.3450
20
225.9300
0
VERTEX
8
ENGRAVE
10
228.8230
20
225.5330
0
VERTEX
8
ENGRAVE
10
228.8230
20
224.0000
0
SEQEND
0
POLYLINE
8
ENGRAVE
66
1
70
1
0
VERTEX
8
ENGRAVE
10
233.4240
20
228.0000
0
VERTEX
8
ENGRAVE
10
234.0210
20
228.0000
0
VERTEX
8
ENGRAVE
10
235.2380
20
226.0950
0
VERTEX
8
ENGRAVE
10
236.4510
20
228.0000
0
VERTEX
8
ENGRAVE
10
237.0470
20
228.0000
0
VERTEX
8
ENGRAVE
10
235.5020
20
225.6580
0
VERTEX
8
ENGRAVE
10
235.5020
20
224.0000
0
VERTEX
8
ENGRAVE
10
234.9630
20
224.0000
0
VERTEX
8
ENGRAVE
10
234.9630
20
225.6580
0
SEQEND
0
POLYLINE
8
ENGRAVE
66
1
70
1
0
VERTEX
8
ENGRAVE
10
239.4340
20
228.0000
0
VERTEX
8
ENGRAVE
10
241.0410
20
224.0000
0
VERTEX
8
ENGRAVE
10
240.4880
20
224.0000
0
VERTEX
8
ENGRAVE
10
240.0310
20
225.1700
0
VERTEX
8
ENGRAVE
10
238.2080
20
225.1700
0
VERTEX
8
ENGRAVE
10
237.7480
20
224.0000
0
VERTEX
8
ENGRAVE
10
237.1860
20
224.0000
0
VERTEX
8
ENGRAVE
10
238.8180
20
228.0000
0
SEQEND
0
POLYLINE
8
ENGRAVE
66
1
70
1
0
VERTEX
8
ENGRAVE
10
239.1190
20
227.5910
0
VERTEX
8
ENGRAVE
10
238.3730
20
225.5930
0
VERTEX
8
ENGRAVE
10
239.8690
20
225.5930
0
SEQEND
0
POLYLINE
8
ENGRAVE
66
1
70
1
0
VERTEX
8
ENGRAVE
10
241.5290
20
228.0000
0
VERTEX
8
ENGRAVE
10
243.9030
20
227.9520
0
VERTEX
8
ENGRAVE
10
244.2070
20
227.8520
0
VERTEX
8
ENGRAVE
10
244.5250
20
227.6350
0
VERTEX
8
ENGRAVE
10
244.7310
20
227.3360
0
VERTEX
8
ENGRAVE
10
244.8200
20
226.7680
0
VERTEX
8
ENGRAVE
10
244.6950
20
226.3010
0
VERTEX
8
ENGRAVE
10
244.3230
20
225.8990
0
VERTEX
8
ENGRAVE
10
243.8460
20
225.7230
0
VERTEX
8
ENGRAVE
10
244.9820
20
224.0000
0
VERTEX
8
ENGRAVE
10
244.3570
20
224.0000
0
VERTEX
8
ENGRAVE
10
243.3180
20
225.6610
0
VERTEX
8
ENGRAVE
10
242.0720
20
225.6610
0
VERTEX
8
ENGRAVE
10
242.0720
20
224.0000
0
VERTEX
8
ENGRAVE
10
241.5290
20
224.0000
0
SEQEND
0
POLYLINE
8
ENGRAVE
66
1
70
1
0
VERTEX
8
ENGRAVE
10
244.1920
20
227.2090
0
VERTEX
8
ENGRAVE
10
243.9370
20
227.4480
0
VERTEX
8
ENGRAVE
10
243.6060
20
227.5490
0
VERTEX
8
ENGRAVE
10
242.0720
20
227.5660
0
VERTEX
8
ENGRAVE
10
242.0720
20
226.0890
0
VERTEX
8
ENGRAVE
10
243.4640
20
226.0910
0
VERTEX
8
ENGRAVE
10
243.8850
20
226.1870
0
VERTEX
8
ENGRAVE
10
244.1280
20
226.3760
0
VERTEX
8
ENGRAVE
10
244.2400
20
226.5870
0
VERTEX
8
ENGRAVE
10
244.2750
20
226.9180
0
SEQEND
0
POLYLINE
8
ENGRAVE
66
1
70
1
0
VERTEX
8
ENGRAVE
10
245.7880
20
224.0000
0
VERTEX
8
ENGRAVE
10
245.7880
20
228.0000
0
VERTEX
8
ENGRAVE
10
246.3300
20
228.0000
0
VERTEX
8
ENGRAVE
10
246.3300
20
224.0000
0
SEQEND
0
POLYLINE
8
ENGRAVE
66
1
70
1
0
VERTEX
8
ENGRAVE
10
247.8260
20
224.0000
0
VERTEX
8
ENGRAVE
10
247.3440
20
224.0000
0
VERTEX
8
ENGRAVE
10
247.3440
20
228.0000
0
VERTEX
8
ENGRAVE
10
247.9740
20
228.0000
0
VERTEX
8
ENGRAVE
10
250.1370
20
224.5710
0
VERTEX
8
ENGRAVE
10
250.1030
20
228.0000
0
VERTEX
8
ENGRAVE
10
250.5910
20
228.0000
0
VERTEX
8
ENGRAVE
10
250.5910
20
224.0000
0
VERTEX
8
ENGRAVE
10
249.9380
20
224.0000
0
VERTEX
8
ENGRAVE
10
247.7980
20
227.4070
0
SEQEND
0
POLYLINE
8
ENGRAVE
66
1
70
1
0
VERTEX
8
ENGRAVE
10
254.1060
20
224.4430
0
VERTEX
8
ENGRAVE
10
254.1060
20
224.0000
0
VERTEX
8
ENGRAVE
10
251.5420
20
224.0000
0
VERTEX
8
ENGRAVE
10
251.5420
20
228.0000
0
VERTEX
8
ENGRAVE
10
252.0840
20
228.0000
0
VERTEX
8
ENGRAVE
10
252.0840
20
224.4430
0
SEQEND
0
POLYLINE
8
ENGRAVE
66
1
70
1
0
VERTEX
8
ENGRAVE
10
256.5590
20
228.0000
0
VERTEX
8
ENGRAVE
10
258.1650
20
224.0000
0
VERTEX
8
ENGRAVE
10
257.6120
20
224.0000
0
VERTEX
8
ENGRAVE
10
257.1550
20
225.1700
0
VERTEX
8
ENGRAVE
10
255.3320
20
225.1700
0
VERTEX
8
ENGRAVE
10
254.8720
20
224.0000
0
VERTEX
8
ENGRAVE
10
254.3100
20
224.0000
0
VERTEX
8
ENGRAVE
10
255.9430
20
228.0000
0
SEQEND
0
POLYLINE
8
ENGRAVE
66
1
70
1
0
VERTEX
8
ENGRAVE
10
256.2430
20
227.5910
0
VERTEX
8
ENGRAVE
10
255.4970
20
225.5930
0
VERTEX
8
ENGRAVE
10
256.9930
20
225.5930
0
SEQEND
0
POLYLINE
8
ENGRAVE
66
1
70
1
0
VERTEX
8
ENGRAVE
10
258.6540
20
228.0000
0
VERTEX
8
ENGRAVE
10
261.0270
20
227.9520
0
VERTEX
8
ENGRAVE
10
261.3310
20
227.8520
0
VERTEX
8
ENGRAVE
10
261.6490
20
227.6350
0
VERTEX
8
ENGRAVE
10
261.8550
20
227.3360
0
VERTEX
8
ENGRAVE
10
261.9440
20
226.7680
0
VERTEX
8
ENGRAVE
10
261.8190
20
226.3010
0
VERTEX
8
ENGRAVE
10
261.4480
20
225.8990
0
VERTEX
8
ENGRAVE
10
260.9700
20
225.7230
0
VERTEX
8
ENGRAVE
10
262.1060
20
224.0000
0
VERTEX
8
ENGRAVE
10
261.4810
20
224.0000
0
VERTEX
8
ENGRAVE
10
260.4420
20
225.6610
0
VERTEX
8
ENGRAVE
10
259.1960
20
225.6610
0
VERTEX
8
ENGRAVE
10
259.1960
20
224.0000
0
VERTEX
8
ENGRAVE
10
258.6540
20
224.0000
0
SEQEND
0
POLYLINE
8
ENGRAVE
66
1
70
1
0
VERTEX
8
ENGRAVE
10
261.3160
20
227.2090
0
VERTEX
8
ENGRAVE
10
261.0610
20
227.4480
0
VERTEX
8
ENGRAVE
10
260.7310
20
227.5490
0
VERTEX
8
ENGRAVE
10
259.1960
20
227.5660
0
VERTEX
8
ENGRAVE
10
259.1960
20
226.0890
0
VERTEX
8
ENGRAVE
10
260.5880
20
226.0910
0
VERTEX
8
ENGRAVE
10
261.0090
20
226.1870
0
VERTEX
8
ENGRAVE
10
261.2520
20
226.3760
0
VERTEX
8
ENGRAVE
10
261.3640
20
226.5870
0
VERTEX
8
ENGRAVE
10
261.3990
20
226.9180
0
SEQEND
0
POLYLINE
8
ENGRAVE
66
1
70
1
0
VERTEX
8
ENGRAVE
10
64.7230
20
262.5000
0
VERTEX
8
ENGRAVE
10
64.1710
20
262.5770
0
VERTEX
8
ENGRAVE
10
63.6130
20
262.8150
0
VERTEX
8
ENGRAVE
10
63.1930
20
263.1990
0
VERTEX
8
ENGRAVE
10
62.9580
20
263.6250
0
VERTEX
8
ENGRAVE
10
62.8390
20
264.2450
0
VERTEX
8
ENGRAVE
10
62.8370
20
267.5000
0
VERTEX
8
ENGRAVE
10
63.5050
20
267.5000
0
VERTEX
8
ENGRAVE
10
63.5090
20
264.2840
0
VERTEX
8
ENGRAVE
10
63.6290
20
263.7230
0
VERTEX
8
ENGRAVE
10
63.7830
20
263.4640
0
VERTEX
8
ENGRAVE
10
64.0820
20
263.2120
0
VERTEX
8
ENGRAVE
10
64.4780
20
263.0720
0
VERTEX
8
ENGRAVE
10
64.8390
20
263.0400
0
VERTEX
8
ENGRAVE
10
65.3240
20
263.0980
0
VERTEX
8
ENGRAVE
10
65.6250
20
263.2180
0
VERTEX
8
ENGRAVE
10
65.9440
20
263.4780
0
VERTEX
8
ENGRAVE
10
66.1100
20
263.7460
0
VERTEX
8
ENGRAVE
10
66.2390
20
264.3260
0
VERTEX
8
ENGRAVE
10
66.2430
20
267.5000
0
VERTEX
8
ENGRAVE
10
66.9080
20
267.5000
0
VERTEX
8
ENGRAVE
10
66.9050
20
264.3050
0
VERTEX
8
ENGRAVE
10
66.7450
20
263.5710
0
VERTEX
8
ENGRAVE
10
66.4830
20
263.1480
0
VERTEX
8
ENGRAVE
10
66.0270
20
262.7750
0
VERTEX
8
ENGRAVE
10
65.4310
20
262.5550
0
SEQEND
0
POLYLINE
8
ENGRAVE
66
1
70
1
0
VERTEX
8
ENGRAVE
10
61.9140
20
264.6440
0
VERTEX
8
ENGRAVE
10
61.7950
20
264.1100
0
VERTEX
8
ENGRAVE
10
61.5140
20
263.5310
0
VERTEX
8
ENGRAVE
10
61.1970
20
263.1590
0
VERTEX
8
ENGRAVE
10
60.6890
20
262.8140
0
VERTEX
8
ENGRAVE
10
60.3360
20
262.6770
0
VERTEX
8
ENGRAVE
10
59.8180
20
262.5800
0
VERTEX
8
ENGRAVE
10
57.6940
20
262.5680
0
VERTEX
8
ENGRAVE
10
57.6940
20
267.5000
0
VERTEX
8
ENGRAVE
10
59.8040
20
267.4750
0
VERTEX
8
ENGRAVE
10
60.4360
20
267.3430
0
VERTEX
8
ENGRAVE
10
60.9640
20
267.0980
0
VERTEX
8
ENGRAVE
10
61.5050
20
266.5990
0
VERTEX
8
ENGRAVE
10
61.7700
20
266.1110
0
VERTEX
8
ENGRAVE
10
61.9130
20
265.5270
0
SEQEND
0
POLYLINE
8
ENGRAVE
66
1
70
1
0
VERTEX
8
ENGRAVE
10
61.2230
20
265.5960
0
VERTEX
8
ENGRAVE
10
60.9470
20
266.2730
0
VERTEX
8
ENGRAVE
10
60.7660
20
266.4830
0
VERTEX
8
ENGRAVE
10
60.4240
20
266.7290
0
VERTEX
8
ENGRAVE
10
59.6750
20
266.9450
0
VERTEX
8
ENGRAVE
10
58.3630
20
266.9640
0
VERTEX
8
ENGRAVE
10
58.3630
20
263.1030
0
VERTEX
8
ENGRAVE
10
59.8750
20
263.1410
0
VERTEX
8
ENGRAVE
10
60.2460
20
263.2560
0
VERTEX
8
ENGRAVE
10
60.6460
20
263.5030
0
VERTEX
8
ENGRAVE
10
61.0020
20
263.9400
0
VERTEX
8
ENGRAVE
10
61.1890
20
264.4120
0
VERTEX
8
ENGRAVE
10
61.2660
20
264.9640
0
SEQEND
0
POLYLINE
8
ENGRAVE
66
1
70
1
0
VERTEX
8
ENGRAVE
10
68.7180
20
262.5680
0
VERTEX
8
ENGRAVE
10
68.0490
20
262.5680
0
VERTEX
8
ENGRAVE
10
68.0490
20
267.5000
0
VERTEX
8
ENGRAVE
10
70.5330
20
267.4960
0
VERTEX
8
ENGRAVE
10
70.9750
20
267.4400
0
VERTEX
8
ENGRAVE
10
71.4600
20
267.2610
0
VERTEX
8
ENGRAVE
10
71.7420
20
267.0500
0
VERTEX
8
ENGRAVE
10
71.9960
20
266.6810
0
VERTEX
8
ENGRAVE
10
72.1050
20
266.2190
0
VERTEX
8
ENGRAVE
10
72.0810
20
265.7750
0
VERTEX
8
ENGRAVE
10
71.9530
20
265.4060
0
VERTEX
8
ENGRAVE
10
71.6510
20
265.0260
0
VERTEX
8
ENGRAVE
10
71.3170
20
264.8150
0
VERTEX
8
ENGRAVE
10
70.9050
20
264.6930
0
VERTEX
8
ENGRAVE
10
72.3060
20
262.5680
0
VERTEX
8
ENGRAVE
10
71.5350
20
262.5680
0
VERTEX
8
ENGRAVE
10
70.2540
20
264.6160
0
VERTEX
8
ENGRAVE
10
68.7180
20
264.6160
0
SEQEND
0
POLYLINE
8
ENGRAVE
66
1
70
1
0
VERTEX
8
ENGRAVE
10
71.4110
20
266.3220
0
VERTEX
8
ENGRAVE
10
71.2010
20
266.6910
0
VERTEX
8
ENGRAVE
10
70.7890
20
266.9080
0
VERTEX
8
ENGRAVE
10
70.4110
20
266.9620
0
VERTEX
8
ENGRAVE
10
68.7180
20
266.9640
0
VERTEX
8
ENGRAVE
10
68.7180
20
265.1440
0
VERTEX
8
ENGRAVE
10
70.4350
20
265.1470
0
VERTEX
8
ENGRAVE
10
70.9540
20
265.2650
0
VERTEX
8
ENGRAVE
10
71.2030
20
265.4420
0
VERTEX
8
ENGRAVE
10
71.3650
20
265.6870
0
VERTEX
8
ENGRAVE
10
71.4350
20
265.9950
0
SEQEND
0
POLYLINE
8
ENGRAVE
66
1
70
1
0
VERTEX
8
ENGRAVE
10
48.3020
20
227.5000
0
VERTEX
8
ENGRAVE
10
47.6240
20
227.5000
0
VERTEX
8
ENGRAVE
10
47.6240
20
232.5000
0
VERTEX
8
ENGRAVE
10
48.3020
20
232.5000
0
VERTEX
8
ENGRAVE
10
48.3020
20
230.3850
0
VERTEX
8
ENGRAVE
10
51.0060
20
230.3850
0
VERTEX
8
ENGRAVE
10
51.0060
20
232.5000
0
VERTEX
8
ENGRAVE
10
51.6840
20
232.5000
0
VERTEX
8
ENGRAVE
10
51.6840
20
227.5000
0
VERTEX
8
ENGRAVE
10
51.0060
20
227.5000
0
VERTEX
8
ENGRAVE
10
51.0060
20
229.8170
0
VERTEX
8
ENGRAVE
10
48.3020
20
229.8170
0
SEQEND
0
POLYLINE
8
ENGRAVE
66
1
70
1
0
VERTEX
8
ENGRAVE
10
52.2910
20
227.5000
0
VERTEX
8
ENGRAVE
10
54.3310
20
232.5000
0
VERTEX
8
ENGRAVE
10
55.1010
20
232.5000
0
VERTEX
8
ENGRAVE
10
57.1100
20
227.5000
0
VERTEX
8
ENGRAVE
10
56.4180
20
227.5000
0
VERTEX
8
ENGRAVE
10
55.8460
20
228.9620
0
VERTEX
8
ENGRAVE
10
53.5680
20
228.9620
0
VERTEX
8
ENGRAVE
10
52.9930
20
227.5000
0
SEQEND
0
POLYLINE
8
ENGRAVE
66
1
70
1
0
VERTEX
8
ENGRAVE
10
54.7070
20
231.9890
0
VERTEX
8
ENGRAVE
10
53.7740
20
229.4910
0
VERTEX
8
ENGRAVE
10
55.6440
20
229.4910
0
SEQEND
0
POLYLINE
8
ENGRAVE
66
1
70
1
0
VERTEX
8
ENGRAVE
10
60.3990
20
231.9460
0
VERTEX
8
ENGRAVE
10
57.6140
20
231.9460
0
VERTEX
8
ENGRAVE
10
57.6140
20
232.5000
0
VERTEX
8
ENGRAVE
10
61.1690
20
232.5000
0
VERTEX
8
ENGRAVE
10
61.1690
20
232.0070
0
VERTEX
8
ENGRAVE
10
58.1250
20
228.0540
0
VERTEX
8
ENGRAVE
10
61.3360
20
228.0540
0
VERTEX
8
ENGRAVE
10
61.3360
20
227.5000
0
VERTEX
8
ENGRAVE
10
57.3550
20
227.5000
0
VERTEX
8
ENGRAVE
10
57.3550
20
228.0070
0
SEQEND
0
POLYLINE
8
ENGRAVE
66
1
70
1
0
VERTEX
8
ENGRAVE
10
62.9120
20
227.5000
0
VERTEX
8
ENGRAVE
10
62.2340
20
227.5000
0
VERTEX
8
ENGRAVE
10
62.2340
20
232.5000
0
VERTEX
8
ENGRAVE
10
62.9120
20
232.5000
0
SEQEND
0
POLYLINE
8
ENGRAVE
66
1
70
1
0
VERTEX
8
ENGRAVE
10
64.1780
20
227.5000
0
VERTEX
8
ENGRAVE
10
64.1780
20
232.5000
0
VERTEX
8
ENGRAVE
10
66.8540
20
232.4850
0
VERTEX
8
ENGRAVE
10
67.4060
20
232.3640
0
VERTEX
8
ENGRAVE
10
67.8350
20
232.1220
0
VERTEX
8
ENGRAVE
10
68.1290
20
231.7720
0
VERTEX
8
ENGRAVE
10
68.2540
20
231.4480
0
VERTEX
8
ENGRAVE
10
68.2920
20
230.9600
0
VERTEX
8
ENGRAVE
10
68.2140
20
230.5570
0
VERTEX
8
ENGRAVE
10
68.0320
20
230.2110
0
VERTEX
8
ENGRAVE
10
67.7530
20
229.9300
0
VERTEX
8
ENGRAVE
10
67.4920
20
229.7780
0
VERTEX
8
ENGRAVE
10
67.0740
20
229.6540
0
VERTEX
8
ENGRAVE
10
68.4940
20
227.5000
0
VERTEX
8
ENGRAVE
10
67.7130
20
227.5000
0
VERTEX
8
ENGRAVE
10
66.4140
20
229.5760
0
VERTEX
8
ENGRAVE
10
64.8560
20
229.5760
0
VERTEX
8
ENGRAVE
10
64.8560
20
227.5000
0
SEQEND
0
POLYLINE
8
ENGRAVE
66
1
70
1
0
VERTEX
8
ENGRAVE
10
67.5660
20
231.3790
0
VERTEX
8
ENGRAVE
10
67.3170
20
231.7280
0
VERTEX
8
ENGRAVE
10
66.8680
20
231.9200
0
VERTEX
8
ENGRAVE
10
64.8560
20
231.9570
0
VERTEX
8
ENGRAVE
10
64.8560
20
230.1120
0
VERTEX
8
ENGRAVE
10
66.5970
20
230.1140
0
VERTEX
8
ENGRAVE
10
67.1230
20
230.2340
0
VERTEX
8
ENGRAVE
10
67.3760
20
230.4140
0
VERTEX
8
ENGRAVE
10
67.5400
20
230.6620
0
VERTEX
8
ENGRAVE
10
67.6110
20
230.9750
0
SEQEND
0
POLYLINE
8
ENGRAVE
66
1
70
1
0
VERTEX
8
ENGRAVE
10
70.1050
20
228.0540
0
VERTEX
8
ENGRAVE
10
72.6310
20
228.0540
0
VERTEX
8
ENGRAVE
10
72.6310
20
227.5000
0
VERTEX
8
ENGRAVE
10
69.4270
20
227.5000
0
VERTEX
8
ENGRAVE
10
69.4270
20
232.5000
0
VERTEX
8
ENGRAVE
10
70.1050
20
232.5000
0
SEQEND
0
POLYLINE
8
ENGRAVE
66
1
70
1
0
VERTEX
8
ENGRAVE
10
72.8870
20
227.5000
0
VERTEX
8
ENGRAVE
10
74.9270
20
232.5000
0
VERTEX
8
ENGRAVE
10
75.6970
20
232.5000
0
VERTEX
8
ENGRAVE
10
77.7060
20
227.5000
0
VERTEX
8
ENGRAVE
10
77.0140
20
227.5000
0
VERTEX
8
ENGRAVE
10
76.4430
20
228.9620
0
VERTEX
8
ENGRAVE
10
74.1640
20
228.9620
0
VERTEX
8
ENGRAVE
10
73.5890
20
227.5000
0
SEQEND
0
POLYLINE
8
ENGRAVE
66
1
70
1
0
VERTEX
8
ENGRAVE
10
75.3030
20
231.9890
0
VERTEX
8
ENGRAVE
10
74.3700
20
229.4910
0
VERTEX
8
ENGRAVE
10
76.2400
20
229.4910
0
SEQEND
0
POLYLINE
8
ENGRAVE
66
1
70
1
0
VERTEX
8
ENGRAVE
10
78.8840
20
231.7580
0
VERTEX
8
ENGRAVE
10
78.9190
20
227.5000
0
VERTEX
8
ENGRAVE
10
78.3160
20
227.5000
0
VERTEX
8
ENGRAVE
10
78.3160
20
232.5000
0
VERTEX
8
ENGRAVE
10
79.1040
20
232.5000
0
VERTEX
8
ENGRAVE
10
81.8080
20
228.2130
0
VERTEX
8
ENGRAVE
10
81.7650
20
232.5000
0
VERTEX
8
ENGRAVE
10
82.3760
20
232.5000
0
VERTEX
8
ENGRAVE
10
82.3760
20
227.5000
0
VERTEX
8
ENGRAVE
10
81.5600
20
227.5000
0
SEQEND
0
POLYLINE
8
ENGRAVE
66
1
70
1
0
VERTEX
8
ENGRAVE
10
69.5860
20
192.8010
0
VERTEX
8
ENGRAVE
10
69.4310
20
192.6110
0
VERTEX
8
ENGRAVE
10
69.2540
20
192.5330
0
VERTEX
8
ENGRAVE
10
68.6370
20
192.5000
0
VERTEX
8
ENGRAVE
10
68.6370
20
192.7630
0
VERTEX
8
ENGRAVE
10
68.9430
20
192.7490
0
VERTEX
8
ENGRAVE
10
69.1640
20
192.8020
0
VERTEX
8
ENGRAVE
10
69.2470
20
192.8870
0
VERTEX
8
ENGRAVE
10
69.2490
20
193.0400
0
VERTEX
8
ENGRAVE
10
69.0880
20
193.1530
0
VERTEX
8
ENGRAVE
10
68.7520
20
193.1670
0
VERTEX
8
ENGRAVE
10
68.9100
20
193.6080
0
VERTEX
8
ENGRAVE
10
68.2550
20
193.7540
0
VERTEX
8
ENGRAVE
10
67.7790
20
194.0630
0
VERTEX
8
ENGRAVE
10
67.4900
20
194.4340
0
VERTEX
8
ENGRAVE
10
67.2800
20
195.0030
0
VERTEX
8
ENGRAVE
10
67.2280
20
195.4480
0
VERTEX
8
ENGRAVE
10
67.2450
20
195.9140
0
VERTEX
8
ENGRAVE
10
67.3040
20
196.2290
0
VERTEX
8
ENGRAVE
10
67.4650
20
196.6430
0
VERTEX
8
ENGRAVE
10
67.6220
20
196.8800
0
VERTEX
8
ENGRAVE
10
67.9250
20
197.1710
0
VERTEX
8
ENGRAVE
10
68.2980
20
197.3720
0
VERTEX
8
ENGRAVE
10
68.5840
20
197.4540
0
VERTEX
8
ENGRAVE
10
69.3030
20
197.4910
0
VERTEX
8
ENGRAVE
10
69.9100
20
197.3490
0
VERTEX
8
ENGRAVE
10
70.3700
20
197.0380
0
VERTEX
8
ENGRAVE
10
70.6770
20
196.5620
0
VERTEX
8
ENGRAVE
10
70.1900
20
196.4010
0
VERTEX
8
ENGRAVE
10
70.0190
20
196.6920
0
VERTEX
8
ENGRAVE
10
69.7080
20
196.9390
0
VERTEX
8
ENGRAVE
10
69.3050
20
197.0650
0
VERTEX
8
ENGRAVE
10
68.8340
20
197.0640
0
VERTEX
8
ENGRAVE
10
68.5160
20
196.9800
0
VERTEX
8
ENGRAVE
10
68.2470
20
196.8220
0
VERTEX
8
ENGRAVE
10
67.9700
20
196.5020
0
VERTEX
8
ENGRAVE
10
67.8340
20
196.1970
0
VERTEX
8
ENGRAVE
10
67.7470
20
195.5670
0
VERTEX
8
ENGRAVE
10
67.8380
20
194.9390
0
VERTEX
8
ENGRAVE
10
68.1110
20
194.4480
0
VERTEX
8
ENGRAVE
10
68.4440
20
194.1770
0
VERTEX
8
ENGRAVE
10
68.8580
20
194.0410
0
VERTEX
8
ENGRAVE
10
69.3990
20
194.0560
0
VERTEX
8
ENGRAVE
10
69.6700
20
194.1500
0
VERTEX
8
ENGRAVE
10
69.9090
20
194.3080
0
VERTEX
8
ENGRAVE
10
70.1170
20
194.5280
0
VERTEX
8
ENGRAVE
10
70.2930
20
194.8120
0
VERTEX
8
ENGRAVE
10
70.7120
20
194.6020
0
VERTEX
8
ENGRAVE
10
70.4310
20
194.1710
0
VERTEX
8
ENGRAVE
10
70.1370
20
193.9110
0
VERTEX
8
ENGRAVE
10
69.6940
20
193.6940
0
VERTEX
8
ENGRAVE
10
69.1950
20
193.6060
0
VERTEX
8
ENGRAVE
10
69.1100
20
193.3870
0
VERTEX
8
ENGRAVE
10
69.3670
20
193.3410
0
VERTEX
8
ENGRAVE
10
69.5340
20
193.2240
0
VERTEX
8
ENGRAVE
10
69.6100
20
193.0470
0
SEQEND
0
POLYLINE
8
ENGRAVE
66
1
70
1
0
VERTEX
8
ENGRAVE
10
66.5990
20
197.4440
0
VERTEX
8
ENGRAVE
10
66.5990
20
197.0240
0
VERTEX
8
ENGRAVE
10
64.2390
20
197.0240
0
VERTEX
8
ENGRAVE
10
64.2390
20
195.8090
0
VERTEX
8
ENGRAVE
10
66.4380
20
195.8090
0
VERTEX
8
ENGRAVE
10
66.4380
20
195.3950
0
VERTEX
8
ENGRAVE
10
64.2390
20
195.3950
0
VERTEX
8
ENGRAVE
10
64.2390
20
194.0750
0
VERTEX
8
ENGRAVE
10
66.7090
20
194.0750
0
VERTEX
8
ENGRAVE
10
66.7090
20
193.6560
0
VERTEX
8
ENGRAVE
10
63.7250
20
193.6560
0
VERTEX
8
ENGRAVE
10
63.7250
20
197.4440
0
SEQEND
0
POLYLINE
8
ENGRAVE
66
1
70
1
0
VERTEX
8
ENGRAVE
10
59.2880
20
195.9190
0
VERTEX
8
ENGRAVE
10
59.3920
20
196.3850
0
VERTEX
8
ENGRAVE
10
59.5850
20
196.7760
0
VERTEX
8
ENGRAVE
10
59.8660
20
197.0910
0
VERTEX
8
ENGRAVE
10
60.2230
20
197.3180
0
VERTEX
8
ENGRAVE
10
60.6520
20
197.4550
0
VERTEX
8
ENGRAVE
10
61.1530
20
197.5000
0
VERTEX
8
ENGRAVE
10
61.7230
20
197.4470
0
VERTEX
8
ENGRAVE
10
62.0930
20
197.3280
0
VERTEX
8
ENGRAVE
10
62.4590
20
197.0770
0
VERTEX
8
ENGRAVE
10
62.7790
20
196.6080
0
VERTEX
8
ENGRAVE
10
62.2900
20
196.4620
0
VERTEX
8
ENGRAVE
10
62.1410
20
196.6920
0
VERTEX
8
ENGRAVE
10
61.9530
20
196.8670
0
VERTEX
8
ENGRAVE
10
61.7260
20
196.9860
0
VERTEX
8
ENGRAVE
10
61.4550
20
197.0570
0
VERTEX
8
ENGRAVE
10
60.8890
20
197.0650
0
VERTEX
8
ENGRAVE
10
60.4630
20
196.9380
0
VERTEX
8
ENGRAVE
10
60.1370
20
196.6840
0
VERTEX
8
ENGRAVE
10
59.8770
20
196.2070
0
VERTEX
8
ENGRAVE
10
59.7900
20
195.5670
0
VERTEX
8
ENGRAVE
10
59.8490
20
195.0410
0
VERTEX
8
ENGRAVE
10
60.0260
20
194.6120
0
VERTEX
8
ENGRAVE
10
60.4040
20
194.2220
0
VERTEX
8
ENGRAVE
10
60.9280
20
194.0350
0
VERTEX
8
ENGRAVE
10
61.5350
20
194.0470
0
VERTEX
8
ENGRAVE
10
62.0510
20
194.2070
0
VERTEX
8
ENGRAVE
10
62.3890
20
194.4380
0
VERTEX
8
ENGRAVE
10
62.3890
20
195.1210
0
VERTEX
8
ENGRAVE
10
61.2580
20
195.1210
0
VERTEX
8
ENGRAVE
10
61.2580
20
195.5510
0
VERTEX
8
ENGRAVE
10
62.8620
20
195.5510
0
VERTEX
8
ENGRAVE
10
62.8620
20
194.2450
0
VERTEX
8
ENGRAVE
10
62.3740
20
193.8830
0
VERTEX
8
ENGRAVE
10
61.6690
20
193.6440
0
VERTEX
8
ENGRAVE
10
60.9460
20
193.6120
0
VERTEX
8
ENGRAVE
10
60.6240
20
193.6610
0
VERTEX
8
ENGRAVE
10
60.2400
20
193.7940
0
VERTEX
8
ENGRAVE
10
59.7730
20
194.1270
0
VERTEX
8
ENGRAVE
10
59.4520
20
194.6110
0
VERTEX
8
ENGRAVE
10
59.2890
20
195.2200
0
SEQEND
0
POLYLINE
8
ENGRAVE
66
1
70
1
0
VERTEX
8
ENGRAVE
10
56.5570
20
121.0410
0
VERTEX
8
ENGRAVE
10
55.2100
20
121.0410
0
VERTEX
8
ENGRAVE
10
55.2100
20
121.4760
0
VERTEX
8
ENGRAVE
10
58.4340
20
121.4760
0
VERTEX
8
ENGRAVE
10
58.4340
20
121.0410
0
VERTEX
8
ENGRAVE
10
57.0860
20
121.0410
0
VERTEX
8
ENGRAVE
10
57.0860
20
117.5530
0
VERTEX
8
ENGRAVE
10
56.5570
20
117.5530
0
SEQEND
0
POLYLINE
8
ENGRAVE
66
1
70
1
0
VERTEX
8
ENGRAVE
10
59.0320
20
121.4760
0
VERTEX
8
ENGRAVE
10
61.2480
20
121.4490
0
VERTEX
8
ENGRAVE
10
61.6570
20
121.3300
0
VERTEX
8
ENGRAVE
10
62.0310
20
121.0510
0
VERTEX
8
ENGRAVE
10
62.1710
20
120.8250
0
VERTEX
8
ENGRAVE
10
62.2470
20
120.5560
0
VERTEX
8
ENGRAVE
10
62.2510
20
120.1840
0
VERTEX
8
ENGRAVE
10
62.1700
20
119.8790
0
VERTEX
8
ENGRAVE
10
62.0070
20
119.6190
0
VERTEX
8
ENGRAVE
10
61.8360
20
119.4600
0
VERTEX
8
ENGRAVE
10
61.6310
20
119.3410
0
VERTEX
8
ENGRAVE
10
61.3040
20
119.2430
0
VERTEX
8
ENGRAVE
10
62.4170
20
117.5530
0
VERTEX
8
ENGRAVE
10
61.8050
20
117.5530
0
VERTEX
8
ENGRAVE
10
60.7860
20
119.1820
0
VERTEX
8
ENGRAVE
10
59.5640
20
119.1820
0
VERTEX
8
ENGRAVE
10
59.5640
20
117.5530
0
VERTEX
8
ENGRAVE
10
59.0320
20
117.5530
0
SEQEND
0
POLYLINE
8
ENGRAVE
66
1
70
1
0
VERTEX
8
ENGRAVE
10
61.6690
20
120.6500
0
VERTEX
8
ENGRAVE
10
61.4940
20
120.8700
0
VERTEX
8
ENGRAVE
10
61.1420
20
121.0210
0
VERTEX
8
ENGRAVE
10
59.5640
20
121.0500
0
VERTEX
8
ENGRAVE
10
59.5640
20
119.6020
0
VERTEX
8
ENGRAVE
10
60.9290
20
119.6040
0
VERTEX
8
ENGRAVE
10
61.3420
20
119.6980
0
VERTEX
8
ENGRAVE
10
61.5800
20
119.8830
0
VERTEX
8
ENGRAVE
10
61.6900
20
120.0900
0
VERTEX
8
ENGRAVE
10
61.7250
20
120.4150
0
SEQEND
0
POLYLINE
8
ENGRAVE
66
1
70
1
0
VERTEX
8
ENGRAVE
10
64.2940
20
121.4760
0
VERTEX
8
ENGRAVE
10
64.8980
20
121.4760
0
VERTEX
8
ENGRAVE
10
66.4730
20
117.5530
0
VERTEX
8
ENGRAVE
10
65.9300
20
117.5530
0
VERTEX
8
ENGRAVE
10
65.4820
20
118.7000
0
VERTEX
8
ENGRAVE
10
63.6950
20
118.7000
0
VERTEX
8
ENGRAVE
10
63.2440
20
117.5530
0
VERTEX
8
ENGRAVE
10
62.6930
20
117.5530
0
SEQEND
0
POLYLINE
8
ENGRAVE
66
1
70
1
0
VERTEX
8
ENGRAVE
10
64.5890
20
121.0750
0
VERTEX
8
ENGRAVE
10
63.8560
20
119.1150
0
VERTEX
8
ENGRAVE
10
65.3240
20
119.1150
0
SEQEND
0
POLYLINE
8
ENGRAVE
66
1
70
1
0
VERTEX
8
ENGRAVE
10
67.4840
20
119.1430
0
VERTEX
8
ENGRAVE
10
67.4840
20
117.5530
0
VERTEX
8
ENGRAVE
10
66.9520
20
117.5530
0
VERTEX
8
ENGRAVE
10
66.9520
20
121.4760
0
VERTEX
8
ENGRAVE
10
69.7390
20
121.4760
0
VERTEX
8
ENGRAVE
10
69.7390
20
121.0410
0
VERTEX
8
ENGRAVE
10
67.4840
20
121.0410
0
VERTEX
8
ENGRAVE
10
67.4840
20
119.5830
0
VERTEX
8
ENGRAVE
10
69.6720
20
119.5830
0
VERTEX
8
ENGRAVE
10
69.6720
20
119.1430
0
SEQEND
0
POLYLINE
8
ENGRAVE
66
1
70
1
0
VERTEX
8
ENGRAVE
10
70.4930
20
121.4760
0
VERTEX
8
ENGRAVE
10
71.0250
20
121.4760
0
VERTEX
8
ENGRAVE
10
71.0250
20
117.5530
0
VERTEX
8
ENGRAVE
10
70.4930
20
117.5530
0
SEQEND
0
POLYLINE
8
ENGRAVE
66
1
70
1
0
VERTEX
8
ENGRAVE
10
72.0190
20
117.5530
0
VERTEX
8
ENGRAVE
10
72.0190
20
121.4760
0
VERTEX
8
ENGRAVE
10
72.5500
20
121.4760
0
VERTEX
8
ENGRAVE
10
72.5500
20
119.5100
0
VERTEX
8
ENGRAVE
10
74.4400
20
121.4760
0
VERTEX
8
ENGRAVE
10
75.0670
20
121.4760
0
VERTEX
8
ENGRAVE
10
73.3970
20
119.7720
0
VERTEX
8
ENGRAVE
10
75.2900
20
117.5530
0
VERTEX
8
ENGRAVE
10
74.6300
20
117.5530
0
VERTEX
8
ENGRAVE
10
73.0620
20
119.4460
0
VERTEX
8
ENGRAVE
10
72.5500
20
119.0560
0
VERTEX
8
ENGRAVE
10
72.5500
20
117.5530
0
SEQEND
0
POLYLINE
8
ENGRAVE
66
1
70
1
0
VERTEX
8
ENGRAVE
10
80.3490
20
119.7960
0
VERTEX
8
ENGRAVE
10
80.0760
20
119.4100
0
VERTEX
8
ENGRAVE
10
79.6480
20
119.1640
0
VERTEX
8
ENGRAVE
10
79.2120
20
119.0850
0
VERTEX
8
ENGRAVE
10
77.9370
20
119.0820
0
VERTEX
8
ENGRAVE
10
77.9370
20
117.5530
0
VERTEX
8
ENGRAVE
10
77.4050
20
117.5530
0
VERTEX
8
ENGRAVE
10
77.4050
20
121.4760
0
VERTEX
8
ENGRAVE
10
79.3080
20
121.4630
0
VERTEX
8
ENGRAVE
10
79.6410
20
121.3980
0
VERTEX
8
ENGRAVE
10
79.9210
20
121.2780
0
VERTEX
8
ENGRAVE
10
80.2080
20
121.0330
0
VERTEX
8
ENGRAVE
10
80.3820
20
120.7050
0
VERTEX
8
ENGRAVE
10
80.4360
20
120.1860
0
SEQEND
0
POLYLINE
8
ENGRAVE
66
1
70
1
0
VERTEX
8
ENGRAVE
10
79.6770
20
120.8600
0
VERTEX
8
ENGRAVE
10
79.4580
20
120.9810
0
VERTEX
8
ENGRAVE
10
79.1650
20
121.0420
0
VERTEX
8
ENGRAVE
10
77.9370
20
121.0500
0
VERTEX
8
ENGRAVE
10
77.9370
20
119.5020
0
VERTEX
8
ENGRAVE
10
79.1830
20
119.5100
0
VERTEX
8
ENGRAVE
10
79.4690
20
119.5730
0
VERTEX
8
ENGRAVE
10
79.6820
20
119.6990
0
VERTEX
8
ENGRAVE
10
79.8250
20
119.8880
0
VERTEX
8
ENGRAVE
10
79.9050
20
120.2900
0
VERTEX
8
ENGRAVE
10
79.8690
20
120.5630
0
SEQEND
0
POLYLINE
8
ENGRAVE
66
1
70
1
0
VERTEX
8
ENGRAVE
10
70.5100
20
122.5000
0
VERTEX
8
ENGRAVE
10
71.0110
20
122.5000
0
VERTEX
8
ENGRAVE
10
71.0110
20
122.0210
0
VERTEX
8
ENGRAVE
10
70.5100
20
122.0210
0
SEQEND
0
POLYLINE
8
ENGRAVE
66
1
70
1
0
VERTEX
8
ENGRAVE
10
88.1560
20
117.9870
0
VERTEX
8
ENGRAVE
10
88.1560
20
117.5530
0
VERTEX
8
ENGRAVE
10
85.6420
20
117.5530
0
VERTEX
8
ENGRAVE
10
85.6420
20
121.4760
0
VERTEX
8
ENGRAVE
10
86.1740
20
121.4760
0
VERTEX
8
ENGRAVE
10
86.1740
20
117.9870
0
SEQEND
0
POLYLINE
8
ENGRAVE
66
1
70
1
0
VERTEX
8
ENGRAVE
10
88.8720
20
121.4760
0
VERTEX
8
ENGRAVE
10
89.4030
20
121.4760
0
VERTEX
8
ENGRAVE
10
89.4030
20
117.5530
0
VERTEX
8
ENGRAVE
10
88.8720
20
117.5530
0
SEQEND
0
POLYLINE
8
ENGRAVE
66
1
70
1
0
VERTEX
8
ENGRAVE
10
94.2580
20
121.4760
0
VERTEX
8
ENGRAVE
10
94.7900
20
121.4760
0
VERTEX
8
ENGRAVE
10
94.7900
20
117.5530
0
VERTEX
8
ENGRAVE
10
94.2580
20
117.5530
0
SEQEND
0
POLYLINE
8
ENGRAVE
66
1
70
1
0
VERTEX
8
ENGRAVE
10
84.8430
20
118.9560
0
VERTEX
8
ENGRAVE
10
84.7110
20
118.5490
0
VERTEX
8
ENGRAVE
10
84.5070
20
118.1970
0
VERTEX
8
ENGRAVE
10
84.2370
20
117.9130
0
VERTEX
8
ENGRAVE
10
83.9020
20
117.6980
0
VERTEX
8
ENGRAVE
10
83.5120
20
117.5590
0
VERTEX
8
ENGRAVE
10
83.0710
20
117.5000
0
VERTEX
8
ENGRAVE
10
82.4970
20
117.5370
0
VERTEX
8
ENGRAVE
10
82.0930
20
117.6540
0
VERTEX
8
ENGRAVE
10
81.7440
20
117.8490
0
VERTEX
8
ENGRAVE
10
81.5240
20
118.0420
0
VERTEX
8
ENGRAVE
10
81.2900
20
118.3600
0
VERTEX
8
ENGRAVE
10
81.1230
20
118.7430
0
VERTEX
8
ENGRAVE
10
81.0310
20
119.1760
0
VERTEX
8
ENGRAVE
10
81.0150
20
119.7170
0
VERTEX
8
ENGRAVE
10
81.0930
20
120.2200
0
VERTEX
8
ENGRAVE
10
81.1960
20
120.5140
0
VERTEX
8
ENGRAVE
10
81.3400
20
120.7750
0
VERTEX
8
ENGRAVE
10
81.6320
20
121.1040
0
VERTEX
8
ENGRAVE
10
82.1410
20
121.4010
0
VERTEX
8
ENGRAVE
10
82.6080
20
121.5130
0
VERTEX
8
ENGRAVE
10
82.9590
20
121.5340
0
VERTEX
8
ENGRAVE
10
83.4120
20
121.4960
0
VERTEX
8
ENGRAVE
10
83.8150
20
121.3820
0
VERTEX
8
ENGRAVE
10
84.1650
20
121.1920
0
VERTEX
8
ENGRAVE
10
84.3850
20
121.0040
0
VERTEX
8
ENGRAVE
10
84.7140
20
120.5120
0
VERTEX
8
ENGRAVE
10
84.8180
20
120.2150
0
VERTEX
8
ENGRAVE
10
84.8930
20
119.7730
0
SEQEND
0
POLYLINE
8
ENGRAVE
66
1
70
1
0
VERTEX
8
ENGRAVE
10
84.2680
20
120.1860
0
VERTEX
8
ENGRAVE
10
84.1250
20
120.5030
0
VERTEX
8
ENGRAVE
10
83.9170
20
120.7620
0
VERTEX
8
ENGRAVE
10
83.4450
20
121.0330
0
VERTEX
8
ENGRAVE
10
83.0890
20
121.0960
0
VERTEX
8
ENGRAVE
10
82.7020
20
121.0830
0
VERTEX
8
ENGRAVE
10
82.3620
20
120.9970
0
VERTEX
8
ENGRAVE
10
82.0770
20
120.8360
0
VERTEX
8
ENGRAVE
10
81.7300
20
120.4110
0
VERTEX
8
ENGRAVE
10
81.5650
20
119.8170
0
VERTEX
8
ENGRAVE
10
81.5540
20
119.3880
0
VERTEX
8
ENGRAVE
10
81.6100
20
118.9910
0
VERTEX
8
ENGRAVE
10
81.8510
20
118.4520
0
VERTEX
8
ENGRAVE
10
82.2650
20
118.0850
0
VERTEX
8
ENGRAVE
10
82.7010
20
117.9460
0
VERTEX
8
ENGRAVE
10
83.3320
20
117.9670
0
VERTEX
8
ENGRAVE
10
83.8380
20
118.1970
0
VERTEX
8
ENGRAVE
10
84.1270
20
118.5290
0
VERTEX
8
ENGRAVE
10
84.3010
20
118.9750
0
VERTEX
8
ENGRAVE
10
84.3550
20
119.6760
0
SEQEND
0
POLYLINE
8
ENGRAVE
66
1
70
1
0
VERTEX
8
ENGRAVE
10
93.4030
20
118.2410
0
VERTEX
8
ENGRAVE
10
93.2620
20
117.9960
0
VERTEX
8
ENGRAVE
10
92.9580
20
117.7390
0
VERTEX
8
ENGRAVE
10
92.5350
20
117.5720
0
VERTEX
8
ENGRAVE
10
92.1450
20
117.5090
0
VERTEX
8
ENGRAVE
10
91.5760
20
117.5070
0
VERTEX
8
ENGRAVE
10
91.0990
20
117.5870
0
VERTEX
8
ENGRAVE
10
90.7180
20
117.7470
0
VERTEX
8
ENGRAVE
10
90.4340
20
117.9860
0
VERTEX
8
ENGRAVE
10
90.1880
20
118.4940
0
VERTEX
8
ENGRAVE
10
90.7030
20
118.5970
0
VERTEX
8
ENGRAVE
10
90.8430
20
118.2910
0
VERTEX
8
ENGRAVE
10
91.0820
20
118.0780
0
VERTEX
8
ENGRAVE
10
91.4240
20
117.9540
0
VERTEX
8
ENGRAVE
10
91.8700
20
117.9120
0
VERTEX
8
ENGRAVE
10
92.3260
20
117.9570
0
VERTEX
8
ENGRAVE
10
92.6650
20
118.0890
0
VERTEX
8
ENGRAVE
10
92.8440
20
118.2570
0
VERTEX
8
ENGRAVE
10
92.9420
20
118.5410
0
VERTEX
8
ENGRAVE
10
92.8880
20
118.8690
0
VERTEX
8
ENGRAVE
10
92.6410
20
119.1020
0
VERTEX
8
ENGRAVE
10
91.0890
20
119.5480
0
VERTEX
8
ENGRAVE
10
90.7860
20
119.7010
0
VERTEX
8
ENGRAVE
10
90.5810
20
119.8780
0
VERTEX
8
ENGRAVE
10
90.4080
20
120.2010
0
VERTEX
8
ENGRAVE
10
90.3760
20
120.5830
0
VERTEX
8
ENGRAVE
10
90.4680
20
120.9310
0
VERTEX
8
ENGRAVE
10
90.6840
20
121.2040
0
VERTEX
8
ENGRAVE
10
90.9250
20
121.3590
0
VERTEX
8
ENGRAVE
10
91.2260
20
121.4660
0
VERTEX
8
ENGRAVE
10
91.8610
20
121.5340
0
VERTEX
8
ENGRAVE
10
92.6430
20
121.4340
0
VERTEX
8
ENGRAVE
10
93.0760
20
121.1810
0
VERTEX
8
ENGRAVE
10
93.2310
20
120.9800
0
VERTEX
8
ENGRAVE
10
93.3790
20
120.6320
0
VERTEX
8
ENGRAVE
10
92.8550
20
120.5400
0
VERTEX
8
ENGRAVE
10
92.6960
20
120.8530
0
VERTEX
8
ENGRAVE
10
92.4760
20
121.0190
0
VERTEX
8
ENGRAVE
10
92.0960
20
121.1210
0
VERTEX
8
ENGRAVE
10
91.6770
20
121.1270
0
VERTEX
8
ENGRAVE
10
91.3060
20
121.0570
0
VERTEX
8
ENGRAVE
10
91.0480
20
120.9090
0
VERTEX
8
ENGRAVE
10
90.9120
20
120.6840
0
VERTEX
8
ENGRAVE
10
90.8940
20
120.4420
0
VERTEX
8
ENGRAVE
10
90.9860
20
120.2130
0
VERTEX
8
ENGRAVE
10
91.2280
20
120.0290
0
VERTEX
8
ENGRAVE
10
92.6550
20
119.6350
0
VERTEX
8
ENGRAVE
10
93.1780
20
119.3520
0
VERTEX
8
ENGRAVE
10
93.3550
20
119.1290
0
VERTEX
8
ENGRAVE
10
93.4490
20
118.8730
0
VERTEX
8
ENGRAVE
10
93.4660
20
118.5300
0
SEQEND
0
POLYLINE
8
ENGRAVE
66
1
70
1
0
VERTEX
8
ENGRAVE
10
88.8880
20
122.5000
0
VERTEX
8
ENGRAVE
10
89.3890
20
122.5000
0
VERTEX
8
ENGRAVE
10
89.3890
20
122.0210
0
VERTEX
8
ENGRAVE
10
88.8880
20
122.0210
0
SEQEND
0
POLYLINE
8
ENGRAVE
66
1
70
1
0
VERTEX
8
ENGRAVE
10
94.2750
20
122.5000
0
VERTEX
8
ENGRAVE
10
94.7760
20
122.5000
0
VERTEX
8
ENGRAVE
10
94.7760
20
122.0210
0
VERTEX
8
ENGRAVE
10
94.2750
20
122.0210
0
SEQEND
0
POLYLINE
8
ENGRAVE
66
1
70
1
0
VERTEX
8
ENGRAVE
10
75.5250
20
42.5410
0
VERTEX
8
ENGRAVE
10
75.1350
20
42.6730
0
VERTEX
8
ENGRAVE
10
74.8160
20
42.8880
0
VERTEX
8
ENGRAVE
10
74.5780
20
43.1820
0
VERTEX
8
ENGRAVE
10
74.4520
20
43.4700
0
VERTEX
8
ENGRAVE
10
74.3830
20
43.8870
0
VERTEX
8
ENGRAVE
10
74.3810
20
46.4760
0
VERTEX
8
ENGRAVE
10
74.9130
20
46.4760
0
VERTEX
8
ENGRAVE
10
74.9150
20
43.9180
0
VERTEX
8
ENGRAVE
10
75.0110
20
43.4720
0
VERTEX
8
ENGRAVE
10
75.1330
20
43.2660
0
VERTEX
8
ENGRAVE
10
75.3710
20
43.0650
0
VERTEX
8
ENGRAVE
10
75.6860
20
42.9540
0
VERTEX
8
ENGRAVE
10
75.9730
20
42.9290
0
VERTEX
8
ENGRAVE
10
76.2690
20
42.9550
0
VERTEX
8
ENGRAVE
10
76.5980
20
43.0700
0
VERTEX
8
ENGRAVE
10
76.8520
20
43.2770
0
VERTEX
8
ENGRAVE
10
76.9840
20
43.4900
0
VERTEX
8
ENGRAVE
10
77.0860
20
43.9510
0
VERTEX
8
ENGRAVE
10
77.0890
20
46.4760
0
VERTEX
8
ENGRAVE
10
77.6180
20
46.4760
0
VERTEX
8
ENGRAVE
10
77.6160
20
43.9350
0
VERTEX
8
ENGRAVE
10
77.5680
20
43.5850
0
VERTEX
8
ENGRAVE
10
77.4550
20
43.2780
0
VERTEX
8
ENGRAVE
10
77.1730
20
42.9030
0
VERTEX
8
ENGRAVE
10
76.6930
20
42.6140
0
VERTEX
8
ENGRAVE
10
76.1710
20
42.5050
0
SEQEND
0
POLYLINE
8
ENGRAVE
66
1
70
1
0
VERTEX
8
ENGRAVE
10
56.8260
20
42.5530
0
VERTEX
8
ENGRAVE
10
56.3530
20
42.5530
0
VERTEX
8
ENGRAVE
10
56.3530
20
46.4760
0
VERTEX
8
ENGRAVE
10
56.9710
20
46.4760
0
VERTEX
8
ENGRAVE
10
59.0920
20
43.1130
0
VERTEX
8
ENGRAVE
10
59.0590
20
46.4760
0
VERTEX
8
ENGRAVE
10
59.5380
20
46.4760
0
VERTEX
8
ENGRAVE
10
59.5380
20
42.5530
0
VERTEX
8
ENGRAVE
10
58.8970
20
42.5530
0
VERTEX
8
ENGRAVE
10
56.7980
20
45.8940
0
SEQEND
0
POLYLINE
8
ENGRAVE
66
1
70
1
0
VERTEX
8
ENGRAVE
10
65.1190
20
46.0410
0
VERTEX
8
ENGRAVE
10
65.1190
20
44.7830
0
VERTEX
8
ENGRAVE
10
67.3960
20
44.7830
0
VERTEX
8
ENGRAVE
10
67.3960
20
44.3540
0
VERTEX
8
ENGRAVE
10
65.1190
20
44.3540
0
VERTEX
8
ENGRAVE
10
65.1190
20
42.9870
0
VERTEX
8
ENGRAVE
10
67.6770
20
42.9870
0
VERTEX
8
ENGRAVE
10
67.6770
20
42.5530
0
VERTEX
8
ENGRAVE
10
64.5870
20
42.5530
0
VERTEX
8
ENGRAVE
10
64.5870
20
46.4760
0
VERTEX
8
ENGRAVE
10
67.5630
20
46.4760
0
VERTEX
8
ENGRAVE
10
67.5630
20
46.0410
0
SEQEND
0
POLYLINE
8
ENGRAVE
66
1
70
1
0
VERTEX
8
ENGRAVE
10
55.5280
20
43.8490
0
VERTEX
8
ENGRAVE
10
55.3770
20
43.4550
0
VERTEX
8
ENGRAVE
10
55.1560
20
43.1200
0
VERTEX
8
ENGRAVE
10
54.8700
20
42.8530
0
VERTEX
8
ENGRAVE
10
54.5200
20
42.6560
0
VERTEX
8
ENGRAVE
10
54.1170
20
42.5370
0
VERTEX
8
ENGRAVE
10
53.5450
20
42.5000
0
VERTEX
8
ENGRAVE
10
53.1010
20
42.5590
0
VERTEX
8
ENGRAVE
10
52.7110
20
42.6960
0
VERTEX
8
ENGRAVE
10
52.3770
20
42.9090
0
VERTEX
8
ENGRAVE
10
52.1700
20
43.1150
0
VERTEX
8
ENGRAVE
10
51.9520
20
43.4510
0
VERTEX
8
ENGRAVE
10
51.8040
20
43.8470
0
VERTEX
8
ENGRAVE
10
51.7300
20
44.2910
0
VERTEX
8
ENGRAVE
10
51.7260
20
44.7170
0
VERTEX
8
ENGRAVE
10
51.8030
20
45.2200
0
VERTEX
8
ENGRAVE
10
51.9060
20
45.5140
0
VERTEX
8
ENGRAVE
10
52.0500
20
45.7750
0
VERTEX
8
ENGRAVE
10
52.3430
20
46.1040
0
VERTEX
8
ENGRAVE
10
52.7120
20
46.3430
0
VERTEX
8
ENGRAVE
10
52.9990
20
46.4490
0
VERTEX
8
ENGRAVE
10
53.4900
20
46.5290
0
VERTEX
8
ENGRAVE
10
53.9030
20
46.5250
0
VERTEX
8
ENGRAVE
10
54.3310
20
46.4480
0
VERTEX
8
ENGRAVE
10
54.6180
20
46.3410
0
VERTEX
8
ENGRAVE
10
55.0960
20
46.0040
0
VERTEX
8
ENGRAVE
10
55.2790
20
45.7770
0
VERTEX
8
ENGRAVE
10
55.4640
20
45.4160
0
VERTEX
8
ENGRAVE
10
55.6100
20
44.6540
0
SEQEND
0
POLYLINE
8
ENGRAVE
66
1
70
1
0
VERTEX
8
ENGRAVE
10
54.9380
20
45.2980
0
VERTEX
8
ENGRAVE
10
54.7730
20
45.5960
0
VERTEX
8
ENGRAVE
10
54.5450
20
45.8330
0
VERTEX
8
ENGRAVE
10
54.0430
20
46.0620
0
VERTEX
8
ENGRAVE
10
53.6700
20
46.1000
0
VERTEX
8
ENGRAVE
10
53.2930
20
46.0630
0
VERTEX
8
ENGRAVE
10
52.7880
20
45.8360
0
VERTEX
8
ENGRAVE
10
52.5590
20
45.6020
0
VERTEX
8
ENGRAVE
10
52.3930
20
45.3050
0
VERTEX
8
ENGRAVE
10
52.2650
20
44.6780
0
VERTEX
8
ENGRAVE
10
52.2760
20
44.2500
0
VERTEX
8
ENGRAVE
10
52.3540
20
43.8710
0
VERTEX
8
ENGRAVE
10
52.6330
20
43.3620
0
VERTEX
8
ENGRAVE
10
52.9760
20
43.0850
0
VERTEX
8
ENGRAVE
10
53.5350
20
42.9330
0
VERTEX
8
ENGRAVE
10
54.1570
20
42.9960
0
VERTEX
8
ENGRAVE
10
54.5490
20
43.1970
0
VERTEX
8
ENGRAVE
10
54.8920
20
43.6310
0
VERTEX
8
ENGRAVE
10
55.0370
20
44.1040
0
VERTEX
8
ENGRAVE
10
55.0550
20
44.8130
0
SEQEND
0
POLYLINE
8
ENGRAVE
66
1
70
1
0
VERTEX
8
ENGRAVE
10
61.7330
20
46.0330
0
VERTEX
8
ENGRAVE
10
61.2690
20
45.7600
0
VERTEX
8
ENGRAVE
10
60.9620
20
45.2960
0
VERTEX
8
ENGRAVE
10
60.8360
20
44.6750
0
VERTEX
8
ENGRAVE
10
60.8470
20
44.2550
0
VERTEX
8
ENGRAVE
10
60.9260
20
43.8820
0
VERTEX
8
ENGRAVE
10
61.0740
20
43.5600
0
VERTEX
8
ENGRAVE
10
61.3710
20
43.2150
0
VERTEX
8
ENGRAVE
10
61.6530
20
43.0440
0
VERTEX
8
ENGRAVE
10
61.9830
20
42.9520
0
VERTEX
8
ENGRAVE
10
62.3900
20
42.9430
0
VERTEX
8
ENGRAVE
10
62.8230
20
43.0650
0
VERTEX
8
ENGRAVE
10
63.1830
20
43.3340
0
VERTEX
8
ENGRAVE
10
63.4680
20
43.7500
0
VERTEX
8
ENGRAVE
10
63.9030
20
43.5330
0
VERTEX
8
ENGRAVE
10
63.6780
20
43.1670
0
VERTEX
8
ENGRAVE
10
63.4670
20
42.9420
0
VERTEX
8
ENGRAVE
10
63.2220
20
42.7620
0
VERTEX
8
ENGRAVE
10
62.8490
20
42.5930
0
VERTEX
8
ENGRAVE
10
62.4310
20
42.5080
0
VERTEX
8
ENGRAVE
10
61.9740
20
42.5070
0
VERTEX
8
ENGRAVE
10
61.5510
20
42.5860
0
VERTEX
8
ENGRAVE
10
61.2670
20
42.6970
0
VERTEX
8
ENGRAVE
10
60.9380
20
42.9110
0
VERTEX
8
ENGRAVE
10
60.7330
20
43.1160
0
VERTEX
8
ENGRAVE
10
60.5660
20
43.3590
0
VERTEX
8
ENGRAVE
10
60.4030
20
43.7380
0
VERTEX
8
ENGRAVE
10
60.2920
20
44.5320
0
VERTEX
8
ENGRAVE
10
60.3120
20
44.8910
0
VERTEX
8
ENGRAVE
10
60.4190
20
45.3690
0
VERTEX
8
ENGRAVE
10
60.7030
20
45.8920
0
VERTEX
8
ENGRAVE
10
61.0170
20
46.1940
0
VERTEX
8
ENGRAVE
10
61.2660
20
46.3430
0
VERTEX
8
ENGRAVE
10
61.6990
20
46.4860
0
VERTEX
8
ENGRAVE
10
62.0260
20
46.5290
0
VERTEX
8
ENGRAVE
10
62.4440
20
46.5240
0
VERTEX
8
ENGRAVE
10
62.8790
20
46.4460
0
VERTEX
8
ENGRAVE
10
63.2480
20
46.2890
0
VERTEX
8
ENGRAVE
10
63.4810
20
46.1210
0
VERTEX
8
ENGRAVE
10
63.6730
20
45.9100
0
VERTEX
8
ENGRAVE
10
63.8660
20
45.5620
0
VERTEX
8
ENGRAVE
10
63.3630
20
45.3950
0
VERTEX
8
ENGRAVE
10
63.1390
20
45.7480
0
VERTEX
8
ENGRAVE
10
62.7330
20
46.0110
0
VERTEX
8
ENGRAVE
10
62.2070
20
46.1000
0
SEQEND
0
POLYLINE
8
ENGRAVE
66
1
70
1
0
VERTEX
8
ENGRAVE
10
69.8750
20
45.2270
0
VERTEX
8
ENGRAVE
10
69.9780
20
45.5230
0
VERTEX
8
ENGRAVE
10
70.2080
20
45.9020
0
VERTEX
8
ENGRAVE
10
70.5270
20
46.1990
0
VERTEX
8
ENGRAVE
10
70.9210
20
46.4030
0
VERTEX
8
ENGRAVE
10
71.3900
20
46.5130
0
VERTEX
8
ENGRAVE
10
71.8720
20
46.5320
0
VERTEX
8
ENGRAVE
10
72.4380
20
46.4550
0
VERTEX
8
ENGRAVE
10
72.8020
20
46.3140
0
VERTEX
8
ENGRAVE
10
73.1620
20
46.0280
0
VERTEX
8
ENGRAVE
10
73.4290
20
45.6100
0
VERTEX
8
ENGRAVE
10
72.9220
20
45.4590
0
VERTEX
8
ENGRAVE
10
72.7230
20
45.7480
0
VERTEX
8
ENGRAVE
10
72.5190
20
45.9140
0
VERTEX
8
ENGRAVE
10
72.2720
20
46.0250
0
VERTEX
8
ENGRAVE
10
71.9000
20
46.0940
0
VERTEX
8
ENGRAVE
10
71.2380
20
46.0340
0
VERTEX
8
ENGRAVE
10
70.7670
20
45.7670
0
VERTEX
8
ENGRAVE
10
70.5630
20
45.5110
0
VERTEX
8
ENGRAVE
10
70.3910
20
45.0760
0
VERTEX
8
ENGRAVE
10
70.3330
20
44.5320
0
VERTEX
8
ENGRAVE
10
70.3940
20
43.9880
0
VERTEX
8
ENGRAVE
10
70.5770
20
43.5440
0
VERTEX
8
ENGRAVE
10
70.9700
20
43.1400
0
VERTEX
8
ENGRAVE
10
71.5120
20
42.9460
0
VERTEX
8
ENGRAVE
10
72.1410
20
42.9580
0
VERTEX
8
ENGRAVE
10
72.6750
20
43.1240
0
VERTEX
8
ENGRAVE
10
73.0250
20
43.3630
0
VERTEX
8
ENGRAVE
10
73.0250
20
44.0700
0
VERTEX
8
ENGRAVE
10
71.8530
20
44.0700
0
VERTEX
8
ENGRAVE
10
71.8530
20
44.5160
0
VERTEX
8
ENGRAVE
10
73.5150
20
44.5160
0
VERTEX
8
ENGRAVE
10
73.5150
20
43.1630
0
VERTEX
8
ENGRAVE
10
73.2430
20
42.9320
0
VERTEX
8
ENGRAVE
10
72.9260
20
42.7470
0
VERTEX
8
ENGRAVE
10
72.1810
20
42.5250
0
VERTEX
8
ENGRAVE
10
71.4160
20
42.5200
0
VERTEX
8
ENGRAVE
10
70.9920
20
42.6180
0
VERTEX
8
ENGRAVE
10
70.7090
20
42.7430
0
VERTEX
8
ENGRAVE
10
70.2500
20
43.1140
0
VERTEX
8
ENGRAVE
10
70.0780
20
43.3580
0
VERTEX
8
ENGRAVE
10
69.9080
20
43.7390
0
VERTEX
8
ENGRAVE
10
69.7960
20
44.4090
0
SEQEND
0
POLYLINE
8
ENGRAVE
66
1
70
1
0
VERTEX
8
ENGRAVE
10
53.3470
20
47.3250
0
VERTEX
8
ENGRAVE
10
53.3470
20
46.8120
0
VERTEX
8
ENGRAVE
10
52.8870
20
46.8120
0
VERTEX
8
ENGRAVE
10
52.8870
20
47.3250
0
SEQEND
0
POLYLINE
8
ENGRAVE
66
1
70
1
0
VERTEX
8
ENGRAVE
10
54.4380
20
47.3250
0
VERTEX
8
ENGRAVE
10
54.4380
20
46.8120
0
VERTEX
8
ENGRAVE
10
53.9840
20
46.8120
0
VERTEX
8
ENGRAVE
10
53.9840
20
47.3250
0
SEQEND
0
POLYLINE
8
ENGRAVE
66
1
70
1
0
VERTEX
8
ENGRAVE
10
75.6780
20
47.3250
0
VERTEX
8
ENGRAVE
10
75.6780
20
46.8120
0
VERTEX
8
ENGRAVE
10
75.2190
20
46.8120
0
VERTEX
8
ENGRAVE
10
75.2190
20
47.3250
0
SEQEND
0
POLYLINE
8
ENGRAVE
66
1
70
1
0
VERTEX
8
ENGRAVE
10
78.6430
20
46.4760
0
VERTEX
8
ENGRAVE
10
79.9620
20
43.0210
0
VERTEX
8
ENGRAVE
10
81.2760
20
46.4760
0
VERTEX
8
ENGRAVE
10
81.8360
20
46.4760
0
VERTEX
8
ENGRAVE
10
80.2350
20
42.5530
0
VERTEX
8
ENGRAVE
10
79.6840
20
42.5530
0
VERTEX
8
ENGRAVE
10
78.0830
20
46.4760
0
SEQEND
0
POLYLINE
8
ENGRAVE
66
1
70
1
0
VERTEX
8
ENGRAVE
10
82.8600
20
46.0410
0
VERTEX
8
ENGRAVE
10
82.8600
20
44.7830
0
VERTEX
8
ENGRAVE
10
85.1370
20
44.7830
0
VERTEX
8
ENGRAVE
10
85.1370
20
44.3540
0
VERTEX
8
ENGRAVE
10
82.8600
20
44.3540
0
VERTEX
8
ENGRAVE
10
82.8600
20
42.9870
0
VERTEX
8
ENGRAVE
10
85.4180
20
42.9870
0
VERTEX
8
ENGRAVE
10
85.4180
20
42.5530
0
VERTEX
8
ENGRAVE
10
82.3290
20
42.5530
0
VERTEX
8
ENGRAVE
10
82.3290
20
46.4760
0
VERTEX
8
ENGRAVE
10
85.3040
20
46.4760
0
VERTEX
8
ENGRAVE
10
85.3040
20
46.0410
0
SEQEND
0
POLYLINE
8
ENGRAVE
66
1
70
1
0
VERTEX
8
ENGRAVE
10
86.6040
20
42.5530
0
VERTEX
8
ENGRAVE
10
86.1310
20
42.5530
0
VERTEX
8
ENGRAVE
10
86.1310
20
46.4760
0
VERTEX
8
ENGRAVE
10
86.7490
20
46.4760
0
VERTEX
8
ENGRAVE
10
88.8700
20
43.1130
0
VERTEX
8
ENGRAVE
10
88.8370
20
46.4760
0
VERTEX
8
ENGRAVE
10
89.3160
20
46.4760
0
VERTEX
8
ENGRAVE
10
89.3160
20
42.5530
0
VERTEX
8
ENGRAVE
10
88.6760
20
42.5530
0
VERTEX
8
ENGRAVE
10
86.5770
20
45.8940
0
SEQEND
0
POLYLINE
8
ENGRAVE
66
1
70
1
0
VERTEX
8
ENGRAVE
10
92.7620
20
42.9870
0
VERTEX
8
ENGRAVE
10
92.7620
20
42.5530
0
VERTEX
8
ENGRAVE
10
90.2480
20
42.5530
0
VERTEX
8
ENGRAVE
10
90.2480
20
46.4760
0
VERTEX
8
ENGRAVE
10
90.7800
20
46.4760
0
VERTEX
8
ENGRAVE
10
90.7800
20
42.9870
0
SEQEND
0
POLYLINE
8
ENGRAVE
66
1
70
1
0
VERTEX
8
ENGRAVE
10
93.4780
20
46.4760
0
VERTEX
8
ENGRAVE
10
94.0090
20
46.4760
0
VERTEX
8
ENGRAVE
10
94.0090
20
42.5530
0
VERTEX
8
ENGRAVE
10
93.4780
20
42.5530
0
SEQEND
0
POLYLINE
8
ENGRAVE
66
1
70
1
0
VERTEX
8
ENGRAVE
10
95.0030
20
42.5530
0
VERTEX
8
ENGRAVE
10
95.0030
20
46.4760
0
VERTEX
8
ENGRAVE
10
95.5350
20
46.4760
0
VERTEX
8
ENGRAVE
10
95.5350
20
44.5100
0
VERTEX
8
ENGRAVE
10
97.4250
20
46.4760
0
VERTEX
8
ENGRAVE
10
98.0510
20
46.4760
0
VERTEX
8
ENGRAVE
10
96.3810
20
44.7720
0
VERTEX
8
ENGRAVE
10
98.2740
20
42.5530
0
VERTEX
8
ENGRAVE
10
97.6140
20
42.5530
0
VERTEX
8
ENGRAVE
10
96.0470
20
44.4460
0
VERTEX
8
ENGRAVE
10
95.5350
20
44.0560
0
VERTEX
8
ENGRAVE
10
95.5350
20
42.5530
0
SEQEND
0
POLYLINE
8
ENGRAVE
66
1
70
1
0
VERTEX
8
ENGRAVE
10
76.7690
20
46.8120
0
VERTEX
8
ENGRAVE
10
76.3160
20
46.8120
0
VERTEX
8
ENGRAVE
10
76.3160
20
47.3250
0
VERTEX
8
ENGRAVE
10
76.7690
20
47.3250
0
SEQEND
0
POLYLINE
8
ENGRAVE
66
1
70
1
0
VERTEX
8
ENGRAVE
10
93.9950
20
47.5000
0
VERTEX
8
ENGRAVE
10
93.9950
20
47.0210
0
VERTEX
8
ENGRAVE
10
93.4940
20
47.0210
0
VERTEX
8
ENGRAVE
10
93.4940
20
47.5000
0
SEQEND
0
ENDSEC
0
EOF
